%FSTAX25Y25*%
%MOIN*%
G70*
G01*
G75*
G04 Layer_Physical_Order=4*
G04 Layer_Color=16711680*
%ADD10O,0.07087X0.01181*%
%ADD11O,0.01181X0.07087*%
%ADD12O,0.07284X0.01378*%
%ADD13R,0.08071X0.02756*%
%ADD14R,0.02165X0.01772*%
%ADD15R,0.02756X0.03543*%
%ADD16R,0.03543X0.02756*%
%ADD17R,0.02047X0.02047*%
%ADD18R,0.02047X0.02047*%
%ADD19R,0.01772X0.02165*%
%ADD20C,0.00669*%
%ADD21C,0.00700*%
%ADD22C,0.00500*%
%ADD23C,0.01000*%
%ADD24C,0.02000*%
%ADD25C,0.03000*%
%ADD26O,0.15748X0.07874*%
%ADD27O,0.07874X0.15748*%
%ADD28O,0.07874X0.17716*%
%ADD29R,0.05906X0.05906*%
%ADD30C,0.05906*%
%ADD31C,0.06000*%
%ADD32P,0.06711X8X112.5*%
%ADD33O,0.05600X0.11200*%
%ADD34C,0.12600*%
%ADD35C,0.01969*%
%ADD36C,0.01600*%
%ADD37C,0.01595*%
%ADD38C,0.05000*%
%ADD39C,0.02800*%
%ADD40C,0.04000*%
%ADD41R,0.70200X0.25400*%
%ADD42O,0.15811X0.07937*%
%ADD43O,0.07937X0.15811*%
%ADD44O,0.07937X0.17779*%
%ADD45C,0.07543*%
G04:AMPARAMS|DCode=46|XSize=95.433mil|YSize=95.433mil|CornerRadius=0mil|HoleSize=0mil|Usage=FLASHONLY|Rotation=0.000|XOffset=0mil|YOffset=0mil|HoleType=Round|Shape=Relief|Width=10mil|Gap=10mil|Entries=4|*
%AMTHD46*
7,0,0,0.09543,0.07543,0.01000,45*
%
%ADD46THD46*%
%ADD47C,0.07550*%
G04:AMPARAMS|DCode=48|XSize=95.5mil|YSize=95.5mil|CornerRadius=0mil|HoleSize=0mil|Usage=FLASHONLY|Rotation=0.000|XOffset=0mil|YOffset=0mil|HoleType=Round|Shape=Relief|Width=10mil|Gap=10mil|Entries=4|*
%AMTHD48*
7,0,0,0.09550,0.07550,0.01000,45*
%
%ADD48THD48*%
%ADD49C,0.07800*%
%ADD50C,0.07400*%
%ADD51C,0.16600*%
G04:AMPARAMS|DCode=52|XSize=70mil|YSize=70mil|CornerRadius=0mil|HoleSize=0mil|Usage=FLASHONLY|Rotation=0.000|XOffset=0mil|YOffset=0mil|HoleType=Round|Shape=Relief|Width=10mil|Gap=10mil|Entries=4|*
%AMTHD52*
7,0,0,0.07000,0.05000,0.01000,45*
%
%ADD52THD52*%
%ADD53C,0.06800*%
%ADD54C,0.05600*%
%AMTHOVALD55*
21,1,0.07874,0.09937,0,0,180.0*
1,1,0.09937,0.03937,0.00000*
1,1,0.09937,-0.03937,0.00000*
21,0,0.07874,0.07937,0,0,180.0*
1,0,0.07937,0.03937,0.00000*
1,0,0.07937,-0.03937,0.00000*
4,0,4,0.03583,0.00354,0.07097,0.03867,0.07804,0.03160,0.04291,-0.00354,0.03583,0.00354,0.0*
4,0,4,-0.04291,0.00354,-0.07804,-0.03160,-0.07097,-0.03867,-0.03583,-0.00354,-0.04291,0.00354,0.0*
4,0,4,0.04291,0.00354,0.07804,-0.03160,0.07097,-0.03867,0.03583,-0.00354,0.04291,0.00354,0.0*
4,0,4,-0.03583,0.00354,-0.07097,0.03867,-0.07804,0.03160,-0.04291,-0.00354,-0.03583,0.00354,0.0*
%
%ADD55THOVALD55*%

%AMTHOVALD56*
21,1,0.07874,0.09937,0,0,270.0*
1,1,0.09937,0.00000,0.03937*
1,1,0.09937,0.00000,-0.03937*
21,0,0.07874,0.07937,0,0,270.0*
1,0,0.07937,0.00000,0.03937*
1,0,0.07937,0.00000,-0.03937*
4,0,4,-0.00354,0.03583,-0.03867,0.07097,-0.03160,0.07804,0.00354,0.04291,-0.00354,0.03583,0.0*
4,0,4,-0.00354,-0.04291,0.03160,-0.07804,0.03867,-0.07097,0.00354,-0.03583,-0.00354,-0.04291,0.0*
4,0,4,-0.00354,0.04291,0.03160,0.07804,0.03867,0.07097,0.00354,0.03583,-0.00354,0.04291,0.0*
4,0,4,-0.00354,-0.03583,-0.03867,-0.07097,-0.03160,-0.07804,0.00354,-0.04291,-0.00354,-0.03583,0.0*
%
%ADD56THOVALD56*%

G04:AMPARAMS|DCode=57|XSize=98mil|YSize=98mil|CornerRadius=0mil|HoleSize=0mil|Usage=FLASHONLY|Rotation=0.000|XOffset=0mil|YOffset=0mil|HoleType=Round|Shape=Relief|Width=10mil|Gap=10mil|Entries=4|*
%AMTHD57*
7,0,0,0.09800,0.07800,0.01000,45*
%
%ADD57THD57*%
G04:AMPARAMS|DCode=58|XSize=94mil|YSize=94mil|CornerRadius=0mil|HoleSize=0mil|Usage=FLASHONLY|Rotation=0.000|XOffset=0mil|YOffset=0mil|HoleType=Round|Shape=Relief|Width=10mil|Gap=10mil|Entries=4|*
%AMTHD58*
7,0,0,0.09400,0.07400,0.01000,45*
%
%ADD58THD58*%
G04:AMPARAMS|DCode=59|XSize=88mil|YSize=88mil|CornerRadius=0mil|HoleSize=0mil|Usage=FLASHONLY|Rotation=0.000|XOffset=0mil|YOffset=0mil|HoleType=Round|Shape=Relief|Width=10mil|Gap=10mil|Entries=4|*
%AMTHD59*
7,0,0,0.08800,0.06800,0.01000,45*
%
%ADD59THD59*%
G04:AMPARAMS|DCode=60|XSize=76mil|YSize=76mil|CornerRadius=0mil|HoleSize=0mil|Usage=FLASHONLY|Rotation=0.000|XOffset=0mil|YOffset=0mil|HoleType=Round|Shape=Relief|Width=10mil|Gap=10mil|Entries=4|*
%AMTHD60*
7,0,0,0.07600,0.05600,0.01000,45*
%
%ADD60THD60*%
%ADD61R,0.07480X0.03150*%
%ADD62R,0.07480X0.12205*%
%ADD63R,0.06299X0.02559*%
%ADD64R,0.08661X0.11811*%
%ADD65R,0.01969X0.01181*%
%ADD66C,0.01181*%
%ADD67R,0.03543X0.04724*%
%ADD68R,0.06693X0.06614*%
%ADD69R,0.08661X0.07874*%
%ADD70C,0.05000*%
%ADD71C,0.01300*%
%ADD72C,0.01500*%
G36*
X03271Y01186D02*
X03247D01*
Y0126D01*
X03271D01*
Y01186D01*
D02*
G37*
G36*
X03477Y01199D02*
X0343D01*
X03412Y01217D01*
Y01228D01*
X03431Y01247D01*
X03477D01*
Y01199D01*
D02*
G37*
D14*
X03105Y0207572D02*
D03*
Y0204028D02*
D03*
X02556Y0234072D02*
D03*
Y0230528D02*
D03*
X02555Y0212728D02*
D03*
Y0216272D02*
D03*
X02571Y0173072D02*
D03*
Y0169528D02*
D03*
X03161Y0207572D02*
D03*
Y0204028D02*
D03*
D15*
X0273344Y01456D02*
D03*
X0278856D02*
D03*
X0238044Y01402D02*
D03*
X0243556D02*
D03*
X0223456Y02474D02*
D03*
X0217944D02*
D03*
X0253756Y02005D02*
D03*
X0248244D02*
D03*
X0286744Y01456D02*
D03*
X0292256D02*
D03*
D16*
X01812Y0189956D02*
D03*
Y0184444D02*
D03*
Y0201756D02*
D03*
Y0196244D02*
D03*
X0187Y0207044D02*
D03*
Y0212556D02*
D03*
X01707Y0202456D02*
D03*
Y0196944D02*
D03*
D17*
X0243675Y01326D02*
D03*
X0240525D02*
D03*
X0249375Y02341D02*
D03*
X0246225D02*
D03*
X0234675Y02471D02*
D03*
X0231525D02*
D03*
X019485Y0247335D02*
D03*
X0198D02*
D03*
X0225625Y02558D02*
D03*
X0228775D02*
D03*
D18*
X02068Y0206875D02*
D03*
Y0203725D02*
D03*
X02385Y0203975D02*
D03*
Y0200825D02*
D03*
X02688Y0139075D02*
D03*
Y0135925D02*
D03*
X02642Y0219325D02*
D03*
Y0222475D02*
D03*
X01827Y0211275D02*
D03*
Y0208125D02*
D03*
X0242Y0203975D02*
D03*
Y0200825D02*
D03*
X02033Y0206875D02*
D03*
Y0203725D02*
D03*
D19*
X0251728Y02084D02*
D03*
X0255272D02*
D03*
D20*
X0313286Y0225886D02*
X03182Y02308D01*
X0298031Y0225886D02*
X0313286D01*
X029582Y0228097D02*
X0298031Y0225886D01*
X0272082Y0228097D02*
X029582D01*
X0294917Y0226083D02*
X02966Y02244D01*
X0269205Y0226083D02*
X0294917D01*
X0269159Y0226128D02*
X0269205Y0226083D01*
X03156Y02244D02*
X03189Y02277D01*
X02966Y02244D02*
X03156D01*
X03182Y02308D02*
Y02345D01*
X03189Y02352D01*
X02589Y02302D02*
X0308D01*
D21*
X02976Y02465D02*
X0327D01*
X02955Y02444D02*
X02976Y02465D01*
X02955Y02402D02*
Y02444D01*
X0279Y02817D02*
X03212D01*
X0275Y02857D02*
X0279Y02817D01*
X0275Y02857D02*
Y03D01*
X03212Y02817D02*
X033Y02729D01*
Y02273D02*
Y02729D01*
D22*
X0216757Y0211319D02*
X0218218Y0209858D01*
X0214458Y0211319D02*
X0216757D01*
X0212135Y0213641D02*
X0214458Y0211319D01*
X0216728Y0208366D02*
X0218218Y0206876D01*
X021291Y0208366D02*
X0216728D01*
X0209435Y0211841D02*
X021291Y0208366D01*
X0232169D02*
X0232384D01*
X0235859Y0211841D01*
X0228581Y0208381D02*
X0232154D01*
X0232169Y0208366D01*
X0227076Y0206876D02*
X0228581Y0208381D01*
X0230837Y0211319D02*
X0233159Y0213641D01*
X0228537Y0211319D02*
X0230837D01*
X0227076Y0209858D02*
X0228537Y0211319D01*
X0216784Y0199508D02*
X0218218Y0200942D01*
X0214484Y0199508D02*
X0216784D01*
X0212697Y0197721D02*
X0214484Y0199508D01*
X0212697Y0179528D02*
Y0197721D01*
X0203937Y0170768D02*
X0212697Y0179528D01*
X0203937Y0168859D02*
Y0170768D01*
X0210459Y0181424D02*
Y0199983D01*
X0200063Y0171028D02*
X0210459Y0181424D01*
X0200063Y0168859D02*
Y0171028D01*
X0211516Y0198739D02*
X0213747Y0200971D01*
X0211516Y0180217D02*
Y0198739D01*
X0202Y0170701D02*
X0211516Y0180217D01*
X0213859Y0178281D02*
Y0196612D01*
X0205937Y0170359D02*
X0213859Y0178281D01*
X0202Y0170359D02*
Y0170701D01*
X0215265Y0178159D02*
Y0195065D01*
X0207937Y0170831D02*
X0215265Y0178159D01*
X0207937Y0168859D02*
Y0170831D01*
X023081Y0199508D02*
X0232579Y0197739D01*
X022851Y0199508D02*
X023081D01*
X0227076Y0200942D02*
X022851Y0199508D01*
X0232579Y0181439D02*
Y0197739D01*
Y0181439D02*
X0243307Y0170711D01*
X0231547Y0200971D02*
X023376Y0198758D01*
Y0182874D02*
Y0198758D01*
Y0182874D02*
X0245307Y0171327D01*
Y0170359D02*
Y0171327D01*
X0239433Y0168859D02*
Y0171295D01*
X0231435Y0179293D02*
X0239433Y0171295D01*
X0231435Y0179293D02*
Y0196612D01*
X0245297Y0238998D02*
Y0242101D01*
X0235859Y022956D02*
X0245297Y0238998D01*
X0235859Y0211841D02*
Y022956D01*
X0209941Y0240647D02*
Y0240748D01*
X0209895Y0240601D02*
X0209941Y0240647D01*
X0209895Y0240601D02*
X0213259Y0237237D01*
X0207895Y0240405D02*
X0212135Y0236165D01*
X0207895Y0240405D02*
Y0242101D01*
X0263925Y02222D02*
X02642Y0222475D01*
X02567Y02222D02*
X0263925D01*
X02571Y0173072D02*
X0257128Y01731D01*
X02598D01*
X0204Y02403D02*
Y024208D01*
Y02403D02*
X0209435Y0234865D01*
Y0211841D02*
Y0234865D01*
X0212135Y0213641D02*
Y0236165D01*
X0205958Y0240328D02*
X0210835Y023545D01*
X0205958Y0240328D02*
Y0240601D01*
X0210835Y0212741D02*
Y023545D01*
X0204Y024208D02*
X0204021Y0242101D01*
X0217769Y0240601D02*
X0221171Y0237199D01*
Y0215735D02*
Y0237199D01*
X0219659Y0211341D02*
Y0236441D01*
X0215832Y0240268D02*
X0219659Y0236441D01*
X0215832Y0240268D02*
Y0242101D01*
X0213832Y0240601D02*
X0218218Y0236215D01*
Y0215735D02*
Y0236215D01*
X0224124Y0215735D02*
Y0235224D01*
X0227549Y0238649D01*
Y0240601D01*
X0227076Y0215735D02*
Y0230376D01*
X0235423Y0238723D01*
Y0240601D01*
X0225635Y0211341D02*
Y0231035D01*
X0233443Y0238843D01*
Y0242081D01*
X0228553Y0214258D02*
Y0229853D01*
X0237423Y0238723D01*
Y0242101D01*
X0234459Y0212741D02*
Y0229959D01*
X0243297Y0238797D01*
Y0240601D01*
X0233159Y0213641D02*
Y0230659D01*
X0241297Y0238797D01*
Y0242101D01*
X0231702Y0214455D02*
Y0231202D01*
X023936Y023886D01*
Y0240601D01*
X0224124Y0209829D02*
X0225635Y0211341D01*
X0227076Y0215735D02*
X0227259Y0215917D01*
X0227076Y0212782D02*
X0228553Y0214258D01*
X0230029Y0212782D02*
Y0212782D01*
X0231702Y0214455D01*
X0227076Y0209829D02*
Y0209858D01*
X0230029Y0209829D02*
X0231547D01*
X0234459Y0212741D01*
X0205909Y0170109D02*
X0206048Y0170248D01*
X0216659Y0196459D02*
X0218218Y0198018D01*
X0219659Y0199459D02*
X0221171Y0200971D01*
X0216754Y0202459D02*
X0218218Y0203924D01*
X0213747Y0200971D02*
X0215265D01*
X0218218Y0200942D02*
Y0200971D01*
X0221171Y0198018D02*
X022263Y0196559D01*
X0222659Y0199459D02*
X02241Y0198018D01*
X0221171Y0212782D02*
X022263Y0214241D01*
X0222659Y0211341D02*
X0222683D01*
X022263Y0214241D02*
X0222659D01*
X0221171Y0212782D02*
X022263Y0214241D01*
X0218218Y0209829D02*
Y0209858D01*
X0213747Y0209829D02*
X0215265D01*
X0210835Y0212741D02*
X0213747Y0209829D01*
X0219659Y0211341D02*
X0221171Y0209829D01*
X0213259Y0214788D02*
Y0237237D01*
Y0214788D02*
X0215265Y0212782D01*
X0224124Y0212776D02*
Y0212782D01*
X0222635Y0211288D02*
X0224124Y0212776D01*
X0212935Y0202459D02*
X0216754D01*
X0224124Y0203924D02*
X0225583Y0202465D01*
X0219712D02*
X0221171Y0203924D01*
X0224124Y0206876D02*
X0225583Y0208335D01*
X0213859Y0196612D02*
X0215265Y0198018D01*
X0210459Y0199983D02*
X0212935Y0202459D01*
X0209874Y0170359D02*
X0216659Y0177144D01*
Y0196459D01*
X0217748Y0170359D02*
X0221171Y0173782D01*
Y0195065D01*
X0219659Y0174559D02*
Y0199459D01*
X0215811Y0168859D02*
Y0170711D01*
X0219659Y0174559D01*
X0213811Y0170359D02*
X0218218Y0174766D01*
Y0195065D01*
X0232359Y0202459D02*
X0234835Y0199983D01*
X0230029Y0198018D02*
X0231435Y0196612D01*
X0228541Y0202459D02*
X0232359D01*
X0227076Y0200942D02*
Y0200971D01*
X0230029D02*
X0231547D01*
X0227076Y0203924D02*
X0228541Y0202459D01*
X0224124Y0200971D02*
X0225635Y0199459D01*
X0227076Y0198018D02*
X0228635Y0196459D01*
X0227076Y0176779D02*
X0233496Y0170359D01*
X0227076Y0176779D02*
Y0195065D01*
X0234835Y0184768D02*
X0249244Y0170359D01*
X0234835Y0184768D02*
Y0199983D01*
X0228635Y0179157D02*
X0237433Y0170359D01*
X0228635Y0179157D02*
Y0196459D01*
X0229559Y0170359D02*
Y0170635D01*
X0225635Y0174559D02*
X0229559Y0170635D01*
X0225635Y0174559D02*
Y0199459D01*
X0227622Y0168859D02*
Y0170996D01*
X0224124Y0174495D02*
X0227622Y0170996D01*
X0224124Y0174495D02*
Y0195065D01*
X0243307Y0168859D02*
Y0170711D01*
X0233424Y02421D02*
X02339D01*
X0233424D02*
X0233443Y0242081D01*
X01908Y01577D02*
X01944D01*
X0196Y01593D01*
Y01688D01*
X01Y0092799D02*
Y009D01*
X01014D01*
X0101866Y0090466D01*
Y0090933D01*
X01014Y00914D01*
X01D01*
X01014D01*
X0101866Y0091866D01*
Y0092333D01*
X01014Y0092799D01*
X01D01*
X0103266Y009D02*
X0104199D01*
X0104665Y0090466D01*
Y00914D01*
X0104199Y0091866D01*
X0103266D01*
X0102799Y00914D01*
Y0090466D01*
X0103266Y009D01*
X0106065Y0092333D02*
Y0091866D01*
X0105598D01*
X0106531D01*
X0106065D01*
Y0090466D01*
X0106531Y009D01*
X0108397Y0092333D02*
Y0091866D01*
X0107931D01*
X0108864D01*
X0108397D01*
Y0090466D01*
X0108864Y009D01*
X011073D02*
X0111663D01*
X0112129Y0090466D01*
Y00914D01*
X0111663Y0091866D01*
X011073D01*
X0110263Y00914D01*
Y0090466D01*
X011073Y009D01*
X0113062D02*
Y0091866D01*
X0113529D01*
X0113996Y00914D01*
Y009D01*
Y00914D01*
X0114462Y0091866D01*
X0114928Y00914D01*
Y009D01*
D23*
X03234Y0217593D02*
Y02388D01*
X0316907Y02111D02*
X03234Y0217593D01*
X02977Y02111D02*
X0316907D01*
X0231398Y0206791D02*
X0231496D01*
X0231398D02*
Y0206798D01*
X0231459Y0206859D01*
X0231442Y0206876D02*
X0231459Y0206859D01*
X0217944Y02474D02*
Y0252233D01*
X0217913Y0252264D02*
X0217944Y0252233D01*
X02571Y0169528D02*
X0259328D01*
X02593Y01695D02*
X0259328Y0169528D01*
X0259Y02193D02*
X0259025Y0219325D01*
X02642D01*
X03282Y02428D02*
X03283D01*
X02555Y02282D02*
X02556Y02283D01*
Y0230528D01*
X0258928Y0234072D02*
X0259Y0234D01*
X02556Y0234072D02*
X0258928D01*
X02385Y01983D02*
Y0200825D01*
X0242Y01983D02*
Y0200825D01*
Y0203975D02*
X0244525D01*
X03516Y0136199D02*
X0356999D01*
X0339196Y0127096D02*
X03392Y01271D01*
X0339196Y0125424D02*
Y0127096D01*
Y0122275D02*
X0341575D01*
X0272Y02361D02*
X02967D01*
X02984Y02378D01*
X0319528Y0211D02*
X03293D01*
X03161Y0207572D02*
X0319528Y0211D01*
X0309428Y02065D02*
X03105Y0207572D01*
X02977Y02065D02*
X0309428D01*
X0317772Y0204028D02*
X03179Y02039D01*
X03161Y0204028D02*
X0317772D01*
X03086Y02039D02*
X0308728Y0204028D01*
X03105D01*
X02939Y02043D02*
Y02243D01*
X02971Y02011D02*
X03293D01*
X02939Y02043D02*
X02971Y02011D01*
X03194Y02428D02*
X03234Y02388D01*
X03081Y02428D02*
X03194D01*
X02976Y02159D02*
X03191D01*
X03214Y02182D01*
Y02377D01*
X03189Y02402D02*
X03214Y02377D01*
X02984Y02378D02*
X03081D01*
X0251979Y0216779D02*
X0252Y02168D01*
X0248631Y0216779D02*
X0251979D01*
X0257757Y02084D02*
X0257801Y0208443D01*
X0255272Y02084D02*
X0257757D01*
X0251728D02*
Y0209272D01*
X02494Y02116D02*
X0251728Y0209272D01*
X0241Y02116D02*
X02494D01*
X0239969Y0212631D02*
X0241Y02116D01*
X0239969Y0212631D02*
Y0216779D01*
X02103Y02673D02*
X03035D01*
X03235D02*
Y02717D01*
X03213Y02739D02*
X03235Y02717D01*
X0203318Y0207093D02*
Y0209618D01*
Y0207093D02*
X0206818D01*
X0207152Y0206759D02*
X0213859D01*
X0206818Y0207093D02*
X0207152Y0206759D01*
X0203318Y0201418D02*
Y0203943D01*
X0206818Y0201418D02*
Y0203943D01*
X0238166Y0204059D02*
X02385Y0203725D01*
X0231459Y0204059D02*
X0238166D01*
X02385Y0203975D02*
X0242D01*
X0230029Y0203924D02*
X0231424D01*
X0213995D02*
X0215265D01*
X0213859Y0204059D02*
X0213995Y0203924D01*
X0213876Y0206876D02*
X0215265D01*
X0230029D02*
X0231442D01*
X0189Y02886D02*
X02103Y02673D01*
X0189Y02886D02*
Y03D01*
X0199Y02899D02*
X0215Y02739D01*
X0199Y02899D02*
Y03D01*
X0215Y02739D02*
X03213D01*
X0176198Y0200506D02*
X0180931D01*
X01762Y01888D02*
X0181025D01*
X0172256Y01985D02*
X01747D01*
X01707Y0196944D02*
X0172256Y01985D01*
X019485Y024215D02*
Y0247335D01*
X01948Y02421D02*
X019485Y024215D01*
X0228775Y02558D02*
X02314D01*
X0231474Y0240593D02*
Y0247048D01*
X0234675Y02471D02*
Y0253475D01*
X0308Y02302D02*
X03081Y02303D01*
X02588Y02301D02*
X02589Y02302D01*
X0253756Y02005D02*
X02578D01*
X0245719D02*
X0248244D01*
X0181025Y01888D02*
X0181525Y01893D01*
X0180931Y0200506D02*
X0181525Y02011D01*
X02555Y0216272D02*
X0257755D01*
X0257769Y0216286D01*
X02555Y0212728D02*
X0257672D01*
X02577Y02127D01*
X03297Y022D02*
X03299Y02198D01*
X0249375Y02341D02*
X025145D01*
D24*
X0207689Y0150689D02*
X02113Y01543D01*
X0180111Y0150689D02*
X0207689D01*
X01664Y01644D02*
X0180111Y0150689D01*
X0238404Y01543D02*
X02417D01*
X02511Y01654D02*
X0253756Y0168056D01*
X02442Y01654D02*
X02511D01*
X02417Y01629D02*
X02442Y01654D01*
X02417Y01543D02*
Y01629D01*
X02443Y0140944D02*
Y01496D01*
X02417Y01522D02*
X02443Y01496D01*
X02417Y01522D02*
Y01543D01*
X0243675Y01326D02*
X02484D01*
X024836Y013256D02*
X0250879D01*
X024836D02*
X02484Y01326D01*
X0243675D02*
X02462D01*
X0278856Y01456D02*
X02819D01*
X02557Y01363D02*
X0260721D01*
X02556Y01364D02*
X02557Y01363D01*
X02688Y01327D02*
Y0135925D01*
X02372Y01326D02*
X0240525D01*
X0292256Y01454D02*
X0295625D01*
X02687Y0139525D02*
Y01456D01*
X01666Y0202456D02*
X01707D01*
X0243556Y014004D02*
X0250879D01*
X02348Y01402D02*
X0238044D01*
X02348Y01402D02*
X02348Y01402D01*
X017136Y0202496D02*
X0174688D01*
X0225622Y0253625D02*
Y0255178D01*
X02241Y02567D02*
X0225622Y0255178D01*
X01735Y02522D02*
X0178Y02567D01*
X01735Y02384D02*
Y02522D01*
X01664Y02313D02*
X01735Y02384D01*
X0178Y02567D02*
X02241D01*
X0243556Y01402D02*
X02443Y0140944D01*
X0238404Y01543D02*
Y0157196D01*
X0223685Y01543D02*
X0238404D01*
X0223685D02*
Y0168859D01*
X02113Y01543D02*
X0223685D01*
X0198Y02422D02*
Y0247335D01*
Y02517D01*
X0231525Y02471D02*
Y0251465D01*
X02236Y02425D02*
Y02484D01*
X0187Y0212556D02*
X0189744D01*
X01812Y0184444D02*
X0186175D01*
X0181525Y01893D02*
X01862D01*
X0181525Y02011D02*
X01862D01*
X01812Y0196244D02*
X01862D01*
X0176324Y0211275D02*
X01827D01*
X0176198Y02114D02*
X0176324Y0211275D01*
X0176198Y020838D02*
Y02114D01*
Y0214286D01*
X01827Y0208125D02*
X0184319D01*
X0185819Y0206625D01*
Y0207125D02*
X01897D01*
X01827Y0211275D02*
X0184419D01*
X01857Y0212556D02*
X0187D01*
X0184419Y0211275D02*
X01857Y0212556D01*
X0253756Y0168056D02*
Y02005D01*
X0239969Y0226621D02*
Y0227844D01*
X0246225Y02341D01*
Y0236175D01*
X01422Y01676D02*
X01522D01*
X01664D01*
Y02313D01*
Y01644D02*
Y01676D01*
D25*
X0273344Y01456D02*
Y0160658D01*
X0274486Y01618D01*
X0289745Y0152745D02*
X0297714D01*
X0286744Y0149744D02*
X0289745Y0152745D01*
X0286744Y01456D02*
Y0149744D01*
X02867Y0145556D02*
X0286744Y01456D01*
X02867Y01375D02*
Y0145556D01*
X0297714Y0170855D02*
X0306815D01*
X0345001Y01302D02*
X03516Y0123601D01*
X03408Y01302D02*
X0345001D01*
X0339647Y0131353D02*
X03408Y01302D01*
X0339647Y0131353D02*
Y01366D01*
X02687Y01456D02*
X0273344D01*
D26*
X0344661Y0181085D02*
D03*
D27*
X0356472Y01614D02*
D03*
D28*
X0332063D02*
D03*
D29*
X0122047Y013209D02*
D03*
X01187Y02638D02*
D03*
X03035Y02673D02*
D03*
X02967Y01375D02*
D03*
D30*
X0122047Y014209D02*
D03*
X0132047Y013209D02*
D03*
Y014209D02*
D03*
X0142047Y013209D02*
D03*
Y014209D02*
D03*
X0152047Y013209D02*
D03*
Y014209D02*
D03*
X0162047Y013209D02*
D03*
Y014209D02*
D03*
X0172047Y013209D02*
D03*
Y014209D02*
D03*
X0182047Y013209D02*
D03*
Y014209D02*
D03*
X0192047Y013209D02*
D03*
Y014209D02*
D03*
X0202047Y013209D02*
D03*
Y014209D02*
D03*
X0212047Y013209D02*
D03*
Y014209D02*
D03*
X01187Y02738D02*
D03*
X01287Y02638D02*
D03*
Y02738D02*
D03*
X01387Y02638D02*
D03*
Y02738D02*
D03*
X01487Y02638D02*
D03*
Y02738D02*
D03*
X01587Y02638D02*
D03*
Y02738D02*
D03*
X03235Y02673D02*
D03*
X03135D02*
D03*
X02767Y01375D02*
D03*
X02867D02*
D03*
D31*
X01422Y02276D02*
D03*
Y02176D02*
D03*
Y01976D02*
D03*
Y01876D02*
D03*
X01322Y02276D02*
D03*
Y02176D02*
D03*
Y01976D02*
D03*
Y01876D02*
D03*
X01222Y02276D02*
D03*
Y02176D02*
D03*
Y01976D02*
D03*
Y01876D02*
D03*
X01522D02*
D03*
Y01976D02*
D03*
Y02176D02*
D03*
Y02276D02*
D03*
X01422Y01776D02*
D03*
X01322D02*
D03*
X01222D02*
D03*
X01522D02*
D03*
X01422Y02076D02*
D03*
X01322D02*
D03*
X01222D02*
D03*
X01522D02*
D03*
Y01676D02*
D03*
Y01576D02*
D03*
X01222D02*
D03*
Y01676D02*
D03*
X01322Y01576D02*
D03*
Y01676D02*
D03*
X01422Y01576D02*
D03*
Y01676D02*
D03*
D32*
X0345Y0215D02*
D03*
X0355D02*
D03*
X0345Y0205D02*
D03*
X0355D02*
D03*
X0345Y0195D02*
D03*
X0355D02*
D03*
D33*
X0209Y03D02*
D03*
X0199D02*
D03*
X0189D02*
D03*
X0179D02*
D03*
X0169D02*
D03*
X0159D02*
D03*
X0149D02*
D03*
X0139D02*
D03*
X0129D02*
D03*
X0119D02*
D03*
X0295D02*
D03*
X0285D02*
D03*
X0275D02*
D03*
X0265D02*
D03*
X0255D02*
D03*
X0245D02*
D03*
X0235D02*
D03*
X0225D02*
D03*
X0245Y011D02*
D03*
X0255D02*
D03*
X0265D02*
D03*
X0275D02*
D03*
X0285D02*
D03*
X0295D02*
D03*
X0155D02*
D03*
X0165D02*
D03*
X0175D02*
D03*
X0185D02*
D03*
X0195D02*
D03*
X0205D02*
D03*
X0215D02*
D03*
X0225D02*
D03*
D34*
X036Y024D02*
D03*
D35*
X03327Y0117944D02*
D03*
Y0123456D02*
D03*
X0330732Y01207D02*
D03*
X0334668D02*
D03*
D36*
X0231496Y0206791D02*
D03*
X0209941Y0240748D02*
D03*
X0217913Y0252264D02*
D03*
X0198425Y014813D02*
D03*
X01908Y01577D02*
D03*
X02593Y01695D02*
D03*
X0259Y0219325D02*
D03*
X02216Y02397D02*
D03*
X02236Y02425D02*
D03*
X03282Y02428D02*
D03*
X03Y01948D02*
D03*
X03081Y02277D02*
D03*
X02444Y015435D02*
D03*
X02603Y01543D02*
D03*
X02598Y01731D02*
D03*
X02769Y01703D02*
D03*
Y0175D02*
D03*
X02556Y02281D02*
D03*
X03293Y02161D02*
D03*
X02385Y01983D02*
D03*
X0242D02*
D03*
X0244525Y0203975D02*
D03*
X02688Y0141219D02*
D03*
X0270844Y01456D02*
D03*
X02687Y01456D02*
D03*
X03392Y01271D02*
D03*
X02776Y02336D02*
D03*
X02777Y02387D02*
D03*
X0272Y02361D02*
D03*
X02686Y0232D02*
D03*
X0277572Y02426D02*
D03*
X0327Y02465D02*
D03*
X02955Y02402D02*
D03*
X03293Y0211D02*
D03*
X03179Y02039D02*
D03*
X03086D02*
D03*
X02977Y02065D02*
D03*
X03086Y01948D02*
D03*
X02939Y02243D02*
D03*
X03293Y02011D02*
D03*
X02977Y02111D02*
D03*
X02976Y02159D02*
D03*
X03081Y02303D02*
D03*
X03189Y02352D02*
D03*
X03081Y02353D02*
D03*
X0269159Y0226128D02*
D03*
X0272082Y0228097D02*
D03*
X03081Y02428D02*
D03*
Y02378D02*
D03*
X03189Y02402D02*
D03*
Y02277D02*
D03*
X0269088Y0194632D02*
D03*
X0252Y02168D02*
D03*
X0257108Y0242101D02*
D03*
X0186049Y0232065D02*
D03*
X0257769Y0216286D02*
D03*
Y0176916D02*
D03*
X0259301Y0182821D02*
D03*
X0257801Y0188758D02*
D03*
Y0184821D02*
D03*
Y0208443D02*
D03*
X0259301Y0186821D02*
D03*
Y0190695D02*
D03*
X0257801Y0192695D02*
D03*
X0198063Y0170359D02*
D03*
X0211811Y0159031D02*
D03*
X0204021Y0242101D02*
D03*
X0205958Y0240601D02*
D03*
X0207895Y0242101D02*
D03*
X0219706D02*
D03*
X0217769Y0240601D02*
D03*
X0213832D02*
D03*
X0215832Y0242101D02*
D03*
X0235423Y0240601D02*
D03*
X0237423Y0242101D02*
D03*
X023936Y0240601D02*
D03*
X0243297D02*
D03*
X0241297Y0242101D02*
D03*
X0245297D02*
D03*
X0203318Y0209618D02*
D03*
Y0201418D02*
D03*
X0206818D02*
D03*
X0211832Y0251888D02*
D03*
X0174688Y0202496D02*
D03*
X0259Y0234D02*
D03*
X0233496Y0170359D02*
D03*
X0237433D02*
D03*
X0239433Y0168859D02*
D03*
X0249244Y0170359D02*
D03*
X0245307D02*
D03*
X0243307Y0168859D02*
D03*
X0215811D02*
D03*
X0213811Y0170359D02*
D03*
X0217748D02*
D03*
X0209874D02*
D03*
X0207937Y0168859D02*
D03*
X0231459Y0204059D02*
D03*
X0222659Y0196559D02*
D03*
Y0199459D02*
D03*
X0222635Y0211288D02*
D03*
X0222659Y0214241D02*
D03*
X0213859Y0206759D02*
D03*
X0225612Y0202465D02*
D03*
X0219712Y0202435D02*
D03*
X0225583Y0208365D02*
D03*
X0200063Y0168859D02*
D03*
X0202Y0170359D02*
D03*
X0205937D02*
D03*
X0203937Y0168859D02*
D03*
X0213859Y0204059D02*
D03*
X0229559Y0170359D02*
D03*
X0227622Y0168859D02*
D03*
X0223685D02*
D03*
X0192147Y0168817D02*
D03*
X0192Y01533D02*
D03*
X02384Y01572D02*
D03*
X0241356Y0148644D02*
D03*
X01862Y01893D02*
D03*
Y0196219D02*
D03*
X0225622Y0253625D02*
D03*
X01865Y02474D02*
D03*
X01948Y02421D02*
D03*
X02314Y02558D02*
D03*
X0233424Y02421D02*
D03*
X0198Y02517D02*
D03*
X0231525Y0251465D02*
D03*
X0227549Y0240601D02*
D03*
X0234675Y0253475D02*
D03*
X02588Y02301D02*
D03*
X02578Y02005D02*
D03*
X0245719Y02005D02*
D03*
X02691Y02222D02*
D03*
X02157Y0151688D02*
D03*
Y01572D02*
D03*
X0201544Y0156356D02*
D03*
X02261Y01517D02*
D03*
X019Y02127D02*
D03*
X01897Y0207125D02*
D03*
X01862Y0184419D02*
D03*
Y0186758D02*
D03*
Y02011D02*
D03*
Y01986D02*
D03*
X0254756Y0155156D02*
D03*
X0249644D02*
D03*
X0235465Y01596D02*
D03*
X02522Y01489D02*
D03*
X0271644Y0187889D02*
D03*
X0277156D02*
D03*
X0277464Y01808D02*
D03*
X025932Y0198569D02*
D03*
X0271644Y0207244D02*
D03*
X0249234Y0242101D02*
D03*
X0245144Y0257156D02*
D03*
X0259325Y0204475D02*
D03*
X0277156Y0207244D02*
D03*
X02764Y02002D02*
D03*
X02577Y02127D02*
D03*
X0246225Y0236175D02*
D03*
X033Y02273D02*
D03*
X03297Y022D02*
D03*
X03063Y02222D02*
D03*
X02983D02*
D03*
X01406Y0250372D02*
D03*
X01326Y02504D02*
D03*
X01246D02*
D03*
X01487Y0250472D02*
D03*
X01747Y01985D02*
D03*
X0196Y01688D02*
D03*
X0250656Y0257156D02*
D03*
X025145Y02341D02*
D03*
D37*
X0231507Y0240559D02*
D03*
X02236Y02518D02*
D03*
X02567Y02222D02*
D03*
X017623Y0214317D02*
D03*
X0176198Y020838D02*
D03*
X01762Y01888D02*
D03*
X0198Y02422D02*
D03*
X0176198Y0200506D02*
D03*
D38*
X0306815Y0170855D02*
D03*
X0360701Y0136199D02*
D03*
X03138Y01451D02*
D03*
D39*
X02688Y01327D02*
D03*
X02819Y01456D02*
D03*
X02556Y01364D02*
D03*
X0295625Y01454D02*
D03*
X02372Y01326D02*
D03*
X02348Y01402D02*
D03*
D61*
X0297714Y0170855D02*
D03*
Y01618D02*
D03*
Y0152745D02*
D03*
D62*
X0274486Y01618D02*
D03*
D63*
X0250879Y014004D02*
D03*
Y013256D02*
D03*
X0260721D02*
D03*
Y01363D02*
D03*
Y014004D02*
D03*
D64*
X03327Y01207D02*
D03*
D65*
X0326204Y0125424D02*
D03*
Y0122275D02*
D03*
Y0119125D02*
D03*
Y0115976D02*
D03*
X0339196D02*
D03*
Y0119125D02*
D03*
Y0122275D02*
D03*
Y0125424D02*
D03*
D66*
X0215265Y0195065D02*
D03*
X0218218D02*
D03*
X0221171D02*
D03*
X0224124D02*
D03*
X0227076D02*
D03*
X0230029D02*
D03*
X0215265Y0198018D02*
D03*
X0218218D02*
D03*
X0221171D02*
D03*
X0224124D02*
D03*
X0227076D02*
D03*
X0230029D02*
D03*
X0215265Y0200971D02*
D03*
X0218218D02*
D03*
X0221171D02*
D03*
X0224124D02*
D03*
X0227076D02*
D03*
X0230029D02*
D03*
X0215265Y0203924D02*
D03*
X0218218D02*
D03*
X0221171D02*
D03*
X0224124D02*
D03*
X0227076D02*
D03*
X0230029D02*
D03*
X0215265Y0206876D02*
D03*
X0218218D02*
D03*
X0221171D02*
D03*
X0224124D02*
D03*
X0227076D02*
D03*
X0230029D02*
D03*
X0215265Y0209829D02*
D03*
X0218218D02*
D03*
X0221171D02*
D03*
X0224124D02*
D03*
X0227076D02*
D03*
X0230029D02*
D03*
X0215265Y0212782D02*
D03*
X0218218D02*
D03*
X0221171D02*
D03*
X0224124D02*
D03*
X0227076D02*
D03*
X0230029D02*
D03*
X0215265Y0215735D02*
D03*
X0218218D02*
D03*
X0221171D02*
D03*
X0224124D02*
D03*
X0227076D02*
D03*
X0230029D02*
D03*
D67*
X0239969Y0216779D02*
D03*
Y0226621D02*
D03*
X0248631Y0216779D02*
D03*
Y0226621D02*
D03*
D68*
X0325553Y01366D02*
D03*
X0339647D02*
D03*
D69*
X03516Y0136199D02*
D03*
Y0123601D02*
D03*
X03138Y0135999D02*
D03*
Y0123401D02*
D03*
D70*
X0324655Y0123456D02*
X03327D01*
X0325553Y0149969D02*
X0332063Y0156479D01*
X0325553Y01366D02*
Y0149969D01*
X02767Y01318D02*
Y01375D01*
X0274486Y01618D02*
X0297714D01*
X02967Y01297D02*
Y01375D01*
Y01297D02*
X0302999Y0123401D01*
X03138D01*
X03246D01*
X03516Y0136199D02*
X0360701D01*
X03138Y0135999D02*
Y01451D01*
X02658Y01209D02*
X02767Y01318D01*
X0195Y011D02*
Y01175D01*
X01984Y01209D01*
X02658D01*
D71*
X02236Y02484D02*
Y02518D01*
X0231474Y0247048D02*
X0231525Y02471D01*
X0231474Y0240593D02*
X0231507Y0240559D01*
D72*
X02645Y0222175D02*
X02691D01*
X0266Y01335D02*
Y01391D01*
X026506Y013256D02*
X0266Y01335D01*
X0260721Y013256D02*
X026506D01*
X026506Y014004D02*
X0266Y01391D01*
X0260721Y014004D02*
X026506D01*
X02658Y01393D02*
X0268625D01*
X02642Y0222475D02*
X02645Y0222175D01*
M02*
