%FSTAX25Y25*%
%MOIN*%
G70*
G01*
G75*
G04 Layer_Color=8388736*
%ADD10O,0.07087X0.01181*%
%ADD11O,0.01181X0.07087*%
%ADD12O,0.07284X0.01378*%
%ADD13R,0.08071X0.02756*%
%ADD14R,0.02165X0.01772*%
%ADD15R,0.02756X0.03543*%
%ADD16R,0.03543X0.02756*%
%ADD17R,0.02047X0.02047*%
%ADD18R,0.02047X0.02047*%
%ADD19R,0.01772X0.02165*%
%ADD20C,0.00669*%
%ADD21C,0.00700*%
%ADD22C,0.00500*%
%ADD23C,0.01000*%
%ADD24C,0.02000*%
%ADD25C,0.03000*%
%ADD26O,0.15748X0.07874*%
%ADD27O,0.07874X0.15748*%
%ADD28O,0.07874X0.17716*%
%ADD29R,0.05906X0.05906*%
%ADD30C,0.05906*%
%ADD31C,0.06000*%
%ADD32P,0.06711X8X112.5*%
%ADD33O,0.05600X0.11200*%
%ADD34C,0.12600*%
%ADD35C,0.01969*%
%ADD36C,0.01600*%
%ADD37C,0.01595*%
%ADD38C,0.05000*%
%ADD39C,0.02800*%
%ADD40C,0.04000*%
%ADD41R,0.70200X0.25400*%
%ADD42O,0.15811X0.07937*%
%ADD43O,0.07937X0.15811*%
%ADD44O,0.07937X0.17779*%
%ADD45C,0.07543*%
G04:AMPARAMS|DCode=46|XSize=95.433mil|YSize=95.433mil|CornerRadius=0mil|HoleSize=0mil|Usage=FLASHONLY|Rotation=0.000|XOffset=0mil|YOffset=0mil|HoleType=Round|Shape=Relief|Width=10mil|Gap=10mil|Entries=4|*
%AMTHD46*
7,0,0,0.09543,0.07543,0.01000,45*
%
%ADD46THD46*%
%ADD47C,0.07550*%
G04:AMPARAMS|DCode=48|XSize=95.5mil|YSize=95.5mil|CornerRadius=0mil|HoleSize=0mil|Usage=FLASHONLY|Rotation=0.000|XOffset=0mil|YOffset=0mil|HoleType=Round|Shape=Relief|Width=10mil|Gap=10mil|Entries=4|*
%AMTHD48*
7,0,0,0.09550,0.07550,0.01000,45*
%
%ADD48THD48*%
%ADD49C,0.07800*%
%ADD50C,0.07400*%
%ADD51C,0.16600*%
G04:AMPARAMS|DCode=52|XSize=70mil|YSize=70mil|CornerRadius=0mil|HoleSize=0mil|Usage=FLASHONLY|Rotation=0.000|XOffset=0mil|YOffset=0mil|HoleType=Round|Shape=Relief|Width=10mil|Gap=10mil|Entries=4|*
%AMTHD52*
7,0,0,0.07000,0.05000,0.01000,45*
%
%ADD52THD52*%
%ADD53C,0.06800*%
%ADD54C,0.05600*%
%AMTHOVALD55*
21,1,0.07874,0.09937,0,0,180.0*
1,1,0.09937,0.03937,0.00000*
1,1,0.09937,-0.03937,0.00000*
21,0,0.07874,0.07937,0,0,180.0*
1,0,0.07937,0.03937,0.00000*
1,0,0.07937,-0.03937,0.00000*
4,0,4,0.03583,0.00354,0.07097,0.03867,0.07804,0.03160,0.04291,-0.00354,0.03583,0.00354,0.0*
4,0,4,-0.04291,0.00354,-0.07804,-0.03160,-0.07097,-0.03867,-0.03583,-0.00354,-0.04291,0.00354,0.0*
4,0,4,0.04291,0.00354,0.07804,-0.03160,0.07097,-0.03867,0.03583,-0.00354,0.04291,0.00354,0.0*
4,0,4,-0.03583,0.00354,-0.07097,0.03867,-0.07804,0.03160,-0.04291,-0.00354,-0.03583,0.00354,0.0*
%
%ADD55THOVALD55*%

%AMTHOVALD56*
21,1,0.07874,0.09937,0,0,270.0*
1,1,0.09937,0.00000,0.03937*
1,1,0.09937,0.00000,-0.03937*
21,0,0.07874,0.07937,0,0,270.0*
1,0,0.07937,0.00000,0.03937*
1,0,0.07937,0.00000,-0.03937*
4,0,4,-0.00354,0.03583,-0.03867,0.07097,-0.03160,0.07804,0.00354,0.04291,-0.00354,0.03583,0.0*
4,0,4,-0.00354,-0.04291,0.03160,-0.07804,0.03867,-0.07097,0.00354,-0.03583,-0.00354,-0.04291,0.0*
4,0,4,-0.00354,0.04291,0.03160,0.07804,0.03867,0.07097,0.00354,0.03583,-0.00354,0.04291,0.0*
4,0,4,-0.00354,-0.03583,-0.03867,-0.07097,-0.03160,-0.07804,0.00354,-0.04291,-0.00354,-0.03583,0.0*
%
%ADD56THOVALD56*%

G04:AMPARAMS|DCode=57|XSize=98mil|YSize=98mil|CornerRadius=0mil|HoleSize=0mil|Usage=FLASHONLY|Rotation=0.000|XOffset=0mil|YOffset=0mil|HoleType=Round|Shape=Relief|Width=10mil|Gap=10mil|Entries=4|*
%AMTHD57*
7,0,0,0.09800,0.07800,0.01000,45*
%
%ADD57THD57*%
G04:AMPARAMS|DCode=58|XSize=94mil|YSize=94mil|CornerRadius=0mil|HoleSize=0mil|Usage=FLASHONLY|Rotation=0.000|XOffset=0mil|YOffset=0mil|HoleType=Round|Shape=Relief|Width=10mil|Gap=10mil|Entries=4|*
%AMTHD58*
7,0,0,0.09400,0.07400,0.01000,45*
%
%ADD58THD58*%
G04:AMPARAMS|DCode=59|XSize=88mil|YSize=88mil|CornerRadius=0mil|HoleSize=0mil|Usage=FLASHONLY|Rotation=0.000|XOffset=0mil|YOffset=0mil|HoleType=Round|Shape=Relief|Width=10mil|Gap=10mil|Entries=4|*
%AMTHD59*
7,0,0,0.08800,0.06800,0.01000,45*
%
%ADD59THD59*%
G04:AMPARAMS|DCode=60|XSize=76mil|YSize=76mil|CornerRadius=0mil|HoleSize=0mil|Usage=FLASHONLY|Rotation=0.000|XOffset=0mil|YOffset=0mil|HoleType=Round|Shape=Relief|Width=10mil|Gap=10mil|Entries=4|*
%AMTHD60*
7,0,0,0.07600,0.05600,0.01000,45*
%
%ADD60THD60*%
%ADD61R,0.07480X0.03150*%
%ADD62R,0.07480X0.12205*%
%ADD63R,0.06299X0.02559*%
%ADD64R,0.08661X0.11811*%
%ADD65R,0.01969X0.01181*%
%ADD66C,0.01181*%
%ADD67R,0.03543X0.04724*%
%ADD68R,0.06693X0.06614*%
%ADD69R,0.08661X0.07874*%
%ADD70C,0.05000*%
%ADD71C,0.01300*%
%ADD72C,0.01500*%
%ADD73C,0.02362*%
%ADD74C,0.00984*%
%ADD75C,0.00787*%
%ADD76C,0.00600*%
%ADD77C,0.01200*%
%ADD78C,0.00400*%
%ADD79O,0.07487X0.01581*%
%ADD80O,0.01581X0.07487*%
%ADD81O,0.07684X0.01778*%
%ADD82R,0.08471X0.03156*%
%ADD83R,0.02565X0.02172*%
%ADD84R,0.03156X0.03943*%
%ADD85R,0.03943X0.03156*%
%ADD86R,0.02447X0.02447*%
%ADD87R,0.02447X0.02447*%
%ADD88R,0.02172X0.02565*%
%ADD89O,0.07287X0.01381*%
%ADD90O,0.01381X0.07287*%
%ADD91O,0.07484X0.01578*%
%ADD92R,0.08271X0.02956*%
%ADD93R,0.02365X0.01972*%
%ADD94R,0.02956X0.03743*%
%ADD95R,0.03743X0.02956*%
%ADD96R,0.02247X0.02247*%
%ADD97R,0.02247X0.02247*%
%ADD98R,0.01972X0.02365*%
%ADD99O,0.15948X0.08074*%
%ADD100O,0.08074X0.15948*%
%ADD101O,0.08074X0.17916*%
%ADD102R,0.06106X0.06106*%
%ADD103C,0.06106*%
%ADD104C,0.06200*%
%ADD105P,0.06927X8X112.5*%
%ADD106O,0.05800X0.11400*%
%ADD107C,0.12800*%
%ADD108C,0.02169*%
%ADD109C,0.01800*%
%ADD110C,0.01795*%
%ADD111C,0.05200*%
%ADD112C,0.03000*%
D89*
X0181124Y017101D02*
D03*
Y0172979D02*
D03*
Y0174947D02*
D03*
Y0176916D02*
D03*
Y0178884D02*
D03*
Y0180853D02*
D03*
Y0182821D02*
D03*
Y018479D02*
D03*
Y0186758D02*
D03*
Y0188727D02*
D03*
Y0190695D02*
D03*
Y0192664D02*
D03*
Y0194632D02*
D03*
Y0196601D02*
D03*
Y0198569D02*
D03*
Y0200538D02*
D03*
Y0202506D02*
D03*
Y0204475D02*
D03*
Y0206443D02*
D03*
Y0208412D02*
D03*
Y021038D02*
D03*
Y0212349D02*
D03*
Y0214317D02*
D03*
Y0216286D02*
D03*
Y0218254D02*
D03*
Y0220223D02*
D03*
Y0222191D02*
D03*
Y022416D02*
D03*
Y0226128D02*
D03*
Y0228097D02*
D03*
Y0230065D02*
D03*
Y0232034D02*
D03*
Y0234002D02*
D03*
Y0235971D02*
D03*
Y0237939D02*
D03*
Y0239908D02*
D03*
X0264194D02*
D03*
Y0237939D02*
D03*
Y0235971D02*
D03*
Y0234002D02*
D03*
Y0232034D02*
D03*
Y0230065D02*
D03*
Y0228097D02*
D03*
Y0226128D02*
D03*
Y022416D02*
D03*
Y0222191D02*
D03*
Y0220223D02*
D03*
Y0218254D02*
D03*
Y0216286D02*
D03*
Y0214317D02*
D03*
Y0212349D02*
D03*
Y021038D02*
D03*
Y0208412D02*
D03*
Y0206443D02*
D03*
Y0204475D02*
D03*
Y0202506D02*
D03*
Y0200538D02*
D03*
Y0198569D02*
D03*
Y0196601D02*
D03*
Y0194632D02*
D03*
Y0192664D02*
D03*
Y0190695D02*
D03*
Y0188727D02*
D03*
Y0186758D02*
D03*
Y018479D02*
D03*
Y0182821D02*
D03*
Y0180853D02*
D03*
Y0178884D02*
D03*
Y0176916D02*
D03*
Y0174947D02*
D03*
Y0172979D02*
D03*
Y017101D02*
D03*
D90*
X018821Y0246994D02*
D03*
X0190179D02*
D03*
X0192147D02*
D03*
X0194116D02*
D03*
X0196084D02*
D03*
X0198053D02*
D03*
X0200021D02*
D03*
X020199D02*
D03*
X0203958D02*
D03*
X0205927D02*
D03*
X0207895D02*
D03*
X0209864D02*
D03*
X0211832D02*
D03*
X0213801D02*
D03*
X0215769D02*
D03*
X0217738D02*
D03*
X0219706D02*
D03*
X0221675D02*
D03*
X0223643D02*
D03*
X0225612D02*
D03*
X022758D02*
D03*
X0229549D02*
D03*
X0231517D02*
D03*
X0233486D02*
D03*
X0235454D02*
D03*
X0237423D02*
D03*
X0239391D02*
D03*
X024136D02*
D03*
X0243328D02*
D03*
X0245297D02*
D03*
X0247265D02*
D03*
X0249234D02*
D03*
X0251202D02*
D03*
X0253171D02*
D03*
X0255139D02*
D03*
X0257108D02*
D03*
Y0163924D02*
D03*
X0255139D02*
D03*
X0253171D02*
D03*
X0251202D02*
D03*
X0249234D02*
D03*
X0247265D02*
D03*
X0245297D02*
D03*
X0243328D02*
D03*
X024136D02*
D03*
X0239391D02*
D03*
X0237423D02*
D03*
X0235454D02*
D03*
X0233486D02*
D03*
X0231517D02*
D03*
X0229549D02*
D03*
X022758D02*
D03*
X0225612D02*
D03*
X0223643D02*
D03*
X0221675D02*
D03*
X0219706D02*
D03*
X0217738D02*
D03*
X0215769D02*
D03*
X0213801D02*
D03*
X0211832D02*
D03*
X0209864D02*
D03*
X0207895D02*
D03*
X0205927D02*
D03*
X0203958D02*
D03*
X020199D02*
D03*
X0200021D02*
D03*
X0198053D02*
D03*
X0196084D02*
D03*
X0194116D02*
D03*
X0192147D02*
D03*
X0190179D02*
D03*
X018821D02*
D03*
D91*
X0303264Y024275D02*
D03*
Y024025D02*
D03*
Y023775D02*
D03*
Y023525D02*
D03*
Y023275D02*
D03*
Y023025D02*
D03*
Y022775D02*
D03*
Y022525D02*
D03*
X0323736Y024275D02*
D03*
Y024025D02*
D03*
Y023775D02*
D03*
Y023525D02*
D03*
Y023275D02*
D03*
Y023025D02*
D03*
Y022775D02*
D03*
Y022525D02*
D03*
D92*
X0302768Y02161D02*
D03*
Y02111D02*
D03*
Y02061D02*
D03*
Y02011D02*
D03*
X0323832Y02161D02*
D03*
Y02111D02*
D03*
Y02061D02*
D03*
Y02011D02*
D03*
D93*
X01487Y0284772D02*
D03*
Y0281228D02*
D03*
X01387Y0284772D02*
D03*
Y0281228D02*
D03*
X01287Y0284772D02*
D03*
Y0281228D02*
D03*
X01187Y0284772D02*
D03*
Y0281228D02*
D03*
X01246Y0256072D02*
D03*
Y0252528D02*
D03*
X01326Y0256072D02*
D03*
Y0252528D02*
D03*
X01406Y0256043D02*
D03*
Y02525D02*
D03*
X01487Y0256143D02*
D03*
Y02526D02*
D03*
X01206Y0256072D02*
D03*
Y0252528D02*
D03*
X01286Y0256072D02*
D03*
Y0252528D02*
D03*
X01366Y0256043D02*
D03*
Y02525D02*
D03*
X01447Y0256143D02*
D03*
Y02526D02*
D03*
X03297Y0225372D02*
D03*
Y0221828D02*
D03*
D94*
X0271644Y01849D02*
D03*
X0277156D02*
D03*
X0250656Y02539D02*
D03*
X0245144D02*
D03*
X0277156Y02043D02*
D03*
X0271644D02*
D03*
D95*
X02414Y0157156D02*
D03*
Y0151644D02*
D03*
X02187Y0157156D02*
D03*
Y0151644D02*
D03*
X02522Y0157156D02*
D03*
Y0151644D02*
D03*
X01985Y0156356D02*
D03*
Y0150844D02*
D03*
X02236Y0151644D02*
D03*
Y0157156D02*
D03*
D96*
X0274575Y02002D02*
D03*
X0271425D02*
D03*
X0274475Y01808D02*
D03*
X0271325D02*
D03*
X0302725Y01948D02*
D03*
X0305875D02*
D03*
X0303275Y02222D02*
D03*
X0300125D02*
D03*
D97*
X02468Y0154325D02*
D03*
Y0157475D02*
D03*
X01939Y0153325D02*
D03*
Y0156475D02*
D03*
X02579Y0154325D02*
D03*
Y0157475D02*
D03*
D98*
X0271928Y02387D02*
D03*
X0275472D02*
D03*
X0275372Y02336D02*
D03*
X0271828D02*
D03*
X0271228Y0175D02*
D03*
X0274772D02*
D03*
X0271228Y01703D02*
D03*
X0274772D02*
D03*
X02718Y02426D02*
D03*
X0275343D02*
D03*
D99*
X0344661Y0181085D02*
D03*
D100*
X0356472Y01614D02*
D03*
D101*
X0332063D02*
D03*
D102*
X0122047Y013209D02*
D03*
X01187Y02638D02*
D03*
X03035Y02673D02*
D03*
X02967Y01375D02*
D03*
D103*
X0122047Y014209D02*
D03*
X0132047Y013209D02*
D03*
Y014209D02*
D03*
X0142047Y013209D02*
D03*
Y014209D02*
D03*
X0152047Y013209D02*
D03*
Y014209D02*
D03*
X0162047Y013209D02*
D03*
Y014209D02*
D03*
X0172047Y013209D02*
D03*
Y014209D02*
D03*
X0182047Y013209D02*
D03*
Y014209D02*
D03*
X0192047Y013209D02*
D03*
Y014209D02*
D03*
X0202047Y013209D02*
D03*
Y014209D02*
D03*
X0212047Y013209D02*
D03*
Y014209D02*
D03*
X01187Y02738D02*
D03*
X01287Y02638D02*
D03*
Y02738D02*
D03*
X01387Y02638D02*
D03*
Y02738D02*
D03*
X01487Y02638D02*
D03*
Y02738D02*
D03*
X01587Y02638D02*
D03*
Y02738D02*
D03*
X03235Y02673D02*
D03*
X03135D02*
D03*
X02767Y01375D02*
D03*
X02867D02*
D03*
D104*
X01422Y02276D02*
D03*
Y02176D02*
D03*
Y01976D02*
D03*
Y01876D02*
D03*
X01322Y02276D02*
D03*
Y02176D02*
D03*
Y01976D02*
D03*
Y01876D02*
D03*
X01222Y02276D02*
D03*
Y02176D02*
D03*
Y01976D02*
D03*
Y01876D02*
D03*
X01522D02*
D03*
Y01976D02*
D03*
Y02176D02*
D03*
Y02276D02*
D03*
X01422Y01776D02*
D03*
X01322D02*
D03*
X01222D02*
D03*
X01522D02*
D03*
X01422Y02076D02*
D03*
X01322D02*
D03*
X01222D02*
D03*
X01522D02*
D03*
Y01676D02*
D03*
Y01576D02*
D03*
X01222D02*
D03*
Y01676D02*
D03*
X01322Y01576D02*
D03*
Y01676D02*
D03*
X01422Y01576D02*
D03*
Y01676D02*
D03*
D105*
X0345Y0215D02*
D03*
X0355D02*
D03*
X0345Y0205D02*
D03*
X0355D02*
D03*
X0345Y0195D02*
D03*
X0355D02*
D03*
D106*
X0209Y03D02*
D03*
X0199D02*
D03*
X0189D02*
D03*
X0179D02*
D03*
X0169D02*
D03*
X0159D02*
D03*
X0149D02*
D03*
X0139D02*
D03*
X0129D02*
D03*
X0119D02*
D03*
X0295D02*
D03*
X0285D02*
D03*
X0275D02*
D03*
X0265D02*
D03*
X0255D02*
D03*
X0245D02*
D03*
X0235D02*
D03*
X0225D02*
D03*
X0245Y011D02*
D03*
X0255D02*
D03*
X0265D02*
D03*
X0275D02*
D03*
X0285D02*
D03*
X0295D02*
D03*
X0155D02*
D03*
X0165D02*
D03*
X0175D02*
D03*
X0185D02*
D03*
X0195D02*
D03*
X0205D02*
D03*
X0215D02*
D03*
X0225D02*
D03*
D107*
X036Y024D02*
D03*
D108*
X03327Y0117944D02*
D03*
Y0123456D02*
D03*
X0330732Y01207D02*
D03*
X0334668D02*
D03*
D109*
X0231496Y0206791D02*
D03*
X0209941Y0240748D02*
D03*
X0217913Y0252264D02*
D03*
X0198425Y014813D02*
D03*
X01908Y01577D02*
D03*
X02593Y01695D02*
D03*
X0259Y0219325D02*
D03*
X02216Y02397D02*
D03*
X02236Y02425D02*
D03*
X03282Y02428D02*
D03*
X03Y01948D02*
D03*
X03081Y02277D02*
D03*
X02444Y015435D02*
D03*
X02603Y01543D02*
D03*
X02598Y01731D02*
D03*
X02769Y01703D02*
D03*
Y0175D02*
D03*
X02556Y02281D02*
D03*
X03293Y02161D02*
D03*
X02385Y01983D02*
D03*
X0242D02*
D03*
X0244525Y0203975D02*
D03*
X02688Y0141219D02*
D03*
X0270844Y01456D02*
D03*
X02687Y01456D02*
D03*
X03392Y01271D02*
D03*
X02776Y02336D02*
D03*
X02777Y02387D02*
D03*
X0272Y02361D02*
D03*
X02686Y0232D02*
D03*
X0277572Y02426D02*
D03*
X0327Y02465D02*
D03*
X02955Y02402D02*
D03*
X03293Y0211D02*
D03*
X03179Y02039D02*
D03*
X03086D02*
D03*
X02977Y02065D02*
D03*
X03086Y01948D02*
D03*
X02939Y02243D02*
D03*
X03293Y02011D02*
D03*
X02977Y02111D02*
D03*
X02976Y02159D02*
D03*
X03081Y02303D02*
D03*
X03189Y02352D02*
D03*
X03081Y02353D02*
D03*
X0269159Y0226128D02*
D03*
X0272082Y0228097D02*
D03*
X03081Y02428D02*
D03*
Y02378D02*
D03*
X03189Y02402D02*
D03*
Y02277D02*
D03*
X0269088Y0194632D02*
D03*
X0252Y02168D02*
D03*
X0257108Y0242101D02*
D03*
X0186049Y0232065D02*
D03*
X0257769Y0216286D02*
D03*
Y0176916D02*
D03*
X0259301Y0182821D02*
D03*
X0257801Y0188758D02*
D03*
Y0184821D02*
D03*
Y0208443D02*
D03*
X0259301Y0186821D02*
D03*
Y0190695D02*
D03*
X0257801Y0192695D02*
D03*
X0198063Y0170359D02*
D03*
X0211811Y0159031D02*
D03*
X0204021Y0242101D02*
D03*
X0205958Y0240601D02*
D03*
X0207895Y0242101D02*
D03*
X0219706D02*
D03*
X0217769Y0240601D02*
D03*
X0213832D02*
D03*
X0215832Y0242101D02*
D03*
X0235423Y0240601D02*
D03*
X0237423Y0242101D02*
D03*
X023936Y0240601D02*
D03*
X0243297D02*
D03*
X0241297Y0242101D02*
D03*
X0245297D02*
D03*
X0203318Y0209618D02*
D03*
Y0201418D02*
D03*
X0206818D02*
D03*
X0211832Y0251888D02*
D03*
X0174688Y0202496D02*
D03*
X0259Y0234D02*
D03*
X0233496Y0170359D02*
D03*
X0237433D02*
D03*
X0239433Y0168859D02*
D03*
X0249244Y0170359D02*
D03*
X0245307D02*
D03*
X0243307Y0168859D02*
D03*
X0215811D02*
D03*
X0213811Y0170359D02*
D03*
X0217748D02*
D03*
X0209874D02*
D03*
X0207937Y0168859D02*
D03*
X0231459Y0204059D02*
D03*
X0222659Y0196559D02*
D03*
Y0199459D02*
D03*
X0222635Y0211288D02*
D03*
X0222659Y0214241D02*
D03*
X0213859Y0206759D02*
D03*
X0225612Y0202465D02*
D03*
X0219712Y0202435D02*
D03*
X0225583Y0208365D02*
D03*
X0200063Y0168859D02*
D03*
X0202Y0170359D02*
D03*
X0205937D02*
D03*
X0203937Y0168859D02*
D03*
X0213859Y0204059D02*
D03*
X0229559Y0170359D02*
D03*
X0227622Y0168859D02*
D03*
X0223685D02*
D03*
X0192147Y0168817D02*
D03*
X0192Y01533D02*
D03*
X02384Y01572D02*
D03*
X0241356Y0148644D02*
D03*
X01862Y01893D02*
D03*
Y0196219D02*
D03*
X0225622Y0253625D02*
D03*
X01865Y02474D02*
D03*
X01948Y02421D02*
D03*
X02314Y02558D02*
D03*
X0233424Y02421D02*
D03*
X0198Y02517D02*
D03*
X0231525Y0251465D02*
D03*
X0227549Y0240601D02*
D03*
X0234675Y0253475D02*
D03*
X02588Y02301D02*
D03*
X02578Y02005D02*
D03*
X0245719Y02005D02*
D03*
X02691Y02222D02*
D03*
X02157Y0151688D02*
D03*
Y01572D02*
D03*
X0201544Y0156356D02*
D03*
X02261Y01517D02*
D03*
X019Y02127D02*
D03*
X01897Y0207125D02*
D03*
X01862Y0184419D02*
D03*
Y0186758D02*
D03*
Y02011D02*
D03*
Y01986D02*
D03*
X0254756Y0155156D02*
D03*
X0249644D02*
D03*
X0235465Y01596D02*
D03*
X02522Y01489D02*
D03*
X0271644Y0187889D02*
D03*
X0277156D02*
D03*
X0277464Y01808D02*
D03*
X025932Y0198569D02*
D03*
X0271644Y0207244D02*
D03*
X0249234Y0242101D02*
D03*
X0245144Y0257156D02*
D03*
X0259325Y0204475D02*
D03*
X0277156Y0207244D02*
D03*
X02764Y02002D02*
D03*
X02577Y02127D02*
D03*
X0246225Y0236175D02*
D03*
X033Y02273D02*
D03*
X03297Y022D02*
D03*
X03063Y02222D02*
D03*
X02983D02*
D03*
X01406Y0250372D02*
D03*
X01326Y02504D02*
D03*
X01246D02*
D03*
X01487Y0250472D02*
D03*
X01747Y01985D02*
D03*
X0196Y01688D02*
D03*
X0250656Y0257156D02*
D03*
X025145Y02341D02*
D03*
D110*
X0231507Y0240559D02*
D03*
X02236Y02518D02*
D03*
X02567Y02222D02*
D03*
X017623Y0214317D02*
D03*
X0176198Y020838D02*
D03*
X01762Y01888D02*
D03*
X0198Y02422D02*
D03*
X0176198Y0200506D02*
D03*
D111*
X0306815Y0170855D02*
D03*
X0360701Y0136199D02*
D03*
X03138Y01451D02*
D03*
D112*
X02688Y01327D02*
D03*
X02819Y01456D02*
D03*
X02556Y01364D02*
D03*
X0295625Y01454D02*
D03*
X02372Y01326D02*
D03*
X02348Y01402D02*
D03*
M02*
