%FSTAX23Y23*%
%MOIN*%
G70*
G01*
G75*
G04 Layer_Physical_Order=2*
G04 Layer_Color=128*
%ADD10O,0.071X0.012*%
%ADD11O,0.012X0.071*%
%ADD12O,0.073X0.014*%
%ADD13R,0.081X0.028*%
%ADD14R,0.022X0.018*%
%ADD15R,0.028X0.035*%
%ADD16R,0.035X0.028*%
%ADD17R,0.020X0.020*%
%ADD18R,0.020X0.020*%
%ADD19R,0.018X0.022*%
%ADD20C,0.010*%
%ADD21C,0.005*%
%ADD22C,0.020*%
%ADD23C,0.030*%
%ADD24O,0.157X0.079*%
%ADD25O,0.079X0.157*%
%ADD26O,0.079X0.177*%
%ADD27R,0.059X0.059*%
%ADD28C,0.059*%
%ADD29C,0.060*%
%ADD30P,0.067X8X112.5*%
%ADD31O,0.056X0.112*%
%ADD32C,0.126*%
%ADD33C,0.020*%
%ADD34C,0.016*%
%ADD35C,0.016*%
%ADD36C,0.050*%
%ADD37C,0.028*%
%ADD38C,0.040*%
%ADD39R,0.702X0.254*%
%ADD40O,0.158X0.079*%
%ADD41O,0.079X0.158*%
%ADD42O,0.079X0.178*%
%ADD43C,0.075*%
G04:AMPARAMS|DCode=44|XSize=95.433mil|YSize=95.433mil|CornerRadius=0mil|HoleSize=0mil|Usage=FLASHONLY|Rotation=0.000|XOffset=0mil|YOffset=0mil|HoleType=Round|Shape=Relief|Width=10mil|Gap=10mil|Entries=4|*
%AMTHD44*
7,0,0,0.095,0.075,0.010,45*
%
%ADD44THD44*%
%ADD45C,0.076*%
G04:AMPARAMS|DCode=46|XSize=95.5mil|YSize=95.5mil|CornerRadius=0mil|HoleSize=0mil|Usage=FLASHONLY|Rotation=0.000|XOffset=0mil|YOffset=0mil|HoleType=Round|Shape=Relief|Width=10mil|Gap=10mil|Entries=4|*
%AMTHD46*
7,0,0,0.096,0.076,0.010,45*
%
%ADD46THD46*%
%ADD47C,0.078*%
%ADD48C,0.074*%
%ADD49C,0.166*%
G04:AMPARAMS|DCode=50|XSize=70mil|YSize=70mil|CornerRadius=0mil|HoleSize=0mil|Usage=FLASHONLY|Rotation=0.000|XOffset=0mil|YOffset=0mil|HoleType=Round|Shape=Relief|Width=10mil|Gap=10mil|Entries=4|*
%AMTHD50*
7,0,0,0.070,0.050,0.010,45*
%
%ADD50THD50*%
%ADD51C,0.068*%
%ADD52C,0.056*%
D21*
X01Y009D02*
Y00928D01*
X01014D01*
X01019Y00923D01*
Y00914D01*
X01014Y00909D01*
X01D01*
X01028Y00928D02*
Y009D01*
X01037Y00909D01*
X01047Y009D01*
Y00928D01*
X01056Y009D02*
Y00928D01*
X0107D01*
X01075Y00923D01*
Y00914D01*
X0107Y00909D01*
X01056D01*
X01065D02*
X01075Y009D01*
D36*
X03327Y01179D02*
D03*
Y01235D02*
D03*
X03307Y01207D02*
D03*
X03347D02*
D03*
X02236Y02518D02*
D03*
X02567Y02222D02*
D03*
X0259Y02193D02*
D03*
X02216Y02397D02*
D03*
X03282Y02428D02*
D03*
X03081Y02277D02*
D03*
X02444Y01544D02*
D03*
X02603Y01543D02*
D03*
X02598Y01731D02*
D03*
X03293Y02161D02*
D03*
X02385Y01983D02*
D03*
X0242D02*
D03*
X03392Y01271D02*
D03*
X02776Y02336D02*
D03*
X0272Y02361D02*
D03*
X02686Y0232D02*
D03*
X0327Y02465D02*
D03*
X02955Y02402D02*
D03*
X03293Y0211D02*
D03*
X02977Y02065D02*
D03*
X03086Y01948D02*
D03*
X02939Y02243D02*
D03*
X03293Y02011D02*
D03*
X02977Y02111D02*
D03*
X02976Y02159D02*
D03*
X03081Y02303D02*
D03*
X03189Y02352D02*
D03*
X03081Y02353D02*
D03*
X02692Y02261D02*
D03*
X02721Y02281D02*
D03*
X03081Y02428D02*
D03*
Y02378D02*
D03*
X03189Y02402D02*
D03*
Y02277D02*
D03*
X02691Y01946D02*
D03*
X0252Y02168D02*
D03*
X02571Y02421D02*
D03*
X0186Y02321D02*
D03*
X02578Y02163D02*
D03*
Y01769D02*
D03*
X02593Y01828D02*
D03*
X02578Y01888D02*
D03*
Y01848D02*
D03*
Y02084D02*
D03*
X02593Y01868D02*
D03*
Y01907D02*
D03*
X02578Y01927D02*
D03*
X01981Y01704D02*
D03*
X02118Y0159D02*
D03*
X0204Y02421D02*
D03*
X0206Y02406D02*
D03*
X02079Y02421D02*
D03*
X02099Y02406D02*
D03*
X02197Y02421D02*
D03*
X02178Y02406D02*
D03*
X02138D02*
D03*
X02158Y02421D02*
D03*
X02354Y02406D02*
D03*
X02374Y02421D02*
D03*
X02394Y02406D02*
D03*
X02433D02*
D03*
X02413Y02421D02*
D03*
X02453D02*
D03*
X02033Y02014D02*
D03*
X02068D02*
D03*
X02118Y02519D02*
D03*
X01747Y02025D02*
D03*
X0259Y0234D02*
D03*
X02335Y01704D02*
D03*
X02374D02*
D03*
X02394Y01689D02*
D03*
X02492Y01704D02*
D03*
X02453D02*
D03*
X02433Y01689D02*
D03*
X02158D02*
D03*
X02138Y01704D02*
D03*
X02177D02*
D03*
X02099D02*
D03*
X02079Y01689D02*
D03*
X02227Y01966D02*
D03*
Y01995D02*
D03*
X02226Y02113D02*
D03*
X02227Y02142D02*
D03*
X02315Y02069D02*
D03*
X02256Y02025D02*
D03*
X02197Y02024D02*
D03*
X02256Y02084D02*
D03*
X02001Y01689D02*
D03*
X0202Y01704D02*
D03*
X02059D02*
D03*
X02039Y01689D02*
D03*
X02139Y02041D02*
D03*
X02296Y01704D02*
D03*
X02276Y01689D02*
D03*
X01762Y02143D02*
D03*
X01762Y02084D02*
D03*
X02237Y01689D02*
D03*
X01921Y01688D02*
D03*
X0192Y01533D02*
D03*
X02384Y01572D02*
D03*
X02414Y01486D02*
D03*
X01762Y01888D02*
D03*
X01862Y01962D02*
D03*
X02256Y02536D02*
D03*
X01865Y02474D02*
D03*
X0198Y02422D02*
D03*
X01948Y02421D02*
D03*
X02314Y02558D02*
D03*
X02315Y02406D02*
D03*
X02334Y02421D02*
D03*
X02275Y02406D02*
D03*
X02179Y02519D02*
D03*
X02347Y02535D02*
D03*
X02588Y02301D02*
D03*
X02578Y02005D02*
D03*
X02457Y02005D02*
D03*
X02157Y01517D02*
D03*
X01985Y01485D02*
D03*
X02261Y01517D02*
D03*
X01897Y02071D02*
D03*
X01862Y01844D02*
D03*
Y01868D02*
D03*
Y01986D02*
D03*
X02355Y01596D02*
D03*
X02522Y01489D02*
D03*
X02772Y01879D02*
D03*
X02775Y01808D02*
D03*
X02593Y01986D02*
D03*
X02492Y02421D02*
D03*
X02451Y02572D02*
D03*
X02593Y02045D02*
D03*
X02772Y02072D02*
D03*
X02764Y02002D02*
D03*
X02577Y02127D02*
D03*
X033Y02273D02*
D03*
X03297Y022D02*
D03*
X02983Y02222D02*
D03*
X01762Y02005D02*
D03*
X01747Y01985D02*
D03*
X01908Y01577D02*
D03*
X0196Y01688D02*
D03*
X02514Y02341D02*
D03*
D38*
X0104Y031D02*
G03*
X01Y03061I-00001J-0004D01*
G01*
Y0104D02*
G03*
X0104Y01I0004J0D01*
G01*
X03561D02*
G03*
X036Y0104I-00001J0004D01*
G01*
X01D02*
Y03061D01*
X0104Y01D02*
X03561D01*
X036Y0104D02*
Y011D01*
X037Y012D01*
Y0249D01*
X036Y0259D02*
X037Y0249D01*
X036Y0259D02*
Y0304D01*
X0354Y031D02*
X036Y0304D01*
X0104Y031D02*
X0354D01*
D39*
X02699Y01127D02*
D03*
D40*
X03447Y01811D02*
D03*
D41*
X03565Y01614D02*
D03*
D42*
X03321D02*
D03*
D43*
X0122Y01321D02*
D03*
X0132D02*
D03*
Y01421D02*
D03*
X0142Y01321D02*
D03*
Y01421D02*
D03*
X0152Y01321D02*
D03*
Y01421D02*
D03*
X0162Y01321D02*
D03*
Y01421D02*
D03*
X0172Y01321D02*
D03*
Y01421D02*
D03*
X0182Y01321D02*
D03*
Y01421D02*
D03*
X0192Y01321D02*
D03*
Y01421D02*
D03*
X0202Y01321D02*
D03*
Y01421D02*
D03*
X0212Y01321D02*
D03*
Y01421D02*
D03*
X01187Y02638D02*
D03*
Y02738D02*
D03*
X01287Y02638D02*
D03*
Y02738D02*
D03*
X01387Y02638D02*
D03*
Y02738D02*
D03*
X01487Y02638D02*
D03*
Y02738D02*
D03*
X01587D02*
D03*
X03235Y02673D02*
D03*
X03135D02*
D03*
X03035D02*
D03*
X02767Y01375D02*
D03*
X02867D02*
D03*
X02967D02*
D03*
D44*
X0122Y01421D02*
D03*
X01587Y02638D02*
D03*
D45*
X01422Y02276D02*
D03*
Y02176D02*
D03*
Y01976D02*
D03*
Y01876D02*
D03*
X01322Y02276D02*
D03*
Y02176D02*
D03*
Y01976D02*
D03*
Y01876D02*
D03*
X01222Y02276D02*
D03*
Y02176D02*
D03*
Y01976D02*
D03*
Y01876D02*
D03*
X01522D02*
D03*
Y01976D02*
D03*
Y02176D02*
D03*
Y02276D02*
D03*
X01422Y01776D02*
D03*
X01322D02*
D03*
X01222D02*
D03*
X01522D02*
D03*
X01422Y02076D02*
D03*
X01322D02*
D03*
X01222D02*
D03*
X01522D02*
D03*
Y01676D02*
D03*
X01222Y01576D02*
D03*
Y01676D02*
D03*
X01322Y01576D02*
D03*
Y01676D02*
D03*
X01422D02*
D03*
D46*
X01522Y01576D02*
D03*
X01422D02*
D03*
D47*
X0345Y0215D02*
D03*
X0355D02*
D03*
X0345Y0205D02*
D03*
X0355D02*
D03*
X0345Y0195D02*
D03*
X0355D02*
D03*
D48*
X0209Y03D02*
D03*
X0199D02*
D03*
X0189D02*
D03*
X0179D02*
D03*
X0169D02*
D03*
X0159D02*
D03*
X0149D02*
D03*
X0139D02*
D03*
X0129D02*
D03*
X0119D02*
D03*
X0295D02*
D03*
X0285D02*
D03*
X0275D02*
D03*
X0265D02*
D03*
X0255D02*
D03*
X0245D02*
D03*
X0235D02*
D03*
X0225D02*
D03*
X0245Y011D02*
D03*
X0255D02*
D03*
X0265D02*
D03*
X0275D02*
D03*
X0285D02*
D03*
X0295D02*
D03*
X0155D02*
D03*
X0165D02*
D03*
X0175D02*
D03*
X0185D02*
D03*
X0195D02*
D03*
X0205D02*
D03*
X0215D02*
D03*
X0225D02*
D03*
D49*
X036Y024D02*
D03*
D50*
X02593Y01695D02*
D03*
X02236Y02425D02*
D03*
X03Y01948D02*
D03*
X02769Y01703D02*
D03*
Y0175D02*
D03*
X02556Y02281D02*
D03*
X02445Y0204D02*
D03*
X02688Y01412D02*
D03*
X02708Y01456D02*
D03*
X02687Y01456D02*
D03*
X02777Y02387D02*
D03*
X02776Y02426D02*
D03*
X03179Y02039D02*
D03*
X03086D02*
D03*
X02033Y02096D02*
D03*
X02315Y02041D02*
D03*
X02139Y02068D02*
D03*
X01862Y01893D02*
D03*
X0198Y02517D02*
D03*
X02315Y02515D02*
D03*
X02691Y02222D02*
D03*
X02157Y01572D02*
D03*
X02015Y01564D02*
D03*
X019Y02127D02*
D03*
X01862Y02011D02*
D03*
X02548Y01552D02*
D03*
X02496D02*
D03*
X02716Y01879D02*
D03*
X02716Y02072D02*
D03*
X02462Y02362D02*
D03*
X03063Y02222D02*
D03*
X01406Y02504D02*
D03*
X01326Y02504D02*
D03*
X01246D02*
D03*
X01487Y02505D02*
D03*
X02507Y02572D02*
D03*
D51*
X03068Y01709D02*
D03*
X03607Y01362D02*
D03*
X03138Y01451D02*
D03*
D52*
X02688Y01327D02*
D03*
X02819Y01456D02*
D03*
X02556Y01364D02*
D03*
X02956Y01454D02*
D03*
X02372Y01326D02*
D03*
X02348Y01402D02*
D03*
M02*
