%FSTAX23Y23*%
%MOIN*%
G70*
G01*
G75*
G04 Layer_Physical_Order=4*
G04 Layer_Color=16711680*
%ADD10O,0.071X0.012*%
%ADD11O,0.012X0.071*%
%ADD12O,0.073X0.014*%
%ADD13R,0.081X0.028*%
%ADD14R,0.022X0.018*%
%ADD15R,0.028X0.035*%
%ADD16R,0.035X0.028*%
%ADD17R,0.020X0.020*%
%ADD18R,0.020X0.020*%
%ADD19R,0.018X0.022*%
%ADD20C,0.010*%
%ADD21C,0.005*%
%ADD22C,0.020*%
%ADD23C,0.030*%
%ADD24O,0.157X0.079*%
%ADD25O,0.079X0.157*%
%ADD26O,0.079X0.177*%
%ADD27R,0.059X0.059*%
%ADD28C,0.059*%
%ADD29C,0.060*%
%ADD30P,0.067X8X112.5*%
%ADD31O,0.056X0.112*%
%ADD32C,0.126*%
%ADD33C,0.020*%
%ADD34C,0.016*%
%ADD35C,0.016*%
%ADD36C,0.050*%
%ADD37C,0.028*%
%ADD38C,0.040*%
%ADD39R,0.702X0.254*%
%ADD40O,0.158X0.079*%
%ADD41O,0.079X0.158*%
%ADD42O,0.079X0.178*%
%ADD43C,0.075*%
G04:AMPARAMS|DCode=44|XSize=95.433mil|YSize=95.433mil|CornerRadius=0mil|HoleSize=0mil|Usage=FLASHONLY|Rotation=0.000|XOffset=0mil|YOffset=0mil|HoleType=Round|Shape=Relief|Width=10mil|Gap=10mil|Entries=4|*
%AMTHD44*
7,0,0,0.095,0.075,0.010,45*
%
%ADD44THD44*%
%ADD45C,0.076*%
G04:AMPARAMS|DCode=46|XSize=95.5mil|YSize=95.5mil|CornerRadius=0mil|HoleSize=0mil|Usage=FLASHONLY|Rotation=0.000|XOffset=0mil|YOffset=0mil|HoleType=Round|Shape=Relief|Width=10mil|Gap=10mil|Entries=4|*
%AMTHD46*
7,0,0,0.096,0.076,0.010,45*
%
%ADD46THD46*%
%ADD47C,0.078*%
%ADD48C,0.074*%
%ADD49C,0.166*%
G04:AMPARAMS|DCode=50|XSize=70mil|YSize=70mil|CornerRadius=0mil|HoleSize=0mil|Usage=FLASHONLY|Rotation=0.000|XOffset=0mil|YOffset=0mil|HoleType=Round|Shape=Relief|Width=10mil|Gap=10mil|Entries=4|*
%AMTHD50*
7,0,0,0.070,0.050,0.010,45*
%
%ADD50THD50*%
%ADD51C,0.068*%
%ADD52C,0.056*%
%AMTHOVALD53*
21,1,0.079,0.099,0,0,180.0*
1,1,0.099,0.039,0.000*
1,1,0.099,-0.039,0.000*
21,0,0.079,0.079,0,0,180.0*
1,0,0.079,0.039,0.000*
1,0,0.079,-0.039,0.000*
4,0,4,0.036,0.004,0.071,0.039,0.078,0.032,0.043,-0.004,0.036,0.004,0.0*
4,0,4,-0.043,0.004,-0.078,-0.032,-0.071,-0.039,-0.036,-0.004,-0.043,0.004,0.0*
4,0,4,0.043,0.004,0.078,-0.032,0.071,-0.039,0.036,-0.004,0.043,0.004,0.0*
4,0,4,-0.036,0.004,-0.071,0.039,-0.078,0.032,-0.043,-0.004,-0.036,0.004,0.0*
%
%ADD53THOVALD53*%

%AMTHOVALD54*
21,1,0.079,0.099,0,0,270.0*
1,1,0.099,0.000,0.039*
1,1,0.099,0.000,-0.039*
21,0,0.079,0.079,0,0,270.0*
1,0,0.079,0.000,0.039*
1,0,0.079,0.000,-0.039*
4,0,4,-0.004,0.036,-0.039,0.071,-0.032,0.078,0.004,0.043,-0.004,0.036,0.0*
4,0,4,-0.004,-0.043,0.032,-0.078,0.039,-0.071,0.004,-0.036,-0.004,-0.043,0.0*
4,0,4,-0.004,0.043,0.032,0.078,0.039,0.071,0.004,0.036,-0.004,0.043,0.0*
4,0,4,-0.004,-0.036,-0.039,-0.071,-0.032,-0.078,0.004,-0.043,-0.004,-0.036,0.0*
%
%ADD54THOVALD54*%

G04:AMPARAMS|DCode=55|XSize=98mil|YSize=98mil|CornerRadius=0mil|HoleSize=0mil|Usage=FLASHONLY|Rotation=0.000|XOffset=0mil|YOffset=0mil|HoleType=Round|Shape=Relief|Width=10mil|Gap=10mil|Entries=4|*
%AMTHD55*
7,0,0,0.098,0.078,0.010,45*
%
%ADD55THD55*%
G04:AMPARAMS|DCode=56|XSize=94mil|YSize=94mil|CornerRadius=0mil|HoleSize=0mil|Usage=FLASHONLY|Rotation=0.000|XOffset=0mil|YOffset=0mil|HoleType=Round|Shape=Relief|Width=10mil|Gap=10mil|Entries=4|*
%AMTHD56*
7,0,0,0.094,0.074,0.010,45*
%
%ADD56THD56*%
G04:AMPARAMS|DCode=57|XSize=88mil|YSize=88mil|CornerRadius=0mil|HoleSize=0mil|Usage=FLASHONLY|Rotation=0.000|XOffset=0mil|YOffset=0mil|HoleType=Round|Shape=Relief|Width=10mil|Gap=10mil|Entries=4|*
%AMTHD57*
7,0,0,0.088,0.068,0.010,45*
%
%ADD57THD57*%
G04:AMPARAMS|DCode=58|XSize=76mil|YSize=76mil|CornerRadius=0mil|HoleSize=0mil|Usage=FLASHONLY|Rotation=0.000|XOffset=0mil|YOffset=0mil|HoleType=Round|Shape=Relief|Width=10mil|Gap=10mil|Entries=4|*
%AMTHD58*
7,0,0,0.076,0.056,0.010,45*
%
%ADD58THD58*%
%ADD59R,0.075X0.031*%
%ADD60R,0.075X0.122*%
%ADD61R,0.063X0.026*%
%ADD62R,0.087X0.118*%
%ADD63R,0.020X0.012*%
%ADD64C,0.012*%
%ADD65R,0.035X0.047*%
%ADD66R,0.067X0.066*%
%ADD67R,0.087X0.079*%
%ADD68C,0.050*%
%ADD69C,0.013*%
%ADD70C,0.015*%
G36*
X03271Y01186D02*
X03247D01*
Y0126D01*
X03271D01*
Y01186D01*
D02*
G37*
G36*
X03477Y01199D02*
X0343D01*
X03412Y01217D01*
Y01228D01*
X03431Y01247D01*
X03477D01*
Y01199D01*
D02*
G37*
D14*
X03105Y02076D02*
D03*
Y0204D02*
D03*
X02556Y02341D02*
D03*
Y02305D02*
D03*
X02555Y02127D02*
D03*
Y02163D02*
D03*
X02571Y01731D02*
D03*
Y01695D02*
D03*
X03161Y02076D02*
D03*
Y0204D02*
D03*
D15*
X02733Y01456D02*
D03*
X02789D02*
D03*
X0238Y01402D02*
D03*
X02436D02*
D03*
X02235Y02474D02*
D03*
X02179D02*
D03*
X02538Y02005D02*
D03*
X02482D02*
D03*
X02867Y01456D02*
D03*
X02923D02*
D03*
D16*
X01812Y019D02*
D03*
Y01844D02*
D03*
Y02018D02*
D03*
Y01962D02*
D03*
X0187Y0207D02*
D03*
Y02126D02*
D03*
X01707Y02025D02*
D03*
Y01969D02*
D03*
D17*
X02437Y01326D02*
D03*
X02405D02*
D03*
X02494Y02341D02*
D03*
X02462D02*
D03*
X02347Y02471D02*
D03*
X02315D02*
D03*
X01949Y02473D02*
D03*
X0198D02*
D03*
X02256Y02558D02*
D03*
X02288D02*
D03*
D18*
X02068Y02069D02*
D03*
Y02037D02*
D03*
X02385Y0204D02*
D03*
Y02008D02*
D03*
X02688Y01391D02*
D03*
Y01359D02*
D03*
X02642Y02193D02*
D03*
Y02225D02*
D03*
X01827Y02113D02*
D03*
Y02081D02*
D03*
X0242Y0204D02*
D03*
Y02008D02*
D03*
X02033Y02069D02*
D03*
Y02037D02*
D03*
D19*
X02517Y02084D02*
D03*
X02553D02*
D03*
D20*
X02571Y01695D02*
X02593D01*
X02593Y01695D02*
X02593Y01695D01*
X0259Y02193D02*
X0259Y02193D01*
X02642D01*
X03282Y02428D02*
X03283D01*
X03156Y02244D02*
X03189Y02277D01*
X02949Y02261D02*
X02966Y02244D01*
X03133Y02259D02*
X03182Y02308D01*
X02972Y02259D02*
X03133D01*
X0295Y02281D02*
X02972Y02259D01*
X02966Y02244D02*
X03156D01*
X02721Y02281D02*
X0295D01*
X02692Y02261D02*
X02949D01*
X03182Y02308D02*
Y02345D01*
X02555Y02282D02*
X02556Y02283D01*
Y02305D01*
X02589Y02341D02*
X0259Y0234D01*
X02556Y02341D02*
X02589D01*
X02385Y01983D02*
Y02008D01*
X0242Y01983D02*
Y02008D01*
Y0204D02*
X02445D01*
X03516Y01362D02*
X0357D01*
X03392Y01271D02*
X03392Y01271D01*
X03392Y01254D02*
Y01271D01*
Y01223D02*
X03416D01*
X0272Y02361D02*
X02967D01*
X02984Y02378D01*
X03195Y0211D02*
X03293D01*
X03161Y02076D02*
X03195Y0211D01*
X03234Y0217D02*
Y02388D01*
X03175Y02111D02*
X03234Y0217D01*
X02977Y02111D02*
X03175D01*
X03094Y02065D02*
X03105Y02076D01*
X02977Y02065D02*
X03094D01*
X03178Y0204D02*
X03179Y02039D01*
X03161Y0204D02*
X03178D01*
X03086Y02039D02*
X03087Y0204D01*
X03105D01*
X02939Y02043D02*
Y02243D01*
X02971Y02011D02*
X03293D01*
X02939Y02043D02*
X02971Y02011D01*
X03194Y02428D02*
X03234Y02388D01*
X03081Y02428D02*
X03194D01*
X02976Y02159D02*
X03191D01*
X03214Y02182D01*
Y02377D01*
X03189Y02402D02*
X03214Y02377D01*
X03182Y02345D02*
X03189Y02352D01*
X02984Y02378D02*
X03081D01*
X0252Y02168D02*
X0252Y02168D01*
X02486Y02168D02*
X0252D01*
X02578Y02084D02*
X02578Y02084D01*
X02553Y02084D02*
X02578D01*
X02517D02*
Y02093D01*
X02494Y02116D02*
X02517Y02093D01*
X0241Y02116D02*
X02494D01*
X024Y02126D02*
X0241Y02116D01*
X024Y02126D02*
Y02168D01*
X02103Y02673D02*
X03035D01*
X03235D02*
Y02717D01*
X03213Y02739D02*
X03235Y02717D01*
X02033Y02071D02*
Y02096D01*
Y02071D02*
X02068D01*
X02072Y02068D02*
X02139D01*
X02068Y02071D02*
X02072Y02068D01*
X02033Y02014D02*
Y02039D01*
X02068Y02014D02*
Y02039D01*
X02382Y02041D02*
X02385Y02037D01*
X02315Y02041D02*
X02382D01*
X02385Y0204D02*
X0242D01*
X023Y02039D02*
X02314D01*
X0214D02*
X02153D01*
X02139Y02041D02*
X0214Y02039D01*
X02139Y02069D02*
X02153D01*
X023D02*
X02314D01*
X02315Y02069D01*
X0189Y02886D02*
X02103Y02673D01*
X0189Y02886D02*
Y03D01*
X0199Y02899D02*
X0215Y02739D01*
X0199Y02899D02*
Y03D01*
X0215Y02739D02*
X03213D01*
X0279Y02817D02*
X03212D01*
X0275Y02857D02*
X0279Y02817D01*
X0275Y02857D02*
Y03D01*
X03212Y02817D02*
X033Y02729D01*
Y02273D02*
Y02729D01*
X01762Y02005D02*
X01809D01*
X01762Y01888D02*
X0181D01*
X01723Y01985D02*
X01747D01*
X01707Y01969D02*
X01723Y01985D01*
X01949Y02422D02*
Y02473D01*
X01948Y02421D02*
X01949Y02422D01*
X02288Y02558D02*
X02314D01*
X02179Y02474D02*
Y02519D01*
X02347Y02471D02*
Y02535D01*
X0308Y02302D02*
X03081Y02303D01*
X02588Y02301D02*
X02589Y02302D01*
X0308D01*
X02538Y02005D02*
X02578D01*
X02457D02*
X02482D01*
X0181Y01888D02*
X01815Y01893D01*
X01809Y02005D02*
X01815Y02011D01*
X02555Y02163D02*
X02578D01*
X02578Y02163D01*
X02555Y02127D02*
X02577D01*
X02577Y02127D01*
X03297Y022D02*
X03299Y02198D01*
X02494Y02341D02*
X02514D01*
D21*
X02359Y02299D02*
X02453Y02394D01*
Y02421D01*
X02639Y02222D02*
X02642Y02225D01*
X02567Y02222D02*
X02639D01*
X02359Y02118D02*
Y02299D01*
X02571Y01731D02*
X02571Y01731D01*
X02598D01*
X02976Y02465D02*
X0327D01*
X02955Y02444D02*
X02976Y02465D01*
X02955Y02402D02*
Y02444D01*
X02143Y02114D02*
X02166D01*
X02182Y02099D01*
X02121Y02136D02*
X02143Y02114D01*
X0204Y02403D02*
Y02421D01*
Y02403D02*
X02094Y02349D01*
Y02118D02*
Y02349D01*
X02079Y02404D02*
Y02421D01*
Y02404D02*
X02121Y02362D01*
Y02136D02*
Y02362D01*
X0206Y02403D02*
X02108Y02355D01*
X0206Y02403D02*
Y02406D01*
X02108Y02127D02*
Y02355D01*
X0204Y02421D02*
X0204Y02421D01*
X02099Y02406D02*
X02133Y02372D01*
X02178Y02406D02*
X02212Y02372D01*
Y02157D02*
Y02372D01*
X02197Y02113D02*
Y02364D01*
X02158Y02403D02*
X02197Y02364D01*
X02158Y02403D02*
Y02421D01*
X02138Y02406D02*
X02182Y02362D01*
Y02157D02*
Y02362D01*
X02241Y02157D02*
Y02352D01*
X02275Y02386D01*
Y02406D01*
X02271Y02157D02*
Y02304D01*
X02354Y02387D01*
Y02406D01*
X02256Y02113D02*
Y0231D01*
X02334Y02388D01*
Y02421D01*
X02286Y02143D02*
Y02299D01*
X02374Y02387D01*
Y02421D01*
X02345Y02127D02*
Y023D01*
X02433Y02388D01*
Y02406D01*
X02332Y02136D02*
Y02307D01*
X02413Y02388D01*
Y02421D01*
X02317Y02145D02*
Y02312D01*
X02394Y02389D01*
Y02406D01*
X02324Y02084D02*
X02359Y02118D01*
X02286Y02084D02*
X02324D01*
X02241Y02098D02*
X02256Y02113D01*
X02271Y02157D02*
X02273Y02159D01*
X02271Y02128D02*
X02286Y02143D01*
X023Y02128D02*
Y02128D01*
X02317Y02145D01*
X02271Y02098D02*
Y02099D01*
X02287Y02114D01*
X0231D02*
X02332Y02136D01*
X02287Y02114D02*
X0231D01*
X023Y02098D02*
X02315D01*
X02345Y02127D01*
X02271Y02069D02*
X02286Y02084D01*
X02059Y01701D02*
X0206Y01702D01*
X02167Y01965D02*
X02182Y0198D01*
X02197Y01995D02*
X02212Y0201D01*
X02168Y02025D02*
X02182Y02039D01*
X02137Y0201D02*
X02153D01*
X02143Y01994D02*
X02166D01*
X02182Y02009D01*
Y0201D01*
X02212Y0198D02*
X02226Y01966D01*
X02227Y01995D02*
X02241Y0198D01*
X02212Y02128D02*
X02226Y02142D01*
X02227Y02113D02*
X02227D01*
X02226Y02142D02*
X02227D01*
X02212Y02128D02*
X02226Y02142D01*
X02182Y02098D02*
Y02099D01*
X02137Y02098D02*
X02153D01*
X02108Y02127D02*
X02137Y02098D01*
X02168Y02083D02*
X02182Y02069D01*
X02129Y02083D02*
X02168D01*
X02094Y02118D02*
X02129Y02083D01*
X02197Y02113D02*
X02212Y02098D01*
X02133Y02148D02*
Y02372D01*
Y02148D02*
X02153Y02128D01*
X02241Y02128D02*
Y02128D01*
X02226Y02113D02*
X02241Y02128D01*
X02129Y02025D02*
X02168D01*
X02241Y02039D02*
X02256Y02025D01*
X02197D02*
X02212Y02039D01*
X02241Y02069D02*
X02256Y02083D01*
X02079Y01689D02*
Y01706D01*
X02139Y01966D02*
X02153Y0198D01*
X02129Y01979D02*
X02143Y01994D01*
X02119Y01991D02*
X02137Y0201D01*
X02105Y02D02*
X02129Y02025D01*
X02059Y01704D02*
X02139Y01783D01*
Y01966D01*
X02153Y0178D02*
Y01951D01*
X02079Y01706D02*
X02153Y0178D01*
X02099Y01704D02*
X02167Y01771D01*
Y01965D01*
X02177Y01704D02*
X02212Y01738D01*
Y01951D01*
X02197Y01746D02*
Y01995D01*
X02158Y01689D02*
Y01707D01*
X02197Y01746D01*
X02138Y01704D02*
X02182Y01748D01*
Y01951D01*
X02129Y01795D02*
Y01979D01*
X02039Y01689D02*
Y01706D01*
X02129Y01795D01*
X0202Y01704D02*
X02119Y01802D01*
Y01991D01*
X02001Y01689D02*
Y01707D01*
X02105Y01811D01*
Y02D01*
X02324Y02025D02*
X02348Y02D01*
X02315Y0201D02*
X02334Y01991D01*
X0231Y01994D02*
X02324Y01979D01*
X023Y0198D02*
X02314Y01966D01*
X02285Y02025D02*
X02324D01*
X02271Y02009D02*
Y0201D01*
Y02009D02*
X02287Y01994D01*
X0231D01*
X023Y0201D02*
X02315D01*
X02271Y02039D02*
X02285Y02025D01*
X02241Y0201D02*
X02256Y01995D01*
X02271Y0198D02*
X02286Y01965D01*
X02271Y01768D02*
X02335Y01704D01*
X02271Y01768D02*
Y01951D01*
X02348Y01848D02*
X02492Y01704D01*
X02348Y01848D02*
Y02D01*
X02286Y01792D02*
X02374Y01704D01*
X02286Y01792D02*
Y01965D01*
X02296Y01704D02*
Y01706D01*
X02256Y01746D02*
X02296Y01706D01*
X02256Y01746D02*
Y01995D01*
X02276Y01689D02*
Y0171D01*
X02241Y01745D02*
X02276Y0171D01*
X02241Y01745D02*
Y01951D01*
X02394Y01689D02*
Y01706D01*
X02314Y01786D02*
X02394Y01706D01*
X02314Y01786D02*
Y01966D01*
X02433Y01689D02*
Y01707D01*
X02324Y01816D02*
X02433Y01707D01*
X02324Y01816D02*
Y01979D01*
X02334Y01822D02*
X02453Y01704D01*
X02334Y01822D02*
Y01991D01*
X02334Y02421D02*
X02339D01*
X02334D02*
X02334Y02421D01*
X01908Y01577D02*
X01944D01*
X0196Y01593D01*
Y01688D01*
X01Y00928D02*
Y009D01*
X01014D01*
X01019Y00905D01*
Y00909D01*
X01014Y00914D01*
X01D01*
X01014D01*
X01019Y00919D01*
Y00923D01*
X01014Y00928D01*
X01D01*
X01033Y009D02*
X01042D01*
X01047Y00905D01*
Y00914D01*
X01042Y00919D01*
X01033D01*
X01028Y00914D01*
Y00905D01*
X01033Y009D01*
X01061Y00923D02*
Y00919D01*
X01056D01*
X01065D01*
X01061D01*
Y00905D01*
X01065Y009D01*
X01084Y00923D02*
Y00919D01*
X01079D01*
X01089D01*
X01084D01*
Y00905D01*
X01089Y009D01*
X01107D02*
X01117D01*
X01121Y00905D01*
Y00914D01*
X01117Y00919D01*
X01107D01*
X01103Y00914D01*
Y00905D01*
X01107Y009D01*
X01131D02*
Y00919D01*
X01135D01*
X0114Y00914D01*
Y009D01*
Y00914D01*
X01145Y00919D01*
X01149Y00914D01*
Y009D01*
D22*
X02384Y01543D02*
X02417D01*
X02511Y01654D02*
X02538Y01681D01*
X02442Y01654D02*
X02511D01*
X02417Y01629D02*
X02442Y01654D01*
X02417Y01543D02*
Y01629D01*
X02443Y01409D02*
Y01496D01*
X02417Y01522D02*
X02443Y01496D01*
X02417Y01522D02*
Y01543D01*
X02437Y01326D02*
X02484D01*
X02484Y01326D02*
X02509D01*
X02484D02*
X02484Y01326D01*
X02437D02*
X02462D01*
X02789Y01456D02*
X02819D01*
X02557Y01363D02*
X02607D01*
X02556Y01364D02*
X02557Y01363D01*
X02688Y01327D02*
Y01359D01*
X02372Y01326D02*
X02405D01*
X02923Y01454D02*
X02956D01*
X02687Y01395D02*
Y01456D01*
X01666Y02025D02*
X01707D01*
X02436Y014D02*
X02509D01*
X02348Y01402D02*
X0238D01*
X02348Y01402D02*
X02348Y01402D01*
X01714Y02025D02*
X01747D01*
X02256Y02536D02*
Y02552D01*
X02241Y02567D02*
X02256Y02552D01*
X01735Y02522D02*
X0178Y02567D01*
X01735Y02384D02*
Y02522D01*
X01664Y02313D02*
X01735Y02384D01*
X0178Y02567D02*
X02241D01*
X01664Y01644D02*
X01798Y0151D01*
X02436Y01402D02*
X02443Y01409D01*
X02384Y01543D02*
Y01572D01*
X02237Y01543D02*
X02384D01*
X02237D02*
Y01689D01*
X0208Y0151D02*
X02113Y01543D01*
X02237D01*
X0198Y02422D02*
Y02473D01*
Y02517D01*
X02315Y02471D02*
Y02515D01*
X02236Y02425D02*
Y02484D01*
X01798Y0151D02*
X0208D01*
X0187Y02126D02*
X01897D01*
X01812Y01844D02*
X01862D01*
X01815Y01893D02*
X01862D01*
X01815Y02011D02*
X01862D01*
X01812Y01962D02*
X01862D01*
X01763Y02113D02*
X01827D01*
X01762Y02114D02*
X01763Y02113D01*
X01762Y02084D02*
Y02114D01*
Y02143D01*
X01827Y02081D02*
X01843D01*
X01858Y02066D01*
Y02071D02*
X01897D01*
X01827Y02113D02*
X01844D01*
X01857Y02126D02*
X0187D01*
X01844Y02113D02*
X01857Y02126D01*
X02538Y01681D02*
Y02005D01*
X024Y02266D02*
Y02278D01*
X02462Y02341D01*
Y02362D01*
X01422Y01676D02*
X01522D01*
X01664D01*
Y02313D01*
Y01644D02*
Y01676D01*
D23*
X02733Y01456D02*
Y01607D01*
X02745Y01618D01*
X02897Y01527D02*
X02977D01*
X02867Y01497D02*
X02897Y01527D01*
X02867Y01456D02*
Y01497D01*
X02867Y01456D02*
X02867Y01456D01*
X02867Y01375D02*
Y01456D01*
X02977Y01709D02*
X03068D01*
X0345Y01302D02*
X03516Y01236D01*
X03408Y01302D02*
X0345D01*
X03396Y01314D02*
X03408Y01302D01*
X03396Y01314D02*
Y01366D01*
X02687Y01456D02*
X02733D01*
D24*
X03447Y01811D02*
D03*
D25*
X03565Y01614D02*
D03*
D26*
X03321D02*
D03*
D27*
X0122Y01321D02*
D03*
X01187Y02638D02*
D03*
X03035Y02673D02*
D03*
X02967Y01375D02*
D03*
D28*
X0122Y01421D02*
D03*
X0132Y01321D02*
D03*
Y01421D02*
D03*
X0142Y01321D02*
D03*
Y01421D02*
D03*
X0152Y01321D02*
D03*
Y01421D02*
D03*
X0162Y01321D02*
D03*
Y01421D02*
D03*
X0172Y01321D02*
D03*
Y01421D02*
D03*
X0182Y01321D02*
D03*
Y01421D02*
D03*
X0192Y01321D02*
D03*
Y01421D02*
D03*
X0202Y01321D02*
D03*
Y01421D02*
D03*
X0212Y01321D02*
D03*
Y01421D02*
D03*
X01187Y02738D02*
D03*
X01287Y02638D02*
D03*
Y02738D02*
D03*
X01387Y02638D02*
D03*
Y02738D02*
D03*
X01487Y02638D02*
D03*
Y02738D02*
D03*
X01587Y02638D02*
D03*
Y02738D02*
D03*
X03235Y02673D02*
D03*
X03135D02*
D03*
X02767Y01375D02*
D03*
X02867D02*
D03*
D29*
X01422Y02276D02*
D03*
Y02176D02*
D03*
Y01976D02*
D03*
Y01876D02*
D03*
X01322Y02276D02*
D03*
Y02176D02*
D03*
Y01976D02*
D03*
Y01876D02*
D03*
X01222Y02276D02*
D03*
Y02176D02*
D03*
Y01976D02*
D03*
Y01876D02*
D03*
X01522D02*
D03*
Y01976D02*
D03*
Y02176D02*
D03*
Y02276D02*
D03*
X01422Y01776D02*
D03*
X01322D02*
D03*
X01222D02*
D03*
X01522D02*
D03*
X01422Y02076D02*
D03*
X01322D02*
D03*
X01222D02*
D03*
X01522D02*
D03*
Y01676D02*
D03*
Y01576D02*
D03*
X01222D02*
D03*
Y01676D02*
D03*
X01322Y01576D02*
D03*
Y01676D02*
D03*
X01422Y01576D02*
D03*
Y01676D02*
D03*
D30*
X0345Y0215D02*
D03*
X0355D02*
D03*
X0345Y0205D02*
D03*
X0355D02*
D03*
X0345Y0195D02*
D03*
X0355D02*
D03*
D31*
X0209Y03D02*
D03*
X0199D02*
D03*
X0189D02*
D03*
X0179D02*
D03*
X0169D02*
D03*
X0159D02*
D03*
X0149D02*
D03*
X0139D02*
D03*
X0129D02*
D03*
X0119D02*
D03*
X0295D02*
D03*
X0285D02*
D03*
X0275D02*
D03*
X0265D02*
D03*
X0255D02*
D03*
X0245D02*
D03*
X0235D02*
D03*
X0225D02*
D03*
X0245Y011D02*
D03*
X0255D02*
D03*
X0265D02*
D03*
X0275D02*
D03*
X0285D02*
D03*
X0295D02*
D03*
X0155D02*
D03*
X0165D02*
D03*
X0175D02*
D03*
X0185D02*
D03*
X0195D02*
D03*
X0205D02*
D03*
X0215D02*
D03*
X0225D02*
D03*
D32*
X036Y024D02*
D03*
D33*
X03327Y01179D02*
D03*
Y01235D02*
D03*
X03307Y01207D02*
D03*
X03347D02*
D03*
D34*
X02593Y01695D02*
D03*
X0259Y02193D02*
D03*
X02216Y02397D02*
D03*
X02236Y02425D02*
D03*
X03282Y02428D02*
D03*
X03Y01948D02*
D03*
X03081Y02277D02*
D03*
X02444Y01544D02*
D03*
X02603Y01543D02*
D03*
X02598Y01731D02*
D03*
X02769Y01703D02*
D03*
Y0175D02*
D03*
X02556Y02281D02*
D03*
X03293Y02161D02*
D03*
X02385Y01983D02*
D03*
X0242D02*
D03*
X02445Y0204D02*
D03*
X02688Y01412D02*
D03*
X02708Y01456D02*
D03*
X02687Y01456D02*
D03*
X03392Y01271D02*
D03*
X02776Y02336D02*
D03*
X02777Y02387D02*
D03*
X0272Y02361D02*
D03*
X02686Y0232D02*
D03*
X02776Y02426D02*
D03*
X0327Y02465D02*
D03*
X02955Y02402D02*
D03*
X03293Y0211D02*
D03*
X03179Y02039D02*
D03*
X03086D02*
D03*
X02977Y02065D02*
D03*
X03086Y01948D02*
D03*
X02939Y02243D02*
D03*
X03293Y02011D02*
D03*
X02977Y02111D02*
D03*
X02976Y02159D02*
D03*
X03081Y02303D02*
D03*
X03189Y02352D02*
D03*
X03081Y02353D02*
D03*
X02692Y02261D02*
D03*
X02721Y02281D02*
D03*
X03081Y02428D02*
D03*
Y02378D02*
D03*
X03189Y02402D02*
D03*
Y02277D02*
D03*
X02691Y01946D02*
D03*
X0252Y02168D02*
D03*
X02571Y02421D02*
D03*
X0186Y02321D02*
D03*
X02578Y02163D02*
D03*
Y01769D02*
D03*
X02593Y01828D02*
D03*
X02578Y01888D02*
D03*
Y01848D02*
D03*
Y02084D02*
D03*
X02593Y01868D02*
D03*
Y01907D02*
D03*
X02578Y01927D02*
D03*
X01981Y01704D02*
D03*
X02118Y0159D02*
D03*
X0204Y02421D02*
D03*
X0206Y02406D02*
D03*
X02079Y02421D02*
D03*
X02099Y02406D02*
D03*
X02197Y02421D02*
D03*
X02178Y02406D02*
D03*
X02138D02*
D03*
X02158Y02421D02*
D03*
X02354Y02406D02*
D03*
X02374Y02421D02*
D03*
X02394Y02406D02*
D03*
X02433D02*
D03*
X02413Y02421D02*
D03*
X02453D02*
D03*
X02033Y02096D02*
D03*
Y02014D02*
D03*
X02068D02*
D03*
X02118Y02519D02*
D03*
X01747Y02025D02*
D03*
X0259Y0234D02*
D03*
X02335Y01704D02*
D03*
X02374D02*
D03*
X02394Y01689D02*
D03*
X02492Y01704D02*
D03*
X02453D02*
D03*
X02433Y01689D02*
D03*
X02158D02*
D03*
X02138Y01704D02*
D03*
X02177D02*
D03*
X02099D02*
D03*
X02079Y01689D02*
D03*
X02315Y02041D02*
D03*
X02227Y01966D02*
D03*
Y01995D02*
D03*
X02226Y02113D02*
D03*
X02227Y02142D02*
D03*
X02139Y02068D02*
D03*
X02315Y02069D02*
D03*
X02256Y02025D02*
D03*
X02197Y02024D02*
D03*
X02256Y02084D02*
D03*
X02001Y01689D02*
D03*
X0202Y01704D02*
D03*
X02059D02*
D03*
X02039Y01689D02*
D03*
X02139Y02041D02*
D03*
X02296Y01704D02*
D03*
X02276Y01689D02*
D03*
X02237D02*
D03*
X01921Y01688D02*
D03*
X0192Y01533D02*
D03*
X02384Y01572D02*
D03*
X02414Y01486D02*
D03*
X01862Y01893D02*
D03*
Y01962D02*
D03*
X02256Y02536D02*
D03*
X01865Y02474D02*
D03*
X01948Y02421D02*
D03*
X02314Y02558D02*
D03*
X02334Y02421D02*
D03*
X0198Y02517D02*
D03*
X02315Y02515D02*
D03*
X02275Y02406D02*
D03*
X02179Y02519D02*
D03*
X02347Y02535D02*
D03*
X02588Y02301D02*
D03*
X02578Y02005D02*
D03*
X02457Y02005D02*
D03*
X02691Y02222D02*
D03*
X02157Y01517D02*
D03*
Y01572D02*
D03*
X02015Y01564D02*
D03*
X01985Y01485D02*
D03*
X02261Y01517D02*
D03*
X019Y02127D02*
D03*
X01897Y02071D02*
D03*
X01862Y01844D02*
D03*
Y01868D02*
D03*
Y02011D02*
D03*
Y01986D02*
D03*
X02548Y01552D02*
D03*
X02496D02*
D03*
X02355Y01596D02*
D03*
X02522Y01489D02*
D03*
X02716Y01879D02*
D03*
X02772D02*
D03*
X02775Y01808D02*
D03*
X02593Y01986D02*
D03*
X02716Y02072D02*
D03*
X02492Y02421D02*
D03*
X02451Y02572D02*
D03*
X02593Y02045D02*
D03*
X02772Y02072D02*
D03*
X02764Y02002D02*
D03*
X02577Y02127D02*
D03*
X02462Y02362D02*
D03*
X033Y02273D02*
D03*
X03297Y022D02*
D03*
X03063Y02222D02*
D03*
X02983D02*
D03*
X01406Y02504D02*
D03*
X01326Y02504D02*
D03*
X01246D02*
D03*
X01487Y02505D02*
D03*
X01747Y01985D02*
D03*
X01908Y01577D02*
D03*
X0196Y01688D02*
D03*
X02507Y02572D02*
D03*
X02514Y02341D02*
D03*
D35*
X02236Y02518D02*
D03*
X02567Y02222D02*
D03*
X01762Y02143D02*
D03*
X01762Y02084D02*
D03*
X01762Y01888D02*
D03*
X0198Y02422D02*
D03*
X02315Y02406D02*
D03*
X01762Y02005D02*
D03*
D36*
X03068Y01709D02*
D03*
X03607Y01362D02*
D03*
X03138Y01451D02*
D03*
D37*
X02688Y01327D02*
D03*
X02819Y01456D02*
D03*
X02556Y01364D02*
D03*
X02956Y01454D02*
D03*
X02372Y01326D02*
D03*
X02348Y01402D02*
D03*
D59*
X02977Y01709D02*
D03*
Y01618D02*
D03*
Y01527D02*
D03*
D60*
X02745Y01618D02*
D03*
D61*
X02509Y014D02*
D03*
Y01326D02*
D03*
X02607D02*
D03*
Y01363D02*
D03*
Y014D02*
D03*
D62*
X03327Y01207D02*
D03*
D63*
X03262Y01254D02*
D03*
Y01223D02*
D03*
Y01191D02*
D03*
Y0116D02*
D03*
X03392D02*
D03*
Y01191D02*
D03*
Y01223D02*
D03*
Y01254D02*
D03*
D64*
X02153Y01951D02*
D03*
X02182D02*
D03*
X02212D02*
D03*
X02241D02*
D03*
X02271D02*
D03*
X023D02*
D03*
X02153Y0198D02*
D03*
X02182D02*
D03*
X02212D02*
D03*
X02241D02*
D03*
X02271D02*
D03*
X023D02*
D03*
X02153Y0201D02*
D03*
X02182D02*
D03*
X02212D02*
D03*
X02241D02*
D03*
X02271D02*
D03*
X023D02*
D03*
X02153Y02039D02*
D03*
X02182D02*
D03*
X02212D02*
D03*
X02241D02*
D03*
X02271D02*
D03*
X023D02*
D03*
X02153Y02069D02*
D03*
X02182D02*
D03*
X02212D02*
D03*
X02241D02*
D03*
X02271D02*
D03*
X023D02*
D03*
X02153Y02098D02*
D03*
X02182D02*
D03*
X02212D02*
D03*
X02241D02*
D03*
X02271D02*
D03*
X023D02*
D03*
X02153Y02128D02*
D03*
X02182D02*
D03*
X02212D02*
D03*
X02241D02*
D03*
X02271D02*
D03*
X023D02*
D03*
X02153Y02157D02*
D03*
X02182D02*
D03*
X02212D02*
D03*
X02241D02*
D03*
X02271D02*
D03*
X023D02*
D03*
D65*
X024Y02168D02*
D03*
Y02266D02*
D03*
X02486Y02168D02*
D03*
Y02266D02*
D03*
D66*
X03256Y01366D02*
D03*
X03396D02*
D03*
D67*
X03516Y01362D02*
D03*
Y01236D02*
D03*
X03138Y0136D02*
D03*
Y01234D02*
D03*
D68*
X03247Y01235D02*
X03327D01*
X03256Y015D02*
X03321Y01565D01*
X03256Y01366D02*
Y015D01*
X02767Y01318D02*
Y01375D01*
X02745Y01618D02*
X02977D01*
X02967Y01297D02*
Y01375D01*
Y01297D02*
X0303Y01234D01*
X03138D01*
X03246D01*
X03516Y01362D02*
X03607D01*
X03138Y0136D02*
Y01451D01*
X02658Y01209D02*
X02767Y01318D01*
X0195Y011D02*
Y01175D01*
X01984Y01209D01*
X02658D01*
D69*
X02236Y02484D02*
Y02518D01*
X02315Y0247D02*
X02315Y02471D01*
X02315Y02406D02*
Y0247D01*
Y02406D02*
X02315Y02406D01*
D70*
X02645Y02222D02*
X02691D01*
X0266Y01335D02*
Y01391D01*
X02651Y01326D02*
X0266Y01335D01*
X02607Y01326D02*
X02651D01*
X02651Y014D02*
X0266Y01391D01*
X02607Y014D02*
X02651D01*
X02658Y01393D02*
X02686D01*
X02642Y02225D02*
X02645Y02222D01*
M02*
