%FSTAX25Y25*%
%MOIN*%
G70*
G01*
G75*
G04 Layer_Physical_Order=1*
G04 Layer_Color=255*
%ADD10O,0.07087X0.01181*%
%ADD11O,0.01181X0.07087*%
%ADD12O,0.07284X0.01378*%
%ADD13R,0.08071X0.02756*%
%ADD14R,0.01772X0.02165*%
%ADD15R,0.03150X0.03150*%
%ADD16R,0.02165X0.01772*%
%ADD17R,0.02756X0.03543*%
%ADD18R,0.03543X0.02756*%
%ADD19R,0.02047X0.02047*%
%ADD20R,0.02047X0.02047*%
%ADD21C,0.00700*%
%ADD22C,0.01000*%
%ADD23C,0.00669*%
%ADD24C,0.00500*%
%ADD25C,0.02000*%
%ADD26C,0.03000*%
%ADD27C,0.06000*%
%ADD28O,0.15748X0.07874*%
%ADD29O,0.07874X0.15748*%
%ADD30O,0.07874X0.17716*%
%ADD31R,0.05906X0.05906*%
%ADD32C,0.05906*%
%ADD33R,0.05906X0.05906*%
%ADD34P,0.06711X8X112.5*%
%ADD35O,0.05600X0.11200*%
%ADD36C,0.12600*%
%ADD37C,0.01969*%
%ADD38C,0.02800*%
%ADD39C,0.01600*%
%ADD40C,0.01595*%
%ADD41C,0.05000*%
D10*
X0181124Y017101D02*
D03*
Y0172979D02*
D03*
Y0174947D02*
D03*
Y0176916D02*
D03*
Y0178884D02*
D03*
Y0180853D02*
D03*
Y0182821D02*
D03*
Y018479D02*
D03*
Y0186758D02*
D03*
Y0188727D02*
D03*
Y0190695D02*
D03*
Y0192664D02*
D03*
Y0194632D02*
D03*
Y0196601D02*
D03*
Y0198569D02*
D03*
Y0200538D02*
D03*
Y0202506D02*
D03*
Y0204475D02*
D03*
Y0206443D02*
D03*
Y0208412D02*
D03*
Y021038D02*
D03*
Y0212349D02*
D03*
Y0214317D02*
D03*
Y0216286D02*
D03*
Y0218254D02*
D03*
Y0220223D02*
D03*
Y0222191D02*
D03*
Y022416D02*
D03*
Y0226128D02*
D03*
Y0228097D02*
D03*
Y0230065D02*
D03*
Y0232034D02*
D03*
Y0234002D02*
D03*
Y0235971D02*
D03*
Y0237939D02*
D03*
Y0239908D02*
D03*
X0264194D02*
D03*
Y0237939D02*
D03*
Y0235971D02*
D03*
Y0234002D02*
D03*
Y0232034D02*
D03*
Y0230065D02*
D03*
Y0228097D02*
D03*
Y0226128D02*
D03*
Y022416D02*
D03*
Y0222191D02*
D03*
Y0220223D02*
D03*
Y0218254D02*
D03*
Y0216286D02*
D03*
Y0214317D02*
D03*
Y0212349D02*
D03*
Y021038D02*
D03*
Y0208412D02*
D03*
Y0206443D02*
D03*
Y0204475D02*
D03*
Y0202506D02*
D03*
Y0200538D02*
D03*
Y0198569D02*
D03*
Y0196601D02*
D03*
Y0194632D02*
D03*
Y0192664D02*
D03*
Y0190695D02*
D03*
Y0188727D02*
D03*
Y0186758D02*
D03*
Y018479D02*
D03*
Y0182821D02*
D03*
Y0180853D02*
D03*
Y0178884D02*
D03*
Y0176916D02*
D03*
Y0174947D02*
D03*
Y0172979D02*
D03*
Y017101D02*
D03*
D11*
X018821Y0246994D02*
D03*
X0190179D02*
D03*
X0192147D02*
D03*
X0194116D02*
D03*
X0196084D02*
D03*
X0198053D02*
D03*
X0200021D02*
D03*
X020199D02*
D03*
X0203958D02*
D03*
X0205927D02*
D03*
X0207895D02*
D03*
X0209864D02*
D03*
X0211832D02*
D03*
X0213801D02*
D03*
X0215769D02*
D03*
X0217738D02*
D03*
X0219706D02*
D03*
X0221675D02*
D03*
X0223643D02*
D03*
X0225612D02*
D03*
X022758D02*
D03*
X0229549D02*
D03*
X0231517D02*
D03*
X0233486D02*
D03*
X0235454D02*
D03*
X0237423D02*
D03*
X0239391D02*
D03*
X024136D02*
D03*
X0243328D02*
D03*
X0245297D02*
D03*
X0247265D02*
D03*
X0249234D02*
D03*
X0251202D02*
D03*
X0253171D02*
D03*
X0255139D02*
D03*
X0257108D02*
D03*
Y0163924D02*
D03*
X0255139D02*
D03*
X0253171D02*
D03*
X0251202D02*
D03*
X0249234D02*
D03*
X0247265D02*
D03*
X0245297D02*
D03*
X0243328D02*
D03*
X024136D02*
D03*
X0239391D02*
D03*
X0237423D02*
D03*
X0235454D02*
D03*
X0233486D02*
D03*
X0231517D02*
D03*
X0229549D02*
D03*
X022758D02*
D03*
X0225612D02*
D03*
X0223643D02*
D03*
X0221675D02*
D03*
X0219706D02*
D03*
X0217738D02*
D03*
X0215769D02*
D03*
X0213801D02*
D03*
X0211832D02*
D03*
X0209864D02*
D03*
X0207895D02*
D03*
X0205927D02*
D03*
X0203958D02*
D03*
X020199D02*
D03*
X0200021D02*
D03*
X0198053D02*
D03*
X0196084D02*
D03*
X0194116D02*
D03*
X0192147D02*
D03*
X0190179D02*
D03*
X018821D02*
D03*
D12*
X0303264Y024275D02*
D03*
Y024025D02*
D03*
Y023775D02*
D03*
Y023525D02*
D03*
Y023275D02*
D03*
Y023025D02*
D03*
Y022775D02*
D03*
Y022525D02*
D03*
X0323736Y024275D02*
D03*
Y024025D02*
D03*
Y023775D02*
D03*
Y023525D02*
D03*
Y023275D02*
D03*
Y023025D02*
D03*
Y022775D02*
D03*
Y022525D02*
D03*
D13*
X0302768Y02161D02*
D03*
Y02111D02*
D03*
Y02061D02*
D03*
Y02011D02*
D03*
X0323832Y02161D02*
D03*
Y02111D02*
D03*
Y02061D02*
D03*
Y02011D02*
D03*
D14*
X0248819Y0273228D02*
D03*
X0245276D02*
D03*
X0271928Y02387D02*
D03*
X0275472D02*
D03*
X0275372Y02336D02*
D03*
X0271828D02*
D03*
X0271228Y0175D02*
D03*
X0274772D02*
D03*
X0271228Y01703D02*
D03*
X0274772D02*
D03*
X02718Y02426D02*
D03*
X0275343D02*
D03*
D15*
X0250787Y0268012D02*
D03*
X0244287D02*
D03*
D16*
X01487Y0284772D02*
D03*
Y0281228D02*
D03*
X01387Y0284772D02*
D03*
Y0281228D02*
D03*
X01287Y0284772D02*
D03*
Y0281228D02*
D03*
X01187Y0284772D02*
D03*
Y0281228D02*
D03*
X01246Y0256072D02*
D03*
Y0252528D02*
D03*
X01326Y0256072D02*
D03*
Y0252528D02*
D03*
X01406Y0256043D02*
D03*
Y02525D02*
D03*
X01487Y0256143D02*
D03*
Y02526D02*
D03*
X01206Y0256072D02*
D03*
Y0252528D02*
D03*
X01286Y0256072D02*
D03*
Y0252528D02*
D03*
X01366Y0256043D02*
D03*
Y02525D02*
D03*
X01447Y0256143D02*
D03*
Y02526D02*
D03*
X03297Y0225372D02*
D03*
Y0221828D02*
D03*
D17*
X0271644Y01849D02*
D03*
X0277156D02*
D03*
X0250656Y02539D02*
D03*
X0245144D02*
D03*
X0277156Y02043D02*
D03*
X0271644D02*
D03*
D18*
X02414Y0157156D02*
D03*
Y0151644D02*
D03*
X02187Y0157156D02*
D03*
Y0151644D02*
D03*
X02522Y0157156D02*
D03*
Y0151644D02*
D03*
X01985Y0156356D02*
D03*
Y0150844D02*
D03*
X02236Y0151644D02*
D03*
Y0157156D02*
D03*
D19*
X0274575Y02002D02*
D03*
X0271425D02*
D03*
X0274475Y01808D02*
D03*
X0271325D02*
D03*
X0302725Y01948D02*
D03*
X0305875D02*
D03*
X0303275Y02222D02*
D03*
X0300125D02*
D03*
D20*
X02468Y0154325D02*
D03*
Y0157475D02*
D03*
X01939Y0153325D02*
D03*
Y0156475D02*
D03*
X02579Y0154325D02*
D03*
Y0157475D02*
D03*
D21*
X0266437Y0286516D02*
X0270374Y0282579D01*
Y0264626D02*
Y0282579D01*
Y0264626D02*
X0274508Y0260492D01*
Y0270492D02*
X0280295D01*
X0281339Y0269448D01*
Y0232816D02*
Y0269448D01*
X0278589Y0230065D02*
X0281339Y0232816D01*
X0267216Y0288D02*
X0282579Y0272638D01*
Y0227446D02*
Y0272638D01*
X0279333Y02242D02*
X0282579Y0227446D01*
X0283862Y0226976D02*
Y0273224D01*
X0285102Y0226463D02*
Y0273738D01*
X0286341Y022595D02*
Y0274251D01*
X028758Y0225436D02*
Y0274764D01*
X0277109Y0220223D02*
X0283862Y0226976D01*
X0267387Y02897D02*
X0283862Y0273224D01*
X0276893Y0218254D02*
X0285102Y0226463D01*
X0267639Y02912D02*
X0285102Y0273738D01*
X0274709Y0214317D02*
X0286341Y022595D01*
X0266085Y0294507D02*
X0286341Y0274251D01*
X0274493Y0212349D02*
X028758Y0225436D01*
X0275Y0287345D02*
X028758Y0274764D01*
X0289075Y0225178D02*
Y0275689D01*
X0290314Y0224665D02*
Y0275452D01*
X0274487Y021059D02*
X0289075Y0225178D01*
X0275Y020935D02*
X0290314Y0224665D01*
Y0275452D02*
X0295Y0280138D01*
X0285Y0279764D02*
X0289075Y0275689D01*
X0292Y02368D02*
X029545Y024025D01*
X0292Y0207892D02*
Y02368D01*
X0280709Y0196601D02*
X0292Y0207892D01*
X0264194Y0206443D02*
X0267811D01*
X0270719Y020935D01*
X0275D01*
X0264194Y021038D02*
X0264404Y021059D01*
X0274487D01*
X0264235Y02242D02*
X0279333D01*
X0264194Y0220223D02*
X0277109D01*
X0264194Y0218254D02*
X0276893D01*
X0264194Y0214317D02*
X0274709D01*
X0264194Y0212349D02*
X0274493D01*
X0228584Y0286516D02*
X0266437D01*
X0225Y02901D02*
X0228584Y0286516D01*
X02385Y0288D02*
X0267216D01*
X0257Y02912D02*
X0267639D01*
X0266085Y0294507D02*
Y0298915D01*
X0275Y0287345D02*
Y03D01*
X02472Y02897D02*
X0267387D01*
X0285Y0279764D02*
Y03D01*
X031125Y023275D02*
X0313248Y0234748D01*
Y0260531D01*
X0264194Y0230065D02*
X0278589D01*
X0349862Y0189862D02*
X0355Y0195D01*
X0270067Y0189862D02*
X0349862D01*
X0316339Y0221161D02*
Y0229039D01*
X0313514Y0218337D02*
X0316339Y0221161D01*
X0313514Y0189961D02*
Y0218337D01*
X0316339Y0229039D02*
X031755Y023025D01*
X0314764Y0235864D02*
X031665Y023775D01*
X0314764Y0222146D02*
Y0235864D01*
X0312518Y02199D02*
X0314764Y0222146D01*
X02979Y02199D02*
X0312518D01*
X0268932Y0188727D02*
X0270067Y0189862D01*
X027975Y019124D02*
X0294711Y0206201D01*
X0264194Y0190695D02*
X0268701D01*
X0269246Y019124D01*
X027975D01*
X0279081Y0192664D02*
X0293461Y0207043D01*
X0264194Y0192664D02*
X0279081D01*
X0293461Y0207043D02*
Y0214469D01*
X029475Y0206201D02*
Y021675D01*
X02935Y0214469D02*
Y02173D01*
X0264194Y0196601D02*
X0280709D01*
X0295Y0280138D02*
Y03D01*
X0349Y0209D02*
Y02333D01*
X034455Y023775D02*
X0349Y02333D01*
X0323736Y023775D02*
X034455D01*
X0351Y0209D02*
Y02392D01*
X03437Y02465D02*
X0351Y02392D01*
X0327Y02465D02*
X03437D01*
X02955Y024025D02*
X0303264D01*
X03435Y02035D02*
X0345Y0205D01*
X029845Y023275D02*
X0303264D01*
X031665Y023775D02*
X0323736D01*
Y022525D02*
X0323786Y02253D01*
X0303264Y023275D02*
X031125D01*
X0345Y0205D02*
X0349Y0209D01*
X0351D02*
X0355Y0205D01*
X031755Y023025D02*
X0323736D01*
X029475Y021675D02*
X02979Y02199D01*
X0257801Y0192695D02*
X0264226D01*
X0259301Y0190695D02*
X0264194D01*
X0225Y02901D02*
Y03D01*
X0235Y02915D02*
X02385Y0288D01*
X0235Y02915D02*
Y03D01*
X0245Y02919D02*
X02472Y02897D01*
X0245Y02919D02*
Y03D01*
X0255Y02932D02*
X0257Y02912D01*
X0255Y02932D02*
Y03D01*
X0265D02*
X0266085Y0298915D01*
X0264194Y022416D02*
X0264235Y02242D01*
X0264194Y0188727D02*
X0268932D01*
X0257801Y0188758D02*
X0264226D01*
X03297Y0225372D02*
X0329828D01*
X033Y0225543D01*
Y02273D01*
X0323786Y02253D02*
X03299D01*
X02935Y02173D02*
X02959Y02197D01*
Y02302D01*
X029845Y023275D01*
D22*
X02939Y02333D02*
X029585Y023525D01*
X02939Y02243D02*
Y02333D01*
X0204035Y0265453D02*
Y0284941D01*
X0198917Y0299917D02*
X0199Y03D01*
X0198917Y0290059D02*
Y0299917D01*
Y0290059D02*
X0204035Y0284941D01*
X0208169Y0261319D02*
X0249431D01*
X0204035Y0265453D02*
X0208169Y0261319D01*
X020199Y0246994D02*
Y0274967D01*
X0197461Y0279496D02*
X020199Y0274967D01*
X0197461Y0279496D02*
Y0279539D01*
X0189Y0288D02*
X0197461Y0279539D01*
X0200021Y0246994D02*
Y0273601D01*
X0185322Y02883D02*
X0200021Y0273601D01*
X0249431Y0261319D02*
X0253171Y0257579D01*
Y0246994D02*
Y0257579D01*
X019813Y0150984D02*
X0198425Y0150689D01*
Y014813D02*
Y0150689D01*
Y014813D02*
X01985Y0148205D01*
X01819Y02883D02*
X0185322D01*
X0196084Y0246994D02*
Y027488D01*
X0184941Y0286024D02*
X0196084Y027488D01*
X0172576Y0286024D02*
X0184941D01*
X0169Y02896D02*
X0172576Y0286024D01*
X018435Y0284252D02*
X0194116Y0274487D01*
X0163548Y0284252D02*
X018435D01*
X0159Y02888D02*
X0163548Y0284252D01*
X0194116Y0246994D02*
Y0274487D01*
X0198Y0246942D02*
X0198053Y0246994D01*
X0198Y02422D02*
Y0246942D01*
X02236Y0246954D02*
Y02518D01*
Y0246954D02*
X0223602Y0246953D01*
X0221685Y0239785D02*
Y0246984D01*
X02216Y02397D02*
X0221685Y0239785D01*
X0323736Y024275D02*
X032835D01*
X03282Y02428D02*
X03283D01*
X032835Y024275D01*
X03Y01948D02*
X0302725D01*
X030805Y022775D02*
X03081Y02277D01*
X0303264Y022775D02*
X030805D01*
X02444Y015435D02*
X0244425Y0154325D01*
X02473D01*
X02574D02*
X0260275D01*
X02603Y01543D01*
X0274772Y01703D02*
X02769D01*
X0274772Y0175D02*
X02769D01*
X0264194Y0174947D02*
X0264247Y0175D01*
X0271228D01*
X0259Y0234D02*
X0259002Y0234002D01*
X0264194D01*
X0323832Y02161D02*
X03293D01*
X02694Y02388D02*
Y02418D01*
X02702Y02426D02*
X02718D01*
X02694Y02418D02*
X02702Y02426D01*
X0271871Y0235971D02*
X0272Y02361D01*
X0264194Y0235971D02*
X0271871D01*
X0275372Y02336D02*
X02776D01*
X0275472Y02387D02*
X02777D01*
X0271828Y02336D02*
X0272Y0233772D01*
Y02361D01*
X0271928Y02387D02*
X0272Y0238628D01*
Y02361D02*
Y0238628D01*
X0268628Y0238028D02*
X02694Y02388D01*
X0264283Y0238028D02*
X0268628D01*
X0275343Y02426D02*
X0277572D01*
X029585Y023525D02*
X0303264D01*
X0302368Y02065D02*
X0302768Y02061D01*
X02977Y02065D02*
X0302368D01*
X0323832Y02111D02*
X0323932Y0211D01*
X03293D01*
X02992Y02061D02*
X0302768D01*
X0305875Y01948D02*
X03086D01*
X0302725D02*
X0302768Y0194843D01*
Y02011D01*
X0303264Y023525D02*
X030815D01*
X0323832Y02011D02*
X03293D01*
X0303264Y024275D02*
X030815D01*
X02977Y02111D02*
X0302768D01*
X031885Y024025D02*
X0323736D01*
X02978Y02161D02*
X0302768D01*
X02976Y02159D02*
X02978Y02161D01*
X0323736Y023275D02*
X032985D01*
X0323832Y02061D02*
X03303D01*
X0303264Y023775D02*
X030815D01*
X0264163Y0208443D02*
X0264194Y0208412D01*
X0257801Y0208443D02*
X0264163D01*
X0257108Y0242101D02*
Y0246994D01*
X0181155Y0232065D02*
X0186049D01*
X0211811Y0159031D02*
Y0163945D01*
X0241297Y0247015D02*
X0241318Y0247036D01*
X0264194Y0232034D02*
X02686D01*
X0264194Y0194632D02*
X0269088D01*
X0176198Y020838D02*
X0181092D01*
X0176198Y0200506D02*
X0181092D01*
X0211832Y0246994D02*
Y0251888D01*
X0211811Y0163945D02*
X0211832Y0163924D01*
X0235465Y01596D02*
Y0163934D01*
X0159Y02888D02*
Y03D01*
X0169Y02896D02*
Y03D01*
X0179Y02912D02*
Y03D01*
X017623Y0214317D02*
X0181124D01*
X0223685Y0163965D02*
Y0168859D01*
X0221675Y0158825D02*
Y0163924D01*
X0225602Y01588D02*
Y0163913D01*
X0192147Y0163924D02*
Y0168817D01*
X0191925Y0153325D02*
X019195Y01533D01*
X0191925Y0153325D02*
X01939D01*
X019195Y01533D02*
X0192D01*
X0221675Y0158825D02*
X0223Y01575D01*
X0224302D02*
X0225602Y01588D01*
X02384Y01572D02*
X0238444Y0157156D01*
X02414D01*
Y0163883D01*
X024136Y0163924D02*
X02414Y0163883D01*
Y0148688D02*
Y0151644D01*
X0241356Y0148644D02*
X02414Y0148688D01*
X0176273Y0188727D02*
X0181124D01*
X01762Y01888D02*
X0176273Y0188727D01*
X0180033Y0186758D02*
X0181124D01*
X0186458D01*
X01865Y02474D02*
X0187805D01*
X018821Y0246994D01*
X0225622Y0247036D02*
Y025343D01*
X022557Y0247036D02*
X0225622D01*
X0231507Y0240559D02*
Y0246984D01*
X0221612Y0246974D02*
X0221633Y0246953D01*
X0303264Y023025D02*
X030815D01*
X0257838Y0200538D02*
X0264194D01*
X02578Y02005D02*
X0257838Y0200538D01*
X02157Y0151688D02*
X0215744Y0151644D01*
X02157Y01572D02*
X0215744Y0157156D01*
X02187D01*
X0223Y01575D02*
X0224302D01*
X0194019Y0156356D02*
X01985D01*
X0201544D01*
X0181124Y0198569D02*
X0181154Y01986D01*
X01862D01*
X0247265Y0158109D02*
Y0163924D01*
X0257108Y0158483D02*
Y0163924D01*
X02522Y01489D02*
Y0151644D01*
X0256125Y01575D02*
X0257108Y0158483D01*
X0271272Y0180853D02*
X0271325Y01808D01*
X0264194Y0202506D02*
X0268094D01*
X0269587Y0201013D01*
X0270613D01*
X0271425Y02002D02*
Y02002D01*
X0270613Y0201013D02*
X02714Y0200225D01*
X0264194Y0180853D02*
X0271325D01*
X0249234Y0242101D02*
Y0246994D01*
X0251202D02*
Y0253354D01*
X0250656Y02539D02*
X0251202Y0253354D01*
X0245144Y02539D02*
Y0257156D01*
X0259325Y0204475D02*
X0264194D01*
X0277156Y02043D02*
Y0207244D01*
X0274575Y02002D02*
X02764D01*
X02577Y02126D02*
Y02127D01*
X03303Y02061D02*
X03326Y02084D01*
Y023D01*
X032985Y023275D02*
X03326Y023D01*
X03297Y022D02*
Y0221828D01*
X0303275Y02222D02*
Y0225239D01*
X0303264Y022525D02*
X0303275Y0225239D01*
X02983Y02222D02*
X0300125D01*
X01187Y02738D02*
Y0281228D01*
X01287Y02738D02*
Y0281228D01*
X01387Y02738D02*
Y0281228D01*
X01487Y02738D02*
Y0281228D01*
X01187Y02638D02*
X01206Y02619D01*
Y0256072D02*
Y02619D01*
X01487Y02634D02*
X01496Y02643D01*
X01487Y0256143D02*
Y02634D01*
Y02638D01*
X01389Y02636D02*
X01396Y02643D01*
X01369Y0256343D02*
Y0262D01*
X01387Y02638D01*
X01366Y0256043D02*
X01369Y0256343D01*
X01447Y0256143D02*
X01487D01*
X01366Y0256043D02*
X01406D01*
X01286Y0256072D02*
X01326D01*
X01286Y02633D02*
X01296Y02643D01*
X01206Y0256072D02*
X01246D01*
X01286D02*
Y02633D01*
X01445Y02524D02*
X01447Y02526D01*
X01487Y0250472D02*
Y02526D01*
X01406Y0250372D02*
Y02525D01*
X01326Y02504D02*
Y0252528D01*
X01246Y02504D02*
Y0252528D01*
X01279Y0252647D02*
X01284Y0252147D01*
X0174688Y0202496D02*
X0181113D01*
X0194116Y0156691D02*
Y0163924D01*
X01939Y0156475D02*
X0194116Y0156691D01*
X0250656Y02539D02*
Y0257156D01*
X0189Y0288D02*
Y03D01*
X0179Y02912D02*
X01819Y02883D01*
X02718Y02426D02*
Y0245031D01*
X0271752Y0245079D02*
X02718Y0245031D01*
X0248819Y0273228D02*
X0250886D01*
X0209Y0266394D02*
Y03D01*
Y0266394D02*
X021191Y0263484D01*
X0244287Y0268012D02*
X0244783D01*
X0245276Y0268504D01*
Y0273228D01*
X021191Y0263484D02*
X0250197D01*
X0255139Y0258542D01*
Y0246994D02*
Y0258542D01*
X0250787Y026565D02*
Y0268012D01*
Y026565D02*
X0257185Y0259252D01*
Y0257185D02*
Y0259252D01*
D23*
X0187598Y0241831D02*
X0190331D01*
X01867Y02391D02*
Y0240761D01*
X0182185Y0245276D02*
X01867Y0240761D01*
X0132624Y0245276D02*
X0182185D01*
X0143209Y0232283D02*
X0163779D01*
X01422Y0231275D02*
X0143209Y0232283D01*
X01422Y02276D02*
Y0231275D01*
X0182579Y024685D02*
X0187598Y0241831D01*
X013855Y024685D02*
X0182579D01*
X0136827Y0289173D02*
X01387Y02873D01*
X0112273Y0289173D02*
X0136827D01*
X0109565Y0286465D02*
X0112273Y0289173D01*
X0111376Y02911D02*
X01463D01*
X0107874Y0287598D02*
X0111376Y02911D01*
X0107874Y025187D02*
Y0287598D01*
Y025187D02*
X0122736Y0237008D01*
X0166535D01*
X0175643Y0235971D02*
X0181124D01*
X0169882Y0241732D02*
X0175643Y0235971D01*
X0125197Y0241732D02*
X0169882D01*
X0174758Y0234002D02*
X0181124D01*
X0168602Y0240158D02*
X0174758Y0234002D01*
X0124409Y0240158D02*
X0168602D01*
X0167717Y0238583D02*
X0176234Y0230065D01*
X0123622Y0238583D02*
X0167717D01*
X0176234Y0230065D02*
X0181124D01*
X0175446Y0228097D02*
X0181124D01*
X0166535Y0237008D02*
X0175446Y0228097D01*
X01131Y0253829D02*
X0125197Y0241732D01*
X01131Y0253829D02*
Y02842D01*
X01114Y0253167D02*
X0124409Y0240158D01*
X01114Y0253167D02*
Y02852D01*
X0109565Y0252639D02*
X0123622Y0238583D01*
X0109565Y0252639D02*
Y0286465D01*
X01286Y02493D02*
X0132624Y0245276D01*
X01366Y02488D02*
X013855Y024685D01*
X0170425Y0248425D02*
X01748Y02528D01*
X0145275Y0248425D02*
X0170425D01*
X01447Y0249D02*
X0145275Y0248425D01*
X0172277Y0243307D02*
X0175677Y0239908D01*
X0126593Y0243307D02*
X0172277D01*
X01206Y02493D02*
X0126593Y0243307D01*
X0165748Y0235433D02*
X0175053Y0226128D01*
X0123233Y0235433D02*
X0165748D01*
X0164961Y0233858D02*
X0174659Y022416D01*
X0133358Y0233858D02*
X0164961D01*
X01322Y02327D02*
X0133358Y0233858D01*
X0163779Y0232283D02*
X0173872Y0222191D01*
X01222Y02344D02*
X0123233Y0235433D01*
X0175053Y0226128D02*
X0181124D01*
X0174659Y022416D02*
X0181124D01*
X0173872Y0222191D02*
X0181124D01*
X0173084Y0220223D02*
X0181124D01*
X0165707Y02276D02*
X0173084Y0220223D01*
X01522Y02276D02*
X0165707D01*
X031885Y023525D02*
X0323736D01*
X0264194Y0228097D02*
X0272082D01*
X0264194Y0226128D02*
X0269159D01*
X031885Y022775D02*
X0323736D01*
X031885D02*
X03189Y02277D01*
X01114Y02852D02*
X01137Y02875D01*
X0113672Y0284772D02*
X01187D01*
X01137Y02875D02*
X01274D01*
X01287Y0284772D02*
Y02862D01*
X01274Y02875D02*
X01287Y02862D01*
X01487Y0284772D02*
Y02887D01*
X01387Y0284772D02*
Y02873D01*
X01131Y02842D02*
X0113672Y0284772D01*
X01286Y02493D02*
Y0252528D01*
X0185539Y0237939D02*
X01867Y02391D01*
X0181124Y0237939D02*
X0185539D01*
X0190331Y0241831D02*
X0192147Y0243647D01*
Y0246994D01*
X0188579Y02528D02*
X0190179Y02512D01*
Y0246994D02*
Y02512D01*
X01748Y02528D02*
X0188579D01*
X01206Y02493D02*
Y0252528D01*
X0175677Y0239908D02*
X0181124D01*
X01463Y02911D02*
X01487Y02887D01*
X01366Y02488D02*
Y02525D01*
X01447Y0249D02*
Y02526D01*
X01222Y02276D02*
Y02344D01*
X01322Y02276D02*
Y02327D01*
D24*
X0209941Y0240647D02*
Y0240748D01*
X0209895Y0240601D02*
X0209941Y0240647D01*
X0158957Y0182677D02*
X0172348Y0169286D01*
X0133177Y0182677D02*
X0158957D01*
X01322Y01817D02*
X0133177Y0182677D01*
X0159941Y018376D02*
X0172691Y017101D01*
X012416Y018376D02*
X0159941D01*
X01222Y01818D02*
X012416Y018376D01*
X0181004Y0159055D02*
X0189855D01*
X0158661Y0181398D02*
X0181004Y0159055D01*
X0142798Y0181398D02*
X0158661D01*
X01422Y01808D02*
X0142798Y0181398D01*
X0172348Y0169286D02*
X0187114D01*
X0189855Y0159055D02*
X0190179Y0159379D01*
X0156988Y0193799D02*
X0171903Y0178884D01*
X0123899Y0193799D02*
X0156988D01*
X01222Y01921D02*
X0123899Y0193799D01*
X0155709Y0202559D02*
X0173478Y018479D01*
X0133159Y0202559D02*
X0155709D01*
X01322Y02016D02*
X0133159Y0202559D01*
X0155118Y0201476D02*
X0173773Y0182821D01*
X0142876Y0201476D02*
X0155118D01*
X01422Y02008D02*
X0142876Y0201476D01*
X0173478Y018479D02*
X0181124D01*
X0173773Y0182821D02*
X0181124D01*
X0156102Y02125D02*
X0164128Y0204475D01*
X0133465Y02125D02*
X0156102D01*
X01322Y0211235D02*
X0133465Y02125D01*
X01322Y02076D02*
Y0211235D01*
X0164128Y0204475D02*
X0181124D01*
X0172395Y0194632D02*
X0181124D01*
X015561Y0211417D02*
X0172395Y0194632D01*
X0143317Y0211417D02*
X015561D01*
X01422Y02103D02*
X0143317Y0211417D01*
X0172887Y0192664D02*
X0181124D01*
X0157951Y02076D02*
X0172887Y0192664D01*
X01522Y02076D02*
X0157951D01*
X0167379Y0223721D02*
X0172846Y0218254D01*
X0123921Y0223721D02*
X0167379D01*
X01222Y0222D02*
X0123921Y0223721D01*
X017525Y021038D02*
X0181124D01*
X016803Y02176D02*
X017525Y021038D01*
X01522Y02176D02*
X016803D01*
X0175053Y0212349D02*
X0181124D01*
X0165945Y0221457D02*
X0175053Y0212349D01*
X0142507Y0221457D02*
X0165945D01*
X0166535Y0222539D02*
X0172789Y0216286D01*
X0133289Y0222539D02*
X0166535D01*
X01322Y022145D02*
X0133289Y0222539D01*
X0172789Y0216286D02*
X0181124D01*
X01422Y022115D02*
X0142507Y0221457D01*
X0133066Y0192717D02*
X0156102D01*
X01322Y019185D02*
X0133066Y0192717D01*
X0156102D02*
X0171903Y0176916D01*
X0181124D01*
X0155315Y0191535D02*
X0171903Y0174947D01*
X0142835Y0191535D02*
X0155315D01*
X0171903Y0174947D02*
X0181124D01*
X01239Y02137D02*
X01572D01*
X01222Y0212D02*
X01239Y02137D01*
X01572D02*
X0164457Y0206443D01*
X01422Y01909D02*
X0142835Y0191535D01*
X0180774Y0157809D02*
X0190691D01*
X01908Y01577D01*
X0160983Y01776D02*
X0180774Y0157809D01*
X0169541Y0190695D02*
X0181124D01*
X0156636Y02036D02*
X0169541Y0190695D01*
X01238Y02036D02*
X0156636D01*
X0174318Y01808D02*
X0181071D01*
X0157518Y01976D02*
X0174318Y01808D01*
X01522Y01976D02*
X0157518D01*
X0171903Y0178884D02*
X0181124D01*
X0172691Y017101D02*
X0181124D01*
X0172297Y0172979D02*
X0181124D01*
X0157676Y01876D02*
X0172297Y0172979D01*
X01522Y01876D02*
X0157676D01*
X01522Y01776D02*
X0160983D01*
X0264194Y0222254D02*
X0264215D01*
X02567Y02222D02*
X0256709Y0222191D01*
X0264194D01*
X0252921Y0172979D02*
X0264194D01*
X02494Y01765D02*
X0252921Y0172979D01*
X02523Y02301D02*
X02588D01*
X02494Y02272D02*
X02523Y02301D01*
X02709Y0170728D02*
X0270939Y017069D01*
X0264194Y017101D02*
X0271228D01*
X0257769Y0216286D02*
X0264194D01*
X0257769Y0176916D02*
X0264194D01*
X0259301Y0182821D02*
X0264194D01*
X0257801Y0184821D02*
X0264226D01*
X0259259Y0186717D02*
X0264153D01*
X0222659Y0199459D02*
X0231565Y0190554D01*
X0219659Y0163971D02*
Y0193559D01*
X0222659Y0196559D01*
Y0211341D02*
X0229549Y0218231D01*
Y0246994D01*
X0219706Y0217194D02*
X0222659Y0214241D01*
X0219706Y0217194D02*
Y0242101D01*
X0198063Y0170359D02*
X02105Y0182796D01*
Y0193224D01*
X0219712Y0202435D01*
X0198063Y0163934D02*
Y0170359D01*
X0251202Y0163924D02*
Y0170698D01*
X02347Y01872D02*
X0251202Y0170698D01*
X02347Y01872D02*
Y0193376D01*
X0225612Y0202465D02*
X02347Y0193376D01*
X0247234Y0240601D02*
Y0247026D01*
X02332Y0226567D02*
X0247234Y0240601D01*
X02332Y0215982D02*
Y0226567D01*
X0225583Y0208365D02*
X02332Y0215982D01*
X0204021Y0242101D02*
Y0247015D01*
X0205958Y0240601D02*
Y0247026D01*
X0209895Y0240601D02*
Y0247026D01*
X0213832Y0240601D02*
Y0247026D01*
X0215832Y0242101D02*
Y0247015D01*
X0217769Y0240601D02*
Y0247026D01*
X0233423Y0242101D02*
Y0247015D01*
X023936Y0240601D02*
Y0247026D01*
X0241402Y0242059D02*
Y0246953D01*
X0243297Y0240601D02*
Y0247026D01*
X0207895Y0242101D02*
Y0246994D01*
X0219706Y0242101D02*
Y0246994D01*
X0209822Y0247036D02*
X0209864Y0246994D01*
X021179Y0247036D02*
X0211801Y0247026D01*
X0213738Y0247015D02*
X0213759Y0247036D01*
X0215728D02*
X0215738Y0247026D01*
X0217696Y0247036D02*
X0217738Y0246994D01*
X0219665Y0247036D02*
X0219675Y0247026D01*
X0229507Y0247036D02*
X0229549Y0246994D01*
X0237423Y0242101D02*
Y0246994D01*
X0237381Y0247036D02*
X0237423Y0246994D01*
X023935Y0247036D02*
X023936Y0247026D01*
X0243287Y0247036D02*
X0243297Y0247026D01*
X0245297Y0242101D02*
Y0246994D01*
X0245255Y0247036D02*
X0245297Y0246994D01*
X0247224Y0247036D02*
X0247234Y0247026D01*
X0249234Y0163924D02*
X0249244Y0163934D01*
Y0170359D01*
X0245297Y0163924D02*
X0245307Y0163934D01*
Y0170359D01*
X0243307Y0163945D02*
X0243328Y0163924D01*
X0243307Y0163945D02*
Y0168859D01*
X0239391Y0163924D02*
X0239433Y0163965D01*
Y0168859D01*
X0237423Y0163924D02*
X0237433Y0163934D01*
Y0170359D01*
X0233486Y0163924D02*
X0233496Y0163934D01*
Y0170359D01*
X0229549Y0163924D02*
X0229559Y0163934D01*
Y0170359D01*
X022758Y0163924D02*
X0227622Y0163965D01*
Y0168859D01*
X0217738Y0163924D02*
X0217748Y0163934D01*
Y0170359D01*
X0215769Y0163924D02*
X0215811Y0163965D01*
Y0168859D01*
X0213801Y0163924D02*
X0213811Y0163934D01*
Y0170359D01*
X0209864Y0163924D02*
X0209874Y0163934D01*
Y0170359D01*
X0207895Y0163924D02*
X0207937Y0163965D01*
Y0168859D01*
X0205927Y0163924D02*
X0205937Y0163934D01*
Y0170359D01*
X0203937Y0163945D02*
X0203958Y0163924D01*
X0203937Y0163945D02*
Y0168859D01*
X020199Y0163924D02*
X0202Y0163934D01*
Y0170359D01*
X0200021Y0163924D02*
X0200063Y0163965D01*
Y0168859D01*
X0219659Y0163971D02*
X0219706Y0163924D01*
X0231459Y0163982D02*
X0231517Y0163924D01*
X0231565Y0163971D02*
Y0190554D01*
X0223602Y0246953D02*
X0223612Y0246963D01*
X0233423Y0242101D02*
X0233424Y02421D01*
X02339D01*
X0235423Y0240601D02*
X023545Y0240628D01*
Y0246999D01*
X0235413Y0247036D02*
X023545Y0246999D01*
X0227539Y0247036D02*
X0227549Y0247026D01*
Y0240601D02*
Y0247026D01*
X02494Y01765D02*
Y02272D01*
X0264194Y0198569D02*
X0264225Y01986D01*
X02627Y01984D02*
X0264194D01*
X025932Y0198569D02*
X0264194D01*
X01222Y02176D02*
Y0222D01*
X01322Y02176D02*
Y022145D01*
X01422Y02176D02*
Y022115D01*
X0172846Y0218254D02*
X0181124D01*
X01222Y02076D02*
Y0212D01*
X01422Y02076D02*
Y02103D01*
X01222Y0202D02*
X01238Y02036D01*
X01222Y01976D02*
Y0202D01*
X01322Y01976D02*
Y02016D01*
X0180228Y0180853D02*
X0181124D01*
X01422Y01976D02*
Y02008D01*
X0181071Y01808D02*
X0181124Y0180853D01*
X01222Y01876D02*
Y01921D01*
X01322Y01876D02*
Y019185D01*
X01422Y01876D02*
Y01909D01*
X0164457Y0206443D02*
X0181124D01*
X01222Y01776D02*
Y01818D01*
X01322Y01776D02*
Y01817D01*
X01422Y01776D02*
Y01808D01*
X0187114Y0169286D02*
X018821Y016819D01*
Y0163924D02*
Y016819D01*
X0190179Y0159379D02*
Y0163924D01*
X0196Y0164008D02*
Y01688D01*
Y0164008D02*
X0196084Y0163924D01*
X01Y0092799D02*
X0101866D01*
X0100933D01*
Y009D01*
X0103266D02*
X0104199D01*
X0104665Y0090466D01*
Y00914D01*
X0104199Y0091866D01*
X0103266D01*
X0102799Y00914D01*
Y0090466D01*
X0103266Y009D01*
X0105598Y0089067D02*
Y0091866D01*
X0106998D01*
X0107464Y00914D01*
Y0090466D01*
X0106998Y009D01*
X0105598D01*
D25*
X02187Y0157156D02*
X02236D01*
X02236Y0151644D02*
X0226044D01*
X02261Y01517D01*
X0215744Y0151644D02*
X02187D01*
X02522Y0155156D02*
Y0157156D01*
X0251881Y0157475D02*
X02522Y0157156D01*
X02468Y0157475D02*
X0251881D01*
X02579D01*
X02522Y0155156D02*
X0254756D01*
X0249644D02*
X02522D01*
X0271644Y01849D02*
Y0187889D01*
X0271325Y0184581D02*
X0271644Y01849D01*
X0277156D02*
Y0187889D01*
X0274475Y01808D02*
X0277464D01*
X0271949Y0204232D02*
Y0207176D01*
X02714Y0200225D02*
Y0204056D01*
X0271949Y0204232D01*
X0271325Y0180853D02*
Y0184581D01*
X0303275Y02222D02*
X03063D01*
D26*
X02867Y01291D02*
Y01375D01*
X01145Y01637D02*
X01184Y01676D01*
X01322D01*
X01145Y01262D02*
X01199Y01208D01*
X02784D01*
X02867Y01291D01*
X01147Y013209D02*
X0122047D01*
X01145Y013189D02*
X01147Y013209D01*
X01145Y01262D02*
Y013189D01*
Y01637D01*
D27*
X0257776Y0274114D02*
D03*
X01422Y02276D02*
D03*
Y02176D02*
D03*
Y01976D02*
D03*
Y01876D02*
D03*
X01322Y02276D02*
D03*
Y02176D02*
D03*
Y01976D02*
D03*
Y01876D02*
D03*
X01222Y02276D02*
D03*
Y02176D02*
D03*
Y01976D02*
D03*
Y01876D02*
D03*
X01522D02*
D03*
Y01976D02*
D03*
Y02176D02*
D03*
Y02276D02*
D03*
X01422Y01776D02*
D03*
X01322D02*
D03*
X01222D02*
D03*
X01522D02*
D03*
X01422Y02076D02*
D03*
X01322D02*
D03*
X01222D02*
D03*
X01522D02*
D03*
Y01676D02*
D03*
Y01576D02*
D03*
X01222D02*
D03*
Y01676D02*
D03*
X01322Y01576D02*
D03*
Y01676D02*
D03*
X01422Y01576D02*
D03*
Y01676D02*
D03*
D28*
X0344661Y0181085D02*
D03*
D29*
X0356472Y01614D02*
D03*
D30*
X0332063D02*
D03*
D31*
X0122047Y013209D02*
D03*
X01187Y02638D02*
D03*
X02967Y01375D02*
D03*
X0303248Y0260531D02*
D03*
D32*
X0122047Y014209D02*
D03*
X0132047Y013209D02*
D03*
Y014209D02*
D03*
X0142047Y013209D02*
D03*
Y014209D02*
D03*
X0152047Y013209D02*
D03*
Y014209D02*
D03*
X0162047Y013209D02*
D03*
Y014209D02*
D03*
X0172047Y013209D02*
D03*
Y014209D02*
D03*
X0182047Y013209D02*
D03*
Y014209D02*
D03*
X0192047Y013209D02*
D03*
Y014209D02*
D03*
X0202047Y013209D02*
D03*
Y014209D02*
D03*
X0212047Y013209D02*
D03*
Y014209D02*
D03*
X01187Y02738D02*
D03*
X01287Y02638D02*
D03*
Y02738D02*
D03*
X01387Y02638D02*
D03*
Y02738D02*
D03*
X01487Y02638D02*
D03*
Y02738D02*
D03*
X01587Y02638D02*
D03*
Y02738D02*
D03*
X0274508Y0270492D02*
D03*
Y0260492D02*
D03*
X02767Y01375D02*
D03*
X02867D02*
D03*
X0323248Y0260531D02*
D03*
X0313248D02*
D03*
D33*
X0274508Y0250492D02*
D03*
D34*
X0345Y0215D02*
D03*
X0355D02*
D03*
X0345Y0205D02*
D03*
X0355D02*
D03*
X0345Y0195D02*
D03*
X0355D02*
D03*
D35*
X0209Y03D02*
D03*
X0199D02*
D03*
X0189D02*
D03*
X0179D02*
D03*
X0169D02*
D03*
X0159D02*
D03*
X0149D02*
D03*
X0139D02*
D03*
X0129D02*
D03*
X0119D02*
D03*
X0295D02*
D03*
X0285D02*
D03*
X0275D02*
D03*
X0265D02*
D03*
X0255D02*
D03*
X0245D02*
D03*
X0235D02*
D03*
X0225D02*
D03*
X0245Y011D02*
D03*
X0255D02*
D03*
X0265D02*
D03*
X0275D02*
D03*
X0285D02*
D03*
X0295D02*
D03*
X0155D02*
D03*
X0165D02*
D03*
X0175D02*
D03*
X0185D02*
D03*
X0195D02*
D03*
X0205D02*
D03*
X0215D02*
D03*
X0225D02*
D03*
D36*
X036Y024D02*
D03*
D37*
X03327Y0117944D02*
D03*
Y0123456D02*
D03*
X0330732Y01207D02*
D03*
X0334668D02*
D03*
D38*
X0348721Y0164764D02*
D03*
X0342224Y0164665D02*
D03*
X0348425Y0172638D02*
D03*
X0342224Y0172539D02*
D03*
X02688Y01327D02*
D03*
X02819Y01456D02*
D03*
X02556Y01364D02*
D03*
X0295625Y01454D02*
D03*
X02372Y01326D02*
D03*
X02348Y01402D02*
D03*
D39*
X0231496Y0206791D02*
D03*
X0209941Y0240748D02*
D03*
X0217913Y0252264D02*
D03*
X0198425Y014813D02*
D03*
X01908Y01577D02*
D03*
X02593Y01695D02*
D03*
X0259Y0219325D02*
D03*
X02216Y02397D02*
D03*
X02236Y02425D02*
D03*
X03282Y02428D02*
D03*
X03Y01948D02*
D03*
X03081Y02277D02*
D03*
X02444Y015435D02*
D03*
X02603Y01543D02*
D03*
X02598Y01731D02*
D03*
X02769Y01703D02*
D03*
Y0175D02*
D03*
X02556Y02281D02*
D03*
X03293Y02161D02*
D03*
X02385Y01983D02*
D03*
X0242D02*
D03*
X0244525Y0203975D02*
D03*
X02688Y0141219D02*
D03*
X0270844Y01456D02*
D03*
X02687Y01456D02*
D03*
X03392Y01271D02*
D03*
X02776Y02336D02*
D03*
X02777Y02387D02*
D03*
X0272Y02361D02*
D03*
X02686Y0232D02*
D03*
X0277572Y02426D02*
D03*
X0327Y02465D02*
D03*
X02955Y02402D02*
D03*
X03293Y0211D02*
D03*
X03179Y02039D02*
D03*
X03086D02*
D03*
X02977Y02065D02*
D03*
X03086Y01948D02*
D03*
X02939Y02243D02*
D03*
X03293Y02011D02*
D03*
X02977Y02111D02*
D03*
X02976Y02159D02*
D03*
X03081Y02303D02*
D03*
X03189Y02352D02*
D03*
X03081Y02353D02*
D03*
X0269159Y0226128D02*
D03*
X0272082Y0228097D02*
D03*
X03081Y02428D02*
D03*
Y02378D02*
D03*
X03189Y02402D02*
D03*
Y02277D02*
D03*
X0269088Y0194632D02*
D03*
X0252Y02168D02*
D03*
X0257108Y0242101D02*
D03*
X0186049Y0232065D02*
D03*
X0257769Y0216286D02*
D03*
Y0176916D02*
D03*
X0259301Y0182821D02*
D03*
X0257801Y0188758D02*
D03*
Y0184821D02*
D03*
Y0208443D02*
D03*
X0259301Y0186821D02*
D03*
Y0190695D02*
D03*
X0257801Y0192695D02*
D03*
X0198063Y0170359D02*
D03*
X0211811Y0159031D02*
D03*
X0204021Y0242101D02*
D03*
X0205958Y0240601D02*
D03*
X0207895Y0242101D02*
D03*
X0219706D02*
D03*
X0217769Y0240601D02*
D03*
X0213832D02*
D03*
X0215832Y0242101D02*
D03*
X0235423Y0240601D02*
D03*
X0237423Y0242101D02*
D03*
X023936Y0240601D02*
D03*
X0243297D02*
D03*
X0241297Y0242101D02*
D03*
X0245297D02*
D03*
X0203318Y0209618D02*
D03*
Y0201418D02*
D03*
X0206818D02*
D03*
X0211832Y0251888D02*
D03*
X0174688Y0202496D02*
D03*
X0259Y0234D02*
D03*
X0233496Y0170359D02*
D03*
X0237433D02*
D03*
X0239433Y0168859D02*
D03*
X0249244Y0170359D02*
D03*
X0245307D02*
D03*
X0243307Y0168859D02*
D03*
X0215811D02*
D03*
X0213811Y0170359D02*
D03*
X0217748D02*
D03*
X0209874D02*
D03*
X0207937Y0168859D02*
D03*
X0231459Y0204059D02*
D03*
X0222659Y0196559D02*
D03*
Y0199459D02*
D03*
X0222635Y0211288D02*
D03*
X0222659Y0214241D02*
D03*
X0213859Y0206759D02*
D03*
X0225612Y0202465D02*
D03*
X0219712Y0202435D02*
D03*
X0225583Y0208365D02*
D03*
X0200063Y0168859D02*
D03*
X0202Y0170359D02*
D03*
X0205937D02*
D03*
X0203937Y0168859D02*
D03*
X0213859Y0204059D02*
D03*
X0229559Y0170359D02*
D03*
X0227622Y0168859D02*
D03*
X0223685D02*
D03*
X0192147Y0168817D02*
D03*
X0192Y01533D02*
D03*
X02384Y01572D02*
D03*
X0241356Y0148644D02*
D03*
X01862Y01893D02*
D03*
Y0196219D02*
D03*
X0225622Y0253625D02*
D03*
X01865Y02474D02*
D03*
X01948Y02421D02*
D03*
X02314Y02558D02*
D03*
X0233424Y02421D02*
D03*
X0198Y02517D02*
D03*
X0231525Y0251465D02*
D03*
X0227549Y0240601D02*
D03*
X0234675Y0253475D02*
D03*
X02588Y02301D02*
D03*
X02578Y02005D02*
D03*
X0245719Y02005D02*
D03*
X02691Y02222D02*
D03*
X02157Y0151688D02*
D03*
Y01572D02*
D03*
X0201544Y0156356D02*
D03*
X02261Y01517D02*
D03*
X019Y02127D02*
D03*
X01897Y0207125D02*
D03*
X01862Y0184419D02*
D03*
Y0186758D02*
D03*
Y02011D02*
D03*
Y01986D02*
D03*
X0254756Y0155156D02*
D03*
X0249644D02*
D03*
X0235465Y01596D02*
D03*
X02522Y01489D02*
D03*
X0271644Y0187889D02*
D03*
X0277156D02*
D03*
X0277464Y01808D02*
D03*
X025932Y0198569D02*
D03*
X0271949Y0207176D02*
D03*
X0249234Y0242101D02*
D03*
X0245144Y0257156D02*
D03*
X0259325Y0204475D02*
D03*
X0277156Y0207244D02*
D03*
X02764Y02002D02*
D03*
X02577Y02127D02*
D03*
X0246225Y0236175D02*
D03*
X033Y02273D02*
D03*
X03297Y022D02*
D03*
X03063Y02222D02*
D03*
X02983D02*
D03*
X01406Y0250372D02*
D03*
X01326Y02504D02*
D03*
X01246D02*
D03*
X01487Y0250472D02*
D03*
X01747Y01985D02*
D03*
X0196Y01688D02*
D03*
X0250656Y0257156D02*
D03*
X025145Y02341D02*
D03*
X0271752Y0245079D02*
D03*
X026309Y0252854D02*
D03*
X0257185Y0257185D02*
D03*
X0250886Y0273228D02*
D03*
X0268504Y026811D02*
D03*
X0265945Y0273425D02*
D03*
D40*
X0231507Y0240559D02*
D03*
X02236Y02518D02*
D03*
X02567Y02222D02*
D03*
X017623Y0214317D02*
D03*
X0176198Y020838D02*
D03*
X01762Y01888D02*
D03*
X0198Y02422D02*
D03*
X0176198Y0200506D02*
D03*
D41*
X0306815Y0170855D02*
D03*
X0360701Y0136199D02*
D03*
X03138Y01451D02*
D03*
M02*
