%FSTAX25Y25*%
%MOIN*%
G70*
G01*
G75*
G04 Layer_Color=32896*
%ADD10O,0.07087X0.01181*%
%ADD11O,0.01181X0.07087*%
%ADD12O,0.07284X0.01378*%
%ADD13R,0.08071X0.02756*%
%ADD14R,0.02165X0.01772*%
%ADD15R,0.02756X0.03543*%
%ADD16R,0.03543X0.02756*%
%ADD17R,0.02047X0.02047*%
%ADD18R,0.02047X0.02047*%
%ADD19R,0.01772X0.02165*%
%ADD20C,0.00669*%
%ADD21C,0.00700*%
%ADD22C,0.00500*%
%ADD23C,0.01000*%
%ADD24C,0.02000*%
%ADD25C,0.03000*%
%ADD26O,0.15748X0.07874*%
%ADD27O,0.07874X0.15748*%
%ADD28O,0.07874X0.17716*%
%ADD29R,0.05906X0.05906*%
%ADD30C,0.05906*%
%ADD31C,0.06000*%
%ADD32P,0.06711X8X112.5*%
%ADD33O,0.05600X0.11200*%
%ADD34C,0.12600*%
%ADD35C,0.01969*%
%ADD36C,0.01600*%
%ADD37C,0.01595*%
%ADD38C,0.05000*%
%ADD39C,0.02800*%
%ADD40C,0.04000*%
%ADD41R,0.70200X0.25400*%
%ADD42O,0.15811X0.07937*%
%ADD43O,0.07937X0.15811*%
%ADD44O,0.07937X0.17779*%
%ADD45C,0.07543*%
G04:AMPARAMS|DCode=46|XSize=95.433mil|YSize=95.433mil|CornerRadius=0mil|HoleSize=0mil|Usage=FLASHONLY|Rotation=0.000|XOffset=0mil|YOffset=0mil|HoleType=Round|Shape=Relief|Width=10mil|Gap=10mil|Entries=4|*
%AMTHD46*
7,0,0,0.09543,0.07543,0.01000,45*
%
%ADD46THD46*%
%ADD47C,0.07550*%
G04:AMPARAMS|DCode=48|XSize=95.5mil|YSize=95.5mil|CornerRadius=0mil|HoleSize=0mil|Usage=FLASHONLY|Rotation=0.000|XOffset=0mil|YOffset=0mil|HoleType=Round|Shape=Relief|Width=10mil|Gap=10mil|Entries=4|*
%AMTHD48*
7,0,0,0.09550,0.07550,0.01000,45*
%
%ADD48THD48*%
%ADD49C,0.07800*%
%ADD50C,0.07400*%
%ADD51C,0.16600*%
G04:AMPARAMS|DCode=52|XSize=70mil|YSize=70mil|CornerRadius=0mil|HoleSize=0mil|Usage=FLASHONLY|Rotation=0.000|XOffset=0mil|YOffset=0mil|HoleType=Round|Shape=Relief|Width=10mil|Gap=10mil|Entries=4|*
%AMTHD52*
7,0,0,0.07000,0.05000,0.01000,45*
%
%ADD52THD52*%
%ADD53C,0.06800*%
%ADD54C,0.05600*%
%AMTHOVALD55*
21,1,0.07874,0.09937,0,0,180.0*
1,1,0.09937,0.03937,0.00000*
1,1,0.09937,-0.03937,0.00000*
21,0,0.07874,0.07937,0,0,180.0*
1,0,0.07937,0.03937,0.00000*
1,0,0.07937,-0.03937,0.00000*
4,0,4,0.03583,0.00354,0.07097,0.03867,0.07804,0.03160,0.04291,-0.00354,0.03583,0.00354,0.0*
4,0,4,-0.04291,0.00354,-0.07804,-0.03160,-0.07097,-0.03867,-0.03583,-0.00354,-0.04291,0.00354,0.0*
4,0,4,0.04291,0.00354,0.07804,-0.03160,0.07097,-0.03867,0.03583,-0.00354,0.04291,0.00354,0.0*
4,0,4,-0.03583,0.00354,-0.07097,0.03867,-0.07804,0.03160,-0.04291,-0.00354,-0.03583,0.00354,0.0*
%
%ADD55THOVALD55*%

%AMTHOVALD56*
21,1,0.07874,0.09937,0,0,270.0*
1,1,0.09937,0.00000,0.03937*
1,1,0.09937,0.00000,-0.03937*
21,0,0.07874,0.07937,0,0,270.0*
1,0,0.07937,0.00000,0.03937*
1,0,0.07937,0.00000,-0.03937*
4,0,4,-0.00354,0.03583,-0.03867,0.07097,-0.03160,0.07804,0.00354,0.04291,-0.00354,0.03583,0.0*
4,0,4,-0.00354,-0.04291,0.03160,-0.07804,0.03867,-0.07097,0.00354,-0.03583,-0.00354,-0.04291,0.0*
4,0,4,-0.00354,0.04291,0.03160,0.07804,0.03867,0.07097,0.00354,0.03583,-0.00354,0.04291,0.0*
4,0,4,-0.00354,-0.03583,-0.03867,-0.07097,-0.03160,-0.07804,0.00354,-0.04291,-0.00354,-0.03583,0.0*
%
%ADD56THOVALD56*%

G04:AMPARAMS|DCode=57|XSize=98mil|YSize=98mil|CornerRadius=0mil|HoleSize=0mil|Usage=FLASHONLY|Rotation=0.000|XOffset=0mil|YOffset=0mil|HoleType=Round|Shape=Relief|Width=10mil|Gap=10mil|Entries=4|*
%AMTHD57*
7,0,0,0.09800,0.07800,0.01000,45*
%
%ADD57THD57*%
G04:AMPARAMS|DCode=58|XSize=94mil|YSize=94mil|CornerRadius=0mil|HoleSize=0mil|Usage=FLASHONLY|Rotation=0.000|XOffset=0mil|YOffset=0mil|HoleType=Round|Shape=Relief|Width=10mil|Gap=10mil|Entries=4|*
%AMTHD58*
7,0,0,0.09400,0.07400,0.01000,45*
%
%ADD58THD58*%
G04:AMPARAMS|DCode=59|XSize=88mil|YSize=88mil|CornerRadius=0mil|HoleSize=0mil|Usage=FLASHONLY|Rotation=0.000|XOffset=0mil|YOffset=0mil|HoleType=Round|Shape=Relief|Width=10mil|Gap=10mil|Entries=4|*
%AMTHD59*
7,0,0,0.08800,0.06800,0.01000,45*
%
%ADD59THD59*%
G04:AMPARAMS|DCode=60|XSize=76mil|YSize=76mil|CornerRadius=0mil|HoleSize=0mil|Usage=FLASHONLY|Rotation=0.000|XOffset=0mil|YOffset=0mil|HoleType=Round|Shape=Relief|Width=10mil|Gap=10mil|Entries=4|*
%AMTHD60*
7,0,0,0.07600,0.05600,0.01000,45*
%
%ADD60THD60*%
%ADD61R,0.07480X0.03150*%
%ADD62R,0.07480X0.12205*%
%ADD63R,0.06299X0.02559*%
%ADD64R,0.08661X0.11811*%
%ADD65R,0.01969X0.01181*%
%ADD66C,0.01181*%
%ADD67R,0.03543X0.04724*%
%ADD68R,0.06693X0.06614*%
%ADD69R,0.08661X0.07874*%
%ADD70C,0.05000*%
%ADD71C,0.01300*%
%ADD72C,0.01500*%
%ADD73C,0.02362*%
%ADD74C,0.00984*%
%ADD75C,0.00787*%
%ADD76C,0.00600*%
%ADD77C,0.01200*%
%ADD78C,0.00400*%
%ADD79O,0.07487X0.01581*%
%ADD80O,0.01581X0.07487*%
%ADD81O,0.07684X0.01778*%
%ADD82R,0.08471X0.03156*%
%ADD83R,0.02565X0.02172*%
%ADD84R,0.03156X0.03943*%
%ADD85R,0.03943X0.03156*%
%ADD86R,0.02447X0.02447*%
%ADD87R,0.02447X0.02447*%
%ADD88R,0.02172X0.02565*%
%ADD89O,0.07287X0.01381*%
%ADD90O,0.01381X0.07287*%
%ADD91O,0.07484X0.01578*%
%ADD92R,0.08271X0.02956*%
%ADD93R,0.02365X0.01972*%
%ADD94R,0.02956X0.03743*%
%ADD95R,0.03743X0.02956*%
%ADD96R,0.02247X0.02247*%
%ADD97R,0.02247X0.02247*%
%ADD98R,0.01972X0.02365*%
%ADD99O,0.15948X0.08074*%
%ADD100O,0.08074X0.15948*%
%ADD101O,0.08074X0.17916*%
%ADD102R,0.06106X0.06106*%
%ADD103C,0.06106*%
%ADD104C,0.06200*%
%ADD105P,0.06927X8X112.5*%
%ADD106O,0.05800X0.11400*%
%ADD107C,0.12800*%
%ADD108C,0.02169*%
%ADD109C,0.01800*%
%ADD110C,0.01795*%
%ADD111C,0.05200*%
%ADD112C,0.03000*%
%ADD113R,0.07680X0.03350*%
%ADD114R,0.07680X0.12405*%
%ADD115R,0.06499X0.02759*%
%ADD116R,0.09061X0.12211*%
%ADD117R,0.02369X0.01581*%
%ADD118C,0.01381*%
%ADD119R,0.03743X0.04924*%
%ADD120R,0.06893X0.06814*%
%ADD121R,0.08861X0.08074*%
%ADD122R,0.01969X0.01181*%
%ADD123R,0.03347X0.04921*%
%ADD124R,0.07880X0.03550*%
%ADD125R,0.07880X0.12605*%
%ADD126R,0.06699X0.02959*%
%ADD127C,0.01581*%
%ADD128R,0.03943X0.05124*%
%ADD129R,0.07093X0.07014*%
%ADD130R,0.09061X0.08274*%
G36*
X0214773Y0189652D02*
X0210836D01*
Y0193589D01*
X0214773Y0189652D01*
D02*
G37*
D22*
X03306Y01366D02*
X03346D01*
X03326Y01371D02*
X03331Y01366D01*
X03326Y01361D02*
Y01371D01*
Y01361D02*
X03331Y01366D01*
X03321Y01356D02*
X03331Y01366D01*
X03321Y01356D02*
Y01376D01*
X03331Y01366D01*
Y01356D02*
Y01376D01*
X0258661Y0144913D02*
Y0143247D01*
X0258328Y0142913D01*
X0257662D01*
X0257329Y0143247D01*
Y0144913D01*
X0256662D02*
X0255329D01*
Y014458D01*
X0256662Y0143247D01*
Y0142913D01*
X0242661Y0136735D02*
X0242994Y0137069D01*
X024366D01*
X0243994Y0136735D01*
Y0135403D01*
X024366Y0135069D01*
X0242994D01*
X0242661Y0135403D01*
X0241994Y0136735D02*
X0241661Y0137069D01*
X0240995D01*
X0240662Y0136735D01*
Y0136402D01*
X0240995Y0136069D01*
X0241328D01*
X0240995D01*
X0240662Y0135736D01*
Y0135403D01*
X0240995Y0135069D01*
X0241661D01*
X0241994Y0135403D01*
X0239995Y0137069D02*
X0238662D01*
Y0136735D01*
X0239995Y0135403D01*
Y0135069D01*
X0271168Y0138825D02*
X0270835Y0139158D01*
Y0139824D01*
X0271168Y0140157D01*
X0272501D01*
X0272835Y0139824D01*
Y0139158D01*
X0272501Y0138825D01*
X0271168Y0138158D02*
X0270835Y0137825D01*
Y0137158D01*
X0271168Y0136825D01*
X0271502D01*
X0271835Y0137158D01*
Y0137492D01*
Y0137158D01*
X0272168Y0136825D01*
X0272501D01*
X0272835Y0137158D01*
Y0137825D01*
X0272501Y0138158D01*
X0270835Y0134826D02*
X0271168Y0135492D01*
X0271835Y0136159D01*
X0272501D01*
X0272835Y0135826D01*
Y0135159D01*
X0272501Y0134826D01*
X0272168D01*
X0271835Y0135159D01*
Y0136159D01*
X0242762Y0130013D02*
X0243095Y0130346D01*
X0243761D01*
X0244094Y0130013D01*
Y012868D01*
X0243761Y0128347D01*
X0243095D01*
X0242762Y012868D01*
X0242095Y0130013D02*
X0241762Y0130346D01*
X0241095D01*
X0240762Y0130013D01*
Y0129679D01*
X0241095Y0129346D01*
X0241429D01*
X0241095D01*
X0240762Y0129013D01*
Y012868D01*
X0241095Y0128347D01*
X0241762D01*
X0242095Y012868D01*
X0240096Y0130013D02*
X0239763Y0130346D01*
X0239096D01*
X0238763Y0130013D01*
Y0129679D01*
X0239096Y0129346D01*
X0238763Y0129013D01*
Y012868D01*
X0239096Y0128347D01*
X0239763D01*
X0240096Y012868D01*
Y0129013D01*
X0239763Y0129346D01*
X0240096Y0129679D01*
Y0130013D01*
X0239763Y0129346D02*
X0239096D01*
X01Y0092799D02*
Y009D01*
X01014D01*
X0101866Y0090466D01*
Y0090933D01*
X01014Y00914D01*
X01D01*
X01014D01*
X0101866Y0091866D01*
Y0092333D01*
X01014Y0092799D01*
X01D01*
X0103266Y009D02*
X0104199D01*
X0104665Y0090466D01*
Y00914D01*
X0104199Y0091866D01*
X0103266D01*
X0102799Y00914D01*
Y0090466D01*
X0103266Y009D01*
X0106065Y0092333D02*
Y0091866D01*
X0105598D01*
X0106531D01*
X0106065D01*
Y0090466D01*
X0106531Y009D01*
X0108397Y0092333D02*
Y0091866D01*
X0107931D01*
X0108864D01*
X0108397D01*
Y0090466D01*
X0108864Y009D01*
X011073D02*
X0111663D01*
X0112129Y0090466D01*
Y00914D01*
X0111663Y0091866D01*
X011073D01*
X0110263Y00914D01*
Y0090466D01*
X011073Y009D01*
X0113062D02*
Y0091866D01*
X0113529D01*
X0113996Y00914D01*
Y009D01*
Y00914D01*
X0114462Y0091866D01*
X0114928Y00914D01*
Y009D01*
X012006Y0092799D02*
X0119127D01*
X0118661Y0092333D01*
Y0090466D01*
X0119127Y009D01*
X012006D01*
X0120527Y0090466D01*
Y0092333D01*
X012006Y0092799D01*
X012146Y0091866D02*
X0122393Y009D01*
X0123326Y0091866D01*
X0125658Y009D02*
X0124725D01*
X0124259Y0090466D01*
Y00914D01*
X0124725Y0091866D01*
X0125658D01*
X0126125Y00914D01*
Y0090933D01*
X0124259D01*
X0127058Y0091866D02*
Y009D01*
Y0090933D01*
X0127524Y00914D01*
X0127991Y0091866D01*
X0128457D01*
X0129857Y009D02*
X013079D01*
X0130324D01*
Y0092799D01*
X0129857D01*
X0132656Y0091866D02*
X0133589D01*
X0134056Y00914D01*
Y009D01*
X0132656D01*
X013219Y0090466D01*
X0132656Y0090933D01*
X0134056D01*
X0134989Y0091866D02*
Y0090466D01*
X0135455Y009D01*
X0136855D01*
Y0089534D01*
X0136388Y0089067D01*
X0135922D01*
X0136855Y009D02*
Y0091866D01*
D23*
X0356718Y0118089D02*
X0358293Y0119664D01*
X0344907D02*
X0346482Y0118089D01*
X0356718D01*
X0344907Y0141908D02*
X0358293D01*
X0344907Y0119664D02*
Y0141908D01*
X0358293Y0119664D02*
Y0141908D01*
X0318918Y0117889D02*
X0320493Y0119464D01*
X0307107D02*
X0308682Y0117889D01*
X0318918D01*
X0307107Y0141708D02*
X0320493D01*
X0307107Y0119464D02*
Y0141708D01*
X0320493Y0119464D02*
Y0141708D01*
D74*
X0298206Y0174595D02*
G03*
X0298206Y0174595I-0000492J0D01*
G01*
X0261213Y0143485D02*
G03*
X0261213Y0143485I-0000492J0D01*
G01*
X0344019Y0128574D02*
G03*
X0344019Y0128574I-0000492J0D01*
G01*
X0208966Y0190243D02*
G03*
X0208966Y0190243I-0000492J0D01*
G01*
X0253292Y0229192D02*
G03*
X0253292Y0229192I-0000492J0D01*
G01*
X0340139Y012899D02*
G03*
X0340139Y012899I-0000492J0D01*
G01*
D75*
X0292793Y0148611D02*
Y0174989D01*
X0279407Y0148611D02*
Y0174989D01*
X0292793D01*
X0279407Y0148611D02*
X0292793D01*
X0324039Y0129361D02*
X032581D01*
X0324039Y0112039D02*
X032581D01*
X033959Y0129361D02*
X0341361D01*
X0324039Y012759D02*
Y0129361D01*
X0341361Y012759D02*
Y0129361D01*
X033959Y0112039D02*
X0341361D01*
Y011381D01*
X0324039Y0112039D02*
Y011381D01*
X0210836Y0193589D02*
X0214773Y0189652D01*
X0210836D02*
Y0221148D01*
X0234458Y0189652D02*
Y0221148D01*
X0210836Y0189652D02*
X0234458D01*
X0210836Y0221148D02*
X0234458D01*
X0250599Y0220716D02*
Y0222684D01*
X0238001Y0220716D02*
Y0222684D01*
X0324244Y0141846D02*
X0340956D01*
X0324244Y0131354D02*
X0340956D01*
X0324242Y0131718D02*
X0324244Y0131354D01*
X0340956D02*
X0340958Y0131718D01*
X0340956Y0141846D02*
X0340958Y0141482D01*
X0324242D02*
X0324244Y0141846D01*
X0275903Y0144222D02*
X0276297D01*
X0275903Y0146978D02*
X0276297D01*
X0240603Y0138822D02*
X0240997D01*
X0240603Y0141578D02*
X0240997D01*
X0220503Y0248778D02*
X0220897D01*
X0220503Y0246022D02*
X0220897D01*
X0250803Y0201878D02*
X0251197D01*
X0250803Y0199122D02*
X0251197D01*
X0179822Y0187003D02*
Y0187397D01*
X0182578Y0187003D02*
Y0187397D01*
X0179822Y0198803D02*
Y0199197D01*
X0182578Y0198803D02*
Y0199197D01*
X0188378Y0209603D02*
Y0209997D01*
X0185622Y0209603D02*
Y0209997D01*
X0169322Y0199503D02*
Y0199897D01*
X0172078Y0199503D02*
Y0199897D01*
X0289303Y0144222D02*
X0289697D01*
X0289303Y0146978D02*
X0289697D01*
D78*
X029252Y0177984D02*
Y0176318D01*
X0292186Y0175984D01*
X029152D01*
X0291187Y0176318D01*
Y0177984D01*
X0289187D02*
X0289854Y017765D01*
X029052Y0176984D01*
Y0176318D01*
X0290187Y0175984D01*
X0289521D01*
X0289187Y0176318D01*
Y0176651D01*
X0289521Y0176984D01*
X029052D01*
X0311417Y0201969D02*
X0309418D01*
Y0200969D01*
X0309751Y0200636D01*
X0310418D01*
X0310751Y0200969D01*
Y0201969D01*
Y0201302D02*
X0311417Y0200636D01*
X0309751Y0199969D02*
X0309418Y0199636D01*
Y0198969D01*
X0309751Y0198636D01*
X0310084D01*
X0310418Y0198969D01*
X0310751Y0198636D01*
X0311084D01*
X0311417Y0198969D01*
Y0199636D01*
X0311084Y0199969D01*
X0310751D01*
X0310418Y0199636D01*
X0310084Y0199969D01*
X0309751D01*
X0310418Y0199636D02*
Y0198969D01*
X0341339Y0111055D02*
Y0109388D01*
X0341005Y0109055D01*
X0340339D01*
X0340006Y0109388D01*
Y0111055D01*
X033834Y0109055D02*
Y0111055D01*
X0339339Y0110055D01*
X0338006D01*
X0212992Y018822D02*
Y0186554D01*
X0212659Y0186221D01*
X0211993D01*
X0211659Y0186554D01*
Y018822D01*
X020966D02*
X0210993D01*
Y018722D01*
X0210326Y0187553D01*
X0209993D01*
X020966Y018722D01*
Y0186554D01*
X0209993Y0186221D01*
X021066D01*
X0210993Y0186554D01*
X0251938Y0223622D02*
X0253937Y0222289D01*
X0251938D02*
X0253937Y0223622D01*
Y022029D02*
Y0221623D01*
X0252604Y022029D01*
X0252271D01*
X0251938Y0220623D01*
Y0221289D01*
X0252271Y0221623D01*
X0340945Y0145306D02*
Y0143307D01*
X0339945D01*
X0339612Y014364D01*
Y0144973D01*
X0339945Y0145306D01*
X0340945D01*
X0338946Y0143307D02*
X0338279D01*
X0338612D01*
Y0145306D01*
X0338946Y0144973D01*
X0277014Y0149698D02*
X0277347Y0150031D01*
X0278013D01*
X0278346Y0149698D01*
Y0148365D01*
X0278013Y0148031D01*
X0277347D01*
X0277014Y0148365D01*
X0276347Y0149698D02*
X0276014Y0150031D01*
X0275347D01*
X0275014Y0149698D01*
Y0149364D01*
X0275347Y0149031D01*
X0275681D01*
X0275347D01*
X0275014Y0148698D01*
Y0148365D01*
X0275347Y0148031D01*
X0276014D01*
X0276347Y0148365D01*
X0273348Y0148031D02*
Y0150031D01*
X0274348Y0149031D01*
X0273015D01*
X0206208Y0199061D02*
X0205875Y0199394D01*
Y0200061D01*
X0206208Y0200394D01*
X0207541D01*
X0207874Y0200061D01*
Y0199394D01*
X0207541Y0199061D01*
X0206208Y0198394D02*
X0205875Y0198061D01*
Y0197395D01*
X0206208Y0197061D01*
X0206541D01*
X0206874Y0197395D01*
Y0197728D01*
Y0197395D01*
X0207208Y0197061D01*
X0207541D01*
X0207874Y0197395D01*
Y0198061D01*
X0207541Y0198394D01*
X0206208Y0196395D02*
X0205875Y0196062D01*
Y0195395D01*
X0206208Y0195062D01*
X0207541D01*
X0207874Y0195395D01*
Y0196062D01*
X0207541Y0196395D01*
X0206208D01*
X0237868Y0210112D02*
X0237534Y0210445D01*
Y0211112D01*
X0237868Y0211445D01*
X0239201D01*
X0239534Y0211112D01*
Y0210445D01*
X0239201Y0210112D01*
X0237868Y0209446D02*
X0237534Y0209112D01*
Y0208446D01*
X0237868Y0208113D01*
X0238201D01*
X0238534Y0208446D01*
Y0208779D01*
Y0208446D01*
X0238867Y0208113D01*
X0239201D01*
X0239534Y0208446D01*
Y0209112D01*
X0239201Y0209446D01*
X0239534Y0206113D02*
Y0207446D01*
X0238201Y0206113D01*
X0237868D01*
X0237534Y0206447D01*
Y0207113D01*
X0237868Y0207446D01*
X0356935Y014458D02*
X0357268Y0144913D01*
X0357934D01*
X0358268Y014458D01*
Y0143247D01*
X0357934Y0142913D01*
X0357268D01*
X0356935Y0143247D01*
X0354936Y0142913D02*
X0356268D01*
X0354936Y0144246D01*
Y014458D01*
X0355269Y0144913D01*
X0355935D01*
X0356268Y014458D01*
X0353269Y0142913D02*
Y0144913D01*
X0354269Y0143913D01*
X0352936D01*
X0264173Y020748D02*
Y020948D01*
X0263174D01*
X026284Y0209146D01*
Y020848D01*
X0263174Y0208147D01*
X0264173D01*
X0263507D02*
X026284Y020748D01*
X0262174D02*
X0261507D01*
X0261841D01*
Y020948D01*
X0262174Y0209146D01*
X0260508D02*
X0260174Y020948D01*
X0259508D01*
X0259175Y0209146D01*
Y0208813D01*
X0259508Y020848D01*
X0259841D01*
X0259508D01*
X0259175Y0208147D01*
Y0207814D01*
X0259508Y020748D01*
X0260174D01*
X0260508Y0207814D01*
X0249848Y0239068D02*
X0250181Y0239401D01*
X0250848D01*
X0251181Y0239068D01*
Y0237735D01*
X0250848Y0237402D01*
X0250181D01*
X0249848Y0237735D01*
X0249182Y0237402D02*
X0248515D01*
X0248849D01*
Y0239401D01*
X0249182Y0239068D01*
X0247516D02*
X0247182Y0239401D01*
X0246516D01*
X0246183Y0239068D01*
Y0237735D01*
X0246516Y0237402D01*
X0247182D01*
X0247516Y0237735D01*
Y0239068D01*
X0245516Y0237402D02*
X024485D01*
X0245183D01*
Y0239401D01*
X0245516Y0239068D01*
X0238431Y0247729D02*
X0238764Y0248062D01*
X023943D01*
X0239764Y0247729D01*
Y0246396D01*
X023943Y0246063D01*
X0238764D01*
X0238431Y0246396D01*
X0237764Y0247729D02*
X0237431Y0248062D01*
X0236765D01*
X0236432Y0247729D01*
Y0247396D01*
X0236765Y0247063D01*
X0237098D01*
X0236765D01*
X0236432Y0246729D01*
Y0246396D01*
X0236765Y0246063D01*
X0237431D01*
X0237764Y0246396D01*
X0195124Y0250485D02*
X0195457Y0250818D01*
X0196124D01*
X0196457Y0250485D01*
Y0249152D01*
X0196124Y0248819D01*
X0195457D01*
X0195124Y0249152D01*
X0193458Y0248819D02*
Y0250818D01*
X0194457Y0249819D01*
X0193124D01*
X0214415Y0248123D02*
X0214748Y0248456D01*
X0215415D01*
X0215748Y0248123D01*
Y024679D01*
X0215415Y0246457D01*
X0214748D01*
X0214415Y024679D01*
X0212416Y0248456D02*
X0213749D01*
Y0247456D01*
X0213082Y024779D01*
X0212749D01*
X0212416Y0247456D01*
Y024679D01*
X0212749Y0246457D01*
X0213416D01*
X0213749Y024679D01*
X0251029Y0197335D02*
X0251362Y0197669D01*
X0252029D01*
X0252362Y0197335D01*
Y0196002D01*
X0252029Y0195669D01*
X0251362D01*
X0251029Y0196002D01*
X0250363Y0197669D02*
X024903D01*
Y0197335D01*
X0250363Y0196002D01*
Y0195669D01*
X0186069Y0187887D02*
X0186402Y018822D01*
X0187068D01*
X0187402Y0187887D01*
Y0186554D01*
X0187068Y0186221D01*
X0186402D01*
X0186069Y0186554D01*
X0185402D02*
X0185069Y0186221D01*
X0184403D01*
X0184069Y0186554D01*
Y0187887D01*
X0184403Y018822D01*
X0185069D01*
X0185402Y0187887D01*
Y0187553D01*
X0185069Y018722D01*
X0184069D01*
X0186856Y0199698D02*
X0187189Y0200031D01*
X0187856D01*
X0188189Y0199698D01*
Y0198365D01*
X0187856Y0198031D01*
X0187189D01*
X0186856Y0198365D01*
X018619Y0198031D02*
X0185523D01*
X0185856D01*
Y0200031D01*
X018619Y0199698D01*
X0184523Y0198031D02*
X0183857D01*
X018419D01*
Y0200031D01*
X0184523Y0199698D01*
X0193549Y0210328D02*
X0193882Y0210661D01*
X0194549D01*
X0194882Y0210328D01*
Y0208995D01*
X0194549Y0208661D01*
X0193882D01*
X0193549Y0208995D01*
X0192883Y0208661D02*
X0192216D01*
X0192549D01*
Y0210661D01*
X0192883Y0210328D01*
X0190217Y0208661D02*
Y0210661D01*
X0191216Y0209661D01*
X0189883D01*
X0166777Y0200091D02*
X0167111Y0200425D01*
X0167777D01*
X016811Y0200091D01*
Y0198758D01*
X0167777Y0198425D01*
X0167111D01*
X0166777Y0198758D01*
X0166111Y0198425D02*
X0165444D01*
X0165778D01*
Y0200425D01*
X0166111Y0200091D01*
X0163112Y0200425D02*
X0164445D01*
Y0199425D01*
X0163778Y0199758D01*
X0163445D01*
X0163112Y0199425D01*
Y0198758D01*
X0163445Y0198425D01*
X0164111D01*
X0164445Y0198758D01*
X026914Y022017D02*
X0269473Y0220503D01*
X0270139D01*
X0270472Y022017D01*
Y0218837D01*
X0270139Y0218504D01*
X0269473D01*
X026914Y0218837D01*
X0268473Y0218504D02*
X0267807D01*
X026814D01*
Y0220503D01*
X0268473Y022017D01*
X0266807Y0220503D02*
X0265474D01*
Y022017D01*
X0266807Y0218837D01*
Y0218504D01*
X0228588Y025954D02*
X0228922Y0259873D01*
X0229588D01*
X0229921Y025954D01*
Y0258207D01*
X0229588Y0257874D01*
X0228922D01*
X0228588Y0258207D01*
X0226589Y0257874D02*
X0227922D01*
X0226589Y0259207D01*
Y025954D01*
X0226922Y0259873D01*
X0227589D01*
X0227922Y025954D01*
X022459Y0259873D02*
X0225256Y025954D01*
X0225923Y0258874D01*
Y0258207D01*
X0225589Y0257874D01*
X0224923D01*
X022459Y0258207D01*
Y0258541D01*
X0224923Y0258874D01*
X0225923D01*
X0182919Y0215446D02*
X0183252Y0215779D01*
X0183919D01*
X0184252Y0215446D01*
Y0214113D01*
X0183919Y0213779D01*
X0183252D01*
X0182919Y0214113D01*
X018092Y0213779D02*
X0182253D01*
X018092Y0215112D01*
Y0215446D01*
X0181253Y0215779D01*
X0181919D01*
X0182253Y0215446D01*
X0180253Y0215779D02*
X017892D01*
Y0215446D01*
X0180253Y0214113D01*
Y0213779D01*
X0257087Y0235827D02*
Y0237826D01*
X0256087D01*
X0255754Y0237493D01*
Y0236826D01*
X0256087Y0236493D01*
X0257087D01*
X025642D02*
X0255754Y0235827D01*
X0253754D02*
X0255087D01*
X0253754Y023716D01*
Y0237493D01*
X0254088Y0237826D01*
X0254754D01*
X0255087Y0237493D01*
X0262205Y0213779D02*
Y0215779D01*
X0261205D01*
X0260872Y0215446D01*
Y0214779D01*
X0261205Y0214446D01*
X0262205D01*
X0261538D02*
X0260872Y0213779D01*
X0259206D02*
Y0215779D01*
X0260205Y0214779D01*
X0258873D01*
X02588Y01703D02*
Y0172299D01*
X02578D01*
X0257467Y0171966D01*
Y01713D01*
X02578Y0170966D01*
X02588D01*
X0258134D02*
X0257467Y01703D01*
X0255468Y0172299D02*
X0256134Y0171966D01*
X0256801Y01713D01*
Y0170633D01*
X0256467Y01703D01*
X0255801D01*
X0255468Y0170633D01*
Y0170966D01*
X0255801Y01713D01*
X0256801D01*
X0315596Y0116627D02*
X0315929Y011696D01*
X0316596D01*
X0316929Y0116627D01*
Y0115294D01*
X0316596Y0114961D01*
X0315929D01*
X0315596Y0115294D01*
X0313597Y0114961D02*
X031493D01*
X0313597Y0116294D01*
Y0116627D01*
X031393Y011696D01*
X0314597D01*
X031493Y0116627D01*
X031293D02*
X0312597Y011696D01*
X0311931D01*
X0311597Y0116627D01*
Y0116294D01*
X0311931Y011596D01*
X0312264D01*
X0311931D01*
X0311597Y0115627D01*
Y0115294D01*
X0311931Y0114961D01*
X0312597D01*
X031293Y0115294D01*
X0317323Y0201969D02*
X0315323D01*
Y0200969D01*
X0315657Y0200636D01*
X0316323D01*
X0316656Y0200969D01*
Y0201969D01*
Y0201302D02*
X0317323Y0200636D01*
X0315323Y0199969D02*
Y0198636D01*
X0315657D01*
X031699Y0199969D01*
X0317323D01*
X0241714Y0210212D02*
X0241381Y0210545D01*
Y0211212D01*
X0241714Y0211545D01*
X0243047D01*
X024338Y0211212D01*
Y0210545D01*
X0243047Y0210212D01*
X024338Y0208213D02*
Y0209545D01*
X0242047Y0208213D01*
X0241714D01*
X0241381Y0208546D01*
Y0209212D01*
X0241714Y0209545D01*
X0241381Y0206213D02*
Y0207546D01*
X0242381D01*
X0242047Y020688D01*
Y0206546D01*
X0242381Y0206213D01*
X0243047D01*
X024338Y0206546D01*
Y0207213D01*
X0243047Y0207546D01*
X0202665Y0199061D02*
X0202331Y0199394D01*
Y0200061D01*
X0202665Y0200394D01*
X0203997D01*
X0204331Y0200061D01*
Y0199394D01*
X0203997Y0199061D01*
X0202665Y0198394D02*
X0202331Y0198061D01*
Y0197395D01*
X0202665Y0197061D01*
X0202998D01*
X0203331Y0197395D01*
Y0197728D01*
Y0197395D01*
X0203664Y0197061D01*
X0203997D01*
X0204331Y0197395D01*
Y0198061D01*
X0203997Y0198394D01*
X0204331Y0196395D02*
Y0195729D01*
Y0196062D01*
X0202331D01*
X0202665Y0196395D01*
X0298273Y0149304D02*
X0298607Y0149637D01*
X0299273D01*
X0299606Y0149304D01*
Y0147971D01*
X0299273Y0147638D01*
X0298607D01*
X0298273Y0147971D01*
X0297607Y0149304D02*
X0297274Y0149637D01*
X0296607D01*
X0296274Y0149304D01*
Y0148971D01*
X0296607Y0148637D01*
X029694D01*
X0296607D01*
X0296274Y0148304D01*
Y0147971D01*
X0296607Y0147638D01*
X0297274D01*
X0297607Y0147971D01*
X0295608Y0149304D02*
X0295274Y0149637D01*
X0294608D01*
X0294275Y0149304D01*
Y0148971D01*
X0294608Y0148637D01*
X0294941D01*
X0294608D01*
X0294275Y0148304D01*
Y0147971D01*
X0294608Y0147638D01*
X0295274D01*
X0295608Y0147971D01*
M02*
