%FSTAX23Y23*%
%MOIN*%
G70*
G01*
G75*
G04 Layer_Color=32896*
%ADD10O,0.071X0.012*%
%ADD11O,0.012X0.071*%
%ADD12O,0.073X0.014*%
%ADD13R,0.081X0.028*%
%ADD14R,0.022X0.018*%
%ADD15R,0.028X0.035*%
%ADD16R,0.035X0.028*%
%ADD17R,0.020X0.020*%
%ADD18R,0.020X0.020*%
%ADD19R,0.018X0.022*%
%ADD20C,0.010*%
%ADD21C,0.005*%
%ADD22C,0.020*%
%ADD23C,0.030*%
%ADD24O,0.157X0.079*%
%ADD25O,0.079X0.157*%
%ADD26O,0.079X0.177*%
%ADD27R,0.059X0.059*%
%ADD28C,0.059*%
%ADD29C,0.060*%
%ADD30P,0.067X8X112.5*%
%ADD31O,0.056X0.112*%
%ADD32C,0.126*%
%ADD33C,0.020*%
%ADD34C,0.016*%
%ADD35C,0.016*%
%ADD36C,0.050*%
%ADD37C,0.028*%
%ADD38C,0.040*%
%ADD39R,0.702X0.254*%
%ADD40O,0.158X0.079*%
%ADD41O,0.079X0.158*%
%ADD42O,0.079X0.178*%
%ADD43C,0.075*%
G04:AMPARAMS|DCode=44|XSize=95.433mil|YSize=95.433mil|CornerRadius=0mil|HoleSize=0mil|Usage=FLASHONLY|Rotation=0.000|XOffset=0mil|YOffset=0mil|HoleType=Round|Shape=Relief|Width=10mil|Gap=10mil|Entries=4|*
%AMTHD44*
7,0,0,0.095,0.075,0.010,45*
%
%ADD44THD44*%
%ADD45C,0.076*%
G04:AMPARAMS|DCode=46|XSize=95.5mil|YSize=95.5mil|CornerRadius=0mil|HoleSize=0mil|Usage=FLASHONLY|Rotation=0.000|XOffset=0mil|YOffset=0mil|HoleType=Round|Shape=Relief|Width=10mil|Gap=10mil|Entries=4|*
%AMTHD46*
7,0,0,0.096,0.076,0.010,45*
%
%ADD46THD46*%
%ADD47C,0.078*%
%ADD48C,0.074*%
%ADD49C,0.166*%
G04:AMPARAMS|DCode=50|XSize=70mil|YSize=70mil|CornerRadius=0mil|HoleSize=0mil|Usage=FLASHONLY|Rotation=0.000|XOffset=0mil|YOffset=0mil|HoleType=Round|Shape=Relief|Width=10mil|Gap=10mil|Entries=4|*
%AMTHD50*
7,0,0,0.070,0.050,0.010,45*
%
%ADD50THD50*%
%ADD51C,0.068*%
%ADD52C,0.056*%
%AMTHOVALD53*
21,1,0.079,0.099,0,0,180.0*
1,1,0.099,0.039,0.000*
1,1,0.099,-0.039,0.000*
21,0,0.079,0.079,0,0,180.0*
1,0,0.079,0.039,0.000*
1,0,0.079,-0.039,0.000*
4,0,4,0.036,0.004,0.071,0.039,0.078,0.032,0.043,-0.004,0.036,0.004,0.0*
4,0,4,-0.043,0.004,-0.078,-0.032,-0.071,-0.039,-0.036,-0.004,-0.043,0.004,0.0*
4,0,4,0.043,0.004,0.078,-0.032,0.071,-0.039,0.036,-0.004,0.043,0.004,0.0*
4,0,4,-0.036,0.004,-0.071,0.039,-0.078,0.032,-0.043,-0.004,-0.036,0.004,0.0*
%
%ADD53THOVALD53*%

%AMTHOVALD54*
21,1,0.079,0.099,0,0,270.0*
1,1,0.099,0.000,0.039*
1,1,0.099,0.000,-0.039*
21,0,0.079,0.079,0,0,270.0*
1,0,0.079,0.000,0.039*
1,0,0.079,0.000,-0.039*
4,0,4,-0.004,0.036,-0.039,0.071,-0.032,0.078,0.004,0.043,-0.004,0.036,0.0*
4,0,4,-0.004,-0.043,0.032,-0.078,0.039,-0.071,0.004,-0.036,-0.004,-0.043,0.0*
4,0,4,-0.004,0.043,0.032,0.078,0.039,0.071,0.004,0.036,-0.004,0.043,0.0*
4,0,4,-0.004,-0.036,-0.039,-0.071,-0.032,-0.078,0.004,-0.043,-0.004,-0.036,0.0*
%
%ADD54THOVALD54*%

G04:AMPARAMS|DCode=55|XSize=98mil|YSize=98mil|CornerRadius=0mil|HoleSize=0mil|Usage=FLASHONLY|Rotation=0.000|XOffset=0mil|YOffset=0mil|HoleType=Round|Shape=Relief|Width=10mil|Gap=10mil|Entries=4|*
%AMTHD55*
7,0,0,0.098,0.078,0.010,45*
%
%ADD55THD55*%
G04:AMPARAMS|DCode=56|XSize=94mil|YSize=94mil|CornerRadius=0mil|HoleSize=0mil|Usage=FLASHONLY|Rotation=0.000|XOffset=0mil|YOffset=0mil|HoleType=Round|Shape=Relief|Width=10mil|Gap=10mil|Entries=4|*
%AMTHD56*
7,0,0,0.094,0.074,0.010,45*
%
%ADD56THD56*%
G04:AMPARAMS|DCode=57|XSize=88mil|YSize=88mil|CornerRadius=0mil|HoleSize=0mil|Usage=FLASHONLY|Rotation=0.000|XOffset=0mil|YOffset=0mil|HoleType=Round|Shape=Relief|Width=10mil|Gap=10mil|Entries=4|*
%AMTHD57*
7,0,0,0.088,0.068,0.010,45*
%
%ADD57THD57*%
G04:AMPARAMS|DCode=58|XSize=76mil|YSize=76mil|CornerRadius=0mil|HoleSize=0mil|Usage=FLASHONLY|Rotation=0.000|XOffset=0mil|YOffset=0mil|HoleType=Round|Shape=Relief|Width=10mil|Gap=10mil|Entries=4|*
%AMTHD58*
7,0,0,0.076,0.056,0.010,45*
%
%ADD58THD58*%
%ADD59R,0.075X0.031*%
%ADD60R,0.075X0.122*%
%ADD61R,0.063X0.026*%
%ADD62R,0.087X0.118*%
%ADD63R,0.020X0.012*%
%ADD64C,0.012*%
%ADD65R,0.035X0.047*%
%ADD66R,0.067X0.066*%
%ADD67R,0.087X0.079*%
%ADD68C,0.050*%
%ADD69C,0.013*%
%ADD70C,0.015*%
%ADD71C,0.024*%
%ADD72C,0.010*%
%ADD73C,0.008*%
%ADD74C,0.006*%
%ADD75C,0.012*%
%ADD76C,0.004*%
%ADD77O,0.075X0.016*%
%ADD78O,0.016X0.075*%
%ADD79O,0.077X0.018*%
%ADD80R,0.085X0.032*%
%ADD81R,0.026X0.022*%
%ADD82R,0.032X0.039*%
%ADD83R,0.039X0.032*%
%ADD84R,0.024X0.024*%
%ADD85R,0.024X0.024*%
%ADD86R,0.022X0.026*%
%ADD87O,0.073X0.014*%
%ADD88O,0.014X0.073*%
%ADD89O,0.075X0.016*%
%ADD90R,0.083X0.030*%
%ADD91R,0.024X0.020*%
%ADD92R,0.030X0.037*%
%ADD93R,0.037X0.030*%
%ADD94R,0.022X0.022*%
%ADD95R,0.022X0.022*%
%ADD96R,0.020X0.024*%
%ADD97O,0.159X0.081*%
%ADD98O,0.081X0.159*%
%ADD99O,0.081X0.179*%
%ADD100R,0.061X0.061*%
%ADD101C,0.061*%
%ADD102C,0.062*%
%ADD103P,0.069X8X112.5*%
%ADD104O,0.058X0.114*%
%ADD105C,0.128*%
%ADD106C,0.022*%
%ADD107C,0.018*%
%ADD108C,0.018*%
%ADD109C,0.052*%
%ADD110C,0.030*%
%ADD111R,0.077X0.033*%
%ADD112R,0.077X0.124*%
%ADD113R,0.065X0.028*%
%ADD114R,0.091X0.122*%
%ADD115R,0.024X0.016*%
%ADD116C,0.014*%
%ADD117R,0.037X0.049*%
%ADD118R,0.069X0.068*%
%ADD119R,0.089X0.081*%
%ADD120R,0.020X0.012*%
%ADD121R,0.033X0.049*%
%ADD122R,0.079X0.035*%
%ADD123R,0.079X0.126*%
%ADD124R,0.067X0.030*%
%ADD125C,0.016*%
%ADD126R,0.039X0.051*%
%ADD127R,0.071X0.070*%
%ADD128R,0.091X0.083*%
G36*
X02148Y01897D02*
X02108D01*
Y01936D01*
X02148Y01897D01*
D02*
G37*
D20*
X03567Y01181D02*
X03583Y01197D01*
X03449D02*
X03465Y01181D01*
X03567D01*
X03449Y01419D02*
X03583D01*
X03449Y01197D02*
Y01419D01*
X03583Y01197D02*
Y01419D01*
X03189Y01179D02*
X03205Y01195D01*
X03071D02*
X03087Y01179D01*
X03189D01*
X03071Y01417D02*
X03205D01*
X03071Y01195D02*
Y01417D01*
X03205Y01195D02*
Y01417D01*
D21*
X03306Y01366D02*
X03346D01*
X03326Y01371D02*
X03331Y01366D01*
X03326Y01361D02*
Y01371D01*
Y01361D02*
X03331Y01366D01*
X03321Y01356D02*
X03331Y01366D01*
X03321Y01356D02*
Y01376D01*
X03331Y01366D01*
Y01356D02*
Y01376D01*
X02587Y01449D02*
Y01432D01*
X02583Y01429D01*
X02577D01*
X02573Y01432D01*
Y01449D01*
X02567D02*
X02553D01*
Y01446D01*
X02567Y01432D01*
Y01429D01*
X02427Y01367D02*
X0243Y01371D01*
X02437D01*
X0244Y01367D01*
Y01354D01*
X02437Y01351D01*
X0243D01*
X02427Y01354D01*
X0242Y01367D02*
X02417Y01371D01*
X0241D01*
X02407Y01367D01*
Y01364D01*
X0241Y01361D01*
X02413D01*
X0241D01*
X02407Y01357D01*
Y01354D01*
X0241Y01351D01*
X02417D01*
X0242Y01354D01*
X024Y01371D02*
X02387D01*
Y01367D01*
X024Y01354D01*
Y01351D01*
X02712Y01388D02*
X02708Y01392D01*
Y01398D01*
X02712Y01402D01*
X02725D01*
X02728Y01398D01*
Y01392D01*
X02725Y01388D01*
X02712Y01382D02*
X02708Y01378D01*
Y01372D01*
X02712Y01368D01*
X02715D01*
X02718Y01372D01*
Y01375D01*
Y01372D01*
X02722Y01368D01*
X02725D01*
X02728Y01372D01*
Y01378D01*
X02725Y01382D01*
X02708Y01348D02*
X02712Y01355D01*
X02718Y01362D01*
X02725D01*
X02728Y01358D01*
Y01352D01*
X02725Y01348D01*
X02722D01*
X02718Y01352D01*
Y01362D01*
X02428Y013D02*
X02431Y01303D01*
X02438D01*
X02441Y013D01*
Y01287D01*
X02438Y01283D01*
X02431D01*
X02428Y01287D01*
X02421Y013D02*
X02418Y01303D01*
X02411D01*
X02408Y013D01*
Y01297D01*
X02411Y01293D01*
X02414D01*
X02411D01*
X02408Y0129D01*
Y01287D01*
X02411Y01283D01*
X02418D01*
X02421Y01287D01*
X02401Y013D02*
X02398Y01303D01*
X02391D01*
X02388Y013D01*
Y01297D01*
X02391Y01293D01*
X02388Y0129D01*
Y01287D01*
X02391Y01283D01*
X02398D01*
X02401Y01287D01*
Y0129D01*
X02398Y01293D01*
X02401Y01297D01*
Y013D01*
X02398Y01293D02*
X02391D01*
X01Y00928D02*
Y009D01*
X01014D01*
X01019Y00905D01*
Y00909D01*
X01014Y00914D01*
X01D01*
X01014D01*
X01019Y00919D01*
Y00923D01*
X01014Y00928D01*
X01D01*
X01033Y009D02*
X01042D01*
X01047Y00905D01*
Y00914D01*
X01042Y00919D01*
X01033D01*
X01028Y00914D01*
Y00905D01*
X01033Y009D01*
X01061Y00923D02*
Y00919D01*
X01056D01*
X01065D01*
X01061D01*
Y00905D01*
X01065Y009D01*
X01084Y00923D02*
Y00919D01*
X01079D01*
X01089D01*
X01084D01*
Y00905D01*
X01089Y009D01*
X01107D02*
X01117D01*
X01121Y00905D01*
Y00914D01*
X01117Y00919D01*
X01107D01*
X01103Y00914D01*
Y00905D01*
X01107Y009D01*
X01131D02*
Y00919D01*
X01135D01*
X0114Y00914D01*
Y009D01*
Y00914D01*
X01145Y00919D01*
X01149Y00914D01*
Y009D01*
X01201Y00928D02*
X01191D01*
X01187Y00923D01*
Y00905D01*
X01191Y009D01*
X01201D01*
X01205Y00905D01*
Y00923D01*
X01201Y00928D01*
X01215Y00919D02*
X01224Y009D01*
X01233Y00919D01*
X01257Y009D02*
X01247D01*
X01243Y00905D01*
Y00914D01*
X01247Y00919D01*
X01257D01*
X01261Y00914D01*
Y00909D01*
X01243D01*
X01271Y00919D02*
Y009D01*
Y00909D01*
X01275Y00914D01*
X0128Y00919D01*
X01285D01*
X01299Y009D02*
X01308D01*
X01303D01*
Y00928D01*
X01299D01*
X01327Y00919D02*
X01336D01*
X01341Y00914D01*
Y009D01*
X01327D01*
X01322Y00905D01*
X01327Y00909D01*
X01341D01*
X0135Y00919D02*
Y00905D01*
X01355Y009D01*
X01369D01*
Y00895D01*
X01364Y00891D01*
X01359D01*
X01369Y009D02*
Y00919D01*
D72*
X02982Y01746D02*
G03*
X02982Y01746I-00005J0D01*
G01*
X02612Y01435D02*
G03*
X02612Y01435I-00005J0D01*
G01*
X0344Y01286D02*
G03*
X0344Y01286I-00005J0D01*
G01*
X0209Y01902D02*
G03*
X0209Y01902I-00005J0D01*
G01*
X02533Y02292D02*
G03*
X02533Y02292I-00005J0D01*
G01*
X03401Y0129D02*
G03*
X03401Y0129I-00005J0D01*
G01*
D73*
X02928Y01486D02*
Y0175D01*
X02794Y01486D02*
Y0175D01*
X02928D01*
X02794Y01486D02*
X02928D01*
X0324Y01294D02*
X03258D01*
X0324Y0112D02*
X03258D01*
X03396Y01294D02*
X03414D01*
X0324Y01276D02*
Y01294D01*
X03414Y01276D02*
Y01294D01*
X03396Y0112D02*
X03414D01*
Y01138D01*
X0324Y0112D02*
Y01138D01*
X02108Y01936D02*
X02148Y01897D01*
X02108D02*
Y02211D01*
X02345Y01897D02*
Y02211D01*
X02108Y01897D02*
X02345D01*
X02108Y02211D02*
X02345D01*
X02506Y02207D02*
Y02227D01*
X0238Y02207D02*
Y02227D01*
X03242Y01418D02*
X0341D01*
X03242Y01314D02*
X0341D01*
X03242Y01317D02*
X03242Y01314D01*
X0341D02*
X0341Y01317D01*
X0341Y01418D02*
X0341Y01415D01*
X03242D02*
X03242Y01418D01*
X02759Y01442D02*
X02763D01*
X02759Y0147D02*
X02763D01*
X02406Y01388D02*
X0241D01*
X02406Y01416D02*
X0241D01*
X02205Y02488D02*
X02209D01*
X02205Y0246D02*
X02209D01*
X02508Y02019D02*
X02512D01*
X02508Y01991D02*
X02512D01*
X01798Y0187D02*
Y01874D01*
X01826Y0187D02*
Y01874D01*
X01798Y01988D02*
Y01992D01*
X01826Y01988D02*
Y01992D01*
X01884Y02096D02*
Y021D01*
X01856Y02096D02*
Y021D01*
X01693Y01995D02*
Y01999D01*
X01721Y01995D02*
Y01999D01*
X02893Y01442D02*
X02897D01*
X02893Y0147D02*
X02897D01*
D76*
X02925Y0178D02*
Y01763D01*
X02922Y0176D01*
X02915D01*
X02912Y01763D01*
Y0178D01*
X02892D02*
X02899Y01777D01*
X02905Y0177D01*
Y01763D01*
X02902Y0176D01*
X02895D01*
X02892Y01763D01*
Y01767D01*
X02895Y0177D01*
X02905D01*
X03114Y0202D02*
X03094D01*
Y0201D01*
X03098Y02006D01*
X03104D01*
X03108Y0201D01*
Y0202D01*
Y02013D02*
X03114Y02006D01*
X03098Y02D02*
X03094Y01996D01*
Y0199D01*
X03098Y01986D01*
X03101D01*
X03104Y0199D01*
X03108Y01986D01*
X03111D01*
X03114Y0199D01*
Y01996D01*
X03111Y02D01*
X03108D01*
X03104Y01996D01*
X03101Y02D01*
X03098D01*
X03104Y01996D02*
Y0199D01*
X03413Y01111D02*
Y01094D01*
X0341Y01091D01*
X03403D01*
X034Y01094D01*
Y01111D01*
X03383Y01091D02*
Y01111D01*
X03393Y01101D01*
X0338D01*
X0213Y01882D02*
Y01866D01*
X02127Y01862D01*
X0212D01*
X02117Y01866D01*
Y01882D01*
X02097D02*
X0211D01*
Y01872D01*
X02103Y01876D01*
X021D01*
X02097Y01872D01*
Y01866D01*
X021Y01862D01*
X02107D01*
X0211Y01866D01*
X02519Y02236D02*
X02539Y02223D01*
X02519D02*
X02539Y02236D01*
Y02203D02*
Y02216D01*
X02526Y02203D01*
X02523D01*
X02519Y02206D01*
Y02213D01*
X02523Y02216D01*
X03409Y01453D02*
Y01433D01*
X03399D01*
X03396Y01436D01*
Y0145D01*
X03399Y01453D01*
X03409D01*
X03389Y01433D02*
X03383D01*
X03386D01*
Y01453D01*
X03389Y0145D01*
X0277Y01497D02*
X02773Y015D01*
X0278D01*
X02783Y01497D01*
Y01484D01*
X0278Y0148D01*
X02773D01*
X0277Y01484D01*
X02763Y01497D02*
X0276Y015D01*
X02753D01*
X0275Y01497D01*
Y01494D01*
X02753Y0149D01*
X02757D01*
X02753D01*
X0275Y01487D01*
Y01484D01*
X02753Y0148D01*
X0276D01*
X02763Y01484D01*
X02733Y0148D02*
Y015D01*
X02743Y0149D01*
X0273D01*
X02062Y01991D02*
X02059Y01994D01*
Y02001D01*
X02062Y02004D01*
X02075D01*
X02079Y02001D01*
Y01994D01*
X02075Y01991D01*
X02062Y01984D02*
X02059Y01981D01*
Y01974D01*
X02062Y01971D01*
X02065D01*
X02069Y01974D01*
Y01977D01*
Y01974D01*
X02072Y01971D01*
X02075D01*
X02079Y01974D01*
Y01981D01*
X02075Y01984D01*
X02062Y01964D02*
X02059Y01961D01*
Y01954D01*
X02062Y01951D01*
X02075D01*
X02079Y01954D01*
Y01961D01*
X02075Y01964D01*
X02062D01*
X02379Y02101D02*
X02375Y02104D01*
Y02111D01*
X02379Y02114D01*
X02392D01*
X02395Y02111D01*
Y02104D01*
X02392Y02101D01*
X02379Y02094D02*
X02375Y02091D01*
Y02084D01*
X02379Y02081D01*
X02382D01*
X02385Y02084D01*
Y02088D01*
Y02084D01*
X02389Y02081D01*
X02392D01*
X02395Y02084D01*
Y02091D01*
X02392Y02094D01*
X02395Y02061D02*
Y02074D01*
X02382Y02061D01*
X02379D01*
X02375Y02064D01*
Y02071D01*
X02379Y02074D01*
X03569Y01446D02*
X03573Y01449D01*
X03579D01*
X03583Y01446D01*
Y01432D01*
X03579Y01429D01*
X03573D01*
X03569Y01432D01*
X03549Y01429D02*
X03563D01*
X03549Y01442D01*
Y01446D01*
X03553Y01449D01*
X03559D01*
X03563Y01446D01*
X03533Y01429D02*
Y01449D01*
X03543Y01439D01*
X03529D01*
X02642Y02075D02*
Y02095D01*
X02632D01*
X02628Y02091D01*
Y02085D01*
X02632Y02081D01*
X02642D01*
X02635D02*
X02628Y02075D01*
X02622D02*
X02615D01*
X02618D01*
Y02095D01*
X02622Y02091D01*
X02605D02*
X02602Y02095D01*
X02595D01*
X02592Y02091D01*
Y02088D01*
X02595Y02085D01*
X02598D01*
X02595D01*
X02592Y02081D01*
Y02078D01*
X02595Y02075D01*
X02602D01*
X02605Y02078D01*
X02498Y02391D02*
X02502Y02394D01*
X02508D01*
X02512Y02391D01*
Y02377D01*
X02508Y02374D01*
X02502D01*
X02498Y02377D01*
X02492Y02374D02*
X02485D01*
X02488D01*
Y02394D01*
X02492Y02391D01*
X02475D02*
X02472Y02394D01*
X02465D01*
X02462Y02391D01*
Y02377D01*
X02465Y02374D01*
X02472D01*
X02475Y02377D01*
Y02391D01*
X02455Y02374D02*
X02448D01*
X02452D01*
Y02394D01*
X02455Y02391D01*
X02384Y02477D02*
X02388Y02481D01*
X02394D01*
X02398Y02477D01*
Y02464D01*
X02394Y02461D01*
X02388D01*
X02384Y02464D01*
X02378Y02477D02*
X02374Y02481D01*
X02368D01*
X02364Y02477D01*
Y02474D01*
X02368Y02471D01*
X02371D01*
X02368D01*
X02364Y02467D01*
Y02464D01*
X02368Y02461D01*
X02374D01*
X02378Y02464D01*
X01951Y02505D02*
X01955Y02508D01*
X01961D01*
X01965Y02505D01*
Y02492D01*
X01961Y02488D01*
X01955D01*
X01951Y02492D01*
X01935Y02488D02*
Y02508D01*
X01945Y02498D01*
X01931D01*
X02144Y02481D02*
X02147Y02485D01*
X02154D01*
X02157Y02481D01*
Y02468D01*
X02154Y02465D01*
X02147D01*
X02144Y02468D01*
X02124Y02485D02*
X02137D01*
Y02475D01*
X02131Y02478D01*
X02127D01*
X02124Y02475D01*
Y02468D01*
X02127Y02465D01*
X02134D01*
X02137Y02468D01*
X0251Y01973D02*
X02514Y01977D01*
X0252D01*
X02524Y01973D01*
Y0196D01*
X0252Y01957D01*
X02514D01*
X0251Y0196D01*
X02504Y01977D02*
X0249D01*
Y01973D01*
X02504Y0196D01*
Y01957D01*
X01861Y01879D02*
X01864Y01882D01*
X01871D01*
X01874Y01879D01*
Y01866D01*
X01871Y01862D01*
X01864D01*
X01861Y01866D01*
X01854D02*
X01851Y01862D01*
X01844D01*
X01841Y01866D01*
Y01879D01*
X01844Y01882D01*
X01851D01*
X01854Y01879D01*
Y01876D01*
X01851Y01872D01*
X01841D01*
X01869Y01997D02*
X01872Y02D01*
X01879D01*
X01882Y01997D01*
Y01984D01*
X01879Y0198D01*
X01872D01*
X01869Y01984D01*
X01862Y0198D02*
X01855D01*
X01859D01*
Y02D01*
X01862Y01997D01*
X01845Y0198D02*
X01839D01*
X01842D01*
Y02D01*
X01845Y01997D01*
X01935Y02103D02*
X01939Y02107D01*
X01945D01*
X01949Y02103D01*
Y0209D01*
X01945Y02087D01*
X01939D01*
X01935Y0209D01*
X01929Y02087D02*
X01922D01*
X01925D01*
Y02107D01*
X01929Y02103D01*
X01902Y02087D02*
Y02107D01*
X01912Y02097D01*
X01899D01*
X01668Y02001D02*
X01671Y02004D01*
X01678D01*
X01681Y02001D01*
Y01988D01*
X01678Y01984D01*
X01671D01*
X01668Y01988D01*
X01661Y01984D02*
X01654D01*
X01658D01*
Y02004D01*
X01661Y02001D01*
X01631Y02004D02*
X01644D01*
Y01994D01*
X01638Y01998D01*
X01634D01*
X01631Y01994D01*
Y01988D01*
X01634Y01984D01*
X01641D01*
X01644Y01988D01*
X02691Y02202D02*
X02695Y02205D01*
X02701D01*
X02705Y02202D01*
Y02188D01*
X02701Y02185D01*
X02695D01*
X02691Y02188D01*
X02685Y02185D02*
X02678D01*
X02681D01*
Y02205D01*
X02685Y02202D01*
X02668Y02205D02*
X02655D01*
Y02202D01*
X02668Y02188D01*
Y02185D01*
X02286Y02595D02*
X02289Y02599D01*
X02296D01*
X02299Y02595D01*
Y02582D01*
X02296Y02579D01*
X02289D01*
X02286Y02582D01*
X02266Y02579D02*
X02279D01*
X02266Y02592D01*
Y02595D01*
X02269Y02599D01*
X02276D01*
X02279Y02595D01*
X02246Y02599D02*
X02253Y02595D01*
X02259Y02589D01*
Y02582D01*
X02256Y02579D01*
X02249D01*
X02246Y02582D01*
Y02585D01*
X02249Y02589D01*
X02259D01*
X01829Y02154D02*
X01833Y02158D01*
X01839D01*
X01843Y02154D01*
Y02141D01*
X01839Y02138D01*
X01833D01*
X01829Y02141D01*
X01809Y02138D02*
X01823D01*
X01809Y02151D01*
Y02154D01*
X01813Y02158D01*
X01819D01*
X01823Y02154D01*
X01803Y02158D02*
X01789D01*
Y02154D01*
X01803Y02141D01*
Y02138D01*
X02571Y02358D02*
Y02378D01*
X02561D01*
X02558Y02375D01*
Y02368D01*
X02561Y02365D01*
X02571D01*
X02564D02*
X02558Y02358D01*
X02538D02*
X02551D01*
X02538Y02372D01*
Y02375D01*
X02541Y02378D01*
X02548D01*
X02551Y02375D01*
X02622Y02138D02*
Y02158D01*
X02612D01*
X02609Y02154D01*
Y02148D01*
X02612Y02144D01*
X02622D01*
X02615D02*
X02609Y02138D01*
X02592D02*
Y02158D01*
X02602Y02148D01*
X02589D01*
X02588Y01703D02*
Y01723D01*
X02578D01*
X02575Y0172D01*
Y01713D01*
X02578Y0171D01*
X02588D01*
X02581D02*
X02575Y01703D01*
X02555Y01723D02*
X02561Y0172D01*
X02568Y01713D01*
Y01706D01*
X02565Y01703D01*
X02558D01*
X02555Y01706D01*
Y0171D01*
X02558Y01713D01*
X02568D01*
X03156Y01166D02*
X03159Y0117D01*
X03166D01*
X03169Y01166D01*
Y01153D01*
X03166Y0115D01*
X03159D01*
X03156Y01153D01*
X03136Y0115D02*
X03149D01*
X03136Y01163D01*
Y01166D01*
X03139Y0117D01*
X03146D01*
X03149Y01166D01*
X03129D02*
X03126Y0117D01*
X03119D01*
X03116Y01166D01*
Y01163D01*
X03119Y0116D01*
X03123D01*
X03119D01*
X03116Y01156D01*
Y01153D01*
X03119Y0115D01*
X03126D01*
X03129Y01153D01*
X03173Y0202D02*
X03153D01*
Y0201D01*
X03157Y02006D01*
X03163D01*
X03167Y0201D01*
Y0202D01*
Y02013D02*
X03173Y02006D01*
X03153Y02D02*
Y01986D01*
X03157D01*
X0317Y02D01*
X03173D01*
X02417Y02102D02*
X02414Y02105D01*
Y02112D01*
X02417Y02115D01*
X0243D01*
X02434Y02112D01*
Y02105D01*
X0243Y02102D01*
X02434Y02082D02*
Y02095D01*
X0242Y02082D01*
X02417D01*
X02414Y02085D01*
Y02092D01*
X02417Y02095D01*
X02414Y02062D02*
Y02075D01*
X02424D01*
X0242Y02069D01*
Y02065D01*
X02424Y02062D01*
X0243D01*
X02434Y02065D01*
Y02072D01*
X0243Y02075D01*
X02027Y01991D02*
X02023Y01994D01*
Y02001D01*
X02027Y02004D01*
X0204D01*
X02043Y02001D01*
Y01994D01*
X0204Y01991D01*
X02027Y01984D02*
X02023Y01981D01*
Y01974D01*
X02027Y01971D01*
X0203D01*
X02033Y01974D01*
Y01977D01*
Y01974D01*
X02037Y01971D01*
X0204D01*
X02043Y01974D01*
Y01981D01*
X0204Y01984D01*
X02043Y01964D02*
Y01957D01*
Y01961D01*
X02023D01*
X02027Y01964D01*
X02983Y01493D02*
X02986Y01496D01*
X02993D01*
X02996Y01493D01*
Y0148D01*
X02993Y01476D01*
X02986D01*
X02983Y0148D01*
X02976Y01493D02*
X02973Y01496D01*
X02966D01*
X02963Y01493D01*
Y0149D01*
X02966Y01486D01*
X02969D01*
X02966D01*
X02963Y01483D01*
Y0148D01*
X02966Y01476D01*
X02973D01*
X02976Y0148D01*
X02956Y01493D02*
X02953Y01496D01*
X02946D01*
X02943Y01493D01*
Y0149D01*
X02946Y01486D01*
X02949D01*
X02946D01*
X02943Y01483D01*
Y0148D01*
X02946Y01476D01*
X02953D01*
X02956Y0148D01*
M02*
