%FSTAX23Y23*%
%MOIN*%
G70*
G01*
G75*
G04 Layer_Physical_Order=1*
G04 Layer_Color=255*
%ADD10O,0.071X0.012*%
%ADD11O,0.012X0.071*%
%ADD12O,0.073X0.014*%
%ADD13R,0.081X0.028*%
%ADD14R,0.022X0.018*%
%ADD15R,0.028X0.035*%
%ADD16R,0.035X0.028*%
%ADD17R,0.020X0.020*%
%ADD18R,0.020X0.020*%
%ADD19R,0.018X0.022*%
%ADD20C,0.010*%
%ADD21C,0.005*%
%ADD22C,0.020*%
%ADD23C,0.030*%
%ADD24O,0.157X0.079*%
%ADD25O,0.079X0.157*%
%ADD26O,0.079X0.177*%
%ADD27R,0.059X0.059*%
%ADD28C,0.059*%
%ADD29C,0.060*%
%ADD30P,0.067X8X112.5*%
%ADD31O,0.056X0.112*%
%ADD32C,0.126*%
%ADD33C,0.020*%
%ADD34C,0.016*%
%ADD35C,0.016*%
%ADD36C,0.050*%
%ADD37C,0.028*%
D10*
X01811Y0171D02*
D03*
Y0173D02*
D03*
Y01749D02*
D03*
Y01769D02*
D03*
Y01789D02*
D03*
Y01809D02*
D03*
Y01828D02*
D03*
Y01848D02*
D03*
Y01868D02*
D03*
Y01887D02*
D03*
Y01907D02*
D03*
Y01927D02*
D03*
Y01946D02*
D03*
Y01966D02*
D03*
Y01986D02*
D03*
Y02005D02*
D03*
Y02025D02*
D03*
Y02045D02*
D03*
Y02064D02*
D03*
Y02084D02*
D03*
Y02104D02*
D03*
Y02123D02*
D03*
Y02143D02*
D03*
Y02163D02*
D03*
Y02183D02*
D03*
Y02202D02*
D03*
Y02222D02*
D03*
Y02242D02*
D03*
Y02261D02*
D03*
Y02281D02*
D03*
Y02301D02*
D03*
Y0232D02*
D03*
Y0234D02*
D03*
Y0236D02*
D03*
Y02379D02*
D03*
Y02399D02*
D03*
X02642D02*
D03*
Y02379D02*
D03*
Y0236D02*
D03*
Y0234D02*
D03*
Y0232D02*
D03*
Y02301D02*
D03*
Y02281D02*
D03*
Y02261D02*
D03*
Y02242D02*
D03*
Y02222D02*
D03*
Y02202D02*
D03*
Y02183D02*
D03*
Y02163D02*
D03*
Y02143D02*
D03*
Y02123D02*
D03*
Y02104D02*
D03*
Y02084D02*
D03*
Y02064D02*
D03*
Y02045D02*
D03*
Y02025D02*
D03*
Y02005D02*
D03*
Y01986D02*
D03*
Y01966D02*
D03*
Y01946D02*
D03*
Y01927D02*
D03*
Y01907D02*
D03*
Y01887D02*
D03*
Y01868D02*
D03*
Y01848D02*
D03*
Y01828D02*
D03*
Y01809D02*
D03*
Y01789D02*
D03*
Y01769D02*
D03*
Y01749D02*
D03*
Y0173D02*
D03*
Y0171D02*
D03*
D11*
X01882Y0247D02*
D03*
X01902D02*
D03*
X01921D02*
D03*
X01941D02*
D03*
X01961D02*
D03*
X01981D02*
D03*
X02D02*
D03*
X0202D02*
D03*
X0204D02*
D03*
X02059D02*
D03*
X02079D02*
D03*
X02099D02*
D03*
X02118D02*
D03*
X02138D02*
D03*
X02158D02*
D03*
X02177D02*
D03*
X02197D02*
D03*
X02217D02*
D03*
X02236D02*
D03*
X02256D02*
D03*
X02276D02*
D03*
X02295D02*
D03*
X02315D02*
D03*
X02335D02*
D03*
X02355D02*
D03*
X02374D02*
D03*
X02394D02*
D03*
X02414D02*
D03*
X02433D02*
D03*
X02453D02*
D03*
X02473D02*
D03*
X02492D02*
D03*
X02512D02*
D03*
X02532D02*
D03*
X02551D02*
D03*
X02571D02*
D03*
Y01639D02*
D03*
X02551D02*
D03*
X02532D02*
D03*
X02512D02*
D03*
X02492D02*
D03*
X02473D02*
D03*
X02453D02*
D03*
X02433D02*
D03*
X02414D02*
D03*
X02394D02*
D03*
X02374D02*
D03*
X02355D02*
D03*
X02335D02*
D03*
X02315D02*
D03*
X02295D02*
D03*
X02276D02*
D03*
X02256D02*
D03*
X02236D02*
D03*
X02217D02*
D03*
X02197D02*
D03*
X02177D02*
D03*
X02158D02*
D03*
X02138D02*
D03*
X02118D02*
D03*
X02099D02*
D03*
X02079D02*
D03*
X02059D02*
D03*
X0204D02*
D03*
X0202D02*
D03*
X02D02*
D03*
X01981D02*
D03*
X01961D02*
D03*
X01941D02*
D03*
X01921D02*
D03*
X01902D02*
D03*
X01882D02*
D03*
D12*
X03033Y02428D02*
D03*
Y02402D02*
D03*
Y02378D02*
D03*
Y02352D02*
D03*
Y02328D02*
D03*
Y02303D02*
D03*
Y02277D02*
D03*
Y02253D02*
D03*
X03237Y02428D02*
D03*
Y02402D02*
D03*
Y02378D02*
D03*
Y02352D02*
D03*
Y02328D02*
D03*
Y02303D02*
D03*
Y02277D02*
D03*
Y02253D02*
D03*
D13*
X03028Y02161D02*
D03*
Y02111D02*
D03*
Y02061D02*
D03*
Y02011D02*
D03*
X03238Y02161D02*
D03*
Y02111D02*
D03*
Y02061D02*
D03*
Y02011D02*
D03*
D14*
X01487Y02848D02*
D03*
Y02812D02*
D03*
X01387Y02848D02*
D03*
Y02812D02*
D03*
X01287Y02848D02*
D03*
Y02812D02*
D03*
X01187Y02848D02*
D03*
Y02812D02*
D03*
X01246Y02561D02*
D03*
Y02525D02*
D03*
X01326Y02561D02*
D03*
Y02525D02*
D03*
X01406Y0256D02*
D03*
Y02525D02*
D03*
X01487Y02561D02*
D03*
Y02526D02*
D03*
X01206Y02561D02*
D03*
Y02525D02*
D03*
X01286Y02561D02*
D03*
Y02525D02*
D03*
X01366Y0256D02*
D03*
Y02525D02*
D03*
X01447Y02561D02*
D03*
Y02526D02*
D03*
X03297Y02254D02*
D03*
Y02218D02*
D03*
D15*
X02716Y01849D02*
D03*
X02772D02*
D03*
X02507Y02539D02*
D03*
X02451D02*
D03*
X02772Y02043D02*
D03*
X02716D02*
D03*
D16*
X02414Y01572D02*
D03*
Y01516D02*
D03*
X02187Y01572D02*
D03*
Y01516D02*
D03*
X02522Y01572D02*
D03*
Y01516D02*
D03*
X01985Y01564D02*
D03*
Y01508D02*
D03*
X02236Y01516D02*
D03*
Y01572D02*
D03*
D17*
X02746Y02002D02*
D03*
X02714D02*
D03*
X02745Y01808D02*
D03*
X02713D02*
D03*
X03027Y01948D02*
D03*
X03059D02*
D03*
X03033Y02222D02*
D03*
X03001D02*
D03*
D18*
X02468Y01543D02*
D03*
Y01575D02*
D03*
X01939Y01533D02*
D03*
Y01565D02*
D03*
X02579Y01543D02*
D03*
Y01575D02*
D03*
D19*
X02719Y02387D02*
D03*
X02755D02*
D03*
X02754Y02336D02*
D03*
X02718D02*
D03*
X02712Y0175D02*
D03*
X02748D02*
D03*
X02712Y01703D02*
D03*
X02748D02*
D03*
X02718Y02426D02*
D03*
X02753D02*
D03*
D20*
X0198Y02469D02*
X01981Y0247D01*
X0198Y02422D02*
Y02469D01*
X02236Y0247D02*
Y02518D01*
Y0247D02*
X02236Y0247D01*
X02217Y02398D02*
Y0247D01*
X02216Y02397D02*
X02217Y02398D01*
X03237Y02428D02*
X03283D01*
X03282Y02428D02*
X03283D01*
X03283Y02428D01*
X03Y01948D02*
X03027D01*
X02815Y02256D02*
Y02709D01*
X02801Y02242D02*
X02815Y02256D01*
X02642Y02242D02*
X02801D01*
X0283Y02221D02*
Y02715D01*
X02811Y02202D02*
X0283Y02221D01*
X02642Y02202D02*
X02811D01*
X02845Y02214D02*
Y02722D01*
X02814Y02183D02*
X02845Y02214D01*
X02642Y02183D02*
X02814D01*
X02796Y02143D02*
X0286Y02207D01*
X02642Y02143D02*
X02796D01*
X0286Y02207D02*
Y02728D01*
X0289Y02193D02*
Y0274D01*
X027Y02113D02*
X0281D01*
X0289Y02193D01*
X02875Y02199D02*
Y02734D01*
X02804Y02128D02*
X02875Y02199D01*
X02694Y02128D02*
X02804D01*
X02818Y02098D02*
X02905Y02185D01*
X02708Y02098D02*
X02818D01*
X02905Y02185D02*
Y0274D01*
X0308Y02277D02*
X03081Y02277D01*
X03033Y02277D02*
X0308D01*
X02444Y01544D02*
X02444Y01543D01*
X02473D01*
X02574D02*
X02603D01*
X02603Y01543D01*
X02748Y01703D02*
X02769D01*
X02748Y0175D02*
X02769D01*
X02642Y01749D02*
X02642Y0175D01*
X02712D01*
X0259Y0234D02*
X0259Y0234D01*
X02642D01*
X028Y02316D02*
Y02703D01*
X02784Y02301D02*
X028Y02316D01*
X02642Y02301D02*
X02784D01*
X02689Y02123D02*
X02694Y02128D01*
X02642Y02123D02*
X02689D01*
X03238Y02161D02*
X03293D01*
X02694Y02388D02*
Y02418D01*
X02702Y02426D02*
X02718D01*
X02694Y02418D02*
X02702Y02426D01*
X02719Y0236D02*
X0272Y02361D01*
X02642Y0236D02*
X02719D01*
X02754Y02336D02*
X02776D01*
X02755Y02387D02*
X02777D01*
X02718Y02336D02*
X0272Y02338D01*
Y02361D01*
X02719Y02387D02*
X0272Y02386D01*
Y02361D02*
Y02386D01*
X02686Y0238D02*
X02694Y02388D01*
X02643Y0238D02*
X02686D01*
X02753Y02426D02*
X02776D01*
X02955Y02402D02*
X03033D01*
X0292Y02368D02*
X02954Y02402D01*
X02958Y02352D02*
X03033D01*
X02939Y02333D02*
X02958Y02352D01*
X02939Y02243D02*
Y02333D01*
X03024Y02065D02*
X03028Y02061D01*
X02977Y02065D02*
X03024D01*
X03238Y02111D02*
X03239Y0211D01*
X03293D01*
X02992Y02061D02*
X03028D01*
X03059Y01948D02*
X03086D01*
X03027D02*
X03028Y01948D01*
Y02011D01*
X03033Y02352D02*
X03082D01*
X03238Y02011D02*
X03293D01*
X02984Y02328D02*
X03033D01*
Y02428D02*
X03082D01*
X02977Y02111D02*
X03028D01*
X03188Y02402D02*
X03237D01*
X02978Y02161D02*
X03028D01*
X02976Y02159D02*
X02978Y02161D01*
X03237Y02328D02*
X03299D01*
X03238Y02061D02*
X03303D01*
X03188Y02352D02*
X03237D01*
X03033Y02378D02*
X03082D01*
X03188Y02277D02*
X03237D01*
X03188D02*
X03189Y02277D01*
X03237Y02253D02*
X03238Y02253D01*
X03135Y0235D02*
Y02673D01*
X03112Y02328D02*
X03135Y0235D01*
X03033Y02328D02*
X03112D01*
X02642Y02084D02*
X02642Y02084D01*
X02578Y02084D02*
X02642D01*
X02571Y02421D02*
Y0247D01*
X01127Y02896D02*
X01364D01*
X01812Y02321D02*
X0186D01*
X02118Y0159D02*
Y01639D01*
X02413Y0247D02*
X02413Y0247D01*
X02642Y0232D02*
X02686D01*
X02642Y01946D02*
X02691D01*
X01762Y02084D02*
X01811D01*
X01762Y02005D02*
X01811D01*
X02118Y0247D02*
Y02519D01*
X02118Y01639D02*
X02118Y01639D01*
X02355Y01596D02*
Y01639D01*
X01096Y02865D02*
X01127Y02896D01*
X01114Y02852D02*
X01137Y02875D01*
X0159Y02888D02*
X01625Y02853D01*
X0159Y02888D02*
Y03D01*
X0169Y02896D02*
X01718Y02868D01*
X0169Y02896D02*
Y03D01*
X0179Y02912D02*
Y03D01*
X02551Y0247D02*
Y02712D01*
X02413Y0285D02*
X02551Y02712D01*
X02129Y0285D02*
X02413D01*
X0209Y02889D02*
X02129Y0285D01*
X0209Y02889D02*
Y03D01*
X02638Y02865D02*
X028Y02703D01*
X02286Y02865D02*
X02638D01*
X0225Y02901D02*
X02286Y02865D01*
X0225Y02901D02*
Y03D01*
X02644Y0288D02*
X02815Y02709D01*
X02385Y0288D02*
X02644D01*
X0235Y02915D02*
X02385Y0288D01*
X0235Y02915D02*
Y03D01*
X02648Y02897D02*
X0283Y02715D01*
X02472Y02897D02*
X02648D01*
X0245Y02919D02*
X02472Y02897D01*
X0245Y02919D02*
Y03D01*
X02655Y02912D02*
X02845Y02722D01*
X0257Y02912D02*
X02655D01*
X0255Y02932D02*
X0257Y02912D01*
X0255Y02932D02*
Y03D01*
X0265D02*
X02661Y02989D01*
X0275Y02859D02*
X02875Y02734D01*
X0275Y02859D02*
Y03D01*
X0285Y0278D02*
X0289Y0274D01*
X0285Y0278D02*
Y03D01*
X02905Y0274D02*
X0295Y02785D01*
Y03D01*
X02661Y02927D02*
Y02989D01*
Y02927D02*
X0286Y02728D01*
X0199Y02905D02*
Y03D01*
X02642Y01927D02*
X02889D01*
X02935Y01973D01*
Y02173D01*
X01762Y02143D02*
X01811D01*
X02237Y0164D02*
Y01689D01*
X02217Y01588D02*
Y01639D01*
X02256Y01588D02*
Y01639D01*
X01921Y01639D02*
Y01688D01*
X01919Y01533D02*
X0192Y01533D01*
X01919Y01533D02*
X01939D01*
X0192Y01533D02*
X0192D01*
X02217Y01588D02*
X0223Y01575D01*
X02243D02*
X02256Y01588D01*
X02384Y01572D02*
X02384Y01572D01*
X02414D01*
Y01639D01*
X02414Y01639D02*
X02414Y01639D01*
Y01487D02*
Y01516D01*
X02414Y01486D02*
X02414Y01487D01*
X0292Y01981D02*
Y02368D01*
X01763Y01887D02*
X01811D01*
X01762Y01888D02*
X01763Y01887D01*
X018Y01868D02*
X01811D01*
X01865D01*
X01865Y02474D02*
X01878D01*
X01882Y0247D01*
X02256Y0247D02*
Y02534D01*
X02256Y0247D02*
X02256D01*
X02315Y02406D02*
Y0247D01*
X02216Y0247D02*
X02216Y0247D01*
X03033Y02303D02*
X03082D01*
X02905Y01966D02*
X0292Y01981D01*
X02642Y01966D02*
X02905D01*
X02578Y02005D02*
X02642D01*
X02578Y02005D02*
X02578Y02005D01*
X02642Y02242D02*
X02642Y02242D01*
X02157Y01517D02*
X02157Y01516D01*
X02157Y01572D02*
X02157Y01572D01*
X02187D01*
X0223Y01575D02*
X02243D01*
X0194Y01564D02*
X01985D01*
X02015D01*
X01985Y01489D02*
Y01508D01*
Y01489D02*
X01985Y01489D01*
Y01489D01*
X01985Y01489D02*
X01985Y01489D01*
X01985Y01485D02*
Y01489D01*
X01811Y01986D02*
X01812Y01986D01*
X01862D01*
X02473Y01581D02*
Y01639D01*
X02571Y01585D02*
Y01639D01*
X02522Y01489D02*
Y01516D01*
X02561Y01575D02*
X02571Y01585D01*
X02713Y01809D02*
X02713Y01808D01*
X02642Y02025D02*
X02681D01*
X02696Y0201D01*
X02706D01*
X02714Y02002D02*
Y02002D01*
X02706Y0201D02*
X02714Y02002D01*
X02642Y01809D02*
X02713D01*
X02492Y02421D02*
Y0247D01*
X0199Y02905D02*
X0206Y02835D01*
X02407D01*
X02532Y0247D02*
Y0271D01*
X02407Y02835D02*
X02532Y0271D01*
X02512Y0247D02*
Y02534D01*
X02507Y02539D02*
X02512Y02534D01*
X02451Y02539D02*
Y02572D01*
X02593Y02045D02*
X02642D01*
X02772Y02043D02*
Y02072D01*
X02746Y02002D02*
X02764D01*
X02577Y02126D02*
Y02127D01*
X03303Y02061D02*
X03326Y02084D01*
Y023D01*
X03299Y02328D02*
X03326Y023D01*
X03297Y02254D02*
X03298D01*
X033Y02255D01*
Y02273D01*
X03238Y02253D02*
X03299D01*
X03297Y022D02*
Y02218D01*
X03033Y02222D02*
Y02252D01*
X03033Y02253D02*
X03033Y02252D01*
X02983Y02222D02*
X03001D01*
X02935Y02173D02*
X02959Y02197D01*
Y02302D01*
X02984Y02328D01*
X02642Y02064D02*
X02674D01*
X02642Y02104D02*
X0269D01*
X027Y02113D01*
X02674Y02064D02*
X02708Y02098D01*
X01364Y02896D02*
X01387Y02873D01*
X01187Y02738D02*
Y02812D01*
X01287Y02738D02*
Y02812D01*
X01387Y02738D02*
Y02812D01*
X01487Y02738D02*
Y02812D01*
X01137Y02848D02*
X01187D01*
X01137Y02875D02*
X01274D01*
X01287Y02848D02*
Y02862D01*
X01274Y02875D02*
X01287Y02862D01*
X01487Y02848D02*
Y02887D01*
X01387Y02848D02*
Y02873D01*
X01187Y02638D02*
X01206Y02619D01*
Y02561D02*
Y02619D01*
X01487Y02634D02*
X01496Y02643D01*
X01487Y02561D02*
Y02634D01*
Y02638D01*
X01389Y02636D02*
X01396Y02643D01*
X01369Y02563D02*
Y0262D01*
X01387Y02638D01*
X01366Y0256D02*
X01369Y02563D01*
X01447Y02561D02*
X01487D01*
X01366Y0256D02*
X01406D01*
X01286Y02561D02*
X01326D01*
X01286Y02633D02*
X01296Y02643D01*
X01206Y02561D02*
X01246D01*
X01286D02*
Y02633D01*
X01131Y02842D02*
X01137Y02848D01*
X01445Y02524D02*
X01447Y02526D01*
X01487Y02505D02*
Y02526D01*
X01406Y02504D02*
Y02525D01*
X01326Y02504D02*
Y02525D01*
X01246Y02504D02*
Y02525D01*
X01286Y02493D02*
Y02525D01*
X01855Y02379D02*
X01867Y02391D01*
X01811Y02379D02*
X01855D01*
X01279Y02526D02*
X01284Y02521D01*
X01876Y02425D02*
X01908D01*
X01909Y02425D01*
X0191D01*
X01921Y02436D01*
Y0247D01*
X01867Y02391D02*
Y02411D01*
X01886Y02528D02*
X01902Y02512D01*
Y0247D02*
Y02512D01*
X01748Y02528D02*
X01886D01*
X01206Y02493D02*
Y02525D01*
X01114Y02539D02*
Y02852D01*
X01131Y02543D02*
Y02842D01*
X017Y0248D02*
X01748Y02528D01*
X01206Y02493D02*
X01265Y02434D01*
X01131Y02543D02*
X01255Y02419D01*
X01114Y02539D02*
X01249Y02404D01*
X01096Y02536D02*
X01243Y02389D01*
X01096Y02536D02*
Y02865D01*
X01757Y02399D02*
X01811D01*
X01081Y0253D02*
X01236Y02374D01*
X01081Y0253D02*
Y02871D01*
X01121Y02911D01*
X01463D01*
X01487Y02887D01*
X01836Y02464D02*
X01876Y02425D01*
X01829Y02449D02*
X01867Y02411D01*
X01722Y02434D02*
X01757Y02399D01*
X01366Y02488D02*
Y02525D01*
X01447Y0249D02*
Y02526D01*
Y0249D02*
X01457Y0248D01*
X017D01*
X01366Y02488D02*
X0139Y02464D01*
X01836D01*
X01286Y02493D02*
X0133Y02449D01*
X01829D01*
X01265Y02434D02*
X01722D01*
X01222Y02344D02*
X01237Y02359D01*
X01222Y02276D02*
Y02344D01*
X01322Y02276D02*
Y02327D01*
X01339Y02344D01*
X01422Y02317D02*
X01434Y02329D01*
X01422Y02276D02*
Y02317D01*
X01747Y02025D02*
X01811D01*
X01522Y02276D02*
X01686D01*
X0176Y02202D01*
X01811D01*
X01761Y02222D02*
X01811D01*
X01763Y02242D02*
X01811D01*
X01764Y02261D02*
X01811D01*
X01766Y02281D02*
X01811D01*
X01767Y02301D02*
X01811D01*
X01749Y0234D02*
X01811D01*
X01751Y0236D02*
X01811D01*
X01691Y02419D02*
X01751Y0236D01*
X01685Y02404D02*
X01749Y0234D01*
X01679Y02389D02*
X01767Y02301D01*
X01673Y02374D02*
X01766Y02281D01*
X01667Y02359D02*
X01764Y02261D01*
X0166Y02344D02*
X01763Y02242D01*
X01654Y02329D02*
X01761Y02222D01*
X01434Y02329D02*
X01654D01*
X01339Y02344D02*
X0166D01*
X01237Y02359D02*
X01667D01*
X01236Y02374D02*
X01673D01*
X01243Y02389D02*
X01679D01*
X01249Y02404D02*
X01685D01*
X01255Y02419D02*
X01691D01*
X01941Y01567D02*
Y01639D01*
X01939Y01565D02*
X01941Y01567D01*
X02507Y02539D02*
Y02572D01*
X0202Y0247D02*
Y0275D01*
X0189Y0288D02*
Y03D01*
Y0288D02*
X0202Y0275D01*
X01625Y02853D02*
X01846D01*
X01941Y02758D01*
Y0247D02*
Y02758D01*
X0179Y02912D02*
X01819Y02883D01*
X01858D01*
X01718Y02868D02*
X01852D01*
X01961Y0247D02*
Y02759D01*
X01852Y02868D02*
X01961Y02759D01*
X02Y0247D02*
Y02741D01*
X01858Y02883D02*
X02Y02741D01*
D21*
X02642Y02223D02*
X02642D01*
X02567Y02222D02*
X02567Y02222D01*
X02642D01*
X02529Y0173D02*
X02642D01*
X02494Y01765D02*
X02529Y0173D01*
X02523Y02301D02*
X02588D01*
X02494Y02272D02*
X02523Y02301D01*
X02709Y01707D02*
X02709Y01707D01*
X02642Y0171D02*
X02712D01*
X0349Y0209D02*
Y02333D01*
X03445Y02378D02*
X0349Y02333D01*
X03237Y02378D02*
X03445D01*
X0351Y0209D02*
Y02392D01*
X03437Y02465D02*
X0351Y02392D01*
X0327Y02465D02*
X03437D01*
X0355Y01934D02*
Y0195D01*
X03509Y01893D02*
X0355Y01934D01*
X03166Y01893D02*
X03509D01*
X03135Y01924D02*
X03166Y01893D01*
X03135Y01924D02*
Y02189D01*
X03435Y02035D02*
X0345Y0205D01*
X03167Y02378D02*
X03237D01*
X02642Y02281D02*
X02721D01*
X02642Y02261D02*
X02692D01*
X0345Y0205D02*
X0349Y0209D01*
X0351D02*
X0355Y0205D01*
X02642Y01907D02*
X02887D01*
X03175Y02303D02*
X03237D01*
X0316Y02287D02*
X03175Y02303D01*
X0316Y02214D02*
Y02287D01*
X03135Y02189D02*
X0316Y02214D01*
X02983Y02189D02*
X03135D01*
X02957Y02163D02*
X02983Y02189D01*
X0315Y02361D02*
X03167Y02378D01*
X0315Y02218D02*
Y02361D01*
X03131Y02199D02*
X0315Y02218D01*
X02979Y02199D02*
X03131D01*
X02947Y02168D02*
X02979Y02199D01*
X02578Y01927D02*
X02642D01*
X02578Y02163D02*
X02642D01*
X02578Y01769D02*
X02642D01*
X02593Y01828D02*
X02642D01*
X02578Y01848D02*
X02642D01*
X02593Y01907D02*
X02642D01*
X02593Y01867D02*
X02642D01*
X02227Y01995D02*
X02316Y01906D01*
X02197Y0164D02*
Y01936D01*
X02227Y01966D01*
Y02113D02*
X02295Y02182D01*
Y0247D01*
X02197Y02172D02*
X02227Y02142D01*
X02197Y02172D02*
Y02421D01*
X01981Y01704D02*
X02105Y01828D01*
Y01932D01*
X02197Y02024D01*
X01981Y01639D02*
Y01704D01*
X02512Y01639D02*
Y01707D01*
X02347Y01872D02*
X02512Y01707D01*
X02347Y01872D02*
Y01934D01*
X02256Y02025D02*
X02347Y01934D01*
X02472Y02406D02*
Y0247D01*
X02332Y02266D02*
X02472Y02406D01*
X02332Y0216D02*
Y02266D01*
X02256Y02084D02*
X02332Y0216D01*
X0204Y02421D02*
Y0247D01*
X0206Y02406D02*
Y0247D01*
X02099Y02406D02*
Y0247D01*
X02138Y02406D02*
Y0247D01*
X02158Y02421D02*
Y0247D01*
X02178Y02406D02*
Y0247D01*
X02334Y02421D02*
Y0247D01*
X02394Y02406D02*
Y0247D01*
X02414Y02421D02*
Y0247D01*
X02433Y02406D02*
Y0247D01*
X02079Y02421D02*
Y0247D01*
X02197Y02421D02*
Y0247D01*
X02098Y0247D02*
X02099Y0247D01*
X02118Y0247D02*
X02118Y0247D01*
X02137Y0247D02*
X02138Y0247D01*
X02157D02*
X02157Y0247D01*
X02177Y0247D02*
X02177Y0247D01*
X02197Y0247D02*
X02197Y0247D01*
X02295Y0247D02*
X02295Y0247D01*
X02374Y02421D02*
Y0247D01*
X02374Y0247D02*
X02374Y0247D01*
X02393Y0247D02*
X02394Y0247D01*
X02433Y0247D02*
X02433Y0247D01*
X02453Y02421D02*
Y0247D01*
X02453Y0247D02*
X02453Y0247D01*
X02472Y0247D02*
X02472Y0247D01*
X02492Y01639D02*
X02492Y01639D01*
Y01704D01*
X02453Y01639D02*
X02453Y01639D01*
Y01704D01*
X02433Y01639D02*
X02433Y01639D01*
X02433Y01639D02*
Y01689D01*
X02394Y01639D02*
X02394Y0164D01*
Y01689D01*
X02374Y01639D02*
X02374Y01639D01*
Y01704D01*
X02335Y01639D02*
X02335Y01639D01*
Y01704D01*
X02295Y01639D02*
X02296Y01639D01*
Y01704D01*
X02276Y01639D02*
X02276Y0164D01*
Y01689D01*
X02177Y01639D02*
X02177Y01639D01*
Y01704D01*
X02158Y01639D02*
X02158Y0164D01*
Y01689D01*
X02138Y01639D02*
X02138Y01639D01*
Y01704D01*
X02099Y01639D02*
X02099Y01639D01*
Y01704D01*
X02079Y01639D02*
X02079Y0164D01*
Y01689D01*
X02059Y01639D02*
X02059Y01639D01*
Y01704D01*
X02039Y01639D02*
X0204Y01639D01*
X02039Y01639D02*
Y01689D01*
X0202Y01639D02*
X0202Y01639D01*
Y01704D01*
X02Y01639D02*
X02001Y0164D01*
Y01689D01*
X02197Y0164D02*
X02197Y01639D01*
X02315Y0164D02*
X02315Y01639D01*
X02316Y0164D02*
Y01906D01*
X02957Y01964D02*
Y02163D01*
X02947Y01968D02*
Y02168D01*
X02887Y01907D02*
X02947Y01968D01*
X02236Y0247D02*
X02236Y0247D01*
X02334Y02421D02*
X02334Y02421D01*
X02339D01*
X02354Y02406D02*
X02355Y02406D01*
Y0247D01*
X02354Y0247D02*
X02355Y0247D01*
X02275Y0247D02*
X02275Y0247D01*
Y02406D02*
Y0247D01*
X02494Y01765D02*
Y02272D01*
X02642Y01986D02*
X02642Y01986D01*
X02627Y01984D02*
X02642D01*
X02699Y01897D02*
X02891D01*
X02905Y01911D01*
X02905D01*
X02957Y01964D01*
X02642Y01887D02*
X02689D01*
X02699Y01897D01*
X02578Y01888D02*
X02642D01*
X02593Y01986D02*
X02642D01*
X01222Y02176D02*
Y0222D01*
X0124Y02239D01*
X01322Y02176D02*
Y02214D01*
X01336Y02228D01*
X01422Y02176D02*
Y02211D01*
X01429Y02218D01*
X01759Y02104D02*
X01811D01*
X01522Y02176D02*
X01687D01*
X01759Y02104D01*
X01757Y02123D02*
X01811D01*
X01429Y02218D02*
X01661D01*
X01757Y02123D01*
X01336Y02228D02*
X01666D01*
X01732Y02163D01*
X01811D01*
X0124Y02239D02*
X01673D01*
X01728Y02183D01*
X01811D01*
X01222Y0212D02*
X01239Y02137D01*
X01222Y02076D02*
Y0212D01*
X01322Y02076D02*
Y02116D01*
X01333Y02127D01*
X01422Y02103D02*
X01436Y02117D01*
X01422Y02076D02*
Y02103D01*
X01222Y0202D02*
X01238Y02036D01*
X01222Y01976D02*
Y0202D01*
X01322Y01976D02*
Y02016D01*
X01332Y02026D01*
X01802Y01809D02*
X01811D01*
X01422Y02008D02*
X0143Y02016D01*
X01422Y01976D02*
Y02008D01*
X01811Y01808D02*
X01811Y01809D01*
X01222Y01921D02*
X0124Y01939D01*
X01222Y01876D02*
Y01921D01*
X01322Y01876D02*
Y01918D01*
X01332Y01929D01*
X01422Y01909D02*
X01431Y01918D01*
X01422Y01876D02*
Y01909D01*
X01238Y02036D02*
X01573D01*
X01332Y02026D02*
X01569D01*
X0143Y02016D02*
X01565D01*
X01522Y01976D02*
X01591D01*
X01573Y02036D02*
X01702Y01907D01*
X01811D01*
X01569Y02026D02*
X01747Y01848D01*
X01811D01*
X01565Y02016D02*
X01753Y01828D01*
X01811D01*
X01591Y01976D02*
X01759Y01808D01*
X01811D01*
X01239Y02137D02*
X01572D01*
X01645Y02064D01*
X01811D01*
X01333Y02127D02*
X01568D01*
X01436Y02117D02*
X01564D01*
X01522Y02076D02*
X01591D01*
X0174Y01927D01*
X01564Y02117D02*
X01734Y01946D01*
X01568Y02127D02*
X0165Y02045D01*
X01811D01*
X01734Y01946D02*
X01811D01*
X0174Y01927D02*
X01811D01*
X01222Y01776D02*
Y01818D01*
X01242Y01839D01*
X01322Y01817D02*
X01334Y01829D01*
X01322Y01776D02*
Y01817D01*
X01422Y01808D02*
X01433Y01819D01*
X01422Y01776D02*
Y01808D01*
X01871Y01693D02*
X01882Y01682D01*
Y01639D02*
Y01682D01*
X01902Y01594D02*
Y01639D01*
X01896Y01588D02*
X01902Y01594D01*
X0124Y01939D02*
X01582D01*
X01731Y01789D01*
X01811D01*
X01332Y01929D02*
X01577D01*
X01431Y01918D02*
X01573D01*
X01522Y01876D02*
X01602D01*
X01242Y01839D02*
X01625D01*
X01334Y01829D02*
X01621D01*
X01433Y01819D02*
X01617D01*
X01522Y01776D02*
X01645D01*
X01843Y01578D01*
X01617Y01819D02*
X01847Y01588D01*
X01621Y01829D02*
X01756Y01693D01*
X01625Y01839D02*
X01753Y0171D01*
X01602Y01876D02*
X01748Y0173D01*
X01573Y01918D02*
X01742Y01749D01*
X01577Y01929D02*
X01737Y01769D01*
X01811D01*
X01742Y01749D02*
X01811D01*
X01748Y0173D02*
X01811D01*
X01753Y0171D02*
X01811D01*
X01756Y01693D02*
X01871D01*
X01847Y01588D02*
X01896D01*
X01843Y01578D02*
X01907D01*
X01908Y01577D01*
X0196Y0164D02*
Y01688D01*
Y0164D02*
X01961Y01639D01*
X01Y00928D02*
X01019D01*
X01009D01*
Y009D01*
X01033D02*
X01042D01*
X01047Y00905D01*
Y00914D01*
X01042Y00919D01*
X01033D01*
X01028Y00914D01*
Y00905D01*
X01033Y009D01*
X01056Y00891D02*
Y00919D01*
X0107D01*
X01075Y00914D01*
Y00905D01*
X0107Y009D01*
X01056D01*
D22*
X02187Y01572D02*
X02236D01*
X02236Y01516D02*
X0226D01*
X02261Y01517D01*
X02157Y01516D02*
X02187D01*
X02522Y01552D02*
Y01572D01*
X02519Y01575D02*
X02522Y01572D01*
X02468Y01575D02*
X02519D01*
X02579D01*
X02522Y01552D02*
X02548D01*
X02496D02*
X02522D01*
X02716Y01849D02*
Y01879D01*
X02713Y01846D02*
X02716Y01849D01*
X02772D02*
Y01879D01*
X02745Y01808D02*
X02775D01*
X02716Y02043D02*
Y02072D01*
X02714Y02002D02*
Y02041D01*
X02716Y02043D01*
X02713Y01809D02*
Y01846D01*
X03033Y02222D02*
X03063D01*
D23*
X02867Y01291D02*
Y01375D01*
X01145Y01637D02*
X01184Y01676D01*
X01322D01*
X01145Y01262D02*
X01199Y01208D01*
X02784D01*
X02867Y01291D01*
X01147Y01321D02*
X0122D01*
X01145Y01319D02*
X01147Y01321D01*
X01145Y01262D02*
Y01319D01*
Y01637D01*
D24*
X03447Y01811D02*
D03*
D25*
X03565Y01614D02*
D03*
D26*
X03321D02*
D03*
D27*
X0122Y01321D02*
D03*
X01187Y02638D02*
D03*
X03035Y02673D02*
D03*
X02967Y01375D02*
D03*
D28*
X0122Y01421D02*
D03*
X0132Y01321D02*
D03*
Y01421D02*
D03*
X0142Y01321D02*
D03*
Y01421D02*
D03*
X0152Y01321D02*
D03*
Y01421D02*
D03*
X0162Y01321D02*
D03*
Y01421D02*
D03*
X0172Y01321D02*
D03*
Y01421D02*
D03*
X0182Y01321D02*
D03*
Y01421D02*
D03*
X0192Y01321D02*
D03*
Y01421D02*
D03*
X0202Y01321D02*
D03*
Y01421D02*
D03*
X0212Y01321D02*
D03*
Y01421D02*
D03*
X01187Y02738D02*
D03*
X01287Y02638D02*
D03*
Y02738D02*
D03*
X01387Y02638D02*
D03*
Y02738D02*
D03*
X01487Y02638D02*
D03*
Y02738D02*
D03*
X01587Y02638D02*
D03*
Y02738D02*
D03*
X03235Y02673D02*
D03*
X03135D02*
D03*
X02767Y01375D02*
D03*
X02867D02*
D03*
D29*
X01422Y02276D02*
D03*
Y02176D02*
D03*
Y01976D02*
D03*
Y01876D02*
D03*
X01322Y02276D02*
D03*
Y02176D02*
D03*
Y01976D02*
D03*
Y01876D02*
D03*
X01222Y02276D02*
D03*
Y02176D02*
D03*
Y01976D02*
D03*
Y01876D02*
D03*
X01522D02*
D03*
Y01976D02*
D03*
Y02176D02*
D03*
Y02276D02*
D03*
X01422Y01776D02*
D03*
X01322D02*
D03*
X01222D02*
D03*
X01522D02*
D03*
X01422Y02076D02*
D03*
X01322D02*
D03*
X01222D02*
D03*
X01522D02*
D03*
Y01676D02*
D03*
Y01576D02*
D03*
X01222D02*
D03*
Y01676D02*
D03*
X01322Y01576D02*
D03*
Y01676D02*
D03*
X01422Y01576D02*
D03*
Y01676D02*
D03*
D30*
X0345Y0215D02*
D03*
X0355D02*
D03*
X0345Y0205D02*
D03*
X0355D02*
D03*
X0345Y0195D02*
D03*
X0355D02*
D03*
D31*
X0209Y03D02*
D03*
X0199D02*
D03*
X0189D02*
D03*
X0179D02*
D03*
X0169D02*
D03*
X0159D02*
D03*
X0149D02*
D03*
X0139D02*
D03*
X0129D02*
D03*
X0119D02*
D03*
X0295D02*
D03*
X0285D02*
D03*
X0275D02*
D03*
X0265D02*
D03*
X0255D02*
D03*
X0245D02*
D03*
X0235D02*
D03*
X0225D02*
D03*
X0245Y011D02*
D03*
X0255D02*
D03*
X0265D02*
D03*
X0275D02*
D03*
X0285D02*
D03*
X0295D02*
D03*
X0155D02*
D03*
X0165D02*
D03*
X0175D02*
D03*
X0185D02*
D03*
X0195D02*
D03*
X0205D02*
D03*
X0215D02*
D03*
X0225D02*
D03*
D32*
X036Y024D02*
D03*
D33*
X03327Y01179D02*
D03*
Y01235D02*
D03*
X03307Y01207D02*
D03*
X03347D02*
D03*
D34*
X02593Y01695D02*
D03*
X0259Y02193D02*
D03*
X02216Y02397D02*
D03*
X02236Y02425D02*
D03*
X03282Y02428D02*
D03*
X03Y01948D02*
D03*
X03081Y02277D02*
D03*
X02444Y01544D02*
D03*
X02603Y01543D02*
D03*
X02598Y01731D02*
D03*
X02769Y01703D02*
D03*
Y0175D02*
D03*
X02556Y02281D02*
D03*
X03293Y02161D02*
D03*
X02385Y01983D02*
D03*
X0242D02*
D03*
X02445Y0204D02*
D03*
X02688Y01412D02*
D03*
X02708Y01456D02*
D03*
X02687Y01456D02*
D03*
X03392Y01271D02*
D03*
X02776Y02336D02*
D03*
X02777Y02387D02*
D03*
X0272Y02361D02*
D03*
X02686Y0232D02*
D03*
X02776Y02426D02*
D03*
X0327Y02465D02*
D03*
X02955Y02402D02*
D03*
X03293Y0211D02*
D03*
X03179Y02039D02*
D03*
X03086D02*
D03*
X02977Y02065D02*
D03*
X03086Y01948D02*
D03*
X02939Y02243D02*
D03*
X03293Y02011D02*
D03*
X02977Y02111D02*
D03*
X02976Y02159D02*
D03*
X03081Y02303D02*
D03*
X03189Y02352D02*
D03*
X03081Y02353D02*
D03*
X02692Y02261D02*
D03*
X02721Y02281D02*
D03*
X03081Y02428D02*
D03*
Y02378D02*
D03*
X03189Y02402D02*
D03*
Y02277D02*
D03*
X02691Y01946D02*
D03*
X0252Y02168D02*
D03*
X02571Y02421D02*
D03*
X0186Y02321D02*
D03*
X02578Y02163D02*
D03*
Y01769D02*
D03*
X02593Y01828D02*
D03*
X02578Y01888D02*
D03*
Y01848D02*
D03*
Y02084D02*
D03*
X02593Y01868D02*
D03*
Y01907D02*
D03*
X02578Y01927D02*
D03*
X01981Y01704D02*
D03*
X02118Y0159D02*
D03*
X0204Y02421D02*
D03*
X0206Y02406D02*
D03*
X02079Y02421D02*
D03*
X02099Y02406D02*
D03*
X02197Y02421D02*
D03*
X02178Y02406D02*
D03*
X02138D02*
D03*
X02158Y02421D02*
D03*
X02354Y02406D02*
D03*
X02374Y02421D02*
D03*
X02394Y02406D02*
D03*
X02433D02*
D03*
X02413Y02421D02*
D03*
X02453D02*
D03*
X02033Y02096D02*
D03*
Y02014D02*
D03*
X02068D02*
D03*
X02118Y02519D02*
D03*
X01747Y02025D02*
D03*
X0259Y0234D02*
D03*
X02335Y01704D02*
D03*
X02374D02*
D03*
X02394Y01689D02*
D03*
X02492Y01704D02*
D03*
X02453D02*
D03*
X02433Y01689D02*
D03*
X02158D02*
D03*
X02138Y01704D02*
D03*
X02177D02*
D03*
X02099D02*
D03*
X02079Y01689D02*
D03*
X02315Y02041D02*
D03*
X02227Y01966D02*
D03*
Y01995D02*
D03*
X02226Y02113D02*
D03*
X02227Y02142D02*
D03*
X02139Y02068D02*
D03*
X02315Y02069D02*
D03*
X02256Y02025D02*
D03*
X02197Y02024D02*
D03*
X02256Y02084D02*
D03*
X02001Y01689D02*
D03*
X0202Y01704D02*
D03*
X02059D02*
D03*
X02039Y01689D02*
D03*
X02139Y02041D02*
D03*
X02296Y01704D02*
D03*
X02276Y01689D02*
D03*
X02237D02*
D03*
X01921Y01688D02*
D03*
X0192Y01533D02*
D03*
X02384Y01572D02*
D03*
X02414Y01486D02*
D03*
X01862Y01893D02*
D03*
Y01962D02*
D03*
X02256Y02536D02*
D03*
X01865Y02474D02*
D03*
X01948Y02421D02*
D03*
X02314Y02558D02*
D03*
X02334Y02421D02*
D03*
X0198Y02517D02*
D03*
X02315Y02515D02*
D03*
X02275Y02406D02*
D03*
X02179Y02519D02*
D03*
X02347Y02535D02*
D03*
X02588Y02301D02*
D03*
X02578Y02005D02*
D03*
X02457Y02005D02*
D03*
X02691Y02222D02*
D03*
X02157Y01517D02*
D03*
Y01572D02*
D03*
X02015Y01564D02*
D03*
X01985Y01485D02*
D03*
X02261Y01517D02*
D03*
X019Y02127D02*
D03*
X01897Y02071D02*
D03*
X01862Y01844D02*
D03*
Y01868D02*
D03*
Y02011D02*
D03*
Y01986D02*
D03*
X02548Y01552D02*
D03*
X02496D02*
D03*
X02355Y01596D02*
D03*
X02522Y01489D02*
D03*
X02716Y01879D02*
D03*
X02772D02*
D03*
X02775Y01808D02*
D03*
X02593Y01986D02*
D03*
X02716Y02072D02*
D03*
X02492Y02421D02*
D03*
X02451Y02572D02*
D03*
X02593Y02045D02*
D03*
X02772Y02072D02*
D03*
X02764Y02002D02*
D03*
X02577Y02127D02*
D03*
X02462Y02362D02*
D03*
X033Y02273D02*
D03*
X03297Y022D02*
D03*
X03063Y02222D02*
D03*
X02983D02*
D03*
X01406Y02504D02*
D03*
X01326Y02504D02*
D03*
X01246D02*
D03*
X01487Y02505D02*
D03*
X01747Y01985D02*
D03*
X01908Y01577D02*
D03*
X0196Y01688D02*
D03*
X02507Y02572D02*
D03*
X02514Y02341D02*
D03*
D35*
X02236Y02518D02*
D03*
X02567Y02222D02*
D03*
X01762Y02143D02*
D03*
X01762Y02084D02*
D03*
X01762Y01888D02*
D03*
X0198Y02422D02*
D03*
X02315Y02406D02*
D03*
X01762Y02005D02*
D03*
D36*
X03068Y01709D02*
D03*
X03607Y01362D02*
D03*
X03138Y01451D02*
D03*
D37*
X02688Y01327D02*
D03*
X02819Y01456D02*
D03*
X02556Y01364D02*
D03*
X02956Y01454D02*
D03*
X02372Y01326D02*
D03*
X02348Y01402D02*
D03*
M02*
