%FSTAX25Y25*%
%MOIN*%
G70*
G01*
G75*
G04 Layer_Physical_Order=2*
G04 Layer_Color=128*
%ADD10O,0.07087X0.01181*%
%ADD11O,0.01181X0.07087*%
%ADD12O,0.07284X0.01378*%
%ADD13R,0.08071X0.02756*%
%ADD14R,0.01772X0.02165*%
%ADD15R,0.03150X0.03150*%
%ADD16R,0.01575X0.02559*%
%ADD17R,0.02992X0.06299*%
%ADD18R,0.07874X0.06299*%
%ADD19R,0.02047X0.02047*%
%ADD20R,0.02047X0.02047*%
%ADD21R,0.03543X0.02756*%
%ADD22R,0.02756X0.03543*%
%ADD23R,0.02165X0.01772*%
%ADD24C,0.01000*%
%ADD25C,0.00500*%
%ADD26C,0.03000*%
%ADD27C,0.00700*%
%ADD28C,0.02000*%
%ADD29C,0.00669*%
%ADD30C,0.00591*%
%ADD31R,0.25197X0.25197*%
%ADD32C,0.06000*%
%ADD33P,0.12784X8X202.5*%
%ADD34P,0.12784X8X292.5*%
%ADD35C,0.05906*%
%ADD36R,0.05906X0.05906*%
%ADD37R,0.05906X0.05906*%
%ADD38P,0.06711X8X292.5*%
%ADD39O,0.05600X0.11200*%
%ADD40C,0.12600*%
%ADD41C,0.01969*%
%ADD42C,0.01600*%
%ADD43C,0.05000*%
%ADD44C,0.01595*%
%ADD45C,0.02800*%
%ADD46C,0.04000*%
%ADD47R,0.70200X0.25400*%
%ADD48C,0.07550*%
%ADD49O,0.08724X0.11087*%
%ADD50O,0.11087X0.08724*%
%ADD51C,0.07543*%
G04:AMPARAMS|DCode=52|XSize=95.433mil|YSize=95.433mil|CornerRadius=0mil|HoleSize=0mil|Usage=FLASHONLY|Rotation=0.000|XOffset=0mil|YOffset=0mil|HoleType=Round|Shape=Relief|Width=10mil|Gap=10mil|Entries=4|*
%AMTHD52*
7,0,0,0.09543,0.07543,0.01000,45*
%
%ADD52THD52*%
%ADD53C,0.07800*%
%ADD54C,0.07400*%
G04:AMPARAMS|DCode=55|XSize=95.5mil|YSize=95.5mil|CornerRadius=0mil|HoleSize=0mil|Usage=FLASHONLY|Rotation=0.000|XOffset=0mil|YOffset=0mil|HoleType=Round|Shape=Relief|Width=10mil|Gap=10mil|Entries=4|*
%AMTHD55*
7,0,0,0.09550,0.07550,0.01000,45*
%
%ADD55THD55*%
%ADD56C,0.16600*%
%ADD57C,0.06800*%
G04:AMPARAMS|DCode=58|XSize=70mil|YSize=70mil|CornerRadius=0mil|HoleSize=0mil|Usage=FLASHONLY|Rotation=0.000|XOffset=0mil|YOffset=0mil|HoleType=Round|Shape=Relief|Width=10mil|Gap=10mil|Entries=4|*
%AMTHD58*
7,0,0,0.07000,0.05000,0.01000,45*
%
%ADD58THD58*%
%ADD59C,0.05600*%
D25*
X01Y0091969D02*
Y0094768D01*
X01014D01*
X0101866Y0094301D01*
Y0093368D01*
X01014Y0092901D01*
X01D01*
X0102799Y0094768D02*
Y0091969D01*
X0103732Y0092901D01*
X0104665Y0091969D01*
Y0094768D01*
X0105598Y0091969D02*
Y0094768D01*
X0106998D01*
X0107464Y0094301D01*
Y0093368D01*
X0106998Y0092901D01*
X0105598D01*
X0106531D02*
X0107464Y0091969D01*
D43*
X0334668Y01207D02*
D03*
X0330732D02*
D03*
X03327Y0123456D02*
D03*
Y0117944D02*
D03*
X02686Y0232D02*
D03*
X0277559Y0233563D02*
D03*
X0279429Y0215453D02*
D03*
X0281102Y0251969D02*
D03*
X0278051Y0172539D02*
D03*
X0285138Y0268799D02*
D03*
X0278642Y0281594D02*
D03*
X0295177Y0286811D02*
D03*
X0258366Y0290256D02*
D03*
X0282087Y0288976D02*
D03*
X0217421Y0289173D02*
D03*
X0209646Y0259646D02*
D03*
X0307579Y0289272D02*
D03*
X029498Y0261122D02*
D03*
X0223425Y0261122D02*
D03*
X024311Y0289272D02*
D03*
X024498Y0272638D02*
D03*
X0322146Y0273917D02*
D03*
X0325492Y0284154D02*
D03*
X0323917Y0281594D02*
D03*
X0327362Y0276378D02*
D03*
X0283366Y0248917D02*
D03*
X0335531Y0286713D02*
D03*
X0333957Y0279134D02*
D03*
X0317323Y0263681D02*
D03*
X0316634Y0227165D02*
D03*
X026939Y024252D02*
D03*
X025315Y0242126D02*
D03*
X0256594Y0237008D02*
D03*
X0260531Y0247736D02*
D03*
X026309Y0252854D02*
D03*
X0201969Y0279035D02*
D03*
X0257395Y0255327D02*
D03*
X0317224Y026624D02*
D03*
Y0268799D02*
D03*
X0272Y02361D02*
D03*
X0269488Y0234055D02*
D03*
X0269159Y0226128D02*
D03*
X0257972Y0260433D02*
D03*
X0242925Y0271076D02*
D03*
X0196063Y0269587D02*
D03*
X02Y0277362D02*
D03*
X0194177Y0266027D02*
D03*
X0312205Y0259252D02*
D03*
X02764Y02002D02*
D03*
X0257108Y0242101D02*
D03*
X0255118Y0251673D02*
D03*
X0258084Y0230118D02*
D03*
X0242618Y0253346D02*
D03*
X0254035Y0273819D02*
D03*
X0245276Y0261122D02*
D03*
X029498Y0271358D02*
D03*
X0234646Y025187D02*
D03*
X0252756Y0218209D02*
D03*
X0254626Y0220276D02*
D03*
X0245276Y0216929D02*
D03*
X0249375Y0236175D02*
D03*
X0259055Y02222D02*
D03*
X0269094Y0219291D02*
D03*
X0347933Y0237402D02*
D03*
Y0234842D02*
D03*
X0282185Y0285827D02*
D03*
X0232677Y0274803D02*
D03*
X0219685Y0286024D02*
D03*
X0330709Y0234941D02*
D03*
X0328346Y0216535D02*
D03*
X0350197Y0209547D02*
D03*
X0316732Y0222441D02*
D03*
X0347933Y0219882D02*
D03*
Y0222342D02*
D03*
X0307776Y0230315D02*
D03*
X0347933Y0229921D02*
D03*
X0327953Y0232185D02*
D03*
X0351378Y0204528D02*
D03*
X0332677Y0199508D02*
D03*
X0316732Y0216043D02*
D03*
X0350197Y0194488D02*
D03*
X0265945Y0273425D02*
D03*
X0216043Y0267717D02*
D03*
X0196Y01688D02*
D03*
X01747Y01985D02*
D03*
X0176198Y0200506D02*
D03*
X02577Y02127D02*
D03*
X0277156Y0207244D02*
D03*
X0259325Y0204475D02*
D03*
X0249234Y0242101D02*
D03*
X025932Y0198569D02*
D03*
X0277464Y01808D02*
D03*
X0277156Y0187889D02*
D03*
X02522Y01489D02*
D03*
X0235465Y01596D02*
D03*
X01862Y01986D02*
D03*
Y0186758D02*
D03*
Y0184419D02*
D03*
X01897Y0207125D02*
D03*
X02261Y01517D02*
D03*
X02157Y0151688D02*
D03*
X0245719Y02005D02*
D03*
X02578Y02005D02*
D03*
X0227549Y0240601D02*
D03*
X0233424Y02421D02*
D03*
X02314Y02558D02*
D03*
X01948Y02421D02*
D03*
X0198Y02422D02*
D03*
X01865Y02474D02*
D03*
X0225622Y0253625D02*
D03*
X01862Y0196219D02*
D03*
X01762Y01888D02*
D03*
X024047Y0148841D02*
D03*
X02384Y01572D02*
D03*
X0192Y01533D02*
D03*
X0192147Y0168817D02*
D03*
X0223685Y0168859D02*
D03*
X0176198Y020838D02*
D03*
X017623Y0214317D02*
D03*
X0227622Y0168859D02*
D03*
X0229559Y0170359D02*
D03*
X0213859Y0204059D02*
D03*
X0203937Y0168859D02*
D03*
X0205937Y0170359D02*
D03*
X0202D02*
D03*
X0200063Y0168859D02*
D03*
X0225583Y0208365D02*
D03*
X0219712Y0202435D02*
D03*
X0225612Y0202465D02*
D03*
X0222659Y0214241D02*
D03*
X0222635Y0211288D02*
D03*
X0222659Y0199459D02*
D03*
Y0196559D02*
D03*
X0207937Y0168859D02*
D03*
X0209874Y0170359D02*
D03*
X0217748D02*
D03*
X0213811D02*
D03*
X0215811Y0168859D02*
D03*
X0243307D02*
D03*
X0245307Y0170359D02*
D03*
X0249244D02*
D03*
X0239433Y0168859D02*
D03*
X0237433Y0170359D02*
D03*
X0233496D02*
D03*
X0174688Y0202496D02*
D03*
X0211832Y0251888D02*
D03*
X0206818Y0201418D02*
D03*
X0203318D02*
D03*
X0245297Y0242101D02*
D03*
X0241297D02*
D03*
X0243297Y0240601D02*
D03*
X023936D02*
D03*
X0237423Y0242101D02*
D03*
X0235423Y0240601D02*
D03*
X0215832Y0242101D02*
D03*
X0213832Y0240601D02*
D03*
X0217769D02*
D03*
X0219706Y0242101D02*
D03*
X0207895D02*
D03*
X0205958Y0240601D02*
D03*
X0204021Y0242101D02*
D03*
X0211811Y0159031D02*
D03*
X0198063Y0170359D02*
D03*
X0257801Y0192695D02*
D03*
X0259301Y0186821D02*
D03*
X0257801Y0208443D02*
D03*
Y0184821D02*
D03*
X0259301Y0182821D02*
D03*
X0257769Y0176916D02*
D03*
Y0216286D02*
D03*
X0186049Y0232065D02*
D03*
X0269088Y0194632D02*
D03*
X0272082Y0228097D02*
D03*
X0329072Y0188206D02*
D03*
X03392Y01271D02*
D03*
X0242Y01983D02*
D03*
X02385D02*
D03*
X02598Y01731D02*
D03*
X02603Y01543D02*
D03*
X02444Y015435D02*
D03*
X02216Y02397D02*
D03*
X02236Y02518D02*
D03*
X01908Y01577D02*
D03*
X0198425Y014813D02*
D03*
X0217913Y0252264D02*
D03*
X0209941Y0240748D02*
D03*
X0231507Y0240559D02*
D03*
X0231496Y0206791D02*
D03*
X0170669Y0254134D02*
D03*
X0164061Y0201476D02*
D03*
X0109744Y0196161D02*
D03*
Y0207972D02*
D03*
Y0219783D02*
D03*
Y0231594D02*
D03*
X0129921Y0148425D02*
D03*
X0135039D02*
D03*
X0139764D02*
D03*
X0144882D02*
D03*
X0145079Y0128661D02*
D03*
X0140079D02*
D03*
X0135079D02*
D03*
X0130079D02*
D03*
X0347399Y0215945D02*
D03*
D46*
X0104Y031D02*
G03*
X01Y03061I-000005J-000395D01*
G01*
Y0104D02*
G03*
X0104Y01I0004J0D01*
G01*
X03561D02*
G03*
X036Y0104I-000005J000395D01*
G01*
X01D02*
Y03061D01*
X0104Y01D02*
X03561D01*
X036Y0104D02*
Y011D01*
X037Y012D01*
Y0249D01*
X036Y0259D02*
X037Y0249D01*
X036Y0259D02*
Y0304D01*
X0354Y031D02*
X036Y0304D01*
X0104Y031D02*
X0354D01*
D47*
X02699Y01127D02*
D03*
D48*
X0313583Y0189173D02*
D03*
X0175984Y0147795D02*
D03*
Y0137795D02*
D03*
X0289469Y0183169D02*
D03*
X0260531Y0271358D02*
D03*
X0112205Y0124409D02*
D03*
Y0114409D02*
D03*
X034813Y029252D02*
D03*
Y028252D02*
D03*
X036Y0205D02*
D03*
D49*
X0354331Y0161417D02*
D03*
X0329921D02*
D03*
D50*
X034252Y0181102D02*
D03*
D51*
X01587Y02738D02*
D03*
X01487D02*
D03*
Y02638D02*
D03*
X01387Y02738D02*
D03*
Y02638D02*
D03*
X01287Y02738D02*
D03*
Y02638D02*
D03*
X01187Y02738D02*
D03*
Y02638D02*
D03*
X01322Y01776D02*
D03*
Y01876D02*
D03*
Y01976D02*
D03*
Y02076D02*
D03*
Y02176D02*
D03*
Y02276D02*
D03*
X01222Y01676D02*
D03*
X01322D02*
D03*
X01422D02*
D03*
X01522D02*
D03*
X02767Y01375D02*
D03*
X02867D02*
D03*
X02967D02*
D03*
X01222Y02276D02*
D03*
Y02176D02*
D03*
Y02076D02*
D03*
Y01976D02*
D03*
Y01876D02*
D03*
Y01776D02*
D03*
X0273524Y0270886D02*
D03*
Y0260886D02*
D03*
Y0250886D02*
D03*
X0291634Y0239173D02*
D03*
X0301634D02*
D03*
X0311634D02*
D03*
X01422Y01776D02*
D03*
Y01876D02*
D03*
Y01976D02*
D03*
Y02076D02*
D03*
Y02176D02*
D03*
Y02276D02*
D03*
X01522D02*
D03*
Y02176D02*
D03*
Y02076D02*
D03*
Y01976D02*
D03*
Y01876D02*
D03*
Y01776D02*
D03*
D52*
X01587Y02638D02*
D03*
D53*
X0305394Y0199941D02*
D03*
X0295394D02*
D03*
X0305394Y0209941D02*
D03*
X0295394D02*
D03*
X0305394Y0219941D02*
D03*
X0295394D02*
D03*
D54*
X0209Y03D02*
D03*
X0199D02*
D03*
X0189D02*
D03*
X0179D02*
D03*
X0169D02*
D03*
X0159D02*
D03*
X0149D02*
D03*
X0139D02*
D03*
X0129D02*
D03*
X0119D02*
D03*
X0225Y011D02*
D03*
X0215D02*
D03*
X0205D02*
D03*
X0195D02*
D03*
X0185D02*
D03*
X0175D02*
D03*
X0165D02*
D03*
X0155D02*
D03*
X0245D02*
D03*
X0255D02*
D03*
X0265D02*
D03*
X0275D02*
D03*
X0285D02*
D03*
X0295D02*
D03*
Y03D02*
D03*
X0285D02*
D03*
X0275D02*
D03*
X0265D02*
D03*
X0255D02*
D03*
X0245D02*
D03*
X0235D02*
D03*
X0225D02*
D03*
D55*
X034813Y0265787D02*
D03*
Y0255787D02*
D03*
X0163863Y0147833D02*
D03*
Y0137833D02*
D03*
D56*
X036Y024D02*
D03*
D57*
X028937Y0170866D02*
D03*
X03138Y01451D02*
D03*
X0360701Y0136199D02*
D03*
D58*
X0243652Y0233908D02*
D03*
X0215748Y0275492D02*
D03*
X0248228Y0253445D02*
D03*
X0268012Y0268209D02*
D03*
X02777Y02387D02*
D03*
X0320472Y0188206D02*
D03*
X0351476Y0201181D02*
D03*
X0324508Y0215945D02*
D03*
X01487Y0250472D02*
D03*
X01246Y02504D02*
D03*
X01326D02*
D03*
X01406Y0250372D02*
D03*
X0271949Y0207176D02*
D03*
X0271644Y0187889D02*
D03*
X0249644Y0155156D02*
D03*
X0254756D02*
D03*
X01862Y02011D02*
D03*
X019Y02127D02*
D03*
X0201544Y0156356D02*
D03*
X02157Y01572D02*
D03*
X02691Y02222D02*
D03*
X0231525Y0251465D02*
D03*
X0198Y02517D02*
D03*
X01862Y01893D02*
D03*
X0213859Y0206759D02*
D03*
X0231459Y0204059D02*
D03*
X0203318Y0209618D02*
D03*
X0332684Y0203058D02*
D03*
X0277572Y02426D02*
D03*
X02687Y01456D02*
D03*
X0270844Y01456D02*
D03*
X02688Y0141219D02*
D03*
X0244525Y0203975D02*
D03*
X02556Y02281D02*
D03*
X02769Y0175D02*
D03*
Y01703D02*
D03*
X02236Y02425D02*
D03*
X02593Y01695D02*
D03*
X0129921Y0139764D02*
D03*
X0135039D02*
D03*
X0139764D02*
D03*
X0144882D02*
D03*
D59*
X02348Y01402D02*
D03*
X02372Y01326D02*
D03*
X0295625Y01454D02*
D03*
X02556Y01364D02*
D03*
X02819Y01456D02*
D03*
X02688Y01327D02*
D03*
X033937Y0171653D02*
D03*
X0345571Y0171752D02*
D03*
X033937Y0163779D02*
D03*
X0345866Y0163878D02*
D03*
M02*
