%FSTAX25Y25*%
%MOIN*%
G70*
G01*
G75*
%ADD10O,0.07087X0.01181*%
%ADD11O,0.01181X0.07087*%
%ADD12O,0.07284X0.01378*%
%ADD13R,0.08071X0.02756*%
%ADD14R,0.01772X0.02165*%
%ADD15R,0.03150X0.03150*%
%ADD16R,0.01575X0.02559*%
%ADD17R,0.02992X0.06299*%
%ADD18R,0.07874X0.06299*%
%ADD19R,0.02047X0.02047*%
%ADD20R,0.02047X0.02047*%
%ADD21R,0.03543X0.02756*%
%ADD22R,0.02756X0.03543*%
%ADD23R,0.02165X0.01772*%
%ADD24C,0.01000*%
%ADD25C,0.00500*%
%ADD26C,0.03000*%
%ADD27C,0.00700*%
%ADD28C,0.02000*%
%ADD29C,0.00669*%
%ADD30C,0.00591*%
%ADD31R,0.25197X0.25197*%
%ADD32C,0.06000*%
%ADD33P,0.12784X8X202.5*%
%ADD34P,0.12784X8X292.5*%
%ADD35C,0.05906*%
%ADD36R,0.05906X0.05906*%
%ADD37R,0.05906X0.05906*%
%ADD38P,0.06711X8X292.5*%
%ADD39O,0.05600X0.11200*%
%ADD40C,0.12600*%
%ADD41C,0.01969*%
%ADD42C,0.01600*%
%ADD43C,0.05000*%
%ADD44C,0.01595*%
%ADD45C,0.02800*%
%ADD46C,0.04000*%
%ADD47R,0.70200X0.25400*%
%ADD48C,0.07550*%
%ADD49O,0.08724X0.11087*%
%ADD50O,0.11087X0.08724*%
%ADD51C,0.07543*%
G04:AMPARAMS|DCode=52|XSize=95.433mil|YSize=95.433mil|CornerRadius=0mil|HoleSize=0mil|Usage=FLASHONLY|Rotation=0.000|XOffset=0mil|YOffset=0mil|HoleType=Round|Shape=Relief|Width=10mil|Gap=10mil|Entries=4|*
%AMTHD52*
7,0,0,0.09543,0.07543,0.01000,45*
%
%ADD52THD52*%
%ADD53C,0.07800*%
%ADD54C,0.07400*%
G04:AMPARAMS|DCode=55|XSize=95.5mil|YSize=95.5mil|CornerRadius=0mil|HoleSize=0mil|Usage=FLASHONLY|Rotation=0.000|XOffset=0mil|YOffset=0mil|HoleType=Round|Shape=Relief|Width=10mil|Gap=10mil|Entries=4|*
%AMTHD55*
7,0,0,0.09550,0.07550,0.01000,45*
%
%ADD55THD55*%
%ADD56C,0.16600*%
%ADD57C,0.06800*%
G04:AMPARAMS|DCode=58|XSize=70mil|YSize=70mil|CornerRadius=0mil|HoleSize=0mil|Usage=FLASHONLY|Rotation=0.000|XOffset=0mil|YOffset=0mil|HoleType=Round|Shape=Relief|Width=10mil|Gap=10mil|Entries=4|*
%AMTHD58*
7,0,0,0.07000,0.05000,0.01000,45*
%
%ADD58THD58*%
%ADD59C,0.05600*%
%AMTHOVALD60*
21,1,0.02362,0.10724,0,0,270.0*
1,1,0.10724,0.00000,0.01181*
1,1,0.10724,0.00000,-0.01181*
21,0,0.02362,0.08724,0,0,270.0*
1,0,0.08724,0.00000,0.01181*
1,0,0.08724,0.00000,-0.01181*
4,0,4,-0.00354,0.00828,-0.04145,0.04619,-0.03438,0.05326,0.00354,0.01535,-0.00354,0.00828,0.0*
4,0,4,-0.00354,-0.01535,0.03438,-0.05326,0.04145,-0.04619,0.00354,-0.00828,-0.00354,-0.01535,0.0*
4,0,4,-0.00354,0.01535,0.03438,0.05326,0.04145,0.04619,0.00354,0.00828,-0.00354,0.01535,0.0*
4,0,4,-0.00354,-0.00828,-0.04145,-0.04619,-0.03438,-0.05326,0.00354,-0.01535,-0.00354,-0.00828,0.0*
%
%ADD60THOVALD60*%

%AMTHOVALD61*
21,1,0.02362,0.10724,0,0,360.0*
1,1,0.10724,-0.01181,0.00000*
1,1,0.10724,0.01181,0.00000*
21,0,0.02362,0.08724,0,0,360.0*
1,0,0.08724,-0.01181,0.00000*
1,0,0.08724,0.01181,0.00000*
4,0,4,-0.00828,-0.00354,-0.04619,-0.04145,-0.05326,-0.03438,-0.01535,0.00354,-0.00828,-0.00354,0.0*
4,0,4,0.01535,-0.00354,0.05326,0.03438,0.04619,0.04145,0.00828,0.00354,0.01535,-0.00354,0.0*
4,0,4,-0.01535,-0.00354,-0.05326,0.03438,-0.04619,0.04145,-0.00828,0.00354,-0.01535,-0.00354,0.0*
4,0,4,0.00828,-0.00354,0.04619,-0.04145,0.05326,-0.03438,0.01535,0.00354,0.00828,-0.00354,0.0*
%
%ADD61THOVALD61*%

G04:AMPARAMS|DCode=62|XSize=98mil|YSize=98mil|CornerRadius=0mil|HoleSize=0mil|Usage=FLASHONLY|Rotation=0.000|XOffset=0mil|YOffset=0mil|HoleType=Round|Shape=Relief|Width=10mil|Gap=10mil|Entries=4|*
%AMTHD62*
7,0,0,0.09800,0.07800,0.01000,45*
%
%ADD62THD62*%
G04:AMPARAMS|DCode=63|XSize=94mil|YSize=94mil|CornerRadius=0mil|HoleSize=0mil|Usage=FLASHONLY|Rotation=0.000|XOffset=0mil|YOffset=0mil|HoleType=Round|Shape=Relief|Width=10mil|Gap=10mil|Entries=4|*
%AMTHD63*
7,0,0,0.09400,0.07400,0.01000,45*
%
%ADD63THD63*%
G04:AMPARAMS|DCode=64|XSize=88mil|YSize=88mil|CornerRadius=0mil|HoleSize=0mil|Usage=FLASHONLY|Rotation=0.000|XOffset=0mil|YOffset=0mil|HoleType=Round|Shape=Relief|Width=10mil|Gap=10mil|Entries=4|*
%AMTHD64*
7,0,0,0.08800,0.06800,0.01000,45*
%
%ADD64THD64*%
G04:AMPARAMS|DCode=65|XSize=76mil|YSize=76mil|CornerRadius=0mil|HoleSize=0mil|Usage=FLASHONLY|Rotation=0.000|XOffset=0mil|YOffset=0mil|HoleType=Round|Shape=Relief|Width=10mil|Gap=10mil|Entries=4|*
%AMTHD65*
7,0,0,0.07600,0.05600,0.01000,45*
%
%ADD65THD65*%
%ADD66R,0.06102X0.01378*%
%ADD67O,0.01378X0.04724*%
%ADD68R,0.07480X0.12205*%
%ADD69R,0.07480X0.03150*%
%ADD70R,0.06299X0.02559*%
%ADD71R,0.01969X0.01181*%
%ADD72R,0.08661X0.11811*%
%ADD73C,0.01181*%
%ADD74R,0.03543X0.04724*%
%ADD75R,0.06693X0.06614*%
%ADD76R,0.08661X0.07874*%
%ADD77C,0.05000*%
%ADD78C,0.01500*%
%ADD79C,0.01300*%
D10*
X0181124Y017101D02*
D03*
Y0172979D02*
D03*
Y0174947D02*
D03*
Y0176916D02*
D03*
Y0178884D02*
D03*
Y0180853D02*
D03*
Y0182821D02*
D03*
Y018479D02*
D03*
Y0186758D02*
D03*
Y0188727D02*
D03*
Y0190695D02*
D03*
Y0192664D02*
D03*
Y0194632D02*
D03*
Y0196601D02*
D03*
Y0198569D02*
D03*
Y0200538D02*
D03*
Y0202506D02*
D03*
Y0204475D02*
D03*
Y0206443D02*
D03*
Y0208412D02*
D03*
Y021038D02*
D03*
Y0212349D02*
D03*
Y0214317D02*
D03*
Y0216286D02*
D03*
Y0218254D02*
D03*
Y0220223D02*
D03*
Y0222191D02*
D03*
Y022416D02*
D03*
Y0226128D02*
D03*
Y0228097D02*
D03*
Y0230065D02*
D03*
Y0232034D02*
D03*
Y0234002D02*
D03*
Y0235971D02*
D03*
Y0237939D02*
D03*
Y0239908D02*
D03*
X0264194D02*
D03*
Y0237939D02*
D03*
Y0235971D02*
D03*
Y0234002D02*
D03*
Y0232034D02*
D03*
Y0230065D02*
D03*
Y0228097D02*
D03*
Y0226128D02*
D03*
Y022416D02*
D03*
Y0222191D02*
D03*
Y0220223D02*
D03*
Y0218254D02*
D03*
Y0216286D02*
D03*
Y0214317D02*
D03*
Y0212349D02*
D03*
Y021038D02*
D03*
Y0208412D02*
D03*
Y0206443D02*
D03*
Y0204475D02*
D03*
Y0202506D02*
D03*
Y0200538D02*
D03*
Y0198569D02*
D03*
Y0196601D02*
D03*
Y0194632D02*
D03*
Y0192664D02*
D03*
Y0190695D02*
D03*
Y0188727D02*
D03*
Y0186758D02*
D03*
Y018479D02*
D03*
Y0182821D02*
D03*
Y0180853D02*
D03*
Y0178884D02*
D03*
Y0176916D02*
D03*
Y0174947D02*
D03*
Y0172979D02*
D03*
Y017101D02*
D03*
D11*
X018821Y0246994D02*
D03*
X0190179D02*
D03*
X0192147D02*
D03*
X0194116D02*
D03*
X0196084D02*
D03*
X0198053D02*
D03*
X0200021D02*
D03*
X020199D02*
D03*
X0203958D02*
D03*
X0205927D02*
D03*
X0207895D02*
D03*
X0209864D02*
D03*
X0211832D02*
D03*
X0213801D02*
D03*
X0215769D02*
D03*
X0217738D02*
D03*
X0219706D02*
D03*
X0221675D02*
D03*
X0223643D02*
D03*
X0225612D02*
D03*
X022758D02*
D03*
X0229549D02*
D03*
X0231517D02*
D03*
X0233486D02*
D03*
X0235454D02*
D03*
X0237423D02*
D03*
X0239391D02*
D03*
X024136D02*
D03*
X0243328D02*
D03*
X0245297D02*
D03*
X0247265D02*
D03*
X0249234D02*
D03*
X0251202D02*
D03*
X0253171D02*
D03*
X0255139D02*
D03*
X0257108D02*
D03*
Y0163924D02*
D03*
X0255139D02*
D03*
X0253171D02*
D03*
X0251202D02*
D03*
X0249234D02*
D03*
X0247265D02*
D03*
X0245297D02*
D03*
X0243328D02*
D03*
X024136D02*
D03*
X0239391D02*
D03*
X0237423D02*
D03*
X0235454D02*
D03*
X0233486D02*
D03*
X0231517D02*
D03*
X0229549D02*
D03*
X022758D02*
D03*
X0225612D02*
D03*
X0223643D02*
D03*
X0221675D02*
D03*
X0219706D02*
D03*
X0217738D02*
D03*
X0215769D02*
D03*
X0213801D02*
D03*
X0211832D02*
D03*
X0209864D02*
D03*
X0207895D02*
D03*
X0205927D02*
D03*
X0203958D02*
D03*
X020199D02*
D03*
X0200021D02*
D03*
X0198053D02*
D03*
X0196084D02*
D03*
X0194116D02*
D03*
X0192147D02*
D03*
X0190179D02*
D03*
X018821D02*
D03*
D12*
X0321949Y0237392D02*
D03*
Y0234892D02*
D03*
Y0232392D02*
D03*
Y0229892D02*
D03*
Y0227392D02*
D03*
Y0224892D02*
D03*
Y0222392D02*
D03*
Y0219892D02*
D03*
X0342421Y0237392D02*
D03*
Y0234892D02*
D03*
Y0232392D02*
D03*
Y0229892D02*
D03*
Y0227392D02*
D03*
Y0224892D02*
D03*
Y0222392D02*
D03*
Y0219892D02*
D03*
D13*
X0323241Y0209506D02*
D03*
Y0204505D02*
D03*
Y0199505D02*
D03*
Y0194506D02*
D03*
X0344304Y0209506D02*
D03*
Y0204505D02*
D03*
Y0199505D02*
D03*
Y0194506D02*
D03*
D14*
X0217717Y0275492D02*
D03*
X022126D02*
D03*
X0221654Y0267717D02*
D03*
X021811D02*
D03*
X0114764Y0202756D02*
D03*
X0111221D02*
D03*
X0114764Y0214567D02*
D03*
X0111221D02*
D03*
X0114764Y0226378D02*
D03*
X0111221D02*
D03*
X0114764Y0238189D02*
D03*
X0111221D02*
D03*
X0170669Y0259744D02*
D03*
X0167126D02*
D03*
X0275343Y02426D02*
D03*
X02718D02*
D03*
X0274772Y01703D02*
D03*
X0271228D02*
D03*
X0274772Y0175D02*
D03*
X0271228D02*
D03*
X0272222Y02336D02*
D03*
X0275765D02*
D03*
X0275472Y02387D02*
D03*
X0271928D02*
D03*
X0345571Y0215945D02*
D03*
X0342028D02*
D03*
D15*
X0233465Y0267717D02*
D03*
X0226965D02*
D03*
D16*
X0230217Y0275492D02*
D03*
X0226083D02*
D03*
X0109744Y0234252D02*
D03*
X0113878D02*
D03*
Y0222441D02*
D03*
X0109744D02*
D03*
Y021063D02*
D03*
X0113878D02*
D03*
Y0198819D02*
D03*
X0109744D02*
D03*
D17*
X0145079Y0132913D02*
D03*
Y0152913D02*
D03*
X0140079Y0132913D02*
D03*
Y0152913D02*
D03*
X0135079Y0132913D02*
D03*
Y0152913D02*
D03*
X0130079Y0132913D02*
D03*
Y0152913D02*
D03*
D18*
X0190551Y0272047D02*
D03*
X0169291D02*
D03*
D19*
X0318924Y0215999D02*
D03*
X0322074D02*
D03*
X0326347Y0188206D02*
D03*
X0323198D02*
D03*
X0271325Y01808D02*
D03*
X0274475D02*
D03*
X0271425Y02002D02*
D03*
X0274575D02*
D03*
D20*
X02579Y0157475D02*
D03*
Y0154325D02*
D03*
X01939Y0156475D02*
D03*
Y0153325D02*
D03*
X02468Y0157475D02*
D03*
Y0154325D02*
D03*
D21*
X02236Y0157156D02*
D03*
Y0151644D02*
D03*
X01985Y0150844D02*
D03*
Y0156356D02*
D03*
X02522Y0151644D02*
D03*
Y0157156D02*
D03*
X02187Y0151644D02*
D03*
Y0157156D02*
D03*
X02414Y0151644D02*
D03*
Y0157156D02*
D03*
D22*
X0271644Y02043D02*
D03*
X0277156D02*
D03*
X0245144Y02539D02*
D03*
X0250656D02*
D03*
X0277156Y01849D02*
D03*
X0271644D02*
D03*
D23*
X01447Y02526D02*
D03*
Y0256143D02*
D03*
X01366Y02525D02*
D03*
Y0256043D02*
D03*
X01286Y0252528D02*
D03*
Y0256072D02*
D03*
X01206Y0252528D02*
D03*
Y0256072D02*
D03*
X01487Y02526D02*
D03*
Y0256143D02*
D03*
X01406Y02525D02*
D03*
Y0256043D02*
D03*
X01326Y0252528D02*
D03*
Y0256072D02*
D03*
X01246Y0252528D02*
D03*
Y0256072D02*
D03*
X01187Y0281228D02*
D03*
Y0284772D02*
D03*
X01287Y0281228D02*
D03*
Y0284772D02*
D03*
X01387Y0281228D02*
D03*
Y0284772D02*
D03*
X01487Y0281228D02*
D03*
Y0284772D02*
D03*
D32*
X0313583Y0189173D02*
D03*
X0175984Y0147795D02*
D03*
Y0137795D02*
D03*
X0289469Y0183169D02*
D03*
X0260531Y0271358D02*
D03*
X0112205Y0124409D02*
D03*
Y0114409D02*
D03*
X034813Y029252D02*
D03*
Y028252D02*
D03*
Y0265787D02*
D03*
Y0255787D02*
D03*
X0163863Y0147833D02*
D03*
Y0137833D02*
D03*
X036Y0205D02*
D03*
D33*
X0354331Y0161417D02*
D03*
X0329921D02*
D03*
D34*
X034252Y0181102D02*
D03*
D35*
X01587Y02738D02*
D03*
Y02638D02*
D03*
X01487Y02738D02*
D03*
Y02638D02*
D03*
X01387Y02738D02*
D03*
Y02638D02*
D03*
X01287Y02738D02*
D03*
Y02638D02*
D03*
X01187Y02738D02*
D03*
X01322Y01776D02*
D03*
Y01876D02*
D03*
Y01976D02*
D03*
Y02076D02*
D03*
Y02176D02*
D03*
Y01676D02*
D03*
X01422D02*
D03*
X01522D02*
D03*
X02767Y01375D02*
D03*
X02867D02*
D03*
X01222Y02176D02*
D03*
Y02076D02*
D03*
Y01976D02*
D03*
Y01876D02*
D03*
Y01776D02*
D03*
X0273524Y0270886D02*
D03*
Y0260886D02*
D03*
X0301634Y0239173D02*
D03*
X0311634D02*
D03*
X01422Y01776D02*
D03*
Y01876D02*
D03*
Y01976D02*
D03*
Y02076D02*
D03*
Y02176D02*
D03*
X01522D02*
D03*
Y02076D02*
D03*
Y01976D02*
D03*
Y01876D02*
D03*
Y01776D02*
D03*
D36*
X01187Y02638D02*
D03*
X01222Y01676D02*
D03*
X02967Y01375D02*
D03*
X0291634Y0239173D02*
D03*
D37*
X01322Y02276D02*
D03*
X01222D02*
D03*
X0273524Y0250886D02*
D03*
X01422Y02276D02*
D03*
X01522D02*
D03*
D38*
X0305394Y0199941D02*
D03*
X0295394D02*
D03*
X0305394Y0209941D02*
D03*
X0295394D02*
D03*
X0305394Y0219941D02*
D03*
X0295394D02*
D03*
D39*
X0209Y03D02*
D03*
X0199D02*
D03*
X0189D02*
D03*
X0179D02*
D03*
X0169D02*
D03*
X0159D02*
D03*
X0149D02*
D03*
X0139D02*
D03*
X0129D02*
D03*
X0119D02*
D03*
X0225Y011D02*
D03*
X0215D02*
D03*
X0205D02*
D03*
X0195D02*
D03*
X0185D02*
D03*
X0175D02*
D03*
X0165D02*
D03*
X0155D02*
D03*
X0245D02*
D03*
X0255D02*
D03*
X0265D02*
D03*
X0275D02*
D03*
X0285D02*
D03*
X0295D02*
D03*
Y03D02*
D03*
X0285D02*
D03*
X0275D02*
D03*
X0265D02*
D03*
X0255D02*
D03*
X0245D02*
D03*
X0235D02*
D03*
X0225D02*
D03*
D40*
X036Y024D02*
D03*
M02*
