%FSTAX25Y25*%
%MOIN*%
G70*
G01*
G75*
G04 Layer_Physical_Order=1*
G04 Layer_Color=255*
%ADD10O,0.07087X0.01181*%
%ADD11O,0.01181X0.07087*%
%ADD12O,0.07284X0.01378*%
%ADD13R,0.08071X0.02756*%
%ADD14R,0.01772X0.02165*%
%ADD15R,0.03150X0.03150*%
%ADD16R,0.01575X0.02559*%
%ADD17R,0.02992X0.06299*%
%ADD18R,0.07874X0.06299*%
%ADD19R,0.02047X0.02047*%
%ADD20R,0.02047X0.02047*%
%ADD21R,0.03543X0.02756*%
%ADD22R,0.02756X0.03543*%
%ADD23R,0.02165X0.01772*%
%ADD24C,0.01000*%
%ADD25C,0.00500*%
%ADD26C,0.03000*%
%ADD27C,0.00700*%
%ADD28C,0.02000*%
%ADD29C,0.00669*%
%ADD30C,0.00591*%
%ADD31R,0.25197X0.25197*%
%ADD32C,0.06000*%
%ADD33P,0.12784X8X202.5*%
%ADD34P,0.12784X8X292.5*%
%ADD35C,0.05906*%
%ADD36R,0.05906X0.05906*%
%ADD37R,0.05906X0.05906*%
%ADD38P,0.06711X8X292.5*%
%ADD39O,0.05600X0.11200*%
%ADD40C,0.12600*%
%ADD41C,0.01969*%
%ADD42C,0.01600*%
%ADD43C,0.05000*%
%ADD44C,0.01595*%
%ADD45C,0.02800*%
D10*
X0181124Y017101D02*
D03*
Y0172979D02*
D03*
Y0174947D02*
D03*
Y0176916D02*
D03*
Y0178884D02*
D03*
Y0180853D02*
D03*
Y0182821D02*
D03*
Y018479D02*
D03*
Y0186758D02*
D03*
Y0188727D02*
D03*
Y0190695D02*
D03*
Y0192664D02*
D03*
Y0194632D02*
D03*
Y0196601D02*
D03*
Y0198569D02*
D03*
Y0200538D02*
D03*
Y0202506D02*
D03*
Y0204475D02*
D03*
Y0206443D02*
D03*
Y0208412D02*
D03*
Y021038D02*
D03*
Y0212349D02*
D03*
Y0214317D02*
D03*
Y0216286D02*
D03*
Y0218254D02*
D03*
Y0220223D02*
D03*
Y0222191D02*
D03*
Y022416D02*
D03*
Y0226128D02*
D03*
Y0228097D02*
D03*
Y0230065D02*
D03*
Y0232034D02*
D03*
Y0234002D02*
D03*
Y0235971D02*
D03*
Y0237939D02*
D03*
Y0239908D02*
D03*
X0264194D02*
D03*
Y0237939D02*
D03*
Y0235971D02*
D03*
Y0234002D02*
D03*
Y0232034D02*
D03*
Y0230065D02*
D03*
Y0228097D02*
D03*
Y0226128D02*
D03*
Y022416D02*
D03*
Y0222191D02*
D03*
Y0220223D02*
D03*
Y0218254D02*
D03*
Y0216286D02*
D03*
Y0214317D02*
D03*
Y0212349D02*
D03*
Y021038D02*
D03*
Y0208412D02*
D03*
Y0206443D02*
D03*
Y0204475D02*
D03*
Y0202506D02*
D03*
Y0200538D02*
D03*
Y0198569D02*
D03*
Y0196601D02*
D03*
Y0194632D02*
D03*
Y0192664D02*
D03*
Y0190695D02*
D03*
Y0188727D02*
D03*
Y0186758D02*
D03*
Y018479D02*
D03*
Y0182821D02*
D03*
Y0180853D02*
D03*
Y0178884D02*
D03*
Y0176916D02*
D03*
Y0174947D02*
D03*
Y0172979D02*
D03*
Y017101D02*
D03*
D11*
X018821Y0246994D02*
D03*
X0190179D02*
D03*
X0192147D02*
D03*
X0194116D02*
D03*
X0196084D02*
D03*
X0198053D02*
D03*
X0200021D02*
D03*
X020199D02*
D03*
X0203958D02*
D03*
X0205927D02*
D03*
X0207895D02*
D03*
X0209864D02*
D03*
X0211832D02*
D03*
X0213801D02*
D03*
X0215769D02*
D03*
X0217738D02*
D03*
X0219706D02*
D03*
X0221675D02*
D03*
X0223643D02*
D03*
X0225612D02*
D03*
X022758D02*
D03*
X0229549D02*
D03*
X0231517D02*
D03*
X0233486D02*
D03*
X0235454D02*
D03*
X0237423D02*
D03*
X0239391D02*
D03*
X024136D02*
D03*
X0243328D02*
D03*
X0245297D02*
D03*
X0247265D02*
D03*
X0249234D02*
D03*
X0251202D02*
D03*
X0253171D02*
D03*
X0255139D02*
D03*
X0257108D02*
D03*
Y0163924D02*
D03*
X0255139D02*
D03*
X0253171D02*
D03*
X0251202D02*
D03*
X0249234D02*
D03*
X0247265D02*
D03*
X0245297D02*
D03*
X0243328D02*
D03*
X024136D02*
D03*
X0239391D02*
D03*
X0237423D02*
D03*
X0235454D02*
D03*
X0233486D02*
D03*
X0231517D02*
D03*
X0229549D02*
D03*
X022758D02*
D03*
X0225612D02*
D03*
X0223643D02*
D03*
X0221675D02*
D03*
X0219706D02*
D03*
X0217738D02*
D03*
X0215769D02*
D03*
X0213801D02*
D03*
X0211832D02*
D03*
X0209864D02*
D03*
X0207895D02*
D03*
X0205927D02*
D03*
X0203958D02*
D03*
X020199D02*
D03*
X0200021D02*
D03*
X0198053D02*
D03*
X0196084D02*
D03*
X0194116D02*
D03*
X0192147D02*
D03*
X0190179D02*
D03*
X018821D02*
D03*
D12*
X0321949Y0237392D02*
D03*
Y0234892D02*
D03*
Y0232392D02*
D03*
Y0229892D02*
D03*
Y0227392D02*
D03*
Y0224892D02*
D03*
Y0222392D02*
D03*
Y0219892D02*
D03*
X0342421Y0237392D02*
D03*
Y0234892D02*
D03*
Y0232392D02*
D03*
Y0229892D02*
D03*
Y0227392D02*
D03*
Y0224892D02*
D03*
Y0222392D02*
D03*
Y0219892D02*
D03*
D13*
X0323241Y0209506D02*
D03*
Y0204505D02*
D03*
Y0199505D02*
D03*
Y0194506D02*
D03*
X0344304Y0209506D02*
D03*
Y0204505D02*
D03*
Y0199505D02*
D03*
Y0194506D02*
D03*
D14*
X0217717Y0275492D02*
D03*
X022126D02*
D03*
X0221654Y0267717D02*
D03*
X021811D02*
D03*
X0114764Y0202756D02*
D03*
X0111221D02*
D03*
X0114764Y0214567D02*
D03*
X0111221D02*
D03*
X0114764Y0226378D02*
D03*
X0111221D02*
D03*
X0114764Y0238189D02*
D03*
X0111221D02*
D03*
X0170669Y0259744D02*
D03*
X0167126D02*
D03*
X0275343Y02426D02*
D03*
X02718D02*
D03*
X0274772Y01703D02*
D03*
X0271228D02*
D03*
X0274772Y0175D02*
D03*
X0271228D02*
D03*
X0272222Y02336D02*
D03*
X0275765D02*
D03*
X0275472Y02387D02*
D03*
X0271928D02*
D03*
X0345571Y0215945D02*
D03*
X0342028D02*
D03*
D15*
X0233465Y0267717D02*
D03*
X0226965D02*
D03*
D16*
X0230217Y0275492D02*
D03*
X0226083D02*
D03*
X0109744Y0234252D02*
D03*
X0113878D02*
D03*
Y0222441D02*
D03*
X0109744D02*
D03*
Y021063D02*
D03*
X0113878D02*
D03*
Y0198819D02*
D03*
X0109744D02*
D03*
D17*
X0145079Y0132913D02*
D03*
Y0152913D02*
D03*
X0140079Y0132913D02*
D03*
Y0152913D02*
D03*
X0135079Y0132913D02*
D03*
Y0152913D02*
D03*
X0130079Y0132913D02*
D03*
Y0152913D02*
D03*
D18*
X0190551Y0272047D02*
D03*
X0169291D02*
D03*
D19*
X0318924Y0215999D02*
D03*
X0322074D02*
D03*
X0326347Y0188206D02*
D03*
X0323198D02*
D03*
X0271325Y01808D02*
D03*
X0274475D02*
D03*
X0271425Y02002D02*
D03*
X0274575D02*
D03*
D20*
X02579Y0157475D02*
D03*
Y0154325D02*
D03*
X01939Y0156475D02*
D03*
Y0153325D02*
D03*
X02468Y0157475D02*
D03*
Y0154325D02*
D03*
D21*
X02236Y0157156D02*
D03*
Y0151644D02*
D03*
X01985Y0150844D02*
D03*
Y0156356D02*
D03*
X02522Y0151644D02*
D03*
Y0157156D02*
D03*
X02187Y0151644D02*
D03*
Y0157156D02*
D03*
X02414Y0151644D02*
D03*
Y0157156D02*
D03*
D22*
X0271644Y02043D02*
D03*
X0277156D02*
D03*
X0245144Y02539D02*
D03*
X0250656D02*
D03*
X0277156Y01849D02*
D03*
X0271644D02*
D03*
D23*
X01447Y02526D02*
D03*
Y0256143D02*
D03*
X01366Y02525D02*
D03*
Y0256043D02*
D03*
X01286Y0252528D02*
D03*
Y0256072D02*
D03*
X01206Y0252528D02*
D03*
Y0256072D02*
D03*
X01487Y02526D02*
D03*
Y0256143D02*
D03*
X01406Y02525D02*
D03*
Y0256043D02*
D03*
X01326Y0252528D02*
D03*
Y0256072D02*
D03*
X01246Y0252528D02*
D03*
Y0256072D02*
D03*
X01187Y0281228D02*
D03*
Y0284772D02*
D03*
X01287Y0281228D02*
D03*
Y0284772D02*
D03*
X01387Y0281228D02*
D03*
Y0284772D02*
D03*
X01487Y0281228D02*
D03*
Y0284772D02*
D03*
D24*
X0264194Y0235971D02*
X0264247Y0236024D01*
X0271924D02*
X0272Y02361D01*
X0264247Y0236024D02*
X0271924D01*
X0277522Y02336D02*
X0277559Y0233563D01*
X0275765Y02336D02*
X0277522D01*
X0275765D02*
X0275802Y0233563D01*
X0313583Y0189173D02*
Y0196949D01*
X0316139Y0199505D01*
X0323241D01*
X01587Y02738D02*
X0165176D01*
X0168701Y0270276D01*
X0190551Y0262598D02*
Y0272047D01*
X0187697Y0259744D02*
X0190551Y0262598D01*
X0170669Y0259744D02*
X0187697D01*
X0280807Y0290256D02*
X0282087Y0288976D01*
X0258366Y0290256D02*
X0280807D01*
X0215748Y0275492D02*
X0217717D01*
X0240514Y0148885D02*
Y0151841D01*
X024498Y029998D02*
X0245Y03D01*
X024498Y0272638D02*
Y029998D01*
X0250201Y0253445D02*
X0250656Y02539D01*
X0248228Y0253445D02*
X0250201D01*
X0230835Y0274874D02*
X0230906Y0274803D01*
X0230217Y0275492D02*
X0230835Y0274874D01*
X0230194Y0274899D02*
X0230835Y0274874D01*
X0230194Y0274899D02*
X0230194D01*
X0230118Y0274902D02*
X0230194Y0274899D01*
X0230906Y0274803D02*
X0232677D01*
X0322155Y0232185D02*
X0327953D01*
X0264194Y0232034D02*
X02686D01*
X0244591Y0253346D02*
X0245144Y02539D01*
X0242618Y0253346D02*
X0244591D01*
X0251202Y0253354D02*
X0251209Y0253346D01*
X0250656Y02539D02*
X0251202Y0253354D01*
X0254035Y0273819D02*
X025416D01*
X0255Y0274686D02*
Y03D01*
X0254146Y0273832D02*
X0255Y0274686D01*
X0254146Y0273832D02*
X025416Y0273819D01*
X0347923Y0237392D02*
X0347933Y0237402D01*
X0344346Y0209547D02*
X0350197D01*
X0323198Y0188206D02*
Y0194462D01*
X01487Y02738D02*
Y0281228D01*
X0316732Y0222441D02*
X0316781Y0222392D01*
X0321949D01*
X0342421Y0237392D02*
X0347923D01*
X0321949Y0232392D02*
X0322155Y0232185D01*
X0323198Y0194462D02*
X0323241Y0194506D01*
Y0199505D02*
X0332675D01*
X0332677Y0199508D01*
X0316776Y0215999D02*
X0318924D01*
X0316732Y0216043D02*
X0316776Y0215999D01*
X0322172Y0215802D02*
Y0219668D01*
X0321949Y0219892D02*
X0322172Y0219668D01*
X0324453Y0215999D02*
X0324508Y0215945D01*
X0322074Y0215999D02*
X0324453D01*
X0344304Y0209506D02*
X0344346Y0209547D01*
X0227358Y0267618D02*
X0227854D01*
X0216043Y0267717D02*
X021811D01*
X01939Y0156475D02*
X0194116Y0156691D01*
Y0163924D01*
X0174688Y0202496D02*
X0181113D01*
X01279Y0252647D02*
X01284Y0252147D01*
X01246Y02504D02*
Y0252528D01*
X01326Y02504D02*
Y0252528D01*
X01406Y0250372D02*
Y02525D01*
X01487Y0250472D02*
Y02526D01*
X01445Y02524D02*
X01447Y02526D01*
X01286Y0256072D02*
Y02633D01*
X01206Y0256072D02*
X01246D01*
X01286Y02633D02*
X01296Y02643D01*
X01286Y0256072D02*
X01326D01*
X01366Y0256043D02*
X01406D01*
X01447Y0256143D02*
X01487D01*
X01366Y0256043D02*
X01369Y0256343D01*
Y0262D02*
X01387Y02638D01*
X01369Y0256343D02*
Y0262D01*
X01389Y02636D02*
X01396Y02643D01*
X01487Y02634D02*
Y02638D01*
Y0256143D02*
Y02634D01*
X01496Y02643D01*
X01206Y0256072D02*
Y02619D01*
X01187Y02638D02*
X01206Y02619D01*
X01387Y02738D02*
Y0281228D01*
X01287Y02738D02*
Y0281228D01*
X01187Y02738D02*
Y0281228D01*
X02577Y02126D02*
Y02127D01*
X0274575Y02002D02*
X02764D01*
X0277156Y02043D02*
Y0207244D01*
X0259325Y0204475D02*
X0264194D01*
X0251202Y0246994D02*
Y0253354D01*
X0249234Y0242101D02*
Y0246994D01*
X0264194Y0180853D02*
X0271325D01*
X0270613Y0201013D02*
X02714Y0200225D01*
X0271425Y02002D02*
Y02002D01*
X0269587Y0201013D02*
X0270613D01*
X0268094Y0202506D02*
X0269587Y0201013D01*
X0264194Y0202506D02*
X0268094D01*
X0271272Y0180853D02*
X0271325Y01808D01*
X0256125Y01575D02*
X0257108Y0158483D01*
X02522Y01489D02*
Y0151644D01*
X0257108Y0158483D02*
Y0163924D01*
X0247265Y0158109D02*
Y0163924D01*
X0181154Y01986D02*
X01862D01*
X0181124Y0198569D02*
X0181154Y01986D01*
X01985Y0156356D02*
X0201544D01*
X0194019D02*
X01985D01*
X0223Y01575D02*
X0224302D01*
X0215744Y0157156D02*
X02187D01*
X02157Y01572D02*
X0215744Y0157156D01*
X02157Y0151688D02*
X0215744Y0151644D01*
X02578Y02005D02*
X0257838Y0200538D01*
X0264194D01*
X0221612Y0246974D02*
X0221633Y0246953D01*
X0231507Y0240559D02*
Y0246984D01*
X022557Y0247036D02*
X0225622D01*
Y025343D01*
X0187805Y02474D02*
X018821Y0246994D01*
X01865Y02474D02*
X0187805D01*
X0181124Y0186758D02*
X0186458D01*
X0180033D02*
X0181124D01*
X01762Y01888D02*
X0176273Y0188727D01*
X0181124D01*
X024136Y0163924D02*
X02414Y0163883D01*
Y0157156D02*
Y0163883D01*
X0238444Y0157156D02*
X02414D01*
X02384Y01572D02*
X0238444Y0157156D01*
X0224302Y01575D02*
X0225602Y01588D01*
X0221675Y0158825D02*
X0223Y01575D01*
X019195Y01533D02*
X0192D01*
X0191925Y0153325D02*
X01939D01*
X0191925D02*
X019195Y01533D01*
X0192147Y0163924D02*
Y0168817D01*
X0225602Y01588D02*
Y0163913D01*
X0221675Y0158825D02*
Y0163924D01*
X0223685Y0163965D02*
Y0168859D01*
X017623Y0214317D02*
X0181124D01*
X0235465Y01596D02*
Y0163934D01*
X0211811Y0163945D02*
X0211832Y0163924D01*
Y0246994D02*
Y0251888D01*
X0176198Y0200506D02*
X0181092D01*
X0176198Y020838D02*
X0181092D01*
X0264194Y0194632D02*
X0269088D01*
X0241297Y0247015D02*
X0241318Y0247036D01*
X0211811Y0159031D02*
Y0163945D01*
X0181155Y0232065D02*
X0186049D01*
X0257108Y0242101D02*
Y0246994D01*
X0257801Y0208443D02*
X0264163D01*
X0264194Y0208412D01*
X0326347Y0188206D02*
X0329072D01*
X0275343Y02426D02*
X0277572D01*
X0272Y02361D02*
Y0238628D01*
X0271928Y02387D02*
X0272Y0238628D01*
Y0233772D02*
Y02361D01*
X0271828Y02336D02*
X0272Y0233772D01*
X0275472Y02387D02*
X02777D01*
X0264247Y0175D02*
X0271228D01*
X0264194Y0174947D02*
X0264247Y0175D01*
X0274772D02*
X02769D01*
X0274772Y01703D02*
X02769D01*
X0260275Y0154325D02*
X02603Y01543D01*
X02574Y0154325D02*
X0260275D01*
X0244425D02*
X02473D01*
X02444Y015435D02*
X0244425Y0154325D01*
X0320472Y0188206D02*
X0323198D01*
X02216Y02397D02*
X0221685Y0239785D01*
Y0246984D01*
X02236Y0246954D02*
X0223602Y0246953D01*
X02236Y0246954D02*
Y02518D01*
X0198Y02422D02*
Y0246942D01*
X0198053Y0246994D01*
X0198425Y014813D02*
X01985Y0148205D01*
X0198425Y014813D02*
Y0150689D01*
X019813Y0150984D02*
X0198425Y0150689D01*
X01587Y02638D02*
X016307D01*
X0167126Y0259744D01*
X0170669Y0254134D02*
Y0259744D01*
X0164061Y0201476D02*
X0168936Y0196601D01*
X0181124D01*
X0109744Y0196161D02*
Y0198819D01*
Y0207972D02*
Y021063D01*
Y0219783D02*
Y0222441D01*
Y0231594D02*
Y0234252D01*
X0145079Y0128661D02*
Y0132913D01*
X0140079Y0128661D02*
Y0132913D01*
X0135079Y0128661D02*
Y0132913D01*
X0130079Y0128661D02*
Y0132913D01*
X0345571Y0215945D02*
X0347399D01*
X0271228Y0175D02*
Y0176839D01*
X027185Y0177461D01*
X0284055D01*
X029065Y0184055D01*
D25*
X0282228Y0277209D02*
X0284252Y0279232D01*
X0282228Y0256927D02*
Y0277209D01*
X0272933Y0172539D02*
X0278051D01*
X0271228Y0170835D02*
X0272933Y0172539D01*
X0271228Y01703D02*
Y0170835D01*
X0280853Y021038D02*
X0283181Y0212709D01*
X0281194Y0209252D02*
X0284221Y0212278D01*
X028526Y0211197D02*
X0286457Y021D01*
X0280853Y0212349D02*
X0282142Y0213638D01*
X0279429Y0215453D02*
X0281102Y0217126D01*
Y0251969D01*
X0309646Y0268799D02*
X0317224D01*
X0308465Y0267618D02*
X0309646Y0268799D01*
X0308465Y0256988D02*
Y0267618D01*
X0305709Y0254232D02*
X0308465Y0256988D01*
X0292028Y0254232D02*
X0305709D01*
X0283181Y0245386D02*
X0292028Y0254232D01*
X0316043Y026624D02*
X0317224D01*
X0315059Y0265256D02*
X0316043Y026624D01*
X0315059Y0256398D02*
Y0265256D01*
X0311713Y0253051D02*
X0315059Y0256398D01*
X0292316Y0253051D02*
X0311713D01*
X0284221Y0244955D02*
X0292316Y0253051D01*
X0313042Y024989D02*
X0325547Y0262395D01*
X0312612Y0250929D02*
X0323917Y0262235D01*
X0293565Y024989D02*
X0313042D01*
X0287339Y0243664D02*
X0293565Y024989D01*
X0293134Y0250929D02*
X0312612D01*
X0286299Y0244094D02*
X0293134Y0250929D01*
X0312181Y0251969D02*
X0322146Y0261933D01*
X0292704Y0251969D02*
X0312181D01*
X028526Y0244525D02*
X0292704Y0251969D01*
X0286299Y0220591D02*
X028689Y022D01*
X0282142Y0247693D02*
X0283366Y0248917D01*
X0282142Y0213638D02*
Y0247693D01*
X0286299Y0220591D02*
Y0244094D01*
X0287339Y0231165D02*
X0288484Y023002D01*
X0287339Y0231165D02*
Y0243664D01*
X028526Y0211197D02*
Y0244525D01*
X0284221Y0212278D02*
Y0244955D01*
X0283181Y0212709D02*
Y0245386D01*
X0264194Y017101D02*
X0264247Y0170958D01*
X0270571D01*
X0271228Y01703D01*
X0279331Y0229921D02*
Y0254029D01*
X0282228Y0256927D01*
X028689Y022D02*
X02955D01*
X0288484Y023002D02*
X030561D01*
X0264194Y0212349D02*
X0280853D01*
X027126Y0209252D02*
X0281194D01*
X0264194Y021038D02*
X0280853D01*
X0286457Y021D02*
X02955D01*
X0277165Y0227756D02*
X0279331Y0229921D01*
X030561Y023002D02*
X0310433Y0225197D01*
X0295177Y0286811D02*
Y028691D01*
Y028061D02*
Y0286811D01*
X0273524Y0250886D02*
X0278642Y0256004D01*
Y0281594D01*
X0293799Y0292126D02*
X029685Y0289075D01*
Y0280814D02*
Y0289075D01*
X029498Y0278943D02*
X029685Y0280814D01*
X0284252Y0279232D02*
X0293799D01*
X0295177Y028061D01*
X029498Y0271358D02*
Y0278943D01*
X0277165Y0215354D02*
Y0227756D01*
X0276128Y0214317D02*
X0277165Y0215354D01*
X0264194Y0214317D02*
X0276128D01*
X0266142Y0292126D02*
X0293799D01*
X0258071Y0257776D02*
X0260531Y0255315D01*
X021121Y0257776D02*
X0258071D01*
X0210594Y0257159D02*
X021121Y0257776D01*
X020199Y0257459D02*
X0202289Y0257159D01*
X0210594D01*
X0250682Y0267717D02*
X0257722Y0260677D01*
X0233465Y0267717D02*
X0250682D01*
X0322146Y0261933D02*
Y0273917D01*
X0325492Y0284154D02*
X0325547Y0284098D01*
Y0262395D02*
Y0284098D01*
X0323917Y0262235D02*
Y0280906D01*
X0310433Y0211713D02*
Y0225197D01*
X030872Y021D02*
X0310433Y0211713D01*
X03055Y021D02*
X030872D01*
X0335531Y0286713D02*
X0335546Y0286698D01*
Y0233253D02*
Y0286698D01*
Y0233253D02*
X0336407Y0232392D01*
X0333957Y0225787D02*
Y0279134D01*
Y0225787D02*
X0334852Y0224892D01*
X0336407Y0232392D02*
X0342421D01*
X0334852Y0224892D02*
X0342421D01*
X0354641Y0201491D02*
Y0225462D01*
X0352348Y0199198D02*
X0354641Y0201491D01*
X035271Y0227392D02*
X0354641Y0225462D01*
X02694Y0242224D02*
X0269776Y02426D01*
X025315Y0238681D02*
Y0242126D01*
Y0238681D02*
X0254823Y0237008D01*
X0256594D01*
X0258942Y0231506D02*
Y025378D01*
X0257395Y0255327D02*
X0258942Y025378D01*
X0260531Y0247736D02*
Y0255315D01*
X0258942Y0231506D02*
X0259673Y0230776D01*
Y0229459D02*
Y0230776D01*
X0259646Y0229432D02*
X0259673Y0229459D01*
X020199Y0246994D02*
Y0279035D01*
X02Y0247016D02*
Y0277362D01*
X0196063Y0247016D02*
Y0269783D01*
X0194177Y0247056D02*
Y0266027D01*
X0257972Y0260433D02*
X0257998D01*
X0257395Y0255327D02*
Y0255623D01*
X0195965Y0269685D02*
X0196063Y0269587D01*
X0195965Y0269685D02*
X0196063Y0269783D01*
Y0247016D02*
X0196084Y0246994D01*
X02Y0247016D02*
X0200021Y0246994D01*
X0194116D02*
X0194177Y0247056D01*
X0327067Y0217815D02*
Y022874D01*
Y0217815D02*
X0328346Y0216535D01*
X0268451Y0206443D02*
X027126Y0209252D01*
X0264194Y0206443D02*
X0268451D01*
X0259646Y0224705D02*
Y0229432D01*
Y0224705D02*
X0260191Y022416D01*
X0264194D01*
X0258066Y02301D02*
X0258084Y0230118D01*
X02523Y02301D02*
X0258066D01*
X0265Y0293268D02*
X0266142Y0292126D01*
X0265Y0293268D02*
Y03D01*
X0264149Y0218209D02*
X0264194Y0218254D01*
X0252756Y0218209D02*
X0264149D01*
X02494Y01765D02*
Y02272D01*
Y01765D02*
X0252921Y0172979D01*
X02494Y02272D02*
X02523Y02301D01*
X0342421Y0227392D02*
X035271D01*
X0269776Y02426D02*
X02718D01*
X02694Y02388D02*
Y0242224D01*
X0325915Y0229892D02*
X0327067Y022874D01*
X0321949Y0229892D02*
X0325915D01*
X0341545Y0215758D02*
Y0219892D01*
X0341437Y021565D02*
X0341545Y0215758D01*
X0344611Y0199198D02*
X0352348D01*
X0344304Y0199505D02*
X0344611Y0199198D01*
X0347923Y0219892D02*
X0347933Y0219882D01*
X0342421Y0219892D02*
X0347923D01*
X035018Y0194506D02*
X0350197Y0194488D01*
X0344304Y0194506D02*
X035018D01*
X014311Y0221457D02*
X0165945D01*
X01422Y0220547D02*
X014311Y0221457D01*
X01422Y02176D02*
Y0220547D01*
X0153742Y0211417D02*
X0156496Y0208663D01*
Y0206791D02*
Y0208663D01*
Y0206791D02*
X0168655Y0194632D01*
X0158661Y0181398D02*
X0181004Y0159055D01*
X01222Y0223578D02*
X0122343Y0223721D01*
X01222Y02176D02*
Y0223578D01*
X0122047Y02036D02*
X01222Y0203447D01*
Y01976D02*
Y0203447D01*
X0180774Y0157809D02*
X0190691D01*
X0181004Y0159055D02*
X0189855D01*
X0160983Y01776D02*
X0180774Y0157809D01*
X0196Y0164008D02*
X0196084Y0163924D01*
X0196Y0164008D02*
Y01688D01*
X0190179Y0159379D02*
Y0163924D01*
X018821D02*
Y016819D01*
X0187114Y0169286D02*
X018821Y016819D01*
X01422Y01776D02*
Y01808D01*
X01322Y01776D02*
Y01817D01*
X01222Y01776D02*
Y01818D01*
X0164457Y0206443D02*
X0181124D01*
X01422Y01876D02*
Y01909D01*
X01322Y01876D02*
Y019185D01*
X01222Y01876D02*
Y01921D01*
X0181071Y01808D02*
X0181124Y0180853D01*
X01422Y01976D02*
Y02008D01*
X0180228Y0180853D02*
X0181124D01*
X01322Y01976D02*
Y02016D01*
X01422Y02076D02*
Y02103D01*
X01222Y02076D02*
Y0213547D01*
X0172846Y0218254D02*
X0181124D01*
X01322Y02176D02*
Y022145D01*
X025932Y0198569D02*
X0264194D01*
X02627Y01984D02*
X0264194D01*
Y0198569D02*
X0264225Y01986D01*
X0227549Y0240601D02*
Y0247026D01*
X0227539Y0247036D02*
X0227549Y0247026D01*
X0235413Y0247036D02*
X023545Y0246999D01*
Y0240628D02*
Y0246999D01*
X0235423Y0240601D02*
X023545Y0240628D01*
X0233424Y02421D02*
X02339D01*
X0233423Y0242101D02*
X0233424Y02421D01*
X0223602Y0246953D02*
X0223612Y0246963D01*
X0231565Y0163971D02*
Y0190554D01*
X0231459Y0163982D02*
X0231517Y0163924D01*
X0219659Y0163971D02*
X0219706Y0163924D01*
X0200063Y0163965D02*
Y0168859D01*
X0200021Y0163924D02*
X0200063Y0163965D01*
X0202Y0163934D02*
Y0170359D01*
X020199Y0163924D02*
X0202Y0163934D01*
X0203937Y0163945D02*
Y0168859D01*
Y0163945D02*
X0203958Y0163924D01*
X0205937Y0163934D02*
Y0170359D01*
X0205927Y0163924D02*
X0205937Y0163934D01*
X0207937Y0163965D02*
Y0168859D01*
X0207895Y0163924D02*
X0207937Y0163965D01*
X0209874Y0163934D02*
Y0170359D01*
X0209864Y0163924D02*
X0209874Y0163934D01*
X0213811Y0163934D02*
Y0170359D01*
X0213801Y0163924D02*
X0213811Y0163934D01*
X0215811Y0163965D02*
Y0168859D01*
X0215769Y0163924D02*
X0215811Y0163965D01*
X0217748Y0163934D02*
Y0170359D01*
X0217738Y0163924D02*
X0217748Y0163934D01*
X0227622Y0163965D02*
Y0168859D01*
X022758Y0163924D02*
X0227622Y0163965D01*
X0229559Y0163934D02*
Y0170359D01*
X0229549Y0163924D02*
X0229559Y0163934D01*
X0233496D02*
Y0170359D01*
X0233486Y0163924D02*
X0233496Y0163934D01*
X0237433Y0163934D02*
Y0170359D01*
X0237423Y0163924D02*
X0237433Y0163934D01*
X0239433Y0163965D02*
Y0168859D01*
X0239391Y0163924D02*
X0239433Y0163965D01*
X0243307Y0163945D02*
Y0168859D01*
Y0163945D02*
X0243328Y0163924D01*
X0245307Y0163934D02*
Y0170359D01*
X0245297Y0163924D02*
X0245307Y0163934D01*
X0249244Y0163934D02*
Y0170359D01*
X0249234Y0163924D02*
X0249244Y0163934D01*
X0247224Y0247036D02*
X0247234Y0247026D01*
X0245255Y0247036D02*
X0245297Y0246994D01*
Y0242101D02*
Y0246994D01*
X0243287Y0247036D02*
X0243297Y0247026D01*
X023935Y0247036D02*
X023936Y0247026D01*
X0237381Y0247036D02*
X0237423Y0246994D01*
Y0242101D02*
Y0246994D01*
X0229507Y0247036D02*
X0229549Y0246994D01*
X0219665Y0247036D02*
X0219675Y0247026D01*
X0217696Y0247036D02*
X0217738Y0246994D01*
X0215728Y0247036D02*
X0215738Y0247026D01*
X0213738Y0247015D02*
X0213759Y0247036D01*
X021179D02*
X0211801Y0247026D01*
X0209822Y0247036D02*
X0209864Y0246994D01*
X0219706Y0242101D02*
Y0246994D01*
X0207895Y0242101D02*
Y0246994D01*
X0243297Y0240601D02*
Y0247026D01*
X0241402Y0242059D02*
Y0246953D01*
X023936Y0240601D02*
Y0247026D01*
X0233423Y0242101D02*
Y0247015D01*
X0217769Y0240601D02*
Y0247026D01*
X0215832Y0242101D02*
Y0247015D01*
X0213832Y0240601D02*
Y0247026D01*
X0209895Y0240601D02*
Y0247026D01*
X0205958Y0240601D02*
Y0247026D01*
X0204021Y0242101D02*
Y0247015D01*
X0225583Y0208365D02*
X02332Y0215982D01*
Y0226567D01*
X0247234Y0240601D01*
Y0247026D01*
X0225612Y0202465D02*
X02347Y0193376D01*
Y01872D02*
Y0193376D01*
Y01872D02*
X0251202Y0170698D01*
Y0163924D02*
Y0170698D01*
X0198063Y0163934D02*
Y0170359D01*
X02105Y0193224D02*
X0219712Y0202435D01*
X02105Y0182796D02*
Y0193224D01*
X0198063Y0170359D02*
X02105Y0182796D01*
X0219706Y0217194D02*
Y0242101D01*
Y0217194D02*
X0222659Y0214241D01*
X0229549Y0218231D02*
Y0246994D01*
X0222659Y0211341D02*
X0229549Y0218231D01*
X0219659Y0193559D02*
X0222659Y0196559D01*
X0219659Y0163971D02*
Y0193559D01*
X0222659Y0199459D02*
X0231565Y0190554D01*
X0259259Y0186717D02*
X0264153D01*
X0257801Y0184821D02*
X0264226D01*
X0259301Y0182821D02*
X0264194D01*
X0257769Y0176916D02*
X0264194D01*
X0257769Y0216286D02*
X0264194D01*
X0264283Y0238028D02*
X0268628D01*
X02694Y02388D01*
X0252921Y0172979D02*
X0264194D01*
X0259055Y0222191D02*
X0264194D01*
Y0222254D02*
X0264215D01*
X01522Y01776D02*
X0160983D01*
X01522Y01876D02*
X0157676D01*
X0172297Y0172979D01*
X0181124D01*
X0172691Y017101D02*
X0181124D01*
X0171903Y0178884D02*
X0181124D01*
X01522Y01976D02*
X0157518D01*
X0174318Y01808D01*
X0181071D01*
X0122047Y02036D02*
X0156636D01*
X0169541Y0190695D01*
X0181124D01*
X0190691Y0157809D02*
X01908Y01577D01*
X01422Y01909D02*
X0142835Y0191535D01*
X01572Y02137D02*
X0164457Y0206443D01*
X0115631Y02137D02*
X01572D01*
X0171903Y0174947D02*
X0181124D01*
X0142835Y0191535D02*
X0155315D01*
X0171903Y0174947D01*
X0171903Y0176916D02*
X0181124D01*
X0156102Y0192717D02*
X0171903Y0176916D01*
X01322Y019185D02*
X0133066Y0192717D01*
X0156102D01*
X0172789Y0216286D02*
X0181124D01*
X01322Y022145D02*
X0133289Y0222539D01*
X0166535D01*
X0172789Y0216286D01*
X0165945Y0221457D02*
X0175053Y0212349D01*
X0181124D01*
X01522Y02176D02*
X016803D01*
X017525Y021038D01*
X0181124D01*
X0122343Y0223721D02*
X0167379D01*
X0172846Y0218254D01*
X01422Y02103D02*
X0143317Y0211417D01*
X0164128Y0204475D02*
X0181124D01*
X01322Y02076D02*
Y0211235D01*
X0133465Y02125D01*
X0156102D01*
X0164128Y0204475D01*
X0173773Y0182821D02*
X0181124D01*
X0173478Y018479D02*
X0181124D01*
X01422Y02008D02*
X0142876Y0201476D01*
X0155118D01*
X0173773Y0182821D01*
X01322Y02016D02*
X0133159Y0202559D01*
X0155709D01*
X0173478Y018479D01*
X01222Y01921D02*
X0123899Y0193799D01*
X0156988D01*
X0171903Y0178884D01*
X0189855Y0159055D02*
X0190179Y0159379D01*
X0172348Y0169286D02*
X0187114D01*
X01422Y01808D02*
X0142798Y0181398D01*
X0158661D01*
X01222Y01818D02*
X012416Y018376D01*
X0159941D01*
X0172691Y017101D01*
X01322Y01817D02*
X0133177Y0182677D01*
X0158957D01*
X0172348Y0169286D01*
X0209895Y0240601D02*
X0209941Y0240647D01*
Y0240748D01*
X01522Y02076D02*
X0154113D01*
X0169049Y0192664D01*
X0181124D01*
X0168655Y0194632D02*
X0181124D01*
X0143317Y0211417D02*
X0153742D01*
X0114764Y0202756D02*
X0115608Y02036D01*
X0122047D01*
X0113878Y0198819D02*
Y0199508D01*
X0111221Y0202165D02*
X0113878Y0199508D01*
X0111221Y0202165D02*
Y0202756D01*
Y0213976D02*
X0113878Y0211319D01*
X0111221Y0225787D02*
X0113878Y022313D01*
X0111221Y0237598D02*
X0113878Y0234941D01*
X0114764Y0214567D02*
X0115631Y02137D01*
X0114764Y0226378D02*
X0117421Y0223721D01*
X0122343D01*
X01322Y0167013D02*
Y01676D01*
Y0167013D02*
X0135079Y0164134D01*
Y0152913D02*
Y0164134D01*
X0140079Y0152913D02*
Y0164488D01*
X01422Y0166609D02*
Y01676D01*
X0140079Y0164488D02*
X01422Y0166609D01*
X0135039Y0148425D02*
X0135079Y0148465D01*
Y0148425D02*
Y0152913D01*
X0139764Y0148425D02*
Y0152598D01*
X0140079Y0152913D01*
X01Y0094768D02*
X0101866D01*
X0100933D01*
Y0091969D01*
X0103266D02*
X0104199D01*
X0104665Y0092435D01*
Y0093368D01*
X0104199Y0093835D01*
X0103266D01*
X0102799Y0093368D01*
Y0092435D01*
X0103266Y0091969D01*
X0105598Y0091035D02*
Y0093835D01*
X0106998D01*
X0107464Y0093368D01*
Y0092435D01*
X0106998Y0091969D01*
X0105598D01*
D26*
X0279254Y0121653D02*
X02867Y01291D01*
X0183071Y0121653D02*
X0279254D01*
X0175984Y012874D02*
X0183071Y0121653D01*
X02867Y01291D02*
Y01375D01*
X0175984Y012874D02*
Y0137795D01*
D27*
X0261122Y0260728D02*
X0273366D01*
X0235Y0279087D02*
Y03D01*
Y0279087D02*
X0242925Y0271161D01*
X0317471Y0234892D02*
X0321949D01*
X0316535Y0235827D02*
X0317471Y0234892D01*
X0316535Y0235827D02*
Y0251772D01*
X0327362Y0262598D01*
X0273819Y0261181D02*
X0274508Y0260492D01*
X0225Y0286355D02*
X0242104Y0269251D01*
X0225Y0286355D02*
Y03D01*
X0242104Y0269251D02*
X0252599D01*
X0273366Y0260728D02*
X0273524Y0260886D01*
X0252599Y0269251D02*
X0261122Y0260728D01*
X0327362Y0262598D02*
Y0276378D01*
X0315945Y03D02*
X0319767Y0296178D01*
Y0264551D02*
Y0296178D01*
X0318898Y0263681D02*
X0319767Y0264551D01*
X0317323Y0263681D02*
X0318898D01*
X0295Y03D02*
X0315945D01*
X0314075Y0234055D02*
X0316634Y0231496D01*
X0306634Y0234055D02*
X0314075D01*
X0301575Y0239114D02*
X0306634Y0234055D01*
X0331004Y0237392D02*
X0332567Y0235828D01*
Y0206386D02*
Y0235828D01*
X0330807Y0211319D02*
Y0234842D01*
X0316634Y0227165D02*
Y0231496D01*
Y0227165D02*
X031686Y0227392D01*
X0321949D01*
X025315Y0246973D02*
X0253171Y0246994D01*
X025315Y0242126D02*
Y0246973D01*
X0328994Y0209506D02*
X0330807Y0211319D01*
X0323241Y0209506D02*
X0328994D01*
X0331079Y0204898D02*
X0332567Y0206386D01*
X0323633Y0204898D02*
X0331079D01*
X0255118Y0247016D02*
Y0251673D01*
Y0247016D02*
X0255139Y0246994D01*
X0243012Y0271163D02*
Y0271358D01*
X0242925Y0271076D02*
X0243012Y0271163D01*
X0254679Y0220223D02*
X0264194D01*
X0254626Y0220276D02*
X0254679Y0220223D01*
X0321949Y0237392D02*
X0331004D01*
X0330709Y0234941D02*
X0330807Y0234842D01*
X0342421Y0234892D02*
X0342471Y0234842D01*
X0347933D01*
X0257801Y0192695D02*
X0264226D01*
X0323241Y0204505D02*
X0323633Y0204898D01*
X0344304Y0204505D02*
X0344326Y0204528D01*
X0351378D01*
X0301634Y0239173D02*
X0302575Y0238232D01*
X0301575Y0239114D02*
X0301634Y0239173D01*
D28*
X0211811Y0289173D02*
X0217421D01*
X0209646Y0287008D02*
X0211811Y0289173D01*
X0209646Y0259646D02*
Y0287008D01*
X0209646Y0259646D02*
X0209646Y0259646D01*
X0271325Y0180853D02*
Y0184581D01*
X02714Y0204056D02*
X0271949Y0204232D01*
X02714Y0200225D02*
Y0204056D01*
X0271949Y0204232D02*
Y0207176D01*
X0274475Y01808D02*
X0277464D01*
X0277156Y01849D02*
Y0187889D01*
X0271325Y0184581D02*
X0271644Y01849D01*
Y0187889D01*
X0249644Y0155156D02*
X02522D01*
X0254756D01*
X0251881Y0157475D02*
X02579D01*
X02468D02*
X0251881D01*
X02522Y0157156D01*
Y0155156D02*
Y0157156D01*
X0215744Y0151644D02*
X02187D01*
X0226044Y0151644D02*
X02261Y01517D01*
X02236Y0151644D02*
X0226044D01*
X02187Y0157156D02*
X02236D01*
D29*
X0313199Y0224892D02*
X0321949D01*
X0307776Y0230315D02*
X0313199Y0224892D01*
X0264247Y0234055D02*
X0269488D01*
X0264194Y0228097D02*
X0272082D01*
X0264194Y0234002D02*
X0264247Y0234055D01*
X0347884Y0222392D02*
X0347933Y0222342D01*
X0342421Y0222392D02*
X0347884D01*
X0347581Y0229892D02*
X0347933Y0230244D01*
X0342421Y0229892D02*
X0347581D01*
X022726Y0267717D02*
X0227358Y0267618D01*
X0221654Y0267717D02*
X022726D01*
X022126Y0275492D02*
X0226083D01*
X0122736Y0237008D02*
X0166535D01*
X0107874Y025187D02*
X0122736Y0237008D01*
X0123622Y0238583D02*
X0167717D01*
X0109565Y0252639D02*
X0123622Y0238583D01*
X0166535Y0237008D02*
X0175446Y0228097D01*
X0167717Y0238583D02*
X0176234Y0230065D01*
X01222Y02276D02*
Y0235433D01*
X0121063Y0228737D02*
X01222Y02276D01*
X01322D02*
Y02327D01*
X01447Y0249D02*
Y02526D01*
X01366Y02488D02*
Y02525D01*
X01463Y02911D02*
X01487Y02887D01*
X0175677Y0239908D02*
X0181124D01*
X01206Y02493D02*
Y0252528D01*
X01748Y02528D02*
X0188579D01*
X0190179Y0246994D02*
Y02512D01*
X0188579Y02528D02*
X0190179Y02512D01*
X0192147Y0243647D02*
Y0246994D01*
X0190331Y0241831D02*
X0192147Y0243647D01*
X0181124Y0237939D02*
X0185539D01*
X01867Y02391D01*
X01286Y02493D02*
Y0252528D01*
X01387Y0284772D02*
Y02873D01*
X01487Y0284772D02*
Y02887D01*
X01274Y02875D02*
X01287Y02862D01*
Y0284772D02*
Y02862D01*
X0264194Y0226128D02*
X0269159D01*
X01522Y02276D02*
X0165707D01*
X0173084Y0220223D01*
X0181124D01*
X0173872Y0222191D02*
X0181124D01*
X0174659Y022416D02*
X0181124D01*
X0175053Y0226128D02*
X0181124D01*
X0163779Y0232283D02*
X0173872Y0222191D01*
X01322Y02327D02*
X0133358Y0233858D01*
X0164961D01*
X0174659Y022416D01*
X0165748Y0235433D02*
X0175053Y0226128D01*
X01206Y02493D02*
X0126593Y0243307D01*
X0172277D01*
X0175677Y0239908D01*
X01447Y0249D02*
X0145275Y0248425D01*
X0170425D01*
X01748Y02528D01*
X01366Y02488D02*
X013855Y024685D01*
X01286Y02493D02*
X0132624Y0245276D01*
X01114Y0253167D02*
X0124409Y0240158D01*
X01131Y0253829D02*
X0125197Y0241732D01*
X0175446Y0228097D02*
X0181124D01*
X0176234Y0230065D02*
X0181124D01*
X0124409Y0240158D02*
X0168602D01*
X0174758Y0234002D01*
X0181124D01*
X0125197Y0241732D02*
X0169882D01*
X0175643Y0235971D01*
X0181124D01*
X0136827Y0289173D02*
X01387Y02873D01*
X013855Y024685D02*
X0182579D01*
X0187598Y0241831D01*
X01422Y02276D02*
Y0231275D01*
X0143209Y0232283D01*
X0163779D01*
X0132624Y0245276D02*
X0182185D01*
X01867Y0240761D01*
Y02391D02*
Y0240761D01*
X0187598Y0241831D02*
X0190331D01*
X0114764Y0238189D02*
X011752Y0235433D01*
X01222D01*
X0165748D01*
X0144882Y0148425D02*
Y0152717D01*
X0145079Y0152913D01*
X01131Y0253829D02*
Y0282884D01*
X0114988Y0284772D01*
X01187D01*
X0107874Y025187D02*
Y0284252D01*
X0114722Y02911D01*
X01463D01*
X0109565Y0252639D02*
Y0283778D01*
X0114961Y0289173D01*
X0136827D01*
X01114Y0253167D02*
Y0283546D01*
X0115354Y02875D01*
X01274D01*
D30*
X0130079Y0152756D02*
Y0163228D01*
X0145079Y0152717D02*
Y0163779D01*
X0147638Y0166339D01*
X0150939D01*
X01522Y01676D01*
X0129921Y0148425D02*
Y0152756D01*
X01222Y01676D02*
X0124052Y0165748D01*
X0127559D01*
X0130079Y0163228D01*
D31*
X0350394Y0168504D02*
D03*
D32*
X0313583Y0189173D02*
D03*
X0175984Y0147795D02*
D03*
Y0137795D02*
D03*
X0289469Y0183169D02*
D03*
X0260531Y0271358D02*
D03*
X0112205Y0124409D02*
D03*
Y0114409D02*
D03*
X034813Y029252D02*
D03*
Y028252D02*
D03*
Y0265787D02*
D03*
Y0255787D02*
D03*
X0163863Y0147833D02*
D03*
Y0137833D02*
D03*
X036Y0205D02*
D03*
D33*
X0354331Y0161417D02*
D03*
X0329921D02*
D03*
D34*
X034252Y0181102D02*
D03*
D35*
X01587Y02738D02*
D03*
Y02638D02*
D03*
X01487Y02738D02*
D03*
Y02638D02*
D03*
X01387Y02738D02*
D03*
Y02638D02*
D03*
X01287Y02738D02*
D03*
Y02638D02*
D03*
X01187Y02738D02*
D03*
X01322Y01776D02*
D03*
Y01876D02*
D03*
Y01976D02*
D03*
Y02076D02*
D03*
Y02176D02*
D03*
Y01676D02*
D03*
X01422D02*
D03*
X01522D02*
D03*
X02767Y01375D02*
D03*
X02867D02*
D03*
X01222Y02176D02*
D03*
Y02076D02*
D03*
Y01976D02*
D03*
Y01876D02*
D03*
Y01776D02*
D03*
X0273524Y0270886D02*
D03*
Y0260886D02*
D03*
X0301634Y0239173D02*
D03*
X0311634D02*
D03*
X01422Y01776D02*
D03*
Y01876D02*
D03*
Y01976D02*
D03*
Y02076D02*
D03*
Y02176D02*
D03*
X01522D02*
D03*
Y02076D02*
D03*
Y01976D02*
D03*
Y01876D02*
D03*
Y01776D02*
D03*
D36*
X01187Y02638D02*
D03*
X01222Y01676D02*
D03*
X02967Y01375D02*
D03*
X0291634Y0239173D02*
D03*
D37*
X01322Y02276D02*
D03*
X01222D02*
D03*
X0273524Y0250886D02*
D03*
X01422Y02276D02*
D03*
X01522D02*
D03*
D38*
X0305394Y0199941D02*
D03*
X0295394D02*
D03*
X0305394Y0209941D02*
D03*
X0295394D02*
D03*
X0305394Y0219941D02*
D03*
X0295394D02*
D03*
D39*
X0209Y03D02*
D03*
X0199D02*
D03*
X0189D02*
D03*
X0179D02*
D03*
X0169D02*
D03*
X0159D02*
D03*
X0149D02*
D03*
X0139D02*
D03*
X0129D02*
D03*
X0119D02*
D03*
X0225Y011D02*
D03*
X0215D02*
D03*
X0205D02*
D03*
X0195D02*
D03*
X0185D02*
D03*
X0175D02*
D03*
X0165D02*
D03*
X0155D02*
D03*
X0245D02*
D03*
X0255D02*
D03*
X0265D02*
D03*
X0275D02*
D03*
X0285D02*
D03*
X0295D02*
D03*
Y03D02*
D03*
X0285D02*
D03*
X0275D02*
D03*
X0265D02*
D03*
X0255D02*
D03*
X0245D02*
D03*
X0235D02*
D03*
X0225D02*
D03*
D40*
X036Y024D02*
D03*
D41*
X0334668Y01207D02*
D03*
X0330732D02*
D03*
X03327Y0123456D02*
D03*
Y0117944D02*
D03*
D42*
X02686Y0232D02*
D03*
X0277559Y0233563D02*
D03*
X0279429Y0215453D02*
D03*
X0281102Y0251969D02*
D03*
X0278051Y0172539D02*
D03*
X0285138Y0268799D02*
D03*
X0278642Y0281594D02*
D03*
X0295177Y0286811D02*
D03*
X0258366Y0290256D02*
D03*
X0282087Y0288976D02*
D03*
X0217421Y0289173D02*
D03*
X0209646Y0259646D02*
D03*
X0307579Y0289272D02*
D03*
X029498Y0261122D02*
D03*
X0223425Y0261122D02*
D03*
X024311Y0289272D02*
D03*
X0243652Y0233908D02*
D03*
X0215748Y0275492D02*
D03*
X024498Y0272638D02*
D03*
X0322146Y0273917D02*
D03*
X0325492Y0284154D02*
D03*
X0323917Y0281594D02*
D03*
X0327362Y0276378D02*
D03*
X0283366Y0248917D02*
D03*
X0335531Y0286713D02*
D03*
X0333957Y0279134D02*
D03*
X0317323Y0263681D02*
D03*
X0316634Y0227165D02*
D03*
X026939Y024252D02*
D03*
X025315Y0242126D02*
D03*
X0256594Y0237008D02*
D03*
X0260531Y0247736D02*
D03*
X026309Y0252854D02*
D03*
X0248228Y0253445D02*
D03*
X0268012Y0268209D02*
D03*
X0201969Y0279035D02*
D03*
X0257395Y0255327D02*
D03*
X0317224Y026624D02*
D03*
Y0268799D02*
D03*
X0272Y02361D02*
D03*
X0269488Y0234055D02*
D03*
X0269159Y0226128D02*
D03*
X0257972Y0260433D02*
D03*
X0242925Y0271076D02*
D03*
X0196063Y0269587D02*
D03*
X02Y0277362D02*
D03*
X0194177Y0266027D02*
D03*
X0312205Y0259252D02*
D03*
X02777Y02387D02*
D03*
X02764Y02002D02*
D03*
X0257108Y0242101D02*
D03*
X0255118Y0251673D02*
D03*
X0258084Y0230118D02*
D03*
X0242618Y0253346D02*
D03*
X0254035Y0273819D02*
D03*
X0245276Y0261122D02*
D03*
X029498Y0271358D02*
D03*
X0234646Y025187D02*
D03*
X0252756Y0218209D02*
D03*
X0254626Y0220276D02*
D03*
X0245276Y0216929D02*
D03*
X0249375Y0236175D02*
D03*
X0269094Y0219291D02*
D03*
X0347933Y0237402D02*
D03*
Y0234842D02*
D03*
X0282185Y0285827D02*
D03*
X0232677Y0274803D02*
D03*
X0219685Y0286024D02*
D03*
X0330709Y0234941D02*
D03*
X0328346Y0216535D02*
D03*
X0350197Y0209547D02*
D03*
X0320472Y0188206D02*
D03*
X0316732Y0222441D02*
D03*
X0347933Y0219882D02*
D03*
Y0222342D02*
D03*
X0307776Y0230315D02*
D03*
X0347933Y0229921D02*
D03*
X0327953Y0232185D02*
D03*
X0351378Y0204528D02*
D03*
X0351476Y0201181D02*
D03*
X0332677Y0199508D02*
D03*
X0316732Y0216043D02*
D03*
X0324508Y0215945D02*
D03*
X0350197Y0194488D02*
D03*
X0265945Y0273425D02*
D03*
X0216043Y0267717D02*
D03*
X0196Y01688D02*
D03*
X01747Y01985D02*
D03*
X01487Y0250472D02*
D03*
X01246Y02504D02*
D03*
X01326D02*
D03*
X01406Y0250372D02*
D03*
X02577Y02127D02*
D03*
X0277156Y0207244D02*
D03*
X0259325Y0204475D02*
D03*
X0249234Y0242101D02*
D03*
X0271949Y0207176D02*
D03*
X025932Y0198569D02*
D03*
X0277464Y01808D02*
D03*
X0277156Y0187889D02*
D03*
X0271644D02*
D03*
X02522Y01489D02*
D03*
X0235465Y01596D02*
D03*
X0249644Y0155156D02*
D03*
X0254756D02*
D03*
X01862Y01986D02*
D03*
Y02011D02*
D03*
Y0186758D02*
D03*
Y0184419D02*
D03*
X01897Y0207125D02*
D03*
X019Y02127D02*
D03*
X02261Y01517D02*
D03*
X0201544Y0156356D02*
D03*
X02157Y01572D02*
D03*
Y0151688D02*
D03*
X02691Y02222D02*
D03*
X0245719Y02005D02*
D03*
X02578Y02005D02*
D03*
X0227549Y0240601D02*
D03*
X0231525Y0251465D02*
D03*
X0198Y02517D02*
D03*
X0233424Y02421D02*
D03*
X02314Y02558D02*
D03*
X01948Y02421D02*
D03*
X01865Y02474D02*
D03*
X0225622Y0253625D02*
D03*
X01862Y0196219D02*
D03*
Y01893D02*
D03*
X024047Y0148841D02*
D03*
X02384Y01572D02*
D03*
X0192Y01533D02*
D03*
X0192147Y0168817D02*
D03*
X0223685Y0168859D02*
D03*
X0227622D02*
D03*
X0229559Y0170359D02*
D03*
X0213859Y0204059D02*
D03*
X0203937Y0168859D02*
D03*
X0205937Y0170359D02*
D03*
X0202D02*
D03*
X0200063Y0168859D02*
D03*
X0225583Y0208365D02*
D03*
X0219712Y0202435D02*
D03*
X0225612Y0202465D02*
D03*
X0213859Y0206759D02*
D03*
X0222659Y0214241D02*
D03*
X0222635Y0211288D02*
D03*
X0222659Y0199459D02*
D03*
Y0196559D02*
D03*
X0231459Y0204059D02*
D03*
X0207937Y0168859D02*
D03*
X0209874Y0170359D02*
D03*
X0217748D02*
D03*
X0213811D02*
D03*
X0215811Y0168859D02*
D03*
X0243307D02*
D03*
X0245307Y0170359D02*
D03*
X0249244D02*
D03*
X0239433Y0168859D02*
D03*
X0237433Y0170359D02*
D03*
X0233496D02*
D03*
X0174688Y0202496D02*
D03*
X0211832Y0251888D02*
D03*
X0206818Y0201418D02*
D03*
X0203318D02*
D03*
Y0209618D02*
D03*
X0245297Y0242101D02*
D03*
X0241297D02*
D03*
X0243297Y0240601D02*
D03*
X023936D02*
D03*
X0237423Y0242101D02*
D03*
X0235423Y0240601D02*
D03*
X0215832Y0242101D02*
D03*
X0213832Y0240601D02*
D03*
X0217769D02*
D03*
X0219706Y0242101D02*
D03*
X0207895D02*
D03*
X0205958Y0240601D02*
D03*
X0204021Y0242101D02*
D03*
X0211811Y0159031D02*
D03*
X0198063Y0170359D02*
D03*
X0257801Y0192695D02*
D03*
X0259301Y0186821D02*
D03*
X0257801Y0208443D02*
D03*
Y0184821D02*
D03*
X0259301Y0182821D02*
D03*
X0257769Y0176916D02*
D03*
Y0216286D02*
D03*
X0186049Y0232065D02*
D03*
X0269088Y0194632D02*
D03*
X0272082Y0228097D02*
D03*
X0329072Y0188206D02*
D03*
X0332684Y0203058D02*
D03*
X0277572Y02426D02*
D03*
X03392Y01271D02*
D03*
X02687Y01456D02*
D03*
X0270844Y01456D02*
D03*
X02688Y0141219D02*
D03*
X0244525Y0203975D02*
D03*
X0242Y01983D02*
D03*
X02385D02*
D03*
X02556Y02281D02*
D03*
X02769Y0175D02*
D03*
Y01703D02*
D03*
X02598Y01731D02*
D03*
X02603Y01543D02*
D03*
X02444Y015435D02*
D03*
X02236Y02425D02*
D03*
X02216Y02397D02*
D03*
X02593Y01695D02*
D03*
X01908Y01577D02*
D03*
X0198425Y014813D02*
D03*
X0217913Y0252264D02*
D03*
X0209941Y0240748D02*
D03*
X0231496Y0206791D02*
D03*
X0170669Y0254134D02*
D03*
X0164061Y0201476D02*
D03*
X0109744Y0196161D02*
D03*
Y0207972D02*
D03*
Y0219783D02*
D03*
Y0231594D02*
D03*
X0129921Y0148425D02*
D03*
X0135039D02*
D03*
X0139764D02*
D03*
X0144882D02*
D03*
X0129921Y0139764D02*
D03*
X0135039D02*
D03*
X0139764D02*
D03*
X0144882D02*
D03*
X0145079Y0128661D02*
D03*
X0140079D02*
D03*
X0135079D02*
D03*
X0130079D02*
D03*
X0347399Y0215945D02*
D03*
D43*
X028937Y0170866D02*
D03*
X03138Y01451D02*
D03*
X0360701Y0136199D02*
D03*
D44*
X0259055Y02222D02*
D03*
X0176198Y0200506D02*
D03*
X0198Y02422D02*
D03*
X01762Y01888D02*
D03*
X0176198Y020838D02*
D03*
X017623Y0214317D02*
D03*
X02236Y02518D02*
D03*
X0231507Y0240559D02*
D03*
D45*
X02348Y01402D02*
D03*
X02372Y01326D02*
D03*
X0295625Y01454D02*
D03*
X02556Y01364D02*
D03*
X02819Y01456D02*
D03*
X02688Y01327D02*
D03*
X033937Y0171653D02*
D03*
X0345571Y0171752D02*
D03*
X033937Y0163779D02*
D03*
X0345866Y0163878D02*
D03*
M02*
