%FSTAX25Y25*%
%MOIN*%
G70*
G01*
G75*
G04 Layer_Physical_Order=4*
G04 Layer_Color=16711680*
%ADD10O,0.07087X0.01181*%
%ADD11O,0.01181X0.07087*%
%ADD12O,0.07284X0.01378*%
%ADD13R,0.08071X0.02756*%
%ADD14R,0.01772X0.02165*%
%ADD15R,0.03150X0.03150*%
%ADD16R,0.01575X0.02559*%
%ADD17R,0.02992X0.06299*%
%ADD18R,0.07874X0.06299*%
%ADD19R,0.02047X0.02047*%
%ADD20R,0.02047X0.02047*%
%ADD21R,0.03543X0.02756*%
%ADD22R,0.02756X0.03543*%
%ADD23R,0.02165X0.01772*%
%ADD24C,0.01000*%
%ADD25C,0.00500*%
%ADD26C,0.03000*%
%ADD27C,0.00700*%
%ADD28C,0.02000*%
%ADD29C,0.00669*%
%ADD30C,0.00591*%
%ADD31R,0.25197X0.25197*%
%ADD32C,0.06000*%
%ADD33P,0.12784X8X202.5*%
%ADD34P,0.12784X8X292.5*%
%ADD35C,0.05906*%
%ADD36R,0.05906X0.05906*%
%ADD37R,0.05906X0.05906*%
%ADD38P,0.06711X8X292.5*%
%ADD39O,0.05600X0.11200*%
%ADD40C,0.12600*%
%ADD41C,0.01969*%
%ADD42C,0.01600*%
%ADD43C,0.05000*%
%ADD44C,0.01595*%
%ADD45C,0.02800*%
%ADD46C,0.04000*%
%ADD47R,0.70200X0.25400*%
%ADD48C,0.07550*%
%ADD49O,0.08724X0.11087*%
%ADD50O,0.11087X0.08724*%
%ADD51C,0.07543*%
G04:AMPARAMS|DCode=52|XSize=95.433mil|YSize=95.433mil|CornerRadius=0mil|HoleSize=0mil|Usage=FLASHONLY|Rotation=0.000|XOffset=0mil|YOffset=0mil|HoleType=Round|Shape=Relief|Width=10mil|Gap=10mil|Entries=4|*
%AMTHD52*
7,0,0,0.09543,0.07543,0.01000,45*
%
%ADD52THD52*%
%ADD53C,0.07800*%
%ADD54C,0.07400*%
G04:AMPARAMS|DCode=55|XSize=95.5mil|YSize=95.5mil|CornerRadius=0mil|HoleSize=0mil|Usage=FLASHONLY|Rotation=0.000|XOffset=0mil|YOffset=0mil|HoleType=Round|Shape=Relief|Width=10mil|Gap=10mil|Entries=4|*
%AMTHD55*
7,0,0,0.09550,0.07550,0.01000,45*
%
%ADD55THD55*%
%ADD56C,0.16600*%
%ADD57C,0.06800*%
G04:AMPARAMS|DCode=58|XSize=70mil|YSize=70mil|CornerRadius=0mil|HoleSize=0mil|Usage=FLASHONLY|Rotation=0.000|XOffset=0mil|YOffset=0mil|HoleType=Round|Shape=Relief|Width=10mil|Gap=10mil|Entries=4|*
%AMTHD58*
7,0,0,0.07000,0.05000,0.01000,45*
%
%ADD58THD58*%
%ADD59C,0.05600*%
%AMTHOVALD60*
21,1,0.02362,0.10724,0,0,270.0*
1,1,0.10724,0.00000,0.01181*
1,1,0.10724,0.00000,-0.01181*
21,0,0.02362,0.08724,0,0,270.0*
1,0,0.08724,0.00000,0.01181*
1,0,0.08724,0.00000,-0.01181*
4,0,4,-0.00354,0.00828,-0.04145,0.04619,-0.03438,0.05326,0.00354,0.01535,-0.00354,0.00828,0.0*
4,0,4,-0.00354,-0.01535,0.03438,-0.05326,0.04145,-0.04619,0.00354,-0.00828,-0.00354,-0.01535,0.0*
4,0,4,-0.00354,0.01535,0.03438,0.05326,0.04145,0.04619,0.00354,0.00828,-0.00354,0.01535,0.0*
4,0,4,-0.00354,-0.00828,-0.04145,-0.04619,-0.03438,-0.05326,0.00354,-0.01535,-0.00354,-0.00828,0.0*
%
%ADD60THOVALD60*%

%AMTHOVALD61*
21,1,0.02362,0.10724,0,0,360.0*
1,1,0.10724,-0.01181,0.00000*
1,1,0.10724,0.01181,0.00000*
21,0,0.02362,0.08724,0,0,360.0*
1,0,0.08724,-0.01181,0.00000*
1,0,0.08724,0.01181,0.00000*
4,0,4,-0.00828,-0.00354,-0.04619,-0.04145,-0.05326,-0.03438,-0.01535,0.00354,-0.00828,-0.00354,0.0*
4,0,4,0.01535,-0.00354,0.05326,0.03438,0.04619,0.04145,0.00828,0.00354,0.01535,-0.00354,0.0*
4,0,4,-0.01535,-0.00354,-0.05326,0.03438,-0.04619,0.04145,-0.00828,0.00354,-0.01535,-0.00354,0.0*
4,0,4,0.00828,-0.00354,0.04619,-0.04145,0.05326,-0.03438,0.01535,0.00354,0.00828,-0.00354,0.0*
%
%ADD61THOVALD61*%

G04:AMPARAMS|DCode=62|XSize=98mil|YSize=98mil|CornerRadius=0mil|HoleSize=0mil|Usage=FLASHONLY|Rotation=0.000|XOffset=0mil|YOffset=0mil|HoleType=Round|Shape=Relief|Width=10mil|Gap=10mil|Entries=4|*
%AMTHD62*
7,0,0,0.09800,0.07800,0.01000,45*
%
%ADD62THD62*%
G04:AMPARAMS|DCode=63|XSize=94mil|YSize=94mil|CornerRadius=0mil|HoleSize=0mil|Usage=FLASHONLY|Rotation=0.000|XOffset=0mil|YOffset=0mil|HoleType=Round|Shape=Relief|Width=10mil|Gap=10mil|Entries=4|*
%AMTHD63*
7,0,0,0.09400,0.07400,0.01000,45*
%
%ADD63THD63*%
G04:AMPARAMS|DCode=64|XSize=88mil|YSize=88mil|CornerRadius=0mil|HoleSize=0mil|Usage=FLASHONLY|Rotation=0.000|XOffset=0mil|YOffset=0mil|HoleType=Round|Shape=Relief|Width=10mil|Gap=10mil|Entries=4|*
%AMTHD64*
7,0,0,0.08800,0.06800,0.01000,45*
%
%ADD64THD64*%
G04:AMPARAMS|DCode=65|XSize=76mil|YSize=76mil|CornerRadius=0mil|HoleSize=0mil|Usage=FLASHONLY|Rotation=0.000|XOffset=0mil|YOffset=0mil|HoleType=Round|Shape=Relief|Width=10mil|Gap=10mil|Entries=4|*
%AMTHD65*
7,0,0,0.07600,0.05600,0.01000,45*
%
%ADD65THD65*%
%ADD66R,0.06102X0.01378*%
%ADD67O,0.01378X0.04724*%
%ADD68R,0.07480X0.12205*%
%ADD69R,0.07480X0.03150*%
%ADD70R,0.06299X0.02559*%
%ADD71R,0.01969X0.01181*%
%ADD72R,0.08661X0.11811*%
%ADD73C,0.01181*%
%ADD74R,0.03543X0.04724*%
%ADD75R,0.06693X0.06614*%
%ADD76R,0.08661X0.07874*%
%ADD77C,0.05000*%
%ADD78C,0.01500*%
%ADD79C,0.01300*%
G36*
X03271Y01186D02*
X03247D01*
Y0126D01*
X03271D01*
Y01186D01*
D02*
G37*
G36*
X03477Y01199D02*
X0343D01*
X03412Y01217D01*
Y01228D01*
X03431Y01247D01*
X03477D01*
Y01199D01*
D02*
G37*
D14*
X0255272Y02084D02*
D03*
X0251728D02*
D03*
D19*
X0240525Y01326D02*
D03*
X0243675D02*
D03*
X0228775Y02558D02*
D03*
X0225625D02*
D03*
X0198Y0247335D02*
D03*
X019485D02*
D03*
X0231525Y02471D02*
D03*
X0234675D02*
D03*
X0246225Y02341D02*
D03*
X0249375D02*
D03*
D20*
X0265945Y027126D02*
D03*
Y026811D02*
D03*
X0222146Y0289173D02*
D03*
Y0286024D02*
D03*
X0284547Y0288976D02*
D03*
Y0285827D02*
D03*
X02385Y0200825D02*
D03*
Y0203975D02*
D03*
X02033Y0203725D02*
D03*
Y0206875D02*
D03*
X02068Y0203725D02*
D03*
Y0206875D02*
D03*
X0242Y0200825D02*
D03*
Y0203975D02*
D03*
X01827Y0208125D02*
D03*
Y0211275D02*
D03*
X02642Y0222475D02*
D03*
Y0219325D02*
D03*
X02688Y0135925D02*
D03*
Y0139075D02*
D03*
D21*
X01707Y0196944D02*
D03*
Y0202456D02*
D03*
X0187Y0212556D02*
D03*
Y0207044D02*
D03*
X01812Y0196244D02*
D03*
Y0201756D02*
D03*
Y0184444D02*
D03*
Y0189956D02*
D03*
D22*
X0243556Y01402D02*
D03*
X0238044D02*
D03*
X0278856Y01456D02*
D03*
X0273344D02*
D03*
X0292256D02*
D03*
X0286744D02*
D03*
X0248244Y02005D02*
D03*
X0253756D02*
D03*
X0217944Y02474D02*
D03*
X0223456D02*
D03*
D23*
X0144882Y0145866D02*
D03*
Y0142323D02*
D03*
X0139764Y0145866D02*
D03*
Y0142323D02*
D03*
X0135039Y0145866D02*
D03*
Y0142323D02*
D03*
X0129921Y0145866D02*
D03*
Y0142323D02*
D03*
X0330543Y0203058D02*
D03*
Y0199515D02*
D03*
X0353839Y0200984D02*
D03*
Y0204527D02*
D03*
X02571Y0169528D02*
D03*
Y0173072D02*
D03*
X02555Y0216272D02*
D03*
Y0212728D02*
D03*
X02556Y0230528D02*
D03*
Y0234072D02*
D03*
D24*
X0207152Y0206759D02*
X0213859D01*
X0330543Y0199515D02*
X033055Y0199508D01*
X0332677D01*
X0257492Y029113D02*
X0258366Y0290256D01*
X0239162Y029113D02*
X0257492D01*
X0237303Y0289272D02*
X0239162Y029113D01*
X0228051Y0289272D02*
X0237303D01*
X0164061Y0247525D02*
X0170669Y0254134D01*
X0164061Y0201476D02*
Y0247525D01*
X0286417Y0292421D02*
X0295177D01*
X0285Y0293839D02*
X0286417Y0292421D01*
X0295177D02*
X0298228Y028937D01*
X024311Y0289272D02*
X0249902D01*
X024626Y0271358D02*
X0249902D01*
X024498Y0272638D02*
X024626Y0271358D01*
X0284055Y0232185D02*
X0327953D01*
X028014Y02361D02*
X0284055Y0232185D01*
X0272Y02361D02*
X028014D01*
X0298228Y0274213D02*
Y028937D01*
Y0274213D02*
X0301083Y0271358D01*
X0312205D01*
X0285Y0293839D02*
Y03D01*
X026309Y0252854D02*
Y0256201D01*
X0312205Y0259252D02*
X0312205Y0259252D01*
X0312205Y0259252D02*
Y0261122D01*
X0249902Y0273917D02*
X025Y0273819D01*
X0254035D01*
X0248502Y0216929D02*
X0248631Y02168D01*
X0245276Y0216929D02*
X0248502D01*
X0249357Y0236175D02*
X0249375D01*
X0249311Y0236221D02*
X0249357Y0236175D01*
X0249375Y02341D02*
Y0236175D01*
X0249311Y0236221D02*
X0249329D01*
X0249375Y0236175D01*
X0282185Y0285827D02*
Y0285827D01*
X0284547D01*
X0219685Y0286024D02*
X0219685Y0286024D01*
X0222146D01*
X0351476Y0201181D02*
X0351673Y0200984D01*
X0353839D01*
X0265945Y027126D02*
Y0273425D01*
Y027126D02*
X0266142Y0271063D01*
X0265945Y0268209D02*
X0268012D01*
X026309Y0265256D02*
X0265945Y0268209D01*
X026309Y02625D02*
Y0265256D01*
X0257672Y0212728D02*
X02577Y02127D01*
X02555Y0212728D02*
X0257672D01*
X0257755Y0216272D02*
X0257769Y0216286D01*
X02555Y0216272D02*
X0257755D01*
X0180931Y0200506D02*
X0181525Y02011D01*
X0181025Y01888D02*
X0181525Y01893D01*
X0245719Y02005D02*
X0248244D01*
X0253756D02*
X02578D01*
X0231474Y0240593D02*
Y0247048D01*
X0228775Y02558D02*
X02314D01*
X01948Y02421D02*
X019485Y024215D01*
Y0247335D01*
X01707Y0196944D02*
X0172256Y01985D01*
X01747D01*
X01762Y01888D02*
X0181025D01*
X0176198Y0200506D02*
X0180931D01*
X0230029Y0206876D02*
X0231442D01*
X0213876D02*
X0215265D01*
X0213859Y0204059D02*
X0213995Y0203924D01*
X0215265D01*
X0230029D02*
X0231424D01*
X02385Y0203975D02*
X0242D01*
X0231459Y0204059D02*
X0238166D01*
X02385Y0203725D01*
X0206818Y0201418D02*
Y0203943D01*
X0203318Y0201418D02*
Y0203943D01*
X0206818Y0207093D02*
X0207152Y0206759D01*
X0203318Y0207093D02*
X0206818D01*
X0203318D02*
Y0209618D01*
X0239969Y0212631D02*
Y0216779D01*
Y0212631D02*
X0241Y02116D01*
X02494D01*
X0251728Y0209272D01*
Y02084D02*
Y0209272D01*
X0255272Y02084D02*
X0257757D01*
X0257801Y0208443D01*
X0339196Y0122275D02*
X0341575D01*
X0339196Y0125424D02*
Y0127096D01*
X03392Y01271D01*
X03516Y0136199D02*
X0356999D01*
X0242Y0203975D02*
X0244525D01*
X0242Y01983D02*
Y0200825D01*
X02385Y01983D02*
Y0200825D01*
X02556Y02283D02*
Y0230528D01*
X02555Y02282D02*
X02556Y02283D01*
X02593Y01695D02*
X0259328Y0169528D01*
X02571D02*
X0259328D01*
X0217913Y0252264D02*
X0217944Y0252233D01*
Y02474D02*
Y0252233D01*
X0231442Y0206876D02*
X0231459Y0206859D01*
X0231398Y0206798D02*
X0231459Y0206859D01*
X0231398Y0206791D02*
Y0206798D01*
Y0206791D02*
X0231496D01*
X0330543Y0203058D02*
X0332684D01*
X0260531Y02625D02*
Y0271358D01*
X0222244Y0289272D02*
X0228051D01*
X0222146Y0289173D02*
X0222244Y0289272D01*
D25*
X0279429Y0173917D02*
Y0215453D01*
X0278051Y0172539D02*
X0279429Y0173917D01*
X0281102Y0251969D02*
X0283858Y0254724D01*
Y026752D01*
X0285138Y0268799D01*
X0290354D01*
X027185Y0244291D02*
X0272638Y0245079D01*
X0336Y0196087D02*
Y0215D01*
X0334465Y0216535D02*
X0336Y0215D01*
X0328346Y0216535D02*
X0334465D01*
X0336Y0196087D02*
X0337598Y0194488D01*
X0295079Y0286713D02*
X0295177Y0286811D01*
X0290354Y0286713D02*
X0295079D01*
X0274762Y0284014D02*
X0290215D01*
X0273524Y0270886D02*
Y0282776D01*
X0274762Y0284014D01*
X0278642Y0281594D02*
X0290354D01*
X0290215Y0284014D02*
X0290354Y0284154D01*
X0277372Y0291034D02*
X028705D01*
X028706Y0291043D02*
X0294732D01*
X028705Y0291034D02*
X028706Y0291043D01*
X0294732D02*
X029685Y0288925D01*
X0350787Y0220768D02*
Y0243406D01*
X0347244Y0246949D02*
X0350787Y0243406D01*
X0288878Y0246949D02*
X0347244D01*
X0349902Y0219882D02*
X0350787Y0220768D01*
X0285236Y025059D02*
X0288878Y0246949D01*
X0309744Y0245079D02*
X0311634Y0243189D01*
X0283691Y0245079D02*
X0309744D01*
X0254232Y0268799D02*
X0256201Y0266831D01*
Y0259127D02*
Y0266831D01*
Y0259127D02*
X0258984Y0256344D01*
X0254134Y026624D02*
X0254823Y0265551D01*
Y0257899D02*
Y0265551D01*
Y0257899D02*
X0257395Y0255327D01*
X0249902Y0268799D02*
X0254232D01*
X0312205Y0273917D02*
X0322146D01*
X0312205Y0284154D02*
X0325492D01*
X0312205Y0281594D02*
X0323917D01*
X0285236Y025059D02*
Y0264665D01*
X0283563Y0248917D02*
X0285236Y025059D01*
X0283366Y0248917D02*
X0283563D01*
X0312205Y0286713D02*
X0312205Y0286713D01*
X0335531D01*
X0312205Y0279035D02*
X0312303Y0279134D01*
X0333957D01*
X0312205Y0281594D02*
X0312205Y0281594D01*
X0280217Y0239173D02*
X0291634D01*
X0278855Y0240535D02*
X0280217Y0239173D01*
X0274187Y0240535D02*
X0278855D01*
X0271251Y0237598D02*
X0274187Y0240535D01*
X0272638Y0245079D02*
X0283691D01*
X027185Y024124D02*
Y0244291D01*
X0271245Y0240635D02*
X027185Y024124D01*
X0262711Y0240635D02*
X0271245D01*
X0254696Y0239637D02*
X0255315Y0240256D01*
X0253521Y0239637D02*
X0254696D01*
X0251772Y0237887D02*
X0253521Y0239637D01*
X0253051Y0237697D02*
X0253952Y0238597D01*
X0258697Y0239307D02*
Y0243074D01*
X0257987Y0238597D02*
X0258697Y0239307D01*
X0253952Y0238597D02*
X0257987D01*
X0261319Y0237598D02*
X0271251D01*
X0260827Y023809D02*
X0261319Y0237598D01*
X0260827Y023809D02*
Y0247441D01*
X0259737Y0238083D02*
Y0243505D01*
X0258661Y0237008D02*
X0259737Y0238083D01*
X0256594Y0237008D02*
X0258661D01*
X0258957Y0244285D02*
X0259737Y0243505D01*
X0258957Y0244285D02*
Y0247063D01*
X0257903Y0243869D02*
X0258697Y0243074D01*
X0257903Y0243869D02*
Y0253588D01*
X0262121Y0241226D02*
Y0249001D01*
Y0241226D02*
X0262711Y0240635D01*
X0261516Y0249606D02*
X0262121Y0249001D01*
X0265453Y0251476D02*
X026565Y0251673D01*
X0264764Y0250787D02*
X0265453Y0251476D01*
X0268012D01*
X026939Y0250098D01*
Y024252D02*
Y0250098D01*
Y0242235D02*
Y024252D01*
X0260531Y0247736D02*
X0260827Y0247441D01*
X0255315Y0240256D02*
Y024252D01*
X0255519Y0242723D01*
Y0242759D02*
X0256807Y0244048D01*
X0255519Y0242723D02*
Y0242759D01*
X0258942Y0247078D02*
X0258957Y0247063D01*
X0258942Y0247078D02*
Y0249001D01*
X0259547Y0249606D01*
X0256807Y0244048D02*
Y0253732D01*
X0251772Y0219193D02*
Y0237887D01*
X0253051Y022185D02*
Y0237697D01*
X0259547Y0249606D02*
X0261516D01*
X0253051Y022185D02*
X0254626Y0220276D01*
X0251772Y0219193D02*
X0252756Y0218209D01*
X0257903Y0253588D02*
X0258984Y0254669D01*
X0260531Y0251476D02*
X0261221Y0250787D01*
X0260531Y0251476D02*
Y0256201D01*
X0261221Y0250787D02*
X0264764D01*
X026565Y0251673D02*
Y0256201D01*
X029685Y0264961D02*
Y0288925D01*
X0275Y0293406D02*
X0277372Y0291034D01*
X0239567Y0274508D02*
X0241535Y0276476D01*
X0239567Y0262992D02*
Y0274508D01*
Y0262992D02*
X0243504Y0259055D01*
X0201969Y0279035D02*
X0228051D01*
X0200016Y0277346D02*
X0205129D01*
X02Y0277362D02*
X0200016Y0277346D01*
X0205129D02*
X0205145Y0277362D01*
X0258984Y0254669D02*
Y0256344D01*
X0256736Y0253738D02*
X0256801D01*
X0256807Y0253732D01*
X0251484Y0259055D02*
X0255805Y0254734D01*
Y0254669D02*
Y0254734D01*
Y0254669D02*
X0256736Y0253738D01*
X0228051Y0276476D02*
X0228067Y0276493D01*
X0241535Y0276476D02*
X0249902D01*
X0312205Y026624D02*
X0312205Y026624D01*
X0317224D01*
X0312205Y0268799D02*
X0317224D01*
X0260531Y0256201D02*
Y0257874D01*
X0257972Y0260433D02*
X0260531Y0257874D01*
X0257972Y0260433D02*
X0257998D01*
X0257395Y0255327D02*
Y0255623D01*
X0249902Y026624D02*
X0254134D01*
X0218504Y0269685D02*
X0219291Y0268898D01*
X0195965Y0269685D02*
X0218504D01*
X0196063Y0269587D02*
Y0269587D01*
X0195965Y0269685D02*
X0196063Y0269587D01*
X0219291Y0268799D02*
Y0268898D01*
Y0268799D02*
X0228051D01*
X0194177Y0266027D02*
X0227838D01*
X0228051Y026624D01*
X0219674Y0277362D02*
X022056Y0276476D01*
X0228051D01*
X0205145Y0277362D02*
X0219674D01*
X0347933Y0219882D02*
X0349902D01*
X0286811Y026624D02*
X0290354D01*
X0285236Y0264665D02*
X0286811Y026624D01*
X0290354Y0263681D02*
X0295571D01*
X029685Y0264961D01*
X0275Y0293406D02*
Y03D01*
X0243504Y0259055D02*
X0251484D01*
X0290354Y0271358D02*
X029498D01*
X0290354Y0281594D02*
X0290354Y0281594D01*
X0259055Y02222D02*
X0263925D01*
X0337598Y0194488D02*
X0350197D01*
X0196Y01593D02*
Y01688D01*
X01944Y01577D02*
X0196Y01593D01*
X01908Y01577D02*
X01944D01*
X0233424Y02421D02*
X0233443Y0242081D01*
X0233424Y02421D02*
X02339D01*
X0243307Y0168859D02*
Y0170711D01*
X0224124Y0174495D02*
Y0195065D01*
Y0174495D02*
X0227622Y0170996D01*
Y0168859D02*
Y0170996D01*
X0225635Y0174559D02*
Y0199459D01*
Y0174559D02*
X0229559Y0170635D01*
Y0170359D02*
Y0170635D01*
X0228635Y0179157D02*
Y0196459D01*
Y0179157D02*
X0237433Y0170359D01*
X0234835Y0184768D02*
Y0199983D01*
Y0184768D02*
X0249244Y0170359D01*
X0227076Y0176779D02*
Y0195065D01*
Y0176779D02*
X0233496Y0170359D01*
X0227076Y0198018D02*
X0228635Y0196459D01*
X0224124Y0200971D02*
X0225635Y0199459D01*
X0227076Y0203924D02*
X0228541Y0202459D01*
X0230029Y0200971D02*
X0231547D01*
X0227076Y0200942D02*
Y0200971D01*
X0228541Y0202459D02*
X0232359D01*
X0230029Y0198018D02*
X0231435Y0196612D01*
X0232359Y0202459D02*
X0234835Y0199983D01*
X0218218Y0174766D02*
Y0195065D01*
X0213811Y0170359D02*
X0218218Y0174766D01*
X0215811Y0170711D02*
X0219659Y0174559D01*
X0215811Y0168859D02*
Y0170711D01*
X0219659Y0174559D02*
Y0199459D01*
X0221171Y0173782D02*
Y0195065D01*
X0217748Y0170359D02*
X0221171Y0173782D01*
X0216659Y0177144D02*
Y0196459D01*
X0209874Y0170359D02*
X0216659Y0177144D01*
X0210459Y0199983D02*
X0212935Y0202459D01*
X0213859Y0196612D02*
X0215265Y0198018D01*
X0224124Y0206876D02*
X0225583Y0208335D01*
X0219712Y0202465D02*
X0221171Y0203924D01*
X0224124D02*
X0225583Y0202465D01*
X0212935Y0202459D02*
X0216754D01*
X0222635Y0211288D02*
X0224124Y0212776D01*
Y0212782D01*
X0213259Y0214788D02*
X0215265Y0212782D01*
X0213259Y0214788D02*
Y0237237D01*
X0219659Y0211341D02*
X0221171Y0209829D01*
X0210835Y0212741D02*
X0213747Y0209829D01*
X0215265D01*
X0218218D02*
Y0209858D01*
X0221171Y0212782D02*
X022263Y0214241D01*
X0222659D01*
Y0211341D02*
X0222683D01*
X0221171Y0212782D02*
X022263Y0214241D01*
X0222659Y0199459D02*
X02241Y0198018D01*
X0221171D02*
X022263Y0196559D01*
X0218218Y0200942D02*
Y0200971D01*
X0213747D02*
X0215265D01*
X0216754Y0202459D02*
X0218218Y0203924D01*
X0219659Y0199459D02*
X0221171Y0200971D01*
X0216659Y0196459D02*
X0218218Y0198018D01*
X0205909Y0170109D02*
X0206048Y0170248D01*
X0231547Y0209829D02*
X0234459Y0212741D01*
X0230029Y0209829D02*
X0231547D01*
X0227076D02*
Y0209858D01*
X0230029Y0212782D02*
X0231702Y0214455D01*
X0230029Y0212782D02*
Y0212782D01*
X0227076Y0212782D02*
X0228553Y0214258D01*
X0227076Y0215735D02*
X0227259Y0215917D01*
X0224124Y0209829D02*
X0225635Y0211341D01*
X023936Y023886D02*
Y0240601D01*
X0231702Y0231202D02*
X023936Y023886D01*
X0231702Y0214455D02*
Y0231202D01*
X0241297Y0238797D02*
Y0242101D01*
X0233159Y0230659D02*
X0241297Y0238797D01*
X0233159Y0213641D02*
Y0230659D01*
X0243297Y0238797D02*
Y0240601D01*
X0234459Y0229959D02*
X0243297Y0238797D01*
X0234459Y0212741D02*
Y0229959D01*
X0237423Y0238723D02*
Y0242101D01*
X0228553Y0229853D02*
X0237423Y0238723D01*
X0228553Y0214258D02*
Y0229853D01*
X0233443Y0238843D02*
Y0242081D01*
X0225635Y0231035D02*
X0233443Y0238843D01*
X0225635Y0211341D02*
Y0231035D01*
X0235423Y0238723D02*
Y0240601D01*
X0227076Y0230376D02*
X0235423Y0238723D01*
X0227076Y0215735D02*
Y0230376D01*
X0227549Y0238649D02*
Y0240601D01*
X0224124Y0235224D02*
X0227549Y0238649D01*
X0224124Y0215735D02*
Y0235224D01*
X0218218Y0215735D02*
Y0236215D01*
X0213832Y0240601D02*
X0218218Y0236215D01*
X0215832Y0240268D02*
Y0242101D01*
Y0240268D02*
X0219659Y0236441D01*
Y0211341D02*
Y0236441D01*
X0221171Y0215735D02*
Y0237199D01*
X0217769Y0240601D02*
X0221171Y0237199D01*
X0204Y024208D02*
X0204021Y0242101D01*
X0210835Y0212741D02*
Y023545D01*
X0205958Y0240328D02*
Y0240601D01*
Y0240328D02*
X0210835Y023545D01*
X0212135Y0213641D02*
Y0236165D01*
X0209435Y0211841D02*
Y0234865D01*
X0204Y02403D02*
X0209435Y0234865D01*
X0204Y02403D02*
Y024208D01*
X0257128Y01731D02*
X02598D01*
X02571Y0173072D02*
X0257128Y01731D01*
X0263925Y02222D02*
X02642Y0222475D01*
X0207895Y0240405D02*
Y0242101D01*
Y0240405D02*
X0212135Y0236165D01*
X0209895Y0240601D02*
X0213259Y0237237D01*
X0209895Y0240601D02*
X0209941Y0240647D01*
Y0240748D01*
X0235859Y0211841D02*
Y022956D01*
X0245297Y0238998D01*
Y0242101D01*
X0231435Y0179293D02*
Y0196612D01*
Y0179293D02*
X0239433Y0171295D01*
Y0168859D02*
Y0171295D01*
X0245307Y0170359D02*
Y0171327D01*
X023376Y0182874D02*
X0245307Y0171327D01*
X023376Y0182874D02*
Y0198758D01*
X0231547Y0200971D02*
X023376Y0198758D01*
X0232579Y0181439D02*
X0243307Y0170711D01*
X0232579Y0181439D02*
Y0197739D01*
X0227076Y0200942D02*
X022851Y0199508D01*
X023081D01*
X0232579Y0197739D01*
X0207937Y0168859D02*
Y0170831D01*
X0215265Y0178159D01*
Y0195065D01*
X0202Y0170359D02*
Y0170701D01*
X0205937Y0170359D02*
X0213859Y0178281D01*
Y0196612D01*
X0202Y0170701D02*
X0211516Y0180217D01*
Y0198739D01*
X0213747Y0200971D01*
X0200063Y0168859D02*
Y0171028D01*
X0210459Y0181424D01*
Y0199983D01*
X0203937Y0168859D02*
Y0170768D01*
X0212697Y0179528D01*
Y0197721D01*
X0214484Y0199508D01*
X0216784D01*
X0218218Y0200942D01*
X0227076Y0209858D02*
X0228537Y0211319D01*
X0230837D01*
X0233159Y0213641D01*
X0227076Y0206876D02*
X0228581Y0208381D01*
X0232154D02*
X0232169Y0208366D01*
X0228581Y0208381D02*
X0232154D01*
X0232384Y0208366D02*
X0235859Y0211841D01*
X0232169Y0208366D02*
X0232384D01*
X0209435Y0211841D02*
X021291Y0208366D01*
X0216728D01*
X0218218Y0206876D01*
X0212135Y0213641D02*
X0214458Y0211319D01*
X0216757D01*
X0218218Y0209858D01*
X0135039Y0145866D02*
Y0148425D01*
X0139764Y0145866D02*
Y0148425D01*
X0129921Y0139764D02*
Y0142323D01*
X0135039Y0139764D02*
Y0142323D01*
X0139764Y0139764D02*
Y0142323D01*
X0144882Y0139764D02*
Y0142323D01*
X01Y0094768D02*
Y0091969D01*
X01014D01*
X0101866Y0092435D01*
Y0092901D01*
X01014Y0093368D01*
X01D01*
X01014D01*
X0101866Y0093835D01*
Y0094301D01*
X01014Y0094768D01*
X01D01*
X0103266Y0091969D02*
X0104199D01*
X0104665Y0092435D01*
Y0093368D01*
X0104199Y0093835D01*
X0103266D01*
X0102799Y0093368D01*
Y0092435D01*
X0103266Y0091969D01*
X0106065Y0094301D02*
Y0093835D01*
X0105598D01*
X0106531D01*
X0106065D01*
Y0092435D01*
X0106531Y0091969D01*
X0108397Y0094301D02*
Y0093835D01*
X0107931D01*
X0108864D01*
X0108397D01*
Y0092435D01*
X0108864Y0091969D01*
X011073D02*
X0111663D01*
X0112129Y0092435D01*
Y0093368D01*
X0111663Y0093835D01*
X011073D01*
X0110263Y0093368D01*
Y0092435D01*
X011073Y0091969D01*
X0113062D02*
Y0093835D01*
X0113529D01*
X0113996Y0093368D01*
Y0091969D01*
Y0093368D01*
X0114462Y0093835D01*
X0114928Y0093368D01*
Y0091969D01*
D26*
X0289381Y0170855D02*
X0297714D01*
X0175984Y0137795D02*
Y0147795D01*
X02687Y01456D02*
X0273344D01*
X0339647Y0131353D02*
Y01366D01*
Y0131353D02*
X03408Y01302D01*
X0345001D01*
X03516Y0123601D01*
X02867Y01375D02*
Y0145556D01*
X0286744Y01456D01*
Y0149744D01*
X0289745Y0152745D01*
X0297714D01*
X0273344Y0160658D02*
X0274486Y01618D01*
X0273344Y01456D02*
Y0160658D01*
D27*
X0359528Y0204527D02*
X036Y0205D01*
X0353839Y0204527D02*
X0359528D01*
X0282382Y0273917D02*
X0290354D01*
X0281299Y0272835D02*
X0282382Y0273917D01*
X0281299Y0262106D02*
Y0272835D01*
X0280079Y0260886D02*
X0281299Y0262106D01*
X0279528Y0267224D02*
Y0276476D01*
X0277953Y026565D02*
X0279528Y0267224D01*
X0266437Y026565D02*
X0277953D01*
X0279528Y0276476D02*
X0282087Y0279035D01*
X026565Y02625D02*
Y0264862D01*
X0266437Y026565D01*
X0282087Y0279035D02*
X0290354D01*
X0273524Y0260886D02*
X0280079D01*
X0260433Y029252D02*
X0262205Y0290748D01*
X0209842Y029252D02*
X0260433D01*
X0209Y0293362D02*
X0209842Y029252D01*
X0170177Y0263681D02*
X0228051D01*
X0165354Y0268504D02*
X0170177Y0263681D01*
X0165354Y0268504D02*
Y0282087D01*
X0159Y0288441D02*
X0165354Y0282087D01*
X0159Y0288441D02*
Y03D01*
X0307579Y0289272D02*
X0312205D01*
X0290354Y0261122D02*
X029498D01*
X0223425Y0261122D02*
X0228051D01*
X0241831Y0244488D02*
X0252559D01*
X0236614Y0249705D02*
X0241831Y0244488D01*
X0236614Y0249705D02*
Y0284547D01*
X0312303Y0276378D02*
X0327362D01*
X0312205Y0276476D02*
X0312303Y0276378D01*
X0312205Y0263681D02*
X0317323D01*
X0330807Y0234842D02*
X0347933D01*
X0275271Y0225664D02*
X0310207D01*
X0310724Y0226181D01*
X0311807Y0227264D02*
X0316535D01*
X0316634Y0227165D01*
X025315Y0242126D02*
Y0243898D01*
X0311634Y0239173D02*
Y0243189D01*
X0312205Y0289272D02*
X0312205Y0289272D01*
X0240748Y0286713D02*
X0249902D01*
X0238428Y0284392D02*
X0240748Y0286713D01*
X0238428Y0262379D02*
Y0284392D01*
Y0262379D02*
X0242991Y0257816D01*
X0234449Y0286713D02*
X0236614Y0284547D01*
X0255118Y0251673D02*
Y0253669D01*
X0250971Y0257816D02*
X0255118Y0253669D01*
X0242913Y0264961D02*
X0244193Y0263681D01*
X0242913Y0264961D02*
Y0271161D01*
X0173425Y0271358D02*
X0228051D01*
X0181957Y0273653D02*
X0227787D01*
X0330709Y0234941D02*
X0330807Y0234842D01*
X0290354Y0261122D02*
X0290354Y0261122D01*
X0310724Y0226181D02*
X0310724D01*
X0274213Y0224606D02*
X0275271Y0225664D01*
X0242991Y0257816D02*
X0250971D01*
X0249902Y026624D02*
X025Y0266339D01*
X0242925Y0271076D02*
Y027115D01*
X0242913Y0271161D02*
X0242925Y027115D01*
X0244193Y0263681D02*
X0249902D01*
X0245276Y0261122D02*
X0249902D01*
X0262205Y0285039D02*
Y0290748D01*
X0249902Y0284154D02*
X0261319D01*
X0262205Y0285039D01*
X0252559Y0244488D02*
X025315Y0243898D01*
X0234646Y025187D02*
X0234675Y0251841D01*
Y02471D02*
Y0251841D01*
X0269061Y0219325D02*
X0269094Y0219291D01*
X02642Y0219325D02*
X0269061D01*
X0274213Y0196161D02*
Y0224606D01*
X0270746Y0192695D02*
X0274213Y0196161D01*
X0257801Y0192695D02*
X0270746D01*
X0228051Y0286713D02*
X0234449D01*
X0201472Y0283961D02*
X0227858D01*
X0199Y0286433D02*
X0201472Y0283961D01*
X0199Y0286433D02*
Y03D01*
X0193012Y0281594D02*
X0228051D01*
X0189Y0285606D02*
X0193012Y0281594D01*
X0189Y0285606D02*
Y03D01*
X0179Y027661D02*
X0181957Y0273653D01*
X0179Y027661D02*
Y03D01*
X0209Y0293362D02*
Y03D01*
X0310724Y0226181D02*
X0311807Y0227264D01*
X0351378Y0204528D02*
X0353839D01*
X0169Y0275783D02*
Y03D01*
Y0275783D02*
X0173425Y0271358D01*
X0227787Y0273653D02*
X0228051Y0273917D01*
X0227858Y0283961D02*
X0228051Y0284154D01*
D28*
X028937Y0170866D02*
X0289381Y0170855D01*
X0175984Y0147795D02*
Y0156004D01*
X0161319Y0170669D02*
X0175984Y0156004D01*
X0161319Y0170669D02*
Y0249508D01*
X0171457Y0259646D01*
X0176575Y0255709D02*
X0225622D01*
X01664Y0245534D02*
X0176575Y0255709D01*
X01664Y0172905D02*
Y0245534D01*
X0171457Y0259646D02*
X0209646D01*
X0225622Y0253625D02*
Y0255709D01*
X0217421Y0289173D02*
X0222146D01*
X01664Y0172905D02*
X0188616Y0150689D01*
X0242509Y0227844D02*
X0246033Y0231367D01*
X0239969Y0227844D02*
X0242509D01*
X0246033Y0231367D02*
Y0233908D01*
X0243652D02*
X0246033D01*
X02417Y0152591D02*
X02443Y0149991D01*
X02417Y0152591D02*
Y01543D01*
X02443Y0140944D02*
Y0149991D01*
X0239969Y0226621D02*
Y0227844D01*
X0253756Y0168056D02*
Y02005D01*
X0184419Y0211275D02*
X01857Y0212556D01*
X0187D01*
X01827Y0211275D02*
X0184419D01*
X0185819Y0207125D02*
X01897D01*
X0184319Y0208125D02*
X0185819Y0206625D01*
X01827Y0208125D02*
X0184319D01*
X0176198Y02114D02*
Y0214286D01*
Y020838D02*
Y02114D01*
X0176324Y0211275D01*
X01827D01*
X01812Y0196244D02*
X01862D01*
X0181525Y02011D02*
X01862D01*
X0181525Y01893D02*
X01862D01*
X01812Y0184444D02*
X0186175D01*
X0187Y0212556D02*
X0189744D01*
X02236Y02425D02*
Y02484D01*
X0231525Y02471D02*
Y0251465D01*
X0198Y0247335D02*
Y02517D01*
Y02422D02*
Y0247335D01*
X02113Y01543D02*
X0223685D01*
Y0168859D01*
Y01543D02*
X0238404D01*
Y0157196D01*
X0243556Y01402D02*
X02443Y0140944D01*
X017136Y0202496D02*
X0174688D01*
X02348Y01402D02*
X02348Y01402D01*
X0238044D01*
X0243556Y014004D02*
X0250879D01*
X01666Y0202456D02*
X01707D01*
X02687Y0139525D02*
Y01456D01*
X0292256Y01454D02*
X0295625D01*
X02372Y01326D02*
X0240525D01*
X02688Y01327D02*
Y0135925D01*
X02556Y01364D02*
X02557Y01363D01*
X0260721D01*
X0278856Y01456D02*
X02819D01*
X0243675Y01326D02*
X02462D01*
X024836Y013256D02*
X02484Y01326D01*
X024836Y013256D02*
X0250879D01*
X0243675Y01326D02*
X02484D01*
X02417Y01543D02*
Y01629D01*
X02442Y01654D01*
X02511D01*
X0253756Y0168056D01*
X0238404Y01543D02*
X02417D01*
X0207689Y0150689D02*
X02113Y01543D01*
X0188616Y0150689D02*
X0207689D01*
D29*
X0311249Y0230147D02*
X0347708D01*
X0347933Y0229921D01*
X0324705Y0222342D02*
X0347933D01*
X0318109Y0228938D02*
X0324705Y0222342D01*
X031175Y0228938D02*
X0318109D01*
X0272082Y0228097D02*
X0309199D01*
X0258101Y02301D02*
X0307776D01*
X03097Y0226888D02*
X031175Y0228938D01*
X0309199Y0228097D02*
X0311249Y0230147D01*
X02556Y0234072D02*
X0269472D01*
X0274284Y0226888D02*
X03097D01*
X0273524Y0226128D02*
X0274284Y0226888D01*
X0258084Y0230118D02*
X0258101Y02301D01*
X0269159Y0226128D02*
X0273524D01*
X0144882Y0145866D02*
Y0148425D01*
D30*
X0129921Y0145866D02*
Y0148425D01*
D32*
X0313583Y0189173D02*
D03*
X0175984Y0147795D02*
D03*
Y0137795D02*
D03*
X0289469Y0183169D02*
D03*
X0260531Y0271358D02*
D03*
X0112205Y0124409D02*
D03*
Y0114409D02*
D03*
X034813Y029252D02*
D03*
Y028252D02*
D03*
Y0265787D02*
D03*
Y0255787D02*
D03*
X0163863Y0147833D02*
D03*
Y0137833D02*
D03*
X036Y0205D02*
D03*
D33*
X0354331Y0161417D02*
D03*
X0329921D02*
D03*
D34*
X034252Y0181102D02*
D03*
D35*
X01587Y02738D02*
D03*
Y02638D02*
D03*
X01487Y02738D02*
D03*
Y02638D02*
D03*
X01387Y02738D02*
D03*
Y02638D02*
D03*
X01287Y02738D02*
D03*
Y02638D02*
D03*
X01187Y02738D02*
D03*
X01322Y01776D02*
D03*
Y01876D02*
D03*
Y01976D02*
D03*
Y02076D02*
D03*
Y02176D02*
D03*
Y01676D02*
D03*
X01422D02*
D03*
X01522D02*
D03*
X02767Y01375D02*
D03*
X02867D02*
D03*
X01222Y02176D02*
D03*
Y02076D02*
D03*
Y01976D02*
D03*
Y01876D02*
D03*
Y01776D02*
D03*
X0273524Y0270886D02*
D03*
Y0260886D02*
D03*
X0301634Y0239173D02*
D03*
X0311634D02*
D03*
X01422Y01776D02*
D03*
Y01876D02*
D03*
Y01976D02*
D03*
Y02076D02*
D03*
Y02176D02*
D03*
X01522D02*
D03*
Y02076D02*
D03*
Y01976D02*
D03*
Y01876D02*
D03*
Y01776D02*
D03*
D36*
X01187Y02638D02*
D03*
X01222Y01676D02*
D03*
X02967Y01375D02*
D03*
X0291634Y0239173D02*
D03*
D37*
X01322Y02276D02*
D03*
X01222D02*
D03*
X0273524Y0250886D02*
D03*
X01422Y02276D02*
D03*
X01522D02*
D03*
D38*
X0305394Y0199941D02*
D03*
X0295394D02*
D03*
X0305394Y0209941D02*
D03*
X0295394D02*
D03*
X0305394Y0219941D02*
D03*
X0295394D02*
D03*
D39*
X0209Y03D02*
D03*
X0199D02*
D03*
X0189D02*
D03*
X0179D02*
D03*
X0169D02*
D03*
X0159D02*
D03*
X0149D02*
D03*
X0139D02*
D03*
X0129D02*
D03*
X0119D02*
D03*
X0225Y011D02*
D03*
X0215D02*
D03*
X0205D02*
D03*
X0195D02*
D03*
X0185D02*
D03*
X0175D02*
D03*
X0165D02*
D03*
X0155D02*
D03*
X0245D02*
D03*
X0255D02*
D03*
X0265D02*
D03*
X0275D02*
D03*
X0285D02*
D03*
X0295D02*
D03*
Y03D02*
D03*
X0285D02*
D03*
X0275D02*
D03*
X0265D02*
D03*
X0255D02*
D03*
X0245D02*
D03*
X0235D02*
D03*
X0225D02*
D03*
D40*
X036Y024D02*
D03*
D41*
X0334668Y01207D02*
D03*
X0330732D02*
D03*
X03327Y0123456D02*
D03*
Y0117944D02*
D03*
D42*
X02686Y0232D02*
D03*
X0277559Y0233563D02*
D03*
X0279429Y0215453D02*
D03*
X0281102Y0251969D02*
D03*
X0278051Y0172539D02*
D03*
X0285138Y0268799D02*
D03*
X0278642Y0281594D02*
D03*
X0295177Y0286811D02*
D03*
X0258366Y0290256D02*
D03*
X0282087Y0288976D02*
D03*
X0217421Y0289173D02*
D03*
X0209646Y0259646D02*
D03*
X0307579Y0289272D02*
D03*
X029498Y0261122D02*
D03*
X0223425Y0261122D02*
D03*
X024311Y0289272D02*
D03*
X0243652Y0233908D02*
D03*
X0215748Y0275492D02*
D03*
X024498Y0272638D02*
D03*
X0322146Y0273917D02*
D03*
X0325492Y0284154D02*
D03*
X0323917Y0281594D02*
D03*
X0327362Y0276378D02*
D03*
X0283366Y0248917D02*
D03*
X0335531Y0286713D02*
D03*
X0333957Y0279134D02*
D03*
X0317323Y0263681D02*
D03*
X0316634Y0227165D02*
D03*
X026939Y024252D02*
D03*
X025315Y0242126D02*
D03*
X0256594Y0237008D02*
D03*
X0260531Y0247736D02*
D03*
X026309Y0252854D02*
D03*
X0248228Y0253445D02*
D03*
X0268012Y0268209D02*
D03*
X0201969Y0279035D02*
D03*
X0257395Y0255327D02*
D03*
X0317224Y026624D02*
D03*
Y0268799D02*
D03*
X0272Y02361D02*
D03*
X0269488Y0234055D02*
D03*
X0269159Y0226128D02*
D03*
X0257972Y0260433D02*
D03*
X0242925Y0271076D02*
D03*
X0196063Y0269587D02*
D03*
X02Y0277362D02*
D03*
X0194177Y0266027D02*
D03*
X0312205Y0259252D02*
D03*
X02777Y02387D02*
D03*
X02764Y02002D02*
D03*
X0257108Y0242101D02*
D03*
X0255118Y0251673D02*
D03*
X0258084Y0230118D02*
D03*
X0242618Y0253346D02*
D03*
X0254035Y0273819D02*
D03*
X0245276Y0261122D02*
D03*
X029498Y0271358D02*
D03*
X0234646Y025187D02*
D03*
X0252756Y0218209D02*
D03*
X0254626Y0220276D02*
D03*
X0245276Y0216929D02*
D03*
X0249375Y0236175D02*
D03*
X0269094Y0219291D02*
D03*
X0347933Y0237402D02*
D03*
Y0234842D02*
D03*
X0282185Y0285827D02*
D03*
X0232677Y0274803D02*
D03*
X0219685Y0286024D02*
D03*
X0330709Y0234941D02*
D03*
X0328346Y0216535D02*
D03*
X0350197Y0209547D02*
D03*
X0320472Y0188206D02*
D03*
X0316732Y0222441D02*
D03*
X0347933Y0219882D02*
D03*
Y0222342D02*
D03*
X0307776Y0230315D02*
D03*
X0347933Y0229921D02*
D03*
X0327953Y0232185D02*
D03*
X0351378Y0204528D02*
D03*
X0351476Y0201181D02*
D03*
X0332677Y0199508D02*
D03*
X0316732Y0216043D02*
D03*
X0324508Y0215945D02*
D03*
X0350197Y0194488D02*
D03*
X0265945Y0273425D02*
D03*
X0216043Y0267717D02*
D03*
X0196Y01688D02*
D03*
X01747Y01985D02*
D03*
X01487Y0250472D02*
D03*
X01246Y02504D02*
D03*
X01326D02*
D03*
X01406Y0250372D02*
D03*
X02577Y02127D02*
D03*
X0277156Y0207244D02*
D03*
X0259325Y0204475D02*
D03*
X0249234Y0242101D02*
D03*
X0271949Y0207176D02*
D03*
X025932Y0198569D02*
D03*
X0277464Y01808D02*
D03*
X0277156Y0187889D02*
D03*
X0271644D02*
D03*
X02522Y01489D02*
D03*
X0235465Y01596D02*
D03*
X0249644Y0155156D02*
D03*
X0254756D02*
D03*
X01862Y01986D02*
D03*
Y02011D02*
D03*
Y0186758D02*
D03*
Y0184419D02*
D03*
X01897Y0207125D02*
D03*
X019Y02127D02*
D03*
X02261Y01517D02*
D03*
X0201544Y0156356D02*
D03*
X02157Y01572D02*
D03*
Y0151688D02*
D03*
X02691Y02222D02*
D03*
X0245719Y02005D02*
D03*
X02578Y02005D02*
D03*
X0227549Y0240601D02*
D03*
X0231525Y0251465D02*
D03*
X0198Y02517D02*
D03*
X0233424Y02421D02*
D03*
X02314Y02558D02*
D03*
X01948Y02421D02*
D03*
X01865Y02474D02*
D03*
X0225622Y0253625D02*
D03*
X01862Y0196219D02*
D03*
Y01893D02*
D03*
X024047Y0148841D02*
D03*
X02384Y01572D02*
D03*
X0192Y01533D02*
D03*
X0192147Y0168817D02*
D03*
X0223685Y0168859D02*
D03*
X0227622D02*
D03*
X0229559Y0170359D02*
D03*
X0213859Y0204059D02*
D03*
X0203937Y0168859D02*
D03*
X0205937Y0170359D02*
D03*
X0202D02*
D03*
X0200063Y0168859D02*
D03*
X0225583Y0208365D02*
D03*
X0219712Y0202435D02*
D03*
X0225612Y0202465D02*
D03*
X0213859Y0206759D02*
D03*
X0222659Y0214241D02*
D03*
X0222635Y0211288D02*
D03*
X0222659Y0199459D02*
D03*
Y0196559D02*
D03*
X0231459Y0204059D02*
D03*
X0207937Y0168859D02*
D03*
X0209874Y0170359D02*
D03*
X0217748D02*
D03*
X0213811D02*
D03*
X0215811Y0168859D02*
D03*
X0243307D02*
D03*
X0245307Y0170359D02*
D03*
X0249244D02*
D03*
X0239433Y0168859D02*
D03*
X0237433Y0170359D02*
D03*
X0233496D02*
D03*
X0174688Y0202496D02*
D03*
X0211832Y0251888D02*
D03*
X0206818Y0201418D02*
D03*
X0203318D02*
D03*
Y0209618D02*
D03*
X0245297Y0242101D02*
D03*
X0241297D02*
D03*
X0243297Y0240601D02*
D03*
X023936D02*
D03*
X0237423Y0242101D02*
D03*
X0235423Y0240601D02*
D03*
X0215832Y0242101D02*
D03*
X0213832Y0240601D02*
D03*
X0217769D02*
D03*
X0219706Y0242101D02*
D03*
X0207895D02*
D03*
X0205958Y0240601D02*
D03*
X0204021Y0242101D02*
D03*
X0211811Y0159031D02*
D03*
X0198063Y0170359D02*
D03*
X0257801Y0192695D02*
D03*
X0259301Y0186821D02*
D03*
X0257801Y0208443D02*
D03*
Y0184821D02*
D03*
X0259301Y0182821D02*
D03*
X0257769Y0176916D02*
D03*
Y0216286D02*
D03*
X0186049Y0232065D02*
D03*
X0269088Y0194632D02*
D03*
X0272082Y0228097D02*
D03*
X0329072Y0188206D02*
D03*
X0332684Y0203058D02*
D03*
X0277572Y02426D02*
D03*
X03392Y01271D02*
D03*
X02687Y01456D02*
D03*
X0270844Y01456D02*
D03*
X02688Y0141219D02*
D03*
X0244525Y0203975D02*
D03*
X0242Y01983D02*
D03*
X02385D02*
D03*
X02556Y02281D02*
D03*
X02769Y0175D02*
D03*
Y01703D02*
D03*
X02598Y01731D02*
D03*
X02603Y01543D02*
D03*
X02444Y015435D02*
D03*
X02236Y02425D02*
D03*
X02216Y02397D02*
D03*
X02593Y01695D02*
D03*
X01908Y01577D02*
D03*
X0198425Y014813D02*
D03*
X0217913Y0252264D02*
D03*
X0209941Y0240748D02*
D03*
X0231496Y0206791D02*
D03*
X0170669Y0254134D02*
D03*
X0164061Y0201476D02*
D03*
X0109744Y0196161D02*
D03*
Y0207972D02*
D03*
Y0219783D02*
D03*
Y0231594D02*
D03*
X0129921Y0148425D02*
D03*
X0135039D02*
D03*
X0139764D02*
D03*
X0144882D02*
D03*
X0129921Y0139764D02*
D03*
X0135039D02*
D03*
X0139764D02*
D03*
X0144882D02*
D03*
X0145079Y0128661D02*
D03*
X0140079D02*
D03*
X0135079D02*
D03*
X0130079D02*
D03*
X0347399Y0215945D02*
D03*
D43*
X028937Y0170866D02*
D03*
X03138Y01451D02*
D03*
X0360701Y0136199D02*
D03*
D44*
X0259055Y02222D02*
D03*
X0176198Y0200506D02*
D03*
X0198Y02422D02*
D03*
X01762Y01888D02*
D03*
X0176198Y020838D02*
D03*
X017623Y0214317D02*
D03*
X02236Y02518D02*
D03*
X0231507Y0240559D02*
D03*
D45*
X02348Y01402D02*
D03*
X02372Y01326D02*
D03*
X0295625Y01454D02*
D03*
X02556Y01364D02*
D03*
X02819Y01456D02*
D03*
X02688Y01327D02*
D03*
X033937Y0171653D02*
D03*
X0345571Y0171752D02*
D03*
X033937Y0163779D02*
D03*
X0345866Y0163878D02*
D03*
D66*
X0290354Y0261122D02*
D03*
Y0263681D02*
D03*
Y026624D02*
D03*
Y0268799D02*
D03*
Y0271358D02*
D03*
Y0273917D02*
D03*
Y0276476D02*
D03*
Y0279035D02*
D03*
Y0281594D02*
D03*
Y0284154D02*
D03*
Y0286713D02*
D03*
Y0289272D02*
D03*
X0312205Y0261122D02*
D03*
Y0263681D02*
D03*
Y026624D02*
D03*
Y0268799D02*
D03*
Y0271358D02*
D03*
Y0273917D02*
D03*
Y0276476D02*
D03*
Y0279035D02*
D03*
Y0281594D02*
D03*
Y0284154D02*
D03*
Y0286713D02*
D03*
Y0289272D02*
D03*
X0228051Y0261122D02*
D03*
Y0263681D02*
D03*
Y026624D02*
D03*
Y0268799D02*
D03*
Y0271358D02*
D03*
Y0273917D02*
D03*
Y0276476D02*
D03*
Y0279035D02*
D03*
Y0281594D02*
D03*
Y0284154D02*
D03*
Y0286713D02*
D03*
Y0289272D02*
D03*
X0249902Y0261122D02*
D03*
Y0263681D02*
D03*
Y026624D02*
D03*
Y0268799D02*
D03*
Y0271358D02*
D03*
Y0273917D02*
D03*
Y0276476D02*
D03*
Y0279035D02*
D03*
Y0281594D02*
D03*
Y0284154D02*
D03*
Y0286713D02*
D03*
Y0289272D02*
D03*
D67*
X026565Y0256201D02*
D03*
X026309D02*
D03*
X0260531D02*
D03*
X026565Y02625D02*
D03*
X026309D02*
D03*
X0260531D02*
D03*
D68*
X0274486Y01618D02*
D03*
D69*
X0297714Y0152745D02*
D03*
Y01618D02*
D03*
Y0170855D02*
D03*
D70*
X0260721Y014004D02*
D03*
Y01363D02*
D03*
Y013256D02*
D03*
X0250879D02*
D03*
Y014004D02*
D03*
D71*
X0339196Y0125424D02*
D03*
Y0122275D02*
D03*
Y0119125D02*
D03*
Y0115976D02*
D03*
X0326204D02*
D03*
Y0119125D02*
D03*
Y0122275D02*
D03*
Y0125424D02*
D03*
D72*
X03327Y01207D02*
D03*
D73*
X0215265Y0195065D02*
D03*
X0218218D02*
D03*
X0221171D02*
D03*
X0224124D02*
D03*
X0227076D02*
D03*
X0230029D02*
D03*
X0215265Y0198018D02*
D03*
X0218218D02*
D03*
X0221171D02*
D03*
X0224124D02*
D03*
X0227076D02*
D03*
X0230029D02*
D03*
X0215265Y0200971D02*
D03*
X0218218D02*
D03*
X0221171D02*
D03*
X0224124D02*
D03*
X0227076D02*
D03*
X0230029D02*
D03*
X0215265Y0203924D02*
D03*
X0218218D02*
D03*
X0221171D02*
D03*
X0224124D02*
D03*
X0227076D02*
D03*
X0230029D02*
D03*
X0215265Y0206876D02*
D03*
X0218218D02*
D03*
X0221171D02*
D03*
X0224124D02*
D03*
X0227076D02*
D03*
X0230029D02*
D03*
X0215265Y0209829D02*
D03*
X0218218D02*
D03*
X0221171D02*
D03*
X0224124D02*
D03*
X0227076D02*
D03*
X0230029D02*
D03*
X0215265Y0212782D02*
D03*
X0218218D02*
D03*
X0221171D02*
D03*
X0224124D02*
D03*
X0227076D02*
D03*
X0230029D02*
D03*
X0215265Y0215735D02*
D03*
X0218218D02*
D03*
X0221171D02*
D03*
X0224124D02*
D03*
X0227076D02*
D03*
X0230029D02*
D03*
D74*
X0239969Y0216779D02*
D03*
Y0226621D02*
D03*
X0248631Y0216779D02*
D03*
Y0226621D02*
D03*
D75*
X0339647Y01366D02*
D03*
X0325553D02*
D03*
D76*
X03138Y0123401D02*
D03*
Y0135999D02*
D03*
X03516Y0123601D02*
D03*
Y0136199D02*
D03*
D77*
X0326557Y0156479D02*
X033189Y0161811D01*
X0325553Y0156479D02*
X0326557D01*
X0325553Y01366D02*
Y0156479D01*
X0274486Y01618D02*
X0297714D01*
X01984Y01209D02*
X02658D01*
X0195Y01175D02*
X01984Y01209D01*
X0195Y011D02*
Y01175D01*
X02658Y01209D02*
X02767Y01318D01*
X03138Y0135999D02*
Y01451D01*
X03516Y0136199D02*
X0360701D01*
X03138Y0123401D02*
X03246D01*
X0302999D02*
X03138D01*
X02967Y01297D02*
X0302999Y0123401D01*
X02967Y01297D02*
Y01375D01*
X02767Y01318D02*
Y01375D01*
X0324655Y0123456D02*
X03327D01*
D78*
X0282087Y0288976D02*
X0284547D01*
X0282087Y0288878D02*
Y0288976D01*
X0285039Y0289272D02*
X0290354D01*
X0284744Y0288976D02*
X0285039Y0289272D01*
X0284547Y0288976D02*
X0284744D01*
X02642Y0222475D02*
X02645Y0222175D01*
X02658Y01393D02*
X0268625D01*
X0260721Y014004D02*
X026506D01*
X0266Y01391D01*
X0260721Y013256D02*
X026506D01*
X0266Y01335D01*
Y01391D01*
X02645Y0222175D02*
X02691D01*
D79*
X0231474Y0240593D02*
X0231507Y0240559D01*
X0231474Y0247048D02*
X0231525Y02471D01*
X02236Y02484D02*
Y02518D01*
M02*
