M48
;Layer_Color=9474304
;FILE_FORMAT=2:5
INCH,LZ
;TYPE=PLATED
T1F00S00C0.01000
T2F00S00C0.01600
T3F00S00C0.02800
T4F00S00C0.03400
T5F00S00C0.03543
T6F00S00C0.03550
T7F00S00C0.03800
T9F00S00C0.12600
%
T01
X0130079Y0128661
X0135079
X0140079
X0145079
X0144882Y0139764
X0139764
X0135039
X0129921
Y0148425
X0135039
X0139764
X0144882
X0192Y01533
X0198425Y014813
X02157Y0151688
X02261Y01517
X0241356Y0148644
X02444Y015435
X0249644Y0155156
X0254756
X02603Y01543
X02522Y01489
X02687Y01456
X0270844Y01456
X02688Y0141219
X03327Y0123456
X0330732Y01207
X0334668
X03327Y0117944
X03392Y01271
X0329072Y0188206
X0320472
X0332677Y0199508
X0332684Y0203058
X0329921Y0215059
X0324508Y0215945
X0316732Y0216043
X0316732Y0222441
X0314173Y0227264
X0327953Y0232185
Y0234941
X0333957
X0332Y0232382
X033703Y0224803
X0347933Y0222342
Y0219882
X0347399Y0215945
X0350197Y0209547
X0351378Y0204528
X0351476Y0201181
X0350197Y0194488
X0351378Y0224705
X0347933Y0229921
Y023248
Y0234842
Y0237402
X0307776Y0230315
X0300689Y0234842
X02776Y02336
X02777Y02387
X0277572Y02426
X0271752Y0245079
X0272Y02361
X02686Y0232
X0269159Y0226128
X02691Y02222
X0272082Y0228097
X02588Y02301
X0259Y0234
X025145Y02341
X0246225Y0236175
X0245297Y0242101
X0243297Y0240601
X0241297Y0242101
X023936Y0240601
X0237423Y0242101
X0235423Y0240601
X0233424Y02421
X0231507Y0240559
X0227549Y0240601
X02236Y02425
X0219706Y0242101
X0217769Y0240601
X0215832Y0242101
X0213832Y0240601
X0209941Y0240748
X0207895Y0242101
X0205958Y0240601
X0204021Y0242101
X0198Y02422
X01948Y02421
X0198Y02517
X0211832Y0251888
X0217913Y0252264
X02236Y02518
X0225622Y0253625
X02314Y02558
X0231525Y0251465
X0234675Y0253475
X0245144Y0257156
X0250656
X0257185Y0257185
X026309Y0252854
X0257108Y0242101
X0249234
X02556Y02281
X02567Y02222
X0259Y0219325
X0257769Y0216286
X02577Y02127
X0257801Y0208443
X0259325Y0204475
X02578Y02005
X025932Y0198569
X0257801Y0192695
X0259301Y0190695
X0257801Y0188758
X0259301Y0186821
X0257801Y0184821
X0259301Y0182821
X0257769Y0176916
X02598Y01731
X02593Y01695
X0249244Y0170359
X0245307
X0243307Y0168859
X0239433
X0237433Y0170359
X0233496
X0229559
X0227622Y0168859
X0223685
X0217748Y0170359
X0215811Y0168859
X0213811Y0170359
X0209874
X0207937Y0168859
X0205937Y0170359
X0203937Y0168859
X0202Y0170359
X0200063Y0168859
X0198063Y0170359
X0196Y01688
X0192147Y0168817
X01908Y01577
X0201544Y0156356
X0211811Y0159031
X02157Y01572
X0235465Y01596
X02384Y01572
X02385Y01983
X0242
X0245719Y02005
X0244525Y0203975
X0231459Y0204059
X0231496Y0206791
X0225583Y0208365
X0222635Y0211288
X0222659Y0214241
X0225612Y0202465
X0219712Y0202435
X0222659Y0199459
Y0196559
X0213859Y0204059
Y0206759
X0206818Y0201418
X0203318
Y0209618
X01897Y0207125
X019Y02127
X017623Y0214317
X0176198Y020838
X0174688Y0202496
X0176198Y0200506
X01747Y01985
X01762Y01888
X01862Y01893
Y0186758
Y0184419
Y0196219
Y01986
Y02011
X0164061Y0201476
X0186049Y0232065
X01865Y02474
X0170669Y0254134
X0216043Y0267717
X0214764Y0275492
X0233661
X0265945Y0273425
X0268504Y026811
X0271949Y0207176
X0277156Y0207244
X02764Y02002
X0269088Y0194632
X0271644Y0187889
X0277156
X0277464Y01808
X02769Y0175
Y01703
X0252Y02168
X02216Y02397
X01487Y0250472
X01406Y0250372
X01326Y02504
X01246
X0109744Y0231594
Y0219783
Y0207972
Y0196161
T02
X02372Y01326
X02348Y01402
X02556Y01364
X02688Y01327
X02819Y01456
X0295625Y01454
X0342224Y0164665
X0348721Y0164764
X0348425Y0172638
X0342224Y0172539
T03
X03138Y01451
X0360701Y0136199
X0306815Y0170855
T04
X0155Y011
X0165
X0175
X0185
X0195
X0205
X0215
X0225
X0245
X0255
X0265
X0275
X0285
X0295
Y03
X0285
X0275
X0265
X0255
X0245
X0235
X0225
X0209
X0199
X0189
X0179
X0169
X0159
X0149
X0139
X0129
X0119
T05
X02767Y01375
X02867
X02967
X0313248Y0260531
X0323248
X0303248
X0274508Y0260492
Y0250492
Y0270492
X01587Y02738
Y02638
X01487
X01387
X01287
X01187
Y02738
X01287
X01387
X01487
X01522Y02276
Y02176
Y02076
Y01976
Y01876
Y01776
Y01676
X01422
X01322
X01222
Y01776
Y01876
Y01976
Y02076
Y02176
Y02276
X01322
Y02176
Y02076
Y01976
Y01876
Y01776
X01422
Y01876
Y01976
Y02076
Y02176
Y02276
T06
X0112205Y0114409
Y0124409
X0163863Y0137833
Y0147833
X0175984Y0147795
Y0137795
X034813Y0255787
Y0265787
Y028252
Y029252
X0257776Y0274114
T07
X02955Y02
X03055
Y021
X02955
Y022
X03055
T09
X036Y024
M30
