%FSTAX25Y25*%
%MOIN*%
G70*
G01*
G75*
G04 Layer_Physical_Order=1*
G04 Layer_Color=255*
%ADD10O,0.07087X0.01181*%
%ADD11O,0.01181X0.07087*%
%ADD12O,0.07284X0.01378*%
%ADD13R,0.08071X0.02756*%
%ADD14R,0.01772X0.02165*%
%ADD15R,0.03150X0.03150*%
%ADD16R,0.01575X0.02559*%
%ADD17R,0.02992X0.06299*%
%ADD18R,0.04528X0.06693*%
%ADD19R,0.02165X0.01772*%
%ADD20R,0.02756X0.03543*%
%ADD21R,0.03543X0.02756*%
%ADD22R,0.02047X0.02047*%
%ADD23R,0.02047X0.02047*%
%ADD24C,0.01000*%
%ADD25C,0.00700*%
%ADD26C,0.03000*%
%ADD27C,0.00591*%
%ADD28C,0.00669*%
%ADD29C,0.00500*%
%ADD30C,0.02000*%
%ADD31C,0.06000*%
%ADD32O,0.15748X0.07874*%
%ADD33O,0.07874X0.15748*%
%ADD34O,0.07874X0.17716*%
%ADD35R,0.05906X0.05906*%
%ADD36C,0.05906*%
%ADD37R,0.05906X0.05906*%
%ADD38P,0.06711X8X112.5*%
%ADD39O,0.05600X0.11200*%
%ADD40C,0.12600*%
%ADD41C,0.01969*%
%ADD42C,0.01600*%
%ADD43C,0.02800*%
%ADD44C,0.01595*%
%ADD45C,0.05000*%
D10*
X0181124Y017101D02*
D03*
Y0172979D02*
D03*
Y0174947D02*
D03*
Y0176916D02*
D03*
Y0178884D02*
D03*
Y0180853D02*
D03*
Y0182821D02*
D03*
Y018479D02*
D03*
Y0186758D02*
D03*
Y0188727D02*
D03*
Y0190695D02*
D03*
Y0192664D02*
D03*
Y0194632D02*
D03*
Y0196601D02*
D03*
Y0198569D02*
D03*
Y0200538D02*
D03*
Y0202506D02*
D03*
Y0204475D02*
D03*
Y0206443D02*
D03*
Y0208412D02*
D03*
Y021038D02*
D03*
Y0212349D02*
D03*
Y0214317D02*
D03*
Y0216286D02*
D03*
Y0218254D02*
D03*
Y0220223D02*
D03*
Y0222191D02*
D03*
Y022416D02*
D03*
Y0226128D02*
D03*
Y0228097D02*
D03*
Y0230065D02*
D03*
Y0232034D02*
D03*
Y0234002D02*
D03*
Y0235971D02*
D03*
Y0237939D02*
D03*
Y0239908D02*
D03*
X0264194D02*
D03*
Y0237939D02*
D03*
Y0235971D02*
D03*
Y0234002D02*
D03*
Y0232034D02*
D03*
Y0230065D02*
D03*
Y0228097D02*
D03*
Y0226128D02*
D03*
Y022416D02*
D03*
Y0222191D02*
D03*
Y0220223D02*
D03*
Y0218254D02*
D03*
Y0216286D02*
D03*
Y0214317D02*
D03*
Y0212349D02*
D03*
Y021038D02*
D03*
Y0208412D02*
D03*
Y0206443D02*
D03*
Y0204475D02*
D03*
Y0202506D02*
D03*
Y0200538D02*
D03*
Y0198569D02*
D03*
Y0196601D02*
D03*
Y0194632D02*
D03*
Y0192664D02*
D03*
Y0190695D02*
D03*
Y0188727D02*
D03*
Y0186758D02*
D03*
Y018479D02*
D03*
Y0182821D02*
D03*
Y0180853D02*
D03*
Y0178884D02*
D03*
Y0176916D02*
D03*
Y0174947D02*
D03*
Y0172979D02*
D03*
Y017101D02*
D03*
D11*
X018821Y0246994D02*
D03*
X0190179D02*
D03*
X0192147D02*
D03*
X0194116D02*
D03*
X0196084D02*
D03*
X0198053D02*
D03*
X0200021D02*
D03*
X020199D02*
D03*
X0203958D02*
D03*
X0205927D02*
D03*
X0207895D02*
D03*
X0209864D02*
D03*
X0211832D02*
D03*
X0213801D02*
D03*
X0215769D02*
D03*
X0217738D02*
D03*
X0219706D02*
D03*
X0221675D02*
D03*
X0223643D02*
D03*
X0225612D02*
D03*
X022758D02*
D03*
X0229549D02*
D03*
X0231517D02*
D03*
X0233486D02*
D03*
X0235454D02*
D03*
X0237423D02*
D03*
X0239391D02*
D03*
X024136D02*
D03*
X0243328D02*
D03*
X0245297D02*
D03*
X0247265D02*
D03*
X0249234D02*
D03*
X0251202D02*
D03*
X0253171D02*
D03*
X0255139D02*
D03*
X0257108D02*
D03*
Y0163924D02*
D03*
X0255139D02*
D03*
X0253171D02*
D03*
X0251202D02*
D03*
X0249234D02*
D03*
X0247265D02*
D03*
X0245297D02*
D03*
X0243328D02*
D03*
X024136D02*
D03*
X0239391D02*
D03*
X0237423D02*
D03*
X0235454D02*
D03*
X0233486D02*
D03*
X0231517D02*
D03*
X0229549D02*
D03*
X022758D02*
D03*
X0225612D02*
D03*
X0223643D02*
D03*
X0221675D02*
D03*
X0219706D02*
D03*
X0217738D02*
D03*
X0215769D02*
D03*
X0213801D02*
D03*
X0211832D02*
D03*
X0209864D02*
D03*
X0207895D02*
D03*
X0205927D02*
D03*
X0203958D02*
D03*
X020199D02*
D03*
X0200021D02*
D03*
X0198053D02*
D03*
X0196084D02*
D03*
X0194116D02*
D03*
X0192147D02*
D03*
X0190179D02*
D03*
X018821D02*
D03*
D12*
X0321949Y0237392D02*
D03*
Y0234892D02*
D03*
Y0232392D02*
D03*
Y0229892D02*
D03*
Y0227392D02*
D03*
Y0224892D02*
D03*
Y0222392D02*
D03*
Y0219892D02*
D03*
X0342421Y0237392D02*
D03*
Y0234892D02*
D03*
Y0232392D02*
D03*
Y0229892D02*
D03*
Y0227392D02*
D03*
Y0224892D02*
D03*
Y0222392D02*
D03*
Y0219892D02*
D03*
D13*
X0323241Y0209506D02*
D03*
Y0204505D02*
D03*
Y0199505D02*
D03*
Y0194506D02*
D03*
X0344304Y0209506D02*
D03*
Y0204505D02*
D03*
Y0199505D02*
D03*
Y0194506D02*
D03*
D14*
X021811Y0267717D02*
D03*
X0221654D02*
D03*
X022126Y0275492D02*
D03*
X0217717D02*
D03*
X0342028Y0215945D02*
D03*
X0345571D02*
D03*
X0271928Y02387D02*
D03*
X0275472D02*
D03*
X0275372Y02336D02*
D03*
X0271828D02*
D03*
X0271228Y0175D02*
D03*
X0274772D02*
D03*
X0271228Y01703D02*
D03*
X0274772D02*
D03*
X02718Y02426D02*
D03*
X0275343D02*
D03*
X0167126Y0259744D02*
D03*
X0170669D02*
D03*
X0111221Y0238189D02*
D03*
X0114764D02*
D03*
X0111221Y0226378D02*
D03*
X0114764D02*
D03*
X0111221Y0214567D02*
D03*
X0114764D02*
D03*
X0111221Y0202756D02*
D03*
X0114764D02*
D03*
D15*
X0233465Y0267717D02*
D03*
X0226965D02*
D03*
D16*
X0113878Y0234252D02*
D03*
X0109744D02*
D03*
X0230217Y0275492D02*
D03*
X0226083D02*
D03*
X0113878Y0198819D02*
D03*
X0109744D02*
D03*
X0113878Y021063D02*
D03*
X0109744D02*
D03*
X0113878Y0222441D02*
D03*
X0109744D02*
D03*
D17*
X0130079Y0152913D02*
D03*
Y0132913D02*
D03*
X0135079Y0152913D02*
D03*
Y0132913D02*
D03*
X0140079Y0152913D02*
D03*
Y0132913D02*
D03*
X0145079Y0152913D02*
D03*
Y0132913D02*
D03*
D18*
X0185827Y0268996D02*
D03*
X0168701D02*
D03*
D19*
X01487Y0284772D02*
D03*
Y0281228D02*
D03*
X01387Y0284772D02*
D03*
Y0281228D02*
D03*
X01287Y0284772D02*
D03*
Y0281228D02*
D03*
X01187Y0284772D02*
D03*
Y0281228D02*
D03*
X01246Y0256072D02*
D03*
Y0252528D02*
D03*
X01326Y0256072D02*
D03*
Y0252528D02*
D03*
X01406Y0256043D02*
D03*
Y02525D02*
D03*
X01487Y0256143D02*
D03*
Y02526D02*
D03*
X01206Y0256072D02*
D03*
Y0252528D02*
D03*
X01286Y0256072D02*
D03*
Y0252528D02*
D03*
X01366Y0256043D02*
D03*
Y02525D02*
D03*
X01447Y0256143D02*
D03*
Y02526D02*
D03*
D20*
X0271644Y01849D02*
D03*
X0277156D02*
D03*
X0250656Y02539D02*
D03*
X0245144D02*
D03*
X0277156Y02043D02*
D03*
X0271644D02*
D03*
D21*
X02414Y0157156D02*
D03*
Y0151644D02*
D03*
X02187Y0157156D02*
D03*
Y0151644D02*
D03*
X02522Y0157156D02*
D03*
Y0151644D02*
D03*
X01985Y0156356D02*
D03*
Y0150844D02*
D03*
X02236Y0151644D02*
D03*
Y0157156D02*
D03*
D22*
X0274575Y02002D02*
D03*
X0271425D02*
D03*
X0274475Y01808D02*
D03*
X0271325D02*
D03*
X0323198Y0188206D02*
D03*
X0326347D02*
D03*
X0322074Y0215999D02*
D03*
X0318924D02*
D03*
D23*
X02468Y0154325D02*
D03*
Y0157475D02*
D03*
X01939Y0153325D02*
D03*
Y0156475D02*
D03*
X02579Y0154325D02*
D03*
Y0157475D02*
D03*
D24*
X0345571Y0215945D02*
X0347399D01*
X0211122Y0261319D02*
X0249431D01*
X0206693Y0265748D02*
X0211122Y0261319D01*
X0206693Y0265748D02*
Y0282283D01*
X0209Y0266394D02*
Y03D01*
Y0266394D02*
X021191Y0263484D01*
X0250197D01*
X0198917Y0290059D02*
X0206693Y0282283D01*
X0130079Y0128661D02*
Y0132913D01*
X0135079Y0128661D02*
Y0132913D01*
X0140079Y0128661D02*
Y0132913D01*
X0145079Y0128661D02*
Y0132913D01*
X0109744Y0231594D02*
Y0234252D01*
Y0219783D02*
Y0222441D01*
Y0207972D02*
Y021063D01*
Y0196161D02*
Y0198819D01*
X0168936Y0196601D02*
X0181124D01*
X0164061Y0201476D02*
X0168936Y0196601D01*
X0170669Y0254134D02*
Y0259744D01*
X0183661D01*
X0185827Y026191D01*
Y0268996D01*
X016307Y02638D02*
X0167126Y0259744D01*
X01587Y02638D02*
X016307D01*
X0168701Y0268996D02*
Y0270276D01*
X0165176Y02738D02*
X0168701Y0270276D01*
X01587Y02738D02*
X0165176D01*
X0198917Y0299917D02*
X0199Y03D01*
X0198917Y0290059D02*
Y0299917D01*
X020199Y0246994D02*
Y0274967D01*
X0197461Y0279496D02*
X020199Y0274967D01*
X0197461Y0279496D02*
Y0279539D01*
X0189Y0288D02*
X0197461Y0279539D01*
X0200021Y0246994D02*
Y0273601D01*
X0185322Y02883D02*
X0200021Y0273601D01*
X0249431Y0261319D02*
X0253171Y0257579D01*
Y0246994D02*
Y0257579D01*
X019813Y0150984D02*
X0198425Y0150689D01*
Y014813D02*
Y0150689D01*
Y014813D02*
X01985Y0148205D01*
X01819Y02883D02*
X0185322D01*
X0196084Y0246994D02*
Y027488D01*
X0184941Y0286024D02*
X0196084Y027488D01*
X0172576Y0286024D02*
X0184941D01*
X0169Y02896D02*
X0172576Y0286024D01*
X018435Y0284252D02*
X0194116Y0274487D01*
X0163548Y0284252D02*
X018435D01*
X0159Y02888D02*
X0163548Y0284252D01*
X0194116Y0246994D02*
Y0274487D01*
X0198Y0246942D02*
X0198053Y0246994D01*
X0198Y02422D02*
Y0246942D01*
X02236Y0246954D02*
Y02518D01*
Y0246954D02*
X0223602Y0246953D01*
X0221685Y0239785D02*
Y0246984D01*
X02216Y02397D02*
X0221685Y0239785D01*
X0320472Y0188206D02*
X0323198D01*
X02444Y015435D02*
X0244425Y0154325D01*
X02473D01*
X02574D02*
X0260275D01*
X02603Y01543D01*
X0274772Y01703D02*
X02769D01*
X0274772Y0175D02*
X02769D01*
X0264194Y0174947D02*
X0264247Y0175D01*
X0271228D01*
X0259Y0234D02*
X0259002Y0234002D01*
X02694Y02388D02*
Y02418D01*
X02702Y02426D02*
X02718D01*
X02694Y02418D02*
X02702Y02426D01*
X0271871Y0235971D02*
X0272Y02361D01*
X0275372Y02336D02*
X02776D01*
X0275472Y02387D02*
X02777D01*
X0271828Y02336D02*
X0272Y0233772D01*
Y02361D01*
X0271928Y02387D02*
X0272Y0238628D01*
Y02361D02*
Y0238628D01*
X0268628Y0238028D02*
X02694Y02388D01*
X0264283Y0238028D02*
X0268628D01*
X0275343Y02426D02*
X0277572D01*
X0326347Y0188206D02*
X0329072D01*
X0264163Y0208443D02*
X0264194Y0208412D01*
X0257801Y0208443D02*
X0264163D01*
X0257108Y0242101D02*
Y0246994D01*
X0181155Y0232065D02*
X0186049D01*
X0211811Y0159031D02*
Y0163945D01*
X0241297Y0247015D02*
X0241318Y0247036D01*
X0264194Y0232034D02*
X02686D01*
X0264194Y0194632D02*
X0269088D01*
X0176198Y020838D02*
X0181092D01*
X0176198Y0200506D02*
X0181092D01*
X0211832Y0246994D02*
Y0251888D01*
X0211811Y0163945D02*
X0211832Y0163924D01*
X0235465Y01596D02*
Y0163934D01*
X0159Y02888D02*
Y03D01*
X0169Y02896D02*
Y03D01*
X0179Y02912D02*
Y03D01*
X017623Y0214317D02*
X0181124D01*
X0223685Y0163965D02*
Y0168859D01*
X0221675Y0158825D02*
Y0163924D01*
X0225602Y01588D02*
Y0163913D01*
X0192147Y0163924D02*
Y0168817D01*
X0191925Y0153325D02*
X019195Y01533D01*
X0191925Y0153325D02*
X01939D01*
X019195Y01533D02*
X0192D01*
X0221675Y0158825D02*
X0223Y01575D01*
X0224302D02*
X0225602Y01588D01*
X02384Y01572D02*
X0238444Y0157156D01*
X02414D01*
Y0163883D01*
X024136Y0163924D02*
X02414Y0163883D01*
Y0148688D02*
Y0151644D01*
X0241356Y0148644D02*
X02414Y0148688D01*
X0176273Y0188727D02*
X0181124D01*
X01762Y01888D02*
X0176273Y0188727D01*
X0180033Y0186758D02*
X0181124D01*
X0186458D01*
X01865Y02474D02*
X0187805D01*
X018821Y0246994D01*
X0225622Y0247036D02*
Y025343D01*
X022557Y0247036D02*
X0225622D01*
X0231507Y0240559D02*
Y0246984D01*
X0221612Y0246974D02*
X0221633Y0246953D01*
X0257838Y0200538D02*
X0264194D01*
X02578Y02005D02*
X0257838Y0200538D01*
X02157Y0151688D02*
X0215744Y0151644D01*
X02157Y01572D02*
X0215744Y0157156D01*
X02187D01*
X0223Y01575D02*
X0224302D01*
X0194019Y0156356D02*
X01985D01*
X0201544D01*
X0181124Y0198569D02*
X0181154Y01986D01*
X01862D01*
X0247265Y0158109D02*
Y0163924D01*
X0257108Y0158483D02*
Y0163924D01*
X02522Y01489D02*
Y0151644D01*
X0256125Y01575D02*
X0257108Y0158483D01*
X0271272Y0180853D02*
X0271325Y01808D01*
X0264194Y0202506D02*
X0268094D01*
X0269587Y0201013D01*
X0270613D01*
X0271425Y02002D02*
Y02002D01*
X0270613Y0201013D02*
X02714Y0200225D01*
X0264194Y0180853D02*
X0271325D01*
X0249234Y0242101D02*
Y0246994D01*
X0251202D02*
Y0253354D01*
X0250656Y02539D02*
X0251202Y0253354D01*
X0245144Y02539D02*
Y0257156D01*
X0259325Y0204475D02*
X0264194D01*
X0277156Y02043D02*
Y0207244D01*
X0274575Y02002D02*
X02764D01*
X02577Y02126D02*
Y02127D01*
X01187Y02738D02*
Y0281228D01*
X01287Y02738D02*
Y0281228D01*
X01387Y02738D02*
Y0281228D01*
X01487Y02738D02*
Y0281228D01*
X01187Y02638D02*
X01206Y02619D01*
Y0256072D02*
Y02619D01*
X01487Y02634D02*
X01496Y02643D01*
X01487Y0256143D02*
Y02634D01*
Y02638D01*
X01389Y02636D02*
X01396Y02643D01*
X01369Y0256343D02*
Y0262D01*
X01387Y02638D01*
X01366Y0256043D02*
X01369Y0256343D01*
X01447Y0256143D02*
X01487D01*
X01366Y0256043D02*
X01406D01*
X01286Y0256072D02*
X01326D01*
X01286Y02633D02*
X01296Y02643D01*
X01206Y0256072D02*
X01246D01*
X01286D02*
Y02633D01*
X01445Y02524D02*
X01447Y02526D01*
X01487Y0250472D02*
Y02526D01*
X01406Y0250372D02*
Y02525D01*
X01326Y02504D02*
Y0252528D01*
X01246Y02504D02*
Y0252528D01*
X01279Y0252647D02*
X01284Y0252147D01*
X0174688Y0202496D02*
X0181113D01*
X0194116Y0156691D02*
Y0163924D01*
X01939Y0156475D02*
X0194116Y0156691D01*
X0250656Y02539D02*
Y0257156D01*
X0189Y0288D02*
Y03D01*
X0179Y02912D02*
X01819Y02883D01*
X02718Y02426D02*
Y0245031D01*
X0271752Y0245079D02*
X02718Y0245031D01*
X0216043Y0267717D02*
X021811D01*
X0227358Y0267618D02*
X0227854D01*
X0250197Y0263484D02*
X0255139Y0258542D01*
Y0246994D02*
Y0258542D01*
X0248819Y0267618D02*
X0257185Y0259252D01*
Y0257185D02*
Y0259252D01*
X0214764Y0275492D02*
X0217717D01*
X0230217D02*
X0233661D01*
X0233858Y0267618D02*
X0248819D01*
X0344304Y0209506D02*
X0344346Y0209547D01*
X0350197D01*
X0322074Y0215999D02*
X0324453D01*
X0324508Y0215945D01*
X0321949Y0219892D02*
X0322172Y0219668D01*
Y0215802D02*
Y0219668D01*
X0316732Y0216043D02*
X0316776Y0215999D01*
X0318924D01*
X0332675Y0199505D02*
X0332677Y0199508D01*
X0323241Y0199505D02*
X0332675D01*
X0323198Y0188206D02*
Y0194462D01*
X0323241Y0194506D01*
X0322155Y0232185D02*
X0327953D01*
X0321949Y0232392D02*
X0322155Y0232185D01*
X0342421Y0237392D02*
X0347923D01*
X0347933Y0237402D01*
X0259002Y0234002D02*
X0264194D01*
Y0235971D02*
X0271871D01*
X0316781Y0222392D02*
X0321949D01*
X0316732Y0222441D02*
X0316781Y0222392D01*
D25*
X0266085Y0291986D02*
X0284413Y0273658D01*
X0275Y0285039D02*
X0285652Y0274387D01*
X0285Y0277008D02*
X0286891Y0275116D01*
X0265118Y02912D02*
X0283173Y0273145D01*
X0264865Y02897D02*
X0281934Y0272632D01*
X0264813Y0288D02*
X0280629Y0272184D01*
X0274508Y0270492D02*
X0279389Y0265611D01*
X0285Y0277008D02*
Y03D01*
X0275Y0285039D02*
Y03D01*
X0270374Y0264626D02*
Y0280686D01*
X0264544Y0286516D02*
X0270374Y0280686D01*
X0228584Y0286516D02*
X0264544D01*
X02385Y0288D02*
X0264813D01*
X02472Y02897D02*
X0264865D01*
X0257Y02912D02*
X0265118D01*
X0266085Y0291986D02*
Y0298915D01*
X0270374Y0264626D02*
X0274508Y0260492D01*
X0264194Y021038D02*
X0264404Y021059D01*
X0225Y02901D02*
X0228584Y0286516D01*
X0264194Y0190695D02*
X0268701D01*
X0259301Y0190695D02*
X0264194D01*
X0225Y02901D02*
Y03D01*
X0235Y02915D02*
X02385Y0288D01*
X0235Y02915D02*
Y03D01*
X0245Y02919D02*
X02472Y02897D01*
X0245Y02919D02*
Y03D01*
X0255Y02932D02*
X0257Y02912D01*
X0255Y02932D02*
Y03D01*
X0265D02*
X0266085Y0298915D01*
X0264194Y022416D02*
X0264235Y02242D01*
X0264194Y0188727D02*
X0269042D01*
X0270571Y0190256D01*
X0257801Y0188758D02*
X0264226D01*
X033703Y0224803D02*
X0342333D01*
X0342421Y0224892D01*
X0344326Y0204528D02*
X0351378D01*
X0344304Y0204505D02*
X0344326Y0204528D01*
X0268701Y0190695D02*
X0269501Y0191495D01*
X0332972Y0185728D02*
X033691Y0189665D01*
X0323241Y0204505D02*
X0323633Y0204898D01*
X0314301Y0227392D02*
X0321949D01*
X0314173Y0227264D02*
X0314301Y0227392D01*
X0323241Y0209506D02*
X0331588D01*
X0257801Y0192695D02*
X0264226D01*
X0334941Y0225886D02*
X0337106Y0228051D01*
Y0235138D01*
X0321949Y0237392D02*
X0334852D01*
X0337106Y0235138D01*
X0342471Y0234842D02*
X0347933D01*
X0342421Y0234892D02*
X0342471Y0234842D01*
X0342421Y0232392D02*
X034251Y023248D01*
X0347933D01*
X0314173Y0227264D02*
X0314189Y022728D01*
Y025959D01*
X0313248Y0260531D02*
X0314189Y025959D01*
X0321998Y0234941D02*
X0327953D01*
X0321949Y0234892D02*
X0321998Y0234941D01*
X0264194Y0196601D02*
X0285184D01*
X0269501Y0191495D02*
X028618D01*
X0285184Y0196601D02*
X0287008Y0198425D01*
Y0211122D01*
X028618Y0191495D02*
X0288484Y0193799D01*
Y0208366D01*
X0290118Y021D01*
X02955D01*
X0270571Y0190256D02*
X0303937D01*
X03055Y0191819D02*
Y02D01*
Y0191819D02*
X0311591Y0185728D01*
X0332972D01*
X0303937Y0190256D02*
X03055Y0191819D01*
X0307972Y020502D02*
X0315354Y0212402D01*
X0333957Y0227559D02*
Y0234252D01*
X0331588Y0209506D02*
X0333366Y0211283D01*
Y0226969D01*
X0333957Y0227559D01*
X0342421Y0219892D02*
X0347923D01*
X0347933Y0219882D01*
X033691Y0189665D02*
X035187D01*
X0354387Y0192183D01*
X0323633Y0204898D02*
X0331079D01*
X0334941Y020876D01*
Y0225886D01*
X0315354Y0212402D02*
X0330413D01*
X0331977Y0213965D01*
Y0232579D01*
X0341437Y021565D02*
X0341545Y0215758D01*
Y0219892D01*
X0288131Y0275532D02*
X0295Y0282402D01*
Y03D01*
X0264194Y0206443D02*
X0268451D01*
X0288131Y0226123D02*
Y0275532D01*
X0268451Y0206443D02*
X0288131Y0226123D01*
X0286891Y0226712D02*
Y0275116D01*
X0264404Y021059D02*
X0270769D01*
X0285652Y0227225D02*
Y0274387D01*
X0264194Y0212349D02*
X0270776D01*
X0270769Y021059D02*
X0286891Y0226712D01*
X0270776Y0212349D02*
X0285652Y0227225D01*
X0284413Y0227818D02*
Y0273658D01*
X0264194Y0214317D02*
X0270912D01*
X0283173Y0228369D02*
Y0273145D01*
X0264194Y0218254D02*
X0273058D01*
X0281934Y0228883D02*
Y0272632D01*
X0264194Y0220223D02*
X0273274D01*
X0270912Y0214317D02*
X0284413Y0227818D01*
X0273058Y0218254D02*
X0283173Y0228369D01*
X0273274Y0220223D02*
X0281934Y0228883D01*
X0264235Y02242D02*
X027548D01*
X0280629Y0229349D01*
Y0272184D01*
X0264194Y0230065D02*
X0276621D01*
X0279389Y0232834D01*
Y0265611D01*
X0287008Y0211122D02*
X0290453Y0214567D01*
X0300689D01*
Y0234842D01*
Y0214567D02*
X0305256Y021D01*
X03055D01*
X02955D02*
X030048Y020502D01*
X0307972D01*
X0354387Y0192183D02*
Y0210672D01*
X0351378Y0213681D02*
X0354387Y0210672D01*
X0351378Y0213681D02*
Y0224705D01*
D26*
X0175984Y012874D02*
X0183924Y01208D01*
X02784D01*
X0175984Y012874D02*
Y0137795D01*
X02867Y01291D02*
Y01375D01*
X02784Y01208D02*
X02867Y01291D01*
D27*
X0127559Y0165748D02*
X0130079Y0163228D01*
X0124052Y0165748D02*
X0127559D01*
X01222Y01676D02*
X0124052Y0165748D01*
X0129921Y0148425D02*
Y0152756D01*
X0150939Y0166339D02*
X01522Y01676D01*
X0147638Y0166339D02*
X0150939D01*
X0145079Y0163779D02*
X0147638Y0166339D01*
X0145079Y0152717D02*
Y0163779D01*
X0130079Y0152756D02*
Y0163228D01*
D28*
X0144882Y0152717D02*
X0145079Y0152913D01*
X0144882Y0148425D02*
Y0152717D01*
X01222Y0235433D02*
X0165748D01*
X011752D02*
X01222D01*
X0114764Y0238189D02*
X011752Y0235433D01*
X0187598Y0241831D02*
X0190331D01*
X01867Y02391D02*
Y0240761D01*
X0182185Y0245276D02*
X01867Y0240761D01*
X0132624Y0245276D02*
X0182185D01*
X0143209Y0232283D02*
X0163779D01*
X01422Y0231275D02*
X0143209Y0232283D01*
X01422Y02276D02*
Y0231275D01*
X0182579Y024685D02*
X0187598Y0241831D01*
X013855Y024685D02*
X0182579D01*
X0136827Y0289173D02*
X01387Y02873D01*
X0175643Y0235971D02*
X0181124D01*
X0169882Y0241732D02*
X0175643Y0235971D01*
X0125197Y0241732D02*
X0169882D01*
X0174758Y0234002D02*
X0181124D01*
X0168602Y0240158D02*
X0174758Y0234002D01*
X0124409Y0240158D02*
X0168602D01*
X0176234Y0230065D02*
X0181124D01*
X0175446Y0228097D02*
X0181124D01*
X01131Y0253829D02*
X0125197Y0241732D01*
X01114Y0253167D02*
X0124409Y0240158D01*
X01286Y02493D02*
X0132624Y0245276D01*
X01366Y02488D02*
X013855Y024685D01*
X0170425Y0248425D02*
X01748Y02528D01*
X0145275Y0248425D02*
X0170425D01*
X01447Y0249D02*
X0145275Y0248425D01*
X0172277Y0243307D02*
X0175677Y0239908D01*
X0126593Y0243307D02*
X0172277D01*
X01206Y02493D02*
X0126593Y0243307D01*
X0165748Y0235433D02*
X0175053Y0226128D01*
X0164961Y0233858D02*
X0174659Y022416D01*
X0133358Y0233858D02*
X0164961D01*
X01322Y02327D02*
X0133358Y0233858D01*
X0163779Y0232283D02*
X0173872Y0222191D01*
X0175053Y0226128D02*
X0181124D01*
X0174659Y022416D02*
X0181124D01*
X0173872Y0222191D02*
X0181124D01*
X0173084Y0220223D02*
X0181124D01*
X0165707Y02276D02*
X0173084Y0220223D01*
X01522Y02276D02*
X0165707D01*
X0264194Y0228097D02*
X0272082D01*
X0264194Y0226128D02*
X0269159D01*
X01287Y0284772D02*
Y02862D01*
X01274Y02875D02*
X01287Y02862D01*
X01487Y0284772D02*
Y02887D01*
X01387Y0284772D02*
Y02873D01*
X01286Y02493D02*
Y0252528D01*
X0185539Y0237939D02*
X01867Y02391D01*
X0181124Y0237939D02*
X0185539D01*
X0190331Y0241831D02*
X0192147Y0243647D01*
Y0246994D01*
X0188579Y02528D02*
X0190179Y02512D01*
Y0246994D02*
Y02512D01*
X01748Y02528D02*
X0188579D01*
X01206Y02493D02*
Y0252528D01*
X0175677Y0239908D02*
X0181124D01*
X01463Y02911D02*
X01487Y02887D01*
X01366Y02488D02*
Y02525D01*
X01447Y0249D02*
Y02526D01*
X01322Y02276D02*
Y02327D01*
X0121063Y0228737D02*
X01222Y02276D01*
Y0235433D01*
X0167717Y0238583D02*
X0176234Y0230065D01*
X0166535Y0237008D02*
X0175446Y0228097D01*
X0109565Y0252639D02*
X0123622Y0238583D01*
X0167717D01*
X0107874Y025187D02*
X0122736Y0237008D01*
X0166535D01*
X01131Y0253829D02*
Y0283179D01*
X0114693Y0284772D01*
X01187D01*
X0109565Y0252639D02*
Y0283187D01*
X0115551Y0289173D01*
X0136827D01*
X01114Y0253167D02*
Y0283313D01*
X0115587Y02875D01*
X01274D01*
X0107874Y025187D02*
Y0283465D01*
X0115509Y02911D01*
X01463D01*
X022126Y0275492D02*
X0226083D01*
X0221654Y0267717D02*
X022726D01*
X0227358Y0267618D01*
X0342421Y0229892D02*
X0347581D01*
X0347933Y0230244D01*
X0307776Y0227165D02*
Y0230315D01*
Y0227165D02*
X0310049Y0224892D01*
X0321949D01*
X0342421Y0222392D02*
X0347884D01*
X0347933Y0222342D01*
D29*
X0139764Y0152598D02*
X0140079Y0152913D01*
X0139764Y0148425D02*
Y0152598D01*
X0135079Y0148425D02*
Y0152913D01*
X0135039Y0148425D02*
X0135079Y0148465D01*
X0140079Y0164488D02*
X01422Y0166609D01*
Y01676D01*
X0140079Y0152913D02*
Y0164488D01*
X0135079Y0152913D02*
Y0164134D01*
X01322Y0167013D02*
X0135079Y0164134D01*
X01322Y0167013D02*
Y01676D01*
X0117421Y0223721D02*
X0122343D01*
X0114764Y0226378D02*
X0117421Y0223721D01*
X0114764Y0214567D02*
X0115631Y02137D01*
X0111221Y0237598D02*
X0113878Y0234941D01*
X0111221Y0225787D02*
X0113878Y022313D01*
X0111221Y0213976D02*
X0113878Y0211319D01*
X0111221Y0202165D02*
Y0202756D01*
Y0202165D02*
X0113878Y0199508D01*
Y0198819D02*
Y0199508D01*
X0115608Y02036D02*
X0122047D01*
X0114764Y0202756D02*
X0115608Y02036D01*
X0143317Y0211417D02*
X0153742D01*
X0168655Y0194632D02*
X0181124D01*
X0169049Y0192664D02*
X0181124D01*
X0154113Y02076D02*
X0169049Y0192664D01*
X01522Y02076D02*
X0154113D01*
X0209941Y0240647D02*
Y0240748D01*
X0209895Y0240601D02*
X0209941Y0240647D01*
X0158957Y0182677D02*
X0172348Y0169286D01*
X0133177Y0182677D02*
X0158957D01*
X01322Y01817D02*
X0133177Y0182677D01*
X0159941Y018376D02*
X0172691Y017101D01*
X012416Y018376D02*
X0159941D01*
X01222Y01818D02*
X012416Y018376D01*
X0142798Y0181398D02*
X0158661D01*
X01422Y01808D02*
X0142798Y0181398D01*
X0172348Y0169286D02*
X0187114D01*
X0189855Y0159055D02*
X0190179Y0159379D01*
X0156988Y0193799D02*
X0171903Y0178884D01*
X0123899Y0193799D02*
X0156988D01*
X01222Y01921D02*
X0123899Y0193799D01*
X0155709Y0202559D02*
X0173478Y018479D01*
X0133159Y0202559D02*
X0155709D01*
X01322Y02016D02*
X0133159Y0202559D01*
X0155118Y0201476D02*
X0173773Y0182821D01*
X0142876Y0201476D02*
X0155118D01*
X01422Y02008D02*
X0142876Y0201476D01*
X0173478Y018479D02*
X0181124D01*
X0173773Y0182821D02*
X0181124D01*
X0156102Y02125D02*
X0164128Y0204475D01*
X0133465Y02125D02*
X0156102D01*
X01322Y0211235D02*
X0133465Y02125D01*
X01322Y02076D02*
Y0211235D01*
X0164128Y0204475D02*
X0181124D01*
X01422Y02103D02*
X0143317Y0211417D01*
X0167379Y0223721D02*
X0172846Y0218254D01*
X0122343Y0223721D02*
X0167379D01*
X017525Y021038D02*
X0181124D01*
X016803Y02176D02*
X017525Y021038D01*
X01522Y02176D02*
X016803D01*
X0175053Y0212349D02*
X0181124D01*
X0165945Y0221457D02*
X0175053Y0212349D01*
X0166535Y0222539D02*
X0172789Y0216286D01*
X0133289Y0222539D02*
X0166535D01*
X01322Y022145D02*
X0133289Y0222539D01*
X0172789Y0216286D02*
X0181124D01*
X0133066Y0192717D02*
X0156102D01*
X01322Y019185D02*
X0133066Y0192717D01*
X0156102D02*
X0171903Y0176916D01*
X0181124D01*
X0155315Y0191535D02*
X0171903Y0174947D01*
X0142835Y0191535D02*
X0155315D01*
X0171903Y0174947D02*
X0181124D01*
X0115631Y02137D02*
X01572D01*
X0164457Y0206443D01*
X01422Y01909D02*
X0142835Y0191535D01*
X0190691Y0157809D02*
X01908Y01577D01*
X0169541Y0190695D02*
X0181124D01*
X0156636Y02036D02*
X0169541Y0190695D01*
X0122047Y02036D02*
X0156636D01*
X0174318Y01808D02*
X0181071D01*
X0157518Y01976D02*
X0174318Y01808D01*
X01522Y01976D02*
X0157518D01*
X0171903Y0178884D02*
X0181124D01*
X0172691Y017101D02*
X0181124D01*
X0172297Y0172979D02*
X0181124D01*
X0157676Y01876D02*
X0172297Y0172979D01*
X01522Y01876D02*
X0157676D01*
X01522Y01776D02*
X0160983D01*
X0264194Y0222254D02*
X0264215D01*
X02567Y02222D02*
X0256709Y0222191D01*
X0264194D01*
X0252921Y0172979D02*
X0264194D01*
X02494Y01765D02*
X0252921Y0172979D01*
X02523Y02301D02*
X02588D01*
X02494Y02272D02*
X02523Y02301D01*
X02709Y0170728D02*
X0270939Y017069D01*
X0264194Y017101D02*
X0271228D01*
X0257769Y0216286D02*
X0264194D01*
X0257769Y0176916D02*
X0264194D01*
X0259301Y0182821D02*
X0264194D01*
X0257801Y0184821D02*
X0264226D01*
X0259259Y0186717D02*
X0264153D01*
X0222659Y0199459D02*
X0231565Y0190554D01*
X0219659Y0163971D02*
Y0193559D01*
X0222659Y0196559D01*
Y0211341D02*
X0229549Y0218231D01*
Y0246994D01*
X0219706Y0217194D02*
X0222659Y0214241D01*
X0219706Y0217194D02*
Y0242101D01*
X0198063Y0170359D02*
X02105Y0182796D01*
Y0193224D01*
X0219712Y0202435D01*
X0198063Y0163934D02*
Y0170359D01*
X0251202Y0163924D02*
Y0170698D01*
X02347Y01872D02*
X0251202Y0170698D01*
X02347Y01872D02*
Y0193376D01*
X0225612Y0202465D02*
X02347Y0193376D01*
X0247234Y0240601D02*
Y0247026D01*
X02332Y0226567D02*
X0247234Y0240601D01*
X02332Y0215982D02*
Y0226567D01*
X0225583Y0208365D02*
X02332Y0215982D01*
X0204021Y0242101D02*
Y0247015D01*
X0205958Y0240601D02*
Y0247026D01*
X0209895Y0240601D02*
Y0247026D01*
X0213832Y0240601D02*
Y0247026D01*
X0215832Y0242101D02*
Y0247015D01*
X0217769Y0240601D02*
Y0247026D01*
X0233423Y0242101D02*
Y0247015D01*
X023936Y0240601D02*
Y0247026D01*
X0241402Y0242059D02*
Y0246953D01*
X0243297Y0240601D02*
Y0247026D01*
X0207895Y0242101D02*
Y0246994D01*
X0219706Y0242101D02*
Y0246994D01*
X0209822Y0247036D02*
X0209864Y0246994D01*
X021179Y0247036D02*
X0211801Y0247026D01*
X0213738Y0247015D02*
X0213759Y0247036D01*
X0215728D02*
X0215738Y0247026D01*
X0217696Y0247036D02*
X0217738Y0246994D01*
X0219665Y0247036D02*
X0219675Y0247026D01*
X0229507Y0247036D02*
X0229549Y0246994D01*
X0237423Y0242101D02*
Y0246994D01*
X0237381Y0247036D02*
X0237423Y0246994D01*
X023935Y0247036D02*
X023936Y0247026D01*
X0243287Y0247036D02*
X0243297Y0247026D01*
X0245297Y0242101D02*
Y0246994D01*
X0245255Y0247036D02*
X0245297Y0246994D01*
X0247224Y0247036D02*
X0247234Y0247026D01*
X0249234Y0163924D02*
X0249244Y0163934D01*
Y0170359D01*
X0245297Y0163924D02*
X0245307Y0163934D01*
Y0170359D01*
X0243307Y0163945D02*
X0243328Y0163924D01*
X0243307Y0163945D02*
Y0168859D01*
X0239391Y0163924D02*
X0239433Y0163965D01*
Y0168859D01*
X0237423Y0163924D02*
X0237433Y0163934D01*
Y0170359D01*
X0233486Y0163924D02*
X0233496Y0163934D01*
Y0170359D01*
X0229549Y0163924D02*
X0229559Y0163934D01*
Y0170359D01*
X022758Y0163924D02*
X0227622Y0163965D01*
Y0168859D01*
X0217738Y0163924D02*
X0217748Y0163934D01*
Y0170359D01*
X0215769Y0163924D02*
X0215811Y0163965D01*
Y0168859D01*
X0213801Y0163924D02*
X0213811Y0163934D01*
Y0170359D01*
X0209864Y0163924D02*
X0209874Y0163934D01*
Y0170359D01*
X0207895Y0163924D02*
X0207937Y0163965D01*
Y0168859D01*
X0205927Y0163924D02*
X0205937Y0163934D01*
Y0170359D01*
X0203937Y0163945D02*
X0203958Y0163924D01*
X0203937Y0163945D02*
Y0168859D01*
X020199Y0163924D02*
X0202Y0163934D01*
Y0170359D01*
X0200021Y0163924D02*
X0200063Y0163965D01*
Y0168859D01*
X0219659Y0163971D02*
X0219706Y0163924D01*
X0231459Y0163982D02*
X0231517Y0163924D01*
X0231565Y0163971D02*
Y0190554D01*
X0223602Y0246953D02*
X0223612Y0246963D01*
X0233423Y0242101D02*
X0233424Y02421D01*
X02339D01*
X0235423Y0240601D02*
X023545Y0240628D01*
Y0246999D01*
X0235413Y0247036D02*
X023545Y0246999D01*
X0227539Y0247036D02*
X0227549Y0247026D01*
Y0240601D02*
Y0247026D01*
X02494Y01765D02*
Y02272D01*
X0264194Y0198569D02*
X0264225Y01986D01*
X02627Y01984D02*
X0264194D01*
X025932Y0198569D02*
X0264194D01*
X01322Y02176D02*
Y022145D01*
X0172846Y0218254D02*
X0181124D01*
X01222Y02076D02*
Y0213547D01*
X01422Y02076D02*
Y02103D01*
X01322Y01976D02*
Y02016D01*
X0180228Y0180853D02*
X0181124D01*
X01422Y01976D02*
Y02008D01*
X0181071Y01808D02*
X0181124Y0180853D01*
X01222Y01876D02*
Y01921D01*
X01322Y01876D02*
Y019185D01*
X01422Y01876D02*
Y01909D01*
X0164457Y0206443D02*
X0181124D01*
X01222Y01776D02*
Y01818D01*
X01322Y01776D02*
Y01817D01*
X01422Y01776D02*
Y01808D01*
X0187114Y0169286D02*
X018821Y016819D01*
Y0163924D02*
Y016819D01*
X0190179Y0159379D02*
Y0163924D01*
X0196Y0164008D02*
Y01688D01*
Y0164008D02*
X0196084Y0163924D01*
X0160983Y01776D02*
X0180774Y0157809D01*
X0181004Y0159055D02*
X0189855D01*
X0180774Y0157809D02*
X0190691D01*
X01222Y01976D02*
Y0203447D01*
X0122047Y02036D02*
X01222Y0203447D01*
Y02176D02*
Y0223578D01*
X0122343Y0223721D01*
X0158661Y0181398D02*
X0181004Y0159055D01*
X0156496Y0206791D02*
X0168655Y0194632D01*
X0156496Y0206791D02*
Y0208663D01*
X0153742Y0211417D02*
X0156496Y0208663D01*
X01422Y02176D02*
Y0220547D01*
X014311Y0221457D01*
X0165945D01*
X0344304Y0194506D02*
X035018D01*
X0350197Y0194488D01*
X0321949Y0229892D02*
X032877D01*
X0329921Y022874D01*
Y0215059D02*
Y022874D01*
X0344304Y0199505D02*
X0344611Y0199198D01*
X0352348D01*
X0353248Y0200098D01*
Y0210025D01*
X0349789Y0213484D02*
X0353248Y0210025D01*
X0349789Y0213484D02*
Y0225576D01*
X0342421Y0227392D02*
X0347973D01*
X0349789Y0225576D01*
X01Y0094768D02*
X0101866D01*
X0100933D01*
Y0091969D01*
X0103266D02*
X0104199D01*
X0104665Y0092435D01*
Y0093368D01*
X0104199Y0093835D01*
X0103266D01*
X0102799Y0093368D01*
Y0092435D01*
X0103266Y0091969D01*
X0105598Y0091035D02*
Y0093835D01*
X0106998D01*
X0107464Y0093368D01*
Y0092435D01*
X0106998Y0091969D01*
X0105598D01*
D30*
X02187Y0157156D02*
X02236D01*
X02236Y0151644D02*
X0226044D01*
X02261Y01517D01*
X0215744Y0151644D02*
X02187D01*
X02522Y0155156D02*
Y0157156D01*
X0251881Y0157475D02*
X02522Y0157156D01*
X02468Y0157475D02*
X0251881D01*
X02579D01*
X02522Y0155156D02*
X0254756D01*
X0249644D02*
X02522D01*
X0271644Y01849D02*
Y0187889D01*
X0271325Y0184581D02*
X0271644Y01849D01*
X0277156D02*
Y0187889D01*
X0274475Y01808D02*
X0277464D01*
X0271949Y0204232D02*
Y0207176D01*
X02714Y0200225D02*
Y0204056D01*
X0271949Y0204232D01*
X0271325Y0180853D02*
Y0184581D01*
D31*
X0257776Y0274114D02*
D03*
X0163863Y0137833D02*
D03*
X0112205Y0114409D02*
D03*
X0175984Y0147795D02*
D03*
X0112205Y0124409D02*
D03*
X0175984Y0137795D02*
D03*
X0163863Y0147833D02*
D03*
X034813Y029252D02*
D03*
Y028252D02*
D03*
Y0265787D02*
D03*
Y0255787D02*
D03*
D32*
X0344661Y0181085D02*
D03*
D33*
X0356472Y01614D02*
D03*
D34*
X0332063D02*
D03*
D35*
X01187Y02638D02*
D03*
X01222Y01676D02*
D03*
X02967Y01375D02*
D03*
X0303248Y0260531D02*
D03*
D36*
X01187Y02738D02*
D03*
X01287Y02638D02*
D03*
Y02738D02*
D03*
X01387Y02638D02*
D03*
Y02738D02*
D03*
X01487Y02638D02*
D03*
Y02738D02*
D03*
X01587Y02638D02*
D03*
Y02738D02*
D03*
X01222Y02176D02*
D03*
Y02076D02*
D03*
Y01976D02*
D03*
Y01876D02*
D03*
Y01776D02*
D03*
X01322Y01676D02*
D03*
X01422D02*
D03*
X01522D02*
D03*
X0274508Y0270492D02*
D03*
Y0260492D02*
D03*
X01322Y01776D02*
D03*
Y01876D02*
D03*
Y01976D02*
D03*
Y02076D02*
D03*
Y02176D02*
D03*
X01522Y01776D02*
D03*
Y01876D02*
D03*
Y01976D02*
D03*
Y02076D02*
D03*
Y02176D02*
D03*
X01422Y01776D02*
D03*
Y01876D02*
D03*
Y01976D02*
D03*
Y02076D02*
D03*
Y02176D02*
D03*
X02767Y01375D02*
D03*
X02867D02*
D03*
X0323248Y0260531D02*
D03*
X0313248D02*
D03*
D37*
X01222Y02276D02*
D03*
X0274508Y0250492D02*
D03*
X01322Y02276D02*
D03*
X01522D02*
D03*
X01422D02*
D03*
D38*
X02955Y022D02*
D03*
X03055D02*
D03*
X02955Y021D02*
D03*
X03055D02*
D03*
X02955Y02D02*
D03*
X03055D02*
D03*
D39*
X0209Y03D02*
D03*
X0199D02*
D03*
X0189D02*
D03*
X0179D02*
D03*
X0169D02*
D03*
X0159D02*
D03*
X0149D02*
D03*
X0139D02*
D03*
X0129D02*
D03*
X0119D02*
D03*
X0295D02*
D03*
X0285D02*
D03*
X0275D02*
D03*
X0265D02*
D03*
X0255D02*
D03*
X0245D02*
D03*
X0235D02*
D03*
X0225D02*
D03*
X0245Y011D02*
D03*
X0255D02*
D03*
X0265D02*
D03*
X0275D02*
D03*
X0285D02*
D03*
X0295D02*
D03*
X0155D02*
D03*
X0165D02*
D03*
X0175D02*
D03*
X0185D02*
D03*
X0195D02*
D03*
X0205D02*
D03*
X0215D02*
D03*
X0225D02*
D03*
D40*
X036Y024D02*
D03*
D41*
X03327Y0117944D02*
D03*
Y0123456D02*
D03*
X0330732Y01207D02*
D03*
X0334668D02*
D03*
D42*
X0347399Y0215945D02*
D03*
X0130079Y0128661D02*
D03*
X0135079D02*
D03*
X0140079D02*
D03*
X0145079D02*
D03*
X0144882Y0139764D02*
D03*
X0139764D02*
D03*
X0135039D02*
D03*
X0129921D02*
D03*
X0144882Y0148425D02*
D03*
X0139764D02*
D03*
X0135039D02*
D03*
X0129921D02*
D03*
X0109744Y0231594D02*
D03*
Y0219783D02*
D03*
Y0207972D02*
D03*
Y0196161D02*
D03*
X0164061Y0201476D02*
D03*
X0170669Y0254134D02*
D03*
X0231496Y0206791D02*
D03*
X0209941Y0240748D02*
D03*
X0217913Y0252264D02*
D03*
X0198425Y014813D02*
D03*
X01908Y01577D02*
D03*
X02593Y01695D02*
D03*
X0259Y0219325D02*
D03*
X02216Y02397D02*
D03*
X02236Y02425D02*
D03*
X0320472Y0188206D02*
D03*
X02444Y015435D02*
D03*
X02603Y01543D02*
D03*
X02598Y01731D02*
D03*
X02769Y01703D02*
D03*
Y0175D02*
D03*
X02556Y02281D02*
D03*
X02385Y01983D02*
D03*
X0242D02*
D03*
X0244525Y0203975D02*
D03*
X02688Y0141219D02*
D03*
X0270844Y01456D02*
D03*
X02687Y01456D02*
D03*
X03392Y01271D02*
D03*
X02777Y02387D02*
D03*
X0272Y02361D02*
D03*
X02686Y0232D02*
D03*
X0277572Y02426D02*
D03*
X0332684Y0203058D02*
D03*
X0329072Y0188206D02*
D03*
X0269159Y0226128D02*
D03*
X0272082Y0228097D02*
D03*
X0269088Y0194632D02*
D03*
X0252Y02168D02*
D03*
X0257108Y0242101D02*
D03*
X0186049Y0232065D02*
D03*
X0257769Y0216286D02*
D03*
Y0176916D02*
D03*
X0259301Y0182821D02*
D03*
X0257801Y0188758D02*
D03*
Y0184821D02*
D03*
Y0208443D02*
D03*
X0259301Y0186821D02*
D03*
Y0190695D02*
D03*
X0257801Y0192695D02*
D03*
X0198063Y0170359D02*
D03*
X0211811Y0159031D02*
D03*
X0204021Y0242101D02*
D03*
X0205958Y0240601D02*
D03*
X0207895Y0242101D02*
D03*
X0219706D02*
D03*
X0217769Y0240601D02*
D03*
X0213832D02*
D03*
X0215832Y0242101D02*
D03*
X0235423Y0240601D02*
D03*
X0237423Y0242101D02*
D03*
X023936Y0240601D02*
D03*
X0243297D02*
D03*
X0241297Y0242101D02*
D03*
X0245297D02*
D03*
X0203318Y0209618D02*
D03*
Y0201418D02*
D03*
X0206818D02*
D03*
X0211832Y0251888D02*
D03*
X0174688Y0202496D02*
D03*
X0259Y0234D02*
D03*
X0233496Y0170359D02*
D03*
X0237433D02*
D03*
X0239433Y0168859D02*
D03*
X0249244Y0170359D02*
D03*
X0245307D02*
D03*
X0243307Y0168859D02*
D03*
X0215811D02*
D03*
X0213811Y0170359D02*
D03*
X0217748D02*
D03*
X0209874D02*
D03*
X0207937Y0168859D02*
D03*
X0231459Y0204059D02*
D03*
X0222659Y0196559D02*
D03*
Y0199459D02*
D03*
X0222635Y0211288D02*
D03*
X0222659Y0214241D02*
D03*
X0213859Y0206759D02*
D03*
X0225612Y0202465D02*
D03*
X0219712Y0202435D02*
D03*
X0225583Y0208365D02*
D03*
X0200063Y0168859D02*
D03*
X0202Y0170359D02*
D03*
X0205937D02*
D03*
X0203937Y0168859D02*
D03*
X0213859Y0204059D02*
D03*
X0229559Y0170359D02*
D03*
X0227622Y0168859D02*
D03*
X0223685D02*
D03*
X0192147Y0168817D02*
D03*
X0192Y01533D02*
D03*
X02384Y01572D02*
D03*
X0241356Y0148644D02*
D03*
X01862Y01893D02*
D03*
Y0196219D02*
D03*
X0225622Y0253625D02*
D03*
X01865Y02474D02*
D03*
X01948Y02421D02*
D03*
X02314Y02558D02*
D03*
X0233424Y02421D02*
D03*
X0198Y02517D02*
D03*
X0231525Y0251465D02*
D03*
X0227549Y0240601D02*
D03*
X0234675Y0253475D02*
D03*
X02588Y02301D02*
D03*
X02578Y02005D02*
D03*
X0245719Y02005D02*
D03*
X02691Y02222D02*
D03*
X02157Y0151688D02*
D03*
Y01572D02*
D03*
X0201544Y0156356D02*
D03*
X02261Y01517D02*
D03*
X019Y02127D02*
D03*
X01897Y0207125D02*
D03*
X01862Y0184419D02*
D03*
Y0186758D02*
D03*
Y02011D02*
D03*
Y01986D02*
D03*
X0254756Y0155156D02*
D03*
X0249644D02*
D03*
X0235465Y01596D02*
D03*
X02522Y01489D02*
D03*
X0271644Y0187889D02*
D03*
X0277156D02*
D03*
X0277464Y01808D02*
D03*
X025932Y0198569D02*
D03*
X0271949Y0207176D02*
D03*
X0249234Y0242101D02*
D03*
X0245144Y0257156D02*
D03*
X0259325Y0204475D02*
D03*
X0277156Y0207244D02*
D03*
X02764Y02002D02*
D03*
X02577Y02127D02*
D03*
X0246225Y0236175D02*
D03*
X01406Y0250372D02*
D03*
X01326Y02504D02*
D03*
X01246D02*
D03*
X01487Y0250472D02*
D03*
X01747Y01985D02*
D03*
X0196Y01688D02*
D03*
X0250656Y0257156D02*
D03*
X025145Y02341D02*
D03*
X0271752Y0245079D02*
D03*
X026309Y0252854D02*
D03*
X0257185Y0257185D02*
D03*
X0216043Y0267717D02*
D03*
X0268504Y026811D02*
D03*
X0265945Y0273425D02*
D03*
X0214764Y0275492D02*
D03*
X0233661D02*
D03*
X0350197Y0209547D02*
D03*
Y0194488D02*
D03*
X0324508Y0215945D02*
D03*
X0316732Y0216043D02*
D03*
X0332677Y0199508D02*
D03*
X0351476Y0201181D02*
D03*
X0351378Y0204528D02*
D03*
X033703Y0224803D02*
D03*
X0327953Y0232185D02*
D03*
X0347933Y0234842D02*
D03*
Y023248D02*
D03*
Y0229921D02*
D03*
X0314173Y0227264D02*
D03*
X0347933Y0237402D02*
D03*
X0333957Y0234941D02*
D03*
X02776Y02336D02*
D03*
X0307776Y0230315D02*
D03*
X0332Y0232382D02*
D03*
X0327953Y0234941D02*
D03*
X0300689Y0234842D02*
D03*
X0347933Y0222342D02*
D03*
X0329921Y0215059D02*
D03*
X0347933Y0219882D02*
D03*
X0316732Y0222441D02*
D03*
X0351378Y0224705D02*
D03*
D43*
X0348721Y0164764D02*
D03*
X0342224Y0164665D02*
D03*
X0348425Y0172638D02*
D03*
X0342224Y0172539D02*
D03*
X02688Y01327D02*
D03*
X02819Y01456D02*
D03*
X02556Y01364D02*
D03*
X0295625Y01454D02*
D03*
X02372Y01326D02*
D03*
X02348Y01402D02*
D03*
D44*
X0231507Y0240559D02*
D03*
X02236Y02518D02*
D03*
X02567Y02222D02*
D03*
X017623Y0214317D02*
D03*
X0176198Y020838D02*
D03*
X01762Y01888D02*
D03*
X0198Y02422D02*
D03*
X0176198Y0200506D02*
D03*
D45*
X0306815Y0170855D02*
D03*
X0360701Y0136199D02*
D03*
X03138Y01451D02*
D03*
M02*
