M48
;Layer_Color=9474304
;FILE_FORMAT=2:5
INCH,LZ
;TYPE=PLATED
T1F00S00C0.01000
T2F00S00C0.01600
T3F00S00C0.02800
T4F00S00C0.03400
T5F00S00C0.03543
T6F00S00C0.03550
T7F00S00C0.03800
T9F00S00C0.12600
%
T01
X0130079Y0128661
X0135079
X0140079
X0145079
X0144882Y0139764
X0139764
X0135039
X0129921
Y0148425
X0135039
X0139764
X0144882
X0192Y01533
X0198425Y014813
X02157Y0151688
X02261Y01517
X024047Y0148841
X02444Y015435
X0249644Y0155156
X0254756
X02603Y01543
X02522Y01489
X02687Y01456
X0270844Y01456
X02688Y0141219
X03327Y0123456
X0334668Y01207
X0330732
X03327Y0117944
X03392Y01271
X0329072Y0188206
X0320472
X0332677Y0199508
X0332684Y0203058
X0328346Y0216535
X0324508Y0215945
X0316732Y0216043
X0316732Y0222441
X0316634Y0227165
X0327953Y0232185
X0330709Y0234941
X0347933Y0234842
Y0237402
Y0229921
Y0222342
Y0219882
X0347399Y0215945
X0350197Y0209547
X0351378Y0204528
X0351476Y0201181
X0350197Y0194488
X0333957Y0279134
X0335531Y0286713
X0325492Y0284154
X0323917Y0281594
X0327362Y0276378
X0322146Y0273917
X0317224Y0268799
Y026624
X0317323Y0263681
X0312205Y0259252
X029498Y0261122
X029498Y0271358
X0285138Y0268799
X0268012Y0268209
X0265945Y0273425
X0254035Y0273819
X024498Y0272638
X0242925Y0271076
X0245276Y0261122
X0242618Y0253346
X0248228Y0253445
X0255118Y0251673
X0257395Y0255327
X0257972Y0260433
X026309Y0252854
X0260531Y0247736
X0257108Y0242101
X025315Y0242126
X0249234Y0242101
X0245297
X0243297Y0240601
X0241297Y0242101
X023936Y0240601
X0237423Y0242101
X0235423Y0240601
X0233424Y02421
X0231507Y0240559
X0227549Y0240601
X02236Y02425
X0219706Y0242101
X0217769Y0240601
X0215832Y0242101
X0213832Y0240601
X0209941Y0240748
X0207895Y0242101
X0205958Y0240601
X0204021Y0242101
X0198Y02422
X01948Y02421
X0198Y02517
X0211832Y0251888
X0217913Y0252264
X02236Y02518
X0225622Y0253625
X02314Y02558
X0231525Y0251465
X0234646Y025187
X0223425Y0261122
X0216043Y0267717
X0215748Y0275492
X0219685Y0286024
X0217421Y0289173
X0201969Y0279035
X02Y0277362
X0196063Y0269587
X0194177Y0266027
X0209646Y0259646
X02216Y02397
X0222659Y0214241
X0222635Y0211288
X0225583Y0208365
X0225612Y0202465
X0219712Y0202435
X0222659Y0199459
Y0196559
X0213859Y0204059
Y0206759
X0206818Y0201418
X0203318
Y0209618
X01897Y0207125
X019Y02127
X017623Y0214317
X0176198Y020838
X0174688Y0202496
X0176198Y0200506
X01747Y01985
X01762Y01888
X01862Y01893
Y0186758
Y0184419
Y0196219
Y01986
Y02011
X0164061Y0201476
X0186049Y0232065
X01865Y02474
X0170669Y0254134
X0232677Y0274803
X024311Y0289272
X0258366Y0290256
X0282087Y0288976
X0282185Y0285827
X0278642Y0281594
X0295177Y0286811
X0307579Y0289272
X0307776Y0230315
X0277559Y0233563
X02777Y02387
X0277572Y02426
X026939Y024252
X0269488Y0234055
X02686Y0232
X0269159Y0226128
X02691Y02222
X0269094Y0219291
X0272082Y0228097
X0272Y02361
X0256594Y0237008
X0249375Y0236175
X0243652Y0233908
X02556Y02281
X0258084Y0230118
X0259055Y02222
X0254626Y0220276
X0252756Y0218209
X0257769Y0216286
X02577Y02127
X0257801Y0208443
X0259325Y0204475
X02578Y02005
X025932Y0198569
X0257801Y0192695
X0259301Y0186821
X0257801Y0184821
X0259301Y0182821
X0257769Y0176916
X02598Y01731
X02593Y01695
X0249244Y0170359
X0245307
X0243307Y0168859
X0239433
X0237433Y0170359
X0233496
X0229559
X0227622Y0168859
X0223685
X0217748Y0170359
X0215811Y0168859
X0213811Y0170359
X0209874
X0207937Y0168859
X0205937Y0170359
X0203937Y0168859
X0202Y0170359
X0200063Y0168859
X0198063Y0170359
X0196Y01688
X0192147Y0168817
X01908Y01577
X0201544Y0156356
X0211811Y0159031
X02157Y01572
X0235465Y01596
X02384Y01572
X02385Y01983
X0242
X0245719Y02005
X0244525Y0203975
X0231459Y0204059
X0231496Y0206791
X0245276Y0216929
X0279429Y0215453
X0277156Y0207244
X0271949Y0207176
X02764Y02002
X0269088Y0194632
X0271644Y0187889
X0277156
X0277464Y01808
X02769Y0175
X0278051Y0172539
X02769Y01703
X0283366Y0248917
X0281102Y0251969
X01487Y0250472
X01406Y0250372
X01326Y02504
X01246
X0109744Y0231594
Y0219783
Y0207972
Y0196161
T02
X02372Y01326
X02348Y01402
X02556Y01364
X02688Y01327
X02819Y01456
X0295625Y01454
X033937Y0163779
X0345866Y0163878
X0345571Y0171752
X033937Y0171653
T03
X03138Y01451
X0360701Y0136199
X028937Y0170866
T04
X0155Y011
X0165
X0175
X0185
X0195
X0205
X0215
X0225
X0245
X0255
X0265
X0275
X0285
X0295
Y03
X0285
X0275
X0265
X0255
X0245
X0235
X0225
X0209
X0199
X0189
X0179
X0169
X0159
X0149
X0139
X0129
X0119
T05
X02767Y01375
X02867
X02967
X0301634Y0239173
X0291634
X0311634
X0273524Y0250886
Y0260886
Y0270886
X01587Y02738
Y02638
X01487
Y02738
X01387
Y02638
X01287
Y02738
X01187
Y02638
X01222Y02276
X01322
X01422
Y02176
Y02076
Y01976
Y01876
Y01776
X01522
Y01876
Y01976
Y02076
Y02176
Y02276
X01322Y02176
Y02076
Y01976
Y01876
Y01776
Y01676
X01222
Y01776
Y01876
Y01976
Y02076
Y02176
X01422Y01676
X01522
T06
X0112205Y0114409
Y0124409
X0163863Y0137833
Y0147833
X0175984Y0147795
Y0137795
X0313583Y0189173
X036Y0205
X034813Y0255787
Y0265787
Y028252
Y029252
X0260531Y0271358
X0289469Y0183169
T07
X0295394Y0199941
X0305394
Y0209941
X0295394
Y0219941
X0305394
T09
X036Y024
M30
