M48
;Layer_Color=9474304
;FILE_FORMAT=2:5
INCH,LZ
;TYPE=PLATED
T1F00S00C0.01000
T2F00S00C0.01600
T3F00S00C0.02800
T4F00S00C0.03400
T5F00S00C0.03543
T6F00S00C0.03550
T7F00S00C0.03800
T9F00S00C0.12600
%
T01
X0192Y01533
X0198425Y014813
X02157Y0151688
X02261Y01517
X0241356Y0148644
X02444Y015435
X0249644Y0155156
X0254756
X02603Y01543
X02522Y01489
X02687Y01456
X0270844Y01456
X02688Y0141219
X03327Y0123456
X0330732Y01207
X0334668
X03327Y0117944
X03392Y01271
X03293Y02011
Y0211
Y02161
X03297Y022
X033Y02273
X03189Y02277
Y02352
Y02402
X03282Y02428
X0327Y02465
X03179Y02039
X03086
Y01948
X03
X02977Y02065
Y02111
X02976Y02159
X02983Y02222
X02939Y02243
X03063Y02222
X03081Y02277
Y02303
Y02353
Y02378
Y02428
X02955Y02402
X02777Y02387
X0277572Y02426
X02776Y02336
X0272Y02361
X02686Y0232
X0269159Y0226128
X02691Y02222
X0272082Y0228097
X02588Y02301
X0259Y0234
X025145Y02341
X0246225Y0236175
X0245297Y0242101
X0243297Y0240601
X0241297Y0242101
X023936Y0240601
X0237423Y0242101
X0235423Y0240601
X0233424Y02421
X0231507Y0240559
X0227549Y0240601
X02236Y02425
X0219706Y0242101
X0217769Y0240601
X0215832Y0242101
X0213832Y0240601
X0209941Y0240748
X0207895Y0242101
X0205958Y0240601
X0204021Y0242101
X0198Y02422
X01948Y02421
X0198Y02517
X0211832Y0251888
X0217913Y0252264
X02236Y02518
X0225622Y0253625
X02314Y02558
X0231525Y0251465
X0234675Y0253475
X0245144Y0257156
X0250656
X0249234Y0242101
X0257108
X02556Y02281
X02567Y02222
X0259Y0219325
X0257769Y0216286
X02577Y02127
X0257801Y0208443
X0259325Y0204475
X02578Y02005
X025932Y0198569
X0257801Y0192695
X0259301Y0190695
X0257801Y0188758
X0259301Y0186821
X0257801Y0184821
X0259301Y0182821
X0257769Y0176916
X02598Y01731
X02593Y01695
X0249244Y0170359
X0245307
X0243307Y0168859
X0239433
X0237433Y0170359
X0233496
X0229559
X0227622Y0168859
X0223685
X0217748Y0170359
X0215811Y0168859
X0213811Y0170359
X0209874
X0207937Y0168859
X0205937Y0170359
X0203937Y0168859
X0202Y0170359
X0200063Y0168859
X0198063Y0170359
X0196Y01688
X0192147Y0168817
X01908Y01577
X0201544Y0156356
X0211811Y0159031
X02157Y01572
X0235465Y01596
X02384Y01572
X02385Y01983
X0242
X0245719Y02005
X0244525Y0203975
X0231459Y0204059
X0231496Y0206791
X0225583Y0208365
X0222635Y0211288
X0222659Y0214241
X0225612Y0202465
X0219712Y0202435
X0222659Y0199459
Y0196559
X0213859Y0204059
Y0206759
X0206818Y0201418
X0203318
Y0209618
X01897Y0207125
X019Y02127
X017623Y0214317
X0176198Y020838
X0174688Y0202496
X0176198Y0200506
X01747Y01985
X01762Y01888
X01862Y01893
Y0186758
Y0184419
Y0196219
Y01986
Y02011
X0186049Y0232065
X01865Y02474
X02216Y02397
X0252Y02168
X0271644Y0207244
X0277156Y0207244
X02764Y02002
X0269088Y0194632
X0271644Y0187889
X0277156
X0277464Y01808
X02769Y0175
Y01703
X01487Y0250472
X01406Y0250372
X01326Y02504
X01246
T02
X02372Y01326
X02348Y01402
X02556Y01364
X02688Y01327
X02819Y01456
X0295625Y01454
T03
X03138Y01451
X0360701Y0136199
X0306815Y0170855
T04
X0155Y011
X0165
X0175
X0185
X0195
X0205
X0215
X0225
X0245
X0255
X0265
X0275
X0285
X0295
Y03
X0285
X0275
X0265
X0255
X0245
X0235
X0225
X0209
X0199
X0189
X0179
X0169
X0159
X0149
X0139
X0129
X0119
T05
X0122047Y013209
Y014209
X0132047
Y013209
X0142047
Y014209
X0152047
Y013209
X0162047
Y014209
X0172047
Y013209
X0182047
Y014209
X0192047
Y013209
X0202047
Y014209
X0212047
Y013209
X02767Y01375
X02867
X02967
X03135Y02673
X03235
X03035
X01587Y02638
Y02738
X01487
X01387
X01287
X01187
Y02638
X01287
X01387
X01487
T06
X01222Y01576
Y01676
Y01776
Y01876
X01322
X01422
Y01976
X01322
X01222
Y02076
Y02176
X01322
X01422
Y02276
X01322
X01222
X01522
Y02176
Y02076
Y01976
Y01876
Y01776
X01422
X01322
Y01676
Y01576
X01422
X01522
Y01676
X01422
Y02076
X01322
T07
X0345Y0195
Y0205
Y0215
X0355
Y0205
Y0195
T09
X036Y024
M30
