M48
;Layer_Color=9474304
;FILE_FORMAT=2:3
INCH,LZ
;TYPE=PLATED
T1F00S00C0.010
T2F00S00C0.016
T3F00S00C0.028
T4F00S00C0.034
T5F00S00C0.035
T6F00S00C0.036
T7F00S00C0.038
T9F00S00C0.126
%
T01
X0192Y01533
X01985Y01485
X02157Y01517
X02261Y01517
X02414Y01486
X02444Y01544
X02496Y01552
X02548
X02603Y01543
X02522Y01489
X02687Y01456
X02708Y01456
X02688Y01412
X03327Y01235
X03307Y01207
X03347
X03327Y01179
X03392Y01271
X03293Y02011
Y0211
Y02161
X03297Y022
X033Y02273
X03189Y02277
Y02352
Y02402
X03282Y02428
X0327Y02465
X03179Y02039
X03086
Y01948
X03
X02977Y02065
Y02111
X02976Y02159
X02983Y02222
X02939Y02243
X03063Y02222
X03081Y02277
Y02303
Y02353
Y02378
Y02428
X02955Y02402
X02777Y02387
X02776Y02426
X02776Y02336
X0272Y02361
X02686Y0232
X02692Y02261
X02691Y02222
X02721Y02281
X02588Y02301
X0259Y0234
X02514Y02341
X02462Y02362
X02453Y02421
X02433Y02406
X02413Y02421
X02394Y02406
X02374Y02421
X02354Y02406
X02334Y02421
X02315Y02406
X02275Y02406
X02236Y02425
X02197Y02421
X02178Y02406
X02158Y02421
X02138Y02406
X02099
X02079Y02421
X0206Y02406
X0204Y02421
X0198Y02422
X01948Y02421
X0198Y02517
X02118Y02519
X02179Y02519
X02236Y02518
X02256Y02536
X02314Y02558
X02315Y02515
X02347Y02535
X02451Y02572
X02507
X02492Y02421
X02571
X02556Y02281
X02567Y02222
X0259Y02193
X02578Y02163
X02577Y02127
X02578Y02084
X02593Y02045
X02578Y02005
X02593Y01986
X02578Y01927
X02593Y01907
X02578Y01888
X02593Y01868
X02578Y01848
X02593Y01828
X02578Y01769
X02598Y01731
X02593Y01695
X02492Y01704
X02453
X02433Y01689
X02394
X02374Y01704
X02335
X02296
X02276Y01689
X02237
X02177Y01704
X02158Y01689
X02138Y01704
X02099
X02079Y01689
X02059Y01704
X02039Y01689
X0202Y01704
X02001Y01689
X01981Y01704
X0196Y01688
X01921Y01688
X01908Y01577
X02015Y01564
X02118Y0159
X02157Y01572
X02355Y01596
X02384Y01572
X02385Y01983
X0242
X02457Y02005
X02445Y0204
X02315Y02041
Y02069
X02256Y02084
X02226Y02113
X02227Y02142
X02256Y02025
X02197Y02024
X02227Y01995
Y01966
X02139Y02041
Y02068
X02068Y02014
X02033
Y02096
X01897Y02071
X019Y02127
X01762Y02143
X01762Y02084
X01747Y02025
X01762Y02005
X01747Y01985
X01762Y01888
X01862Y01893
Y01868
Y01844
Y01962
Y01986
Y02011
X0186Y02321
X01865Y02474
X02216Y02397
X0252Y02168
X02716Y02072
X02772Y02072
X02764Y02002
X02691Y01946
X02716Y01879
X02772
X02775Y01808
X02769Y0175
Y01703
X01487Y02505
X01406Y02504
X01326Y02504
X01246
T02
X02372Y01326
X02348Y01402
X02556Y01364
X02688Y01327
X02819Y01456
X02956Y01454
T03
X03138Y01451
X03607Y01362
X03068Y01709
T04
X0155Y011
X0165
X0175
X0185
X0195
X0205
X0215
X0225
X0245
X0255
X0265
X0275
X0285
X0295
Y03
X0285
X0275
X0265
X0255
X0245
X0235
X0225
X0209
X0199
X0189
X0179
X0169
X0159
X0149
X0139
X0129
X0119
T05
X0122Y01321
Y01421
X0132
Y01321
X0142
Y01421
X0152
Y01321
X0162
Y01421
X0172
Y01321
X0182
Y01421
X0192
Y01321
X0202
Y01421
X0212
Y01321
X02767Y01375
X02867
X02967
X03135Y02673
X03235
X03035
X01587Y02638
Y02738
X01487
X01387
X01287
X01187
Y02638
X01287
X01387
X01487
T06
X01222Y01576
Y01676
Y01776
Y01876
X01322
X01422
Y01976
X01322
X01222
Y02076
Y02176
X01322
X01422
Y02276
X01322
X01222
X01522
Y02176
Y02076
Y01976
Y01876
Y01776
X01422
X01322
Y01676
Y01576
X01422
X01522
Y01676
X01422
Y02076
X01322
T07
X0345Y0195
Y0205
Y0215
X0355
Y0205
Y0195
T09
X036Y024
M30
